solid ascii
  facet normal -5.547002e-001 0.000000e+000 8.320503e-001
    outer loop
      vertex   -8.336076e+001 1.029041e+002 3.911121e+001
      vertex   -7.422759e+001 1.029041e+002 4.520000e+001
      vertex   -8.336076e+001 1.419041e+002 3.911121e+001
    endloop
  endfacet
  facet normal -5.547002e-001 0.000000e+000 8.320503e-001
    outer loop
      vertex   -8.336076e+001 1.419041e+002 3.911121e+001
      vertex   -7.422759e+001 1.029041e+002 4.520000e+001
      vertex   -7.422759e+001 1.419041e+002 4.520000e+001
    endloop
  endfacet
  facet normal -1.000000e+000 0.000000e+000 -4.579467e-016
    outer loop
      vertex   -8.336076e+001 1.029041e+002 8.079534e+000
      vertex   -8.336076e+001 1.029041e+002 3.911121e+001
      vertex   -8.336076e+001 1.419041e+002 8.079534e+000
    endloop
  endfacet
  facet normal -1.000000e+000 0.000000e+000 -4.579467e-016
    outer loop
      vertex   -8.336076e+001 1.419041e+002 8.079534e+000
      vertex   -8.336076e+001 1.029041e+002 3.911121e+001
      vertex   -8.336076e+001 1.419041e+002 3.911121e+001
    endloop
  endfacet
  facet normal -2.708031e-016 0.000000e+000 1.000000e+000
    outer loop
      vertex   -7.422759e+001 1.029041e+002 4.520000e+001
      vertex   4.487469e+000 1.029041e+002 4.520000e+001
      vertex   -7.422759e+001 1.419041e+002 4.520000e+001
    endloop
  endfacet
  facet normal -2.708031e-016 0.000000e+000 1.000000e+000
    outer loop
      vertex   -7.422759e+001 1.419041e+002 4.520000e+001
      vertex   4.487469e+000 1.029041e+002 4.520000e+001
      vertex   4.487469e+000 1.419041e+002 4.520000e+001
    endloop
  endfacet
  facet normal 7.071068e-001 0.000000e+000 7.071068e-001
    outer loop
      vertex   4.487469e+000 1.029041e+002 4.520000e+001
      vertex   1.871153e+001 1.029041e+002 3.097594e+001
      vertex   4.487469e+000 1.419041e+002 4.520000e+001
    endloop
  endfacet
  facet normal 7.071068e-001 0.000000e+000 7.071068e-001
    outer loop
      vertex   4.487469e+000 1.419041e+002 4.520000e+001
      vertex   1.871153e+001 1.029041e+002 3.097594e+001
      vertex   1.871153e+001 1.419041e+002 3.097594e+001
    endloop
  endfacet
  facet normal 1.000000e+000 0.000000e+000 2.935244e-016
    outer loop
      vertex   1.871153e+001 1.029041e+002 3.097594e+001
      vertex   1.871153e+001 1.029041e+002 6.768661e+000
      vertex   1.871153e+001 1.419041e+002 3.097594e+001
    endloop
  endfacet
  facet normal 1.000000e+000 0.000000e+000 2.935244e-016
    outer loop
      vertex   1.871153e+001 1.419041e+002 3.097594e+001
      vertex   1.871153e+001 1.029041e+002 6.768661e+000
      vertex   1.871153e+001 1.419041e+002 6.768661e+000
    endloop
  endfacet
  facet normal 5.547002e-001 0.000000e+000 -8.320503e-001
    outer loop
      vertex   1.871153e+001 1.419041e+002 6.768661e+000
      vertex   1.871153e+001 1.029041e+002 6.768661e+000
      vertex   8.558536e+000 1.419041e+002 0.000000e+000
    endloop
  endfacet
  facet normal 5.547002e-001 0.000000e+000 -8.320503e-001
    outer loop
      vertex   8.558536e+000 1.419041e+002 0.000000e+000
      vertex   1.871153e+001 1.029041e+002 6.768661e+000
      vertex   8.558536e+000 1.950408e+001 0.000000e+000
    endloop
  endfacet
  facet normal 5.547002e-001 -4.438493e-017 -8.320503e-001
    outer loop
      vertex   8.558536e+000 1.950408e+001 0.000000e+000
      vertex   1.871153e+001 1.029041e+002 6.768661e+000
      vertex   1.871153e+001 5.850408e+001 6.768661e+000
    endloop
  endfacet
  facet normal 5.547002e-001 0.000000e+000 -8.320503e-001
    outer loop
      vertex   1.871153e+001 1.950408e+001 6.768661e+000
      vertex   8.558536e+000 1.950408e+001 0.000000e+000
      vertex   1.871153e+001 5.850408e+001 6.768661e+000
    endloop
  endfacet
  facet normal 5.547002e-001 -4.120732e-017 -8.320503e-001
    outer loop
      vertex   1.871153e+001 1.029041e+002 6.768661e+000
      vertex   2.355854e+001 1.029041e+002 1.000000e+001
      vertex   1.871153e+001 5.850408e+001 6.768661e+000
    endloop
  endfacet
  facet normal 5.547002e-001 5.548116e-017 -8.320503e-001
    outer loop
      vertex   1.871153e+001 5.850408e+001 6.768661e+000
      vertex   2.355854e+001 1.029041e+002 1.000000e+001
      vertex   2.355854e+001 5.850408e+001 1.000000e+001
    endloop
  endfacet
  facet normal 1.000000e+000 4.000804e-016 -1.070094e-016
    outer loop
      vertex   2.355854e+001 1.029041e+002 1.000000e+001
      vertex   2.355854e+001 1.029041e+002 4.320000e+001
      vertex   2.355854e+001 5.850408e+001 1.000000e+001
    endloop
  endfacet
  facet normal 1.000000e+000 3.200643e-016 0.000000e+000
    outer loop
      vertex   2.355854e+001 5.850408e+001 1.000000e+001
      vertex   2.355854e+001 1.029041e+002 4.320000e+001
      vertex   2.355854e+001 5.850408e+001 4.320000e+001
    endloop
  endfacet
  facet normal 0.000000e+000 0.000000e+000 1.000000e+000
    outer loop
      vertex   1.355854e+001 1.029041e+002 5.320000e+001
      vertex   -7.124146e+001 1.029041e+002 5.320000e+001
      vertex   1.355854e+001 5.850408e+001 5.320000e+001
    endloop
  endfacet
  facet normal 0.000000e+000 0.000000e+000 1.000000e+000
    outer loop
      vertex   1.355854e+001 5.850408e+001 5.320000e+001
      vertex   -7.124146e+001 1.029041e+002 5.320000e+001
      vertex   -7.124146e+001 5.850408e+001 5.320000e+001
    endloop
  endfacet
  facet normal -5.547002e-001 0.000000e+000 8.320503e-001
    outer loop
      vertex   -7.124146e+001 1.029041e+002 5.320000e+001
      vertex   -8.624146e+001 1.029041e+002 4.320000e+001
      vertex   -7.124146e+001 5.850408e+001 5.320000e+001
    endloop
  endfacet
  facet normal -5.547002e-001 -1.775397e-016 8.320503e-001
    outer loop
      vertex   -7.124146e+001 5.850408e+001 5.320000e+001
      vertex   -8.624146e+001 1.029041e+002 4.320000e+001
      vertex   -8.624146e+001 5.850408e+001 4.320000e+001
    endloop
  endfacet
  facet normal 1.000000e+000 0.000000e+000 1.467622e-016
    outer loop
      vertex   1.871153e+001 5.850408e+001 6.768661e+000
      vertex   1.871153e+001 5.850408e+001 3.097594e+001
      vertex   1.871153e+001 1.950408e+001 6.768661e+000
    endloop
  endfacet
  facet normal 1.000000e+000 0.000000e+000 1.467622e-016
    outer loop
      vertex   1.871153e+001 1.950408e+001 6.768661e+000
      vertex   1.871153e+001 5.850408e+001 3.097594e+001
      vertex   1.871153e+001 1.950408e+001 3.097594e+001
    endloop
  endfacet
  facet normal -1.000000e+000 0.000000e+000 0.000000e+000
    outer loop
      vertex   -8.336076e+001 5.850408e+001 3.911121e+001
      vertex   -8.336076e+001 5.850408e+001 8.079534e+000
      vertex   -8.336076e+001 1.950408e+001 3.911121e+001
    endloop
  endfacet
  facet normal -1.000000e+000 0.000000e+000 0.000000e+000
    outer loop
      vertex   -8.336076e+001 1.950408e+001 3.911121e+001
      vertex   -8.336076e+001 5.850408e+001 8.079534e+000
      vertex   -8.336076e+001 1.950408e+001 8.079534e+000
    endloop
  endfacet
  facet normal -5.547002e-001 0.000000e+000 8.320503e-001
    outer loop
      vertex   -7.422759e+001 5.850408e+001 4.520000e+001
      vertex   -8.336076e+001 5.850408e+001 3.911121e+001
      vertex   -7.422759e+001 1.950408e+001 4.520000e+001
    endloop
  endfacet
  facet normal -5.547002e-001 0.000000e+000 8.320503e-001
    outer loop
      vertex   -7.422759e+001 1.950408e+001 4.520000e+001
      vertex   -8.336076e+001 5.850408e+001 3.911121e+001
      vertex   -8.336076e+001 1.950408e+001 3.911121e+001
    endloop
  endfacet
  facet normal -2.708031e-016 0.000000e+000 1.000000e+000
    outer loop
      vertex   4.487469e+000 5.850408e+001 4.520000e+001
      vertex   -7.422759e+001 5.850408e+001 4.520000e+001
      vertex   4.487469e+000 1.950408e+001 4.520000e+001
    endloop
  endfacet
  facet normal -2.708031e-016 0.000000e+000 1.000000e+000
    outer loop
      vertex   4.487469e+000 1.950408e+001 4.520000e+001
      vertex   -7.422759e+001 5.850408e+001 4.520000e+001
      vertex   -7.422759e+001 1.950408e+001 4.520000e+001
    endloop
  endfacet
  facet normal 7.071068e-001 0.000000e+000 7.071068e-001
    outer loop
      vertex   1.871153e+001 5.850408e+001 3.097594e+001
      vertex   4.487469e+000 5.850408e+001 4.520000e+001
      vertex   1.871153e+001 1.950408e+001 3.097594e+001
    endloop
  endfacet
  facet normal 7.071068e-001 0.000000e+000 7.071068e-001
    outer loop
      vertex   1.871153e+001 1.950408e+001 3.097594e+001
      vertex   4.487469e+000 5.850408e+001 4.520000e+001
      vertex   4.487469e+000 1.950408e+001 4.520000e+001
    endloop
  endfacet
  facet normal 0.000000e+000 -1.000000e+000 0.000000e+000
    outer loop
      vertex   8.558536e+000 1.950408e+001 0.000000e+000
      vertex   1.871153e+001 1.950408e+001 6.768661e+000
      vertex   -7.124146e+001 1.950408e+001 0.000000e+000
    endloop
  endfacet
  facet normal 0.000000e+000 -1.000000e+000 0.000000e+000
    outer loop
      vertex   -7.124146e+001 1.950408e+001 0.000000e+000
      vertex   1.871153e+001 1.950408e+001 6.768661e+000
      vertex   1.871153e+001 1.950408e+001 3.097594e+001
    endloop
  endfacet
  facet normal 0.000000e+000 -1.000000e+000 0.000000e+000
    outer loop
      vertex   -8.336076e+001 1.950408e+001 8.079534e+000
      vertex   1.871153e+001 1.950408e+001 3.097594e+001
      vertex   -8.336076e+001 1.950408e+001 3.911121e+001
    endloop
  endfacet
  facet normal 0.000000e+000 -1.000000e+000 0.000000e+000
    outer loop
      vertex   -8.336076e+001 1.950408e+001 8.079534e+000
      vertex   -7.124146e+001 1.950408e+001 0.000000e+000
      vertex   1.871153e+001 1.950408e+001 3.097594e+001
    endloop
  endfacet
  facet normal 0.000000e+000 -1.000000e+000 0.000000e+000
    outer loop
      vertex   4.487469e+000 1.950408e+001 4.520000e+001
      vertex   -7.422759e+001 1.950408e+001 4.520000e+001
      vertex   1.871153e+001 1.950408e+001 3.097594e+001
    endloop
  endfacet
  facet normal 0.000000e+000 -1.000000e+000 0.000000e+000
    outer loop
      vertex   1.871153e+001 1.950408e+001 3.097594e+001
      vertex   -7.422759e+001 1.950408e+001 4.520000e+001
      vertex   -8.336076e+001 1.950408e+001 3.911121e+001
    endloop
  endfacet
  facet normal -5.547002e-001 7.504968e-017 -8.320503e-001
    outer loop
      vertex   -8.336076e+001 1.419041e+002 8.079534e+000
      vertex   -7.124146e+001 1.419041e+002 0.000000e+000
      vertex   -8.336076e+001 1.029041e+002 8.079534e+000
    endloop
  endfacet
  facet normal -5.547002e-001 0.000000e+000 -8.320503e-001
    outer loop
      vertex   -8.336076e+001 1.029041e+002 8.079534e+000
      vertex   -7.124146e+001 1.419041e+002 0.000000e+000
      vertex   -7.124146e+001 1.950408e+001 0.000000e+000
    endloop
  endfacet
  facet normal -5.547002e-001 0.000000e+000 -8.320503e-001
    outer loop
      vertex   -8.336076e+001 5.850408e+001 8.079534e+000
      vertex   -7.124146e+001 1.950408e+001 0.000000e+000
      vertex   -8.336076e+001 1.950408e+001 8.079534e+000
    endloop
  endfacet
  facet normal -5.547002e-001 1.109623e-016 -8.320503e-001
    outer loop
      vertex   -8.336076e+001 5.850408e+001 8.079534e+000
      vertex   -8.336076e+001 1.029041e+002 8.079534e+000
      vertex   -7.124146e+001 1.950408e+001 0.000000e+000
    endloop
  endfacet
  facet normal -5.547002e-001 1.097798e-016 -8.320503e-001
    outer loop
      vertex   -8.336076e+001 5.850408e+001 8.079534e+000
      vertex   -8.624146e+001 5.850408e+001 1.000000e+001
      vertex   -8.336076e+001 1.029041e+002 8.079534e+000
    endloop
  endfacet
  facet normal -5.547002e-001 1.442510e-016 -8.320503e-001
    outer loop
      vertex   -8.336076e+001 1.029041e+002 8.079534e+000
      vertex   -8.624146e+001 5.850408e+001 1.000000e+001
      vertex   -8.624146e+001 1.029041e+002 1.000000e+001
    endloop
  endfacet
  facet normal 7.071068e-001 0.000000e+000 7.071068e-001
    outer loop
      vertex   2.355854e+001 1.029041e+002 4.320000e+001
      vertex   1.355854e+001 1.029041e+002 5.320000e+001
      vertex   2.355854e+001 5.850408e+001 4.320000e+001
    endloop
  endfacet
  facet normal 7.071068e-001 2.828995e-017 7.071068e-001
    outer loop
      vertex   2.355854e+001 5.850408e+001 4.320000e+001
      vertex   1.355854e+001 1.029041e+002 5.320000e+001
      vertex   1.355854e+001 5.850408e+001 5.320000e+001
    endloop
  endfacet
  facet normal -3.351617e-016 1.000000e+000 -3.172679e-015
    outer loop
      vertex   -7.124146e+001 1.029041e+002 5.320000e+001
      vertex   1.355854e+001 1.029041e+002 5.320000e+001
      vertex   4.487469e+000 1.029041e+002 4.520000e+001
    endloop
  endfacet
  facet normal 0.000000e+000 1.000000e+000 0.000000e+000
    outer loop
      vertex   -7.422759e+001 1.029041e+002 4.520000e+001
      vertex   -7.124146e+001 1.029041e+002 5.320000e+001
      vertex   4.487469e+000 1.029041e+002 4.520000e+001
    endloop
  endfacet
  facet normal 0.000000e+000 1.000000e+000 0.000000e+000
    outer loop
      vertex   -7.422759e+001 1.029041e+002 4.520000e+001
      vertex   -8.624146e+001 1.029041e+002 4.320000e+001
      vertex   -7.124146e+001 1.029041e+002 5.320000e+001
    endloop
  endfacet
  facet normal 0.000000e+000 1.000000e+000 0.000000e+000
    outer loop
      vertex   -7.422759e+001 1.029041e+002 4.520000e+001
      vertex   -8.336076e+001 1.029041e+002 3.911121e+001
      vertex   -8.624146e+001 1.029041e+002 4.320000e+001
    endloop
  endfacet
  facet normal 0.000000e+000 1.000000e+000 0.000000e+000
    outer loop
      vertex   -8.624146e+001 1.029041e+002 4.320000e+001
      vertex   -8.336076e+001 1.029041e+002 3.911121e+001
      vertex   -8.624146e+001 1.029041e+002 1.000000e+001
    endloop
  endfacet
  facet normal 0.000000e+000 1.000000e+000 0.000000e+000
    outer loop
      vertex   -8.624146e+001 1.029041e+002 1.000000e+001
      vertex   -8.336076e+001 1.029041e+002 3.911121e+001
      vertex   -8.336076e+001 1.029041e+002 8.079534e+000
    endloop
  endfacet
  facet normal 1.852379e-015 1.000000e+000 4.280378e-016
    outer loop
      vertex   2.355854e+001 1.029041e+002 1.000000e+001
      vertex   1.871153e+001 1.029041e+002 3.097594e+001
      vertex   2.355854e+001 1.029041e+002 4.320000e+001
    endloop
  endfacet
  facet normal 0.000000e+000 1.000000e+000 0.000000e+000
    outer loop
      vertex   2.355854e+001 1.029041e+002 1.000000e+001
      vertex   1.871153e+001 1.029041e+002 6.768661e+000
      vertex   1.871153e+001 1.029041e+002 3.097594e+001
    endloop
  endfacet
  facet normal 8.324526e-016 1.000000e+000 8.324526e-016
    outer loop
      vertex   1.871153e+001 1.029041e+002 3.097594e+001
      vertex   4.487469e+000 1.029041e+002 4.520000e+001
      vertex   2.355854e+001 1.029041e+002 4.320000e+001
    endloop
  endfacet
  facet normal 3.329810e-016 1.000000e+000 -3.930275e-015
    outer loop
      vertex   2.355854e+001 1.029041e+002 4.320000e+001
      vertex   4.487469e+000 1.029041e+002 4.520000e+001
      vertex   1.355854e+001 1.029041e+002 5.320000e+001
    endloop
  endfacet
  facet normal 0.000000e+000 -1.000000e+000 0.000000e+000
    outer loop
      vertex   1.355854e+001 5.850408e+001 5.320000e+001
      vertex   4.487469e+000 5.850408e+001 4.520000e+001
      vertex   2.355854e+001 5.850408e+001 4.320000e+001
    endloop
  endfacet
  facet normal 0.000000e+000 -1.000000e+000 0.000000e+000
    outer loop
      vertex   1.355854e+001 5.850408e+001 5.320000e+001
      vertex   -7.124146e+001 5.850408e+001 5.320000e+001
      vertex   4.487469e+000 5.850408e+001 4.520000e+001
    endloop
  endfacet
  facet normal 0.000000e+000 -1.000000e+000 0.000000e+000
    outer loop
      vertex   4.487469e+000 5.850408e+001 4.520000e+001
      vertex   -7.124146e+001 5.850408e+001 5.320000e+001
      vertex   -7.422759e+001 5.850408e+001 4.520000e+001
    endloop
  endfacet
  facet normal 0.000000e+000 -1.000000e+000 0.000000e+000
    outer loop
      vertex   -7.422759e+001 5.850408e+001 4.520000e+001
      vertex   -7.124146e+001 5.850408e+001 5.320000e+001
      vertex   -8.624146e+001 5.850408e+001 4.320000e+001
    endloop
  endfacet
  facet normal 0.000000e+000 -1.000000e+000 0.000000e+000
    outer loop
      vertex   -8.336076e+001 5.850408e+001 3.911121e+001
      vertex   -8.624146e+001 5.850408e+001 4.320000e+001
      vertex   -8.624146e+001 5.850408e+001 1.000000e+001
    endloop
  endfacet
  facet normal 0.000000e+000 -1.000000e+000 0.000000e+000
    outer loop
      vertex   -8.336076e+001 5.850408e+001 8.079534e+000
      vertex   -8.336076e+001 5.850408e+001 3.911121e+001
      vertex   -8.624146e+001 5.850408e+001 1.000000e+001
    endloop
  endfacet
  facet normal 0.000000e+000 -1.000000e+000 0.000000e+000
    outer loop
      vertex   -7.422759e+001 5.850408e+001 4.520000e+001
      vertex   -8.624146e+001 5.850408e+001 4.320000e+001
      vertex   -8.336076e+001 5.850408e+001 3.911121e+001
    endloop
  endfacet
  facet normal 0.000000e+000 -1.000000e+000 0.000000e+000
    outer loop
      vertex   4.487469e+000 5.850408e+001 4.520000e+001
      vertex   1.871153e+001 5.850408e+001 3.097594e+001
      vertex   2.355854e+001 5.850408e+001 4.320000e+001
    endloop
  endfacet
  facet normal 0.000000e+000 -1.000000e+000 0.000000e+000
    outer loop
      vertex   2.355854e+001 5.850408e+001 4.320000e+001
      vertex   1.871153e+001 5.850408e+001 3.097594e+001
      vertex   2.355854e+001 5.850408e+001 1.000000e+001
    endloop
  endfacet
  facet normal 0.000000e+000 -1.000000e+000 0.000000e+000
    outer loop
      vertex   2.355854e+001 5.850408e+001 1.000000e+001
      vertex   1.871153e+001 5.850408e+001 3.097594e+001
      vertex   1.871153e+001 5.850408e+001 6.768661e+000
    endloop
  endfacet
  facet normal 0.000000e+000 1.000000e+000 0.000000e+000
    outer loop
      vertex   1.871153e+001 1.419041e+002 6.768661e+000
      vertex   -8.336076e+001 1.419041e+002 8.079534e+000
      vertex   1.871153e+001 1.419041e+002 3.097594e+001
    endloop
  endfacet
  facet normal 0.000000e+000 1.000000e+000 0.000000e+000
    outer loop
      vertex   1.871153e+001 1.419041e+002 6.768661e+000
      vertex   8.558536e+000 1.419041e+002 0.000000e+000
      vertex   -8.336076e+001 1.419041e+002 8.079534e+000
    endloop
  endfacet
  facet normal 0.000000e+000 1.000000e+000 0.000000e+000
    outer loop
      vertex   -8.336076e+001 1.419041e+002 8.079534e+000
      vertex   8.558536e+000 1.419041e+002 0.000000e+000
      vertex   -7.124146e+001 1.419041e+002 0.000000e+000
    endloop
  endfacet
  facet normal 0.000000e+000 1.000000e+000 0.000000e+000
    outer loop
      vertex   -8.336076e+001 1.419041e+002 8.079534e+000
      vertex   -8.336076e+001 1.419041e+002 3.911121e+001
      vertex   1.871153e+001 1.419041e+002 3.097594e+001
    endloop
  endfacet
  facet normal 0.000000e+000 1.000000e+000 0.000000e+000
    outer loop
      vertex   1.871153e+001 1.419041e+002 3.097594e+001
      vertex   -8.336076e+001 1.419041e+002 3.911121e+001
      vertex   -7.422759e+001 1.419041e+002 4.520000e+001
    endloop
  endfacet
  facet normal 0.000000e+000 1.000000e+000 0.000000e+000
    outer loop
      vertex   4.487469e+000 1.419041e+002 4.520000e+001
      vertex   1.871153e+001 1.419041e+002 3.097594e+001
      vertex   -7.422759e+001 1.419041e+002 4.520000e+001
    endloop
  endfacet
  facet normal 0.000000e+000 0.000000e+000 -1.000000e+000
    outer loop
      vertex   -7.124146e+001 1.419041e+002 0.000000e+000
      vertex   8.558536e+000 1.419041e+002 0.000000e+000
      vertex   -7.124146e+001 1.950408e+001 0.000000e+000
    endloop
  endfacet
  facet normal 0.000000e+000 0.000000e+000 -1.000000e+000
    outer loop
      vertex   -7.124146e+001 1.950408e+001 0.000000e+000
      vertex   8.558536e+000 1.419041e+002 0.000000e+000
      vertex   8.558536e+000 1.950408e+001 0.000000e+000
    endloop
  endfacet
  facet normal -1.000000e+000 -3.200643e-016 4.280378e-016
    outer loop
      vertex   -8.624146e+001 1.029041e+002 4.320000e+001
      vertex   -8.624146e+001 1.029041e+002 1.000000e+001
      vertex   -8.624146e+001 5.850408e+001 4.320000e+001
    endloop
  endfacet
  facet normal -1.000000e+000 -6.401286e-016 0.000000e+000
    outer loop
      vertex   -8.624146e+001 5.850408e+001 4.320000e+001
      vertex   -8.624146e+001 1.029041e+002 1.000000e+001
      vertex   -8.624146e+001 5.850408e+001 1.000000e+001
    endloop
  endfacet
endsolid
