solid ascii
  facet normal 0.000000e+000 1.000000e+000 0.000000e+000
    outer loop
      vertex   1.330720e+002 -1.538089e+000 4.647551e+001
      vertex   1.330720e+002 -1.538089e+000 1.000000e+001
      vertex   1.280720e+002 -1.538089e+000 4.647551e+001
    endloop
  endfacet
  facet normal 0.000000e+000 1.000000e+000 0.000000e+000
    outer loop
      vertex   1.280720e+002 -1.538089e+000 4.647551e+001
      vertex   1.330720e+002 -1.538089e+000 1.000000e+001
      vertex   1.280720e+002 -1.538089e+000 1.000000e+001
    endloop
  endfacet
  facet normal 0.000000e+000 0.000000e+000 -1.000000e+000
    outer loop
      vertex   1.330720e+002 -1.538089e+000 4.647551e+001
      vertex   1.280720e+002 -1.538089e+000 4.647551e+001
      vertex   1.330720e+002 2.146191e+001 4.647551e+001
    endloop
  endfacet
  facet normal 0.000000e+000 0.000000e+000 -1.000000e+000
    outer loop
      vertex   1.330720e+002 2.146191e+001 4.647551e+001
      vertex   1.280720e+002 -1.538089e+000 4.647551e+001
      vertex   1.280720e+002 2.146191e+001 4.647551e+001
    endloop
  endfacet
  facet normal -1.000000e+000 0.000000e+000 0.000000e+000
    outer loop
      vertex   1.330720e+002 -1.538089e+000 1.000000e+001
      vertex   1.330720e+002 -1.538089e+000 4.647551e+001
      vertex   1.330720e+002 2.146191e+001 1.000000e+001
    endloop
  endfacet
  facet normal -1.000000e+000 0.000000e+000 0.000000e+000
    outer loop
      vertex   1.330720e+002 2.146191e+001 1.000000e+001
      vertex   1.330720e+002 -1.538089e+000 4.647551e+001
      vertex   1.330720e+002 2.146191e+001 4.647551e+001
    endloop
  endfacet
  facet normal 0.000000e+000 0.000000e+000 -1.000000e+000
    outer loop
      vertex   1.330720e+002 -5.693809e+001 4.647551e+001
      vertex   1.280720e+002 -5.693809e+001 4.647551e+001
      vertex   1.330720e+002 -3.393809e+001 4.647551e+001
    endloop
  endfacet
  facet normal 0.000000e+000 0.000000e+000 -1.000000e+000
    outer loop
      vertex   1.330720e+002 -3.393809e+001 4.647551e+001
      vertex   1.280720e+002 -5.693809e+001 4.647551e+001
      vertex   1.280720e+002 -3.393809e+001 4.647551e+001
    endloop
  endfacet
  facet normal 0.000000e+000 -1.000000e+000 -1.947999e-016
    outer loop
      vertex   1.330720e+002 -3.393809e+001 1.000000e+001
      vertex   1.330720e+002 -3.393809e+001 4.647551e+001
      vertex   1.280720e+002 -3.393809e+001 1.000000e+001
    endloop
  endfacet
  facet normal 0.000000e+000 -1.000000e+000 -1.947999e-016
    outer loop
      vertex   1.280720e+002 -3.393809e+001 1.000000e+001
      vertex   1.330720e+002 -3.393809e+001 4.647551e+001
      vertex   1.280720e+002 -3.393809e+001 4.647551e+001
    endloop
  endfacet
  facet normal -1.000000e+000 0.000000e+000 0.000000e+000
    outer loop
      vertex   1.330720e+002 -3.393809e+001 4.647551e+001
      vertex   1.330720e+002 -3.393809e+001 1.000000e+001
      vertex   1.330720e+002 -5.693809e+001 4.647551e+001
    endloop
  endfacet
  facet normal -1.000000e+000 0.000000e+000 0.000000e+000
    outer loop
      vertex   1.330720e+002 -5.693809e+001 4.647551e+001
      vertex   1.330720e+002 -3.393809e+001 1.000000e+001
      vertex   1.330720e+002 -5.693809e+001 1.000000e+001
    endloop
  endfacet
  facet normal -2.422305e-016 1.000000e+000 0.000000e+000
    outer loop
      vertex   1.330720e+002 2.146191e+001 1.000000e+001
      vertex   1.330720e+002 2.146191e+001 4.647551e+001
      vertex   1.770720e+002 2.146191e+001 1.000000e+001
    endloop
  endfacet
  facet normal -2.422305e-016 1.000000e+000 0.000000e+000
    outer loop
      vertex   1.770720e+002 2.146191e+001 1.000000e+001
      vertex   1.330720e+002 2.146191e+001 4.647551e+001
      vertex   1.770720e+002 2.146191e+001 4.647551e+001
    endloop
  endfacet
  facet normal -2.422305e-016 1.000000e+000 -1.420792e-016
    outer loop
      vertex   1.770720e+002 2.146191e+001 4.647551e+001
      vertex   1.330720e+002 2.146191e+001 4.647551e+001
      vertex   1.280720e+002 2.146191e+001 5.500000e+001
    endloop
  endfacet
  facet normal -1.665335e-016 1.000000e+000 2.930384e-016
    outer loop
      vertex   1.920720e+002 2.146191e+001 5.500000e+001
      vertex   1.770720e+002 2.146191e+001 4.647551e+001
      vertex   1.280720e+002 2.146191e+001 5.500000e+001
    endloop
  endfacet
  facet normal 1.184238e-015 1.000000e+000 -2.083828e-015
    outer loop
      vertex   1.920720e+002 2.146191e+001 5.500000e+001
      vertex   1.920720e+002 2.146191e+001 4.647551e+001
      vertex   1.770720e+002 2.146191e+001 4.647551e+001
    endloop
  endfacet
  facet normal 0.000000e+000 1.000000e+000 0.000000e+000
    outer loop
      vertex   1.330720e+002 2.146191e+001 4.647551e+001
      vertex   1.280720e+002 2.146191e+001 4.647551e+001
      vertex   1.280720e+002 2.146191e+001 5.500000e+001
    endloop
  endfacet
  facet normal 0.000000e+000 -1.000000e+000 1.667063e-015
    outer loop
      vertex   1.280720e+002 -5.693809e+001 4.647551e+001
      vertex   1.330720e+002 -5.693809e+001 4.647551e+001
      vertex   1.280720e+002 -5.693809e+001 5.500000e+001
    endloop
  endfacet
  facet normal 3.229740e-016 -1.000000e+000 1.856502e-015
    outer loop
      vertex   1.280720e+002 -5.693809e+001 5.500000e+001
      vertex   1.330720e+002 -5.693809e+001 4.647551e+001
      vertex   1.770720e+002 -5.693809e+001 4.647551e+001
    endloop
  endfacet
  facet normal 4.736952e-016 -1.000000e+000 -2.500594e-015
    outer loop
      vertex   1.920720e+002 -5.693809e+001 5.500000e+001
      vertex   1.770720e+002 -5.693809e+001 4.647551e+001
      vertex   1.920720e+002 -5.693809e+001 4.647551e+001
    endloop
  endfacet
  facet normal -2.220446e-016 -1.000000e+000 -1.276345e-015
    outer loop
      vertex   1.920720e+002 -5.693809e+001 5.500000e+001
      vertex   1.280720e+002 -5.693809e+001 5.500000e+001
      vertex   1.770720e+002 -5.693809e+001 4.647551e+001
    endloop
  endfacet
  facet normal 3.229740e-016 -1.000000e+000 -3.895999e-016
    outer loop
      vertex   1.330720e+002 -5.693809e+001 4.647551e+001
      vertex   1.330720e+002 -5.693809e+001 1.000000e+001
      vertex   1.770720e+002 -5.693809e+001 4.647551e+001
    endloop
  endfacet
  facet normal 1.614870e-016 -1.000000e+000 -1.947999e-016
    outer loop
      vertex   1.770720e+002 -5.693809e+001 4.647551e+001
      vertex   1.330720e+002 -5.693809e+001 1.000000e+001
      vertex   1.770720e+002 -5.693809e+001 1.000000e+001
    endloop
  endfacet
  facet normal 0.000000e+000 -1.000000e+000 -1.947999e-016
    outer loop
      vertex   1.770720e+002 -3.393809e+001 4.647551e+001
      vertex   1.770720e+002 -3.393809e+001 1.000000e+001
      vertex   1.870720e+002 -3.393809e+001 4.647551e+001
    endloop
  endfacet
  facet normal 0.000000e+000 -1.000000e+000 -1.947999e-016
    outer loop
      vertex   1.870720e+002 -3.393809e+001 4.647551e+001
      vertex   1.770720e+002 -3.393809e+001 1.000000e+001
      vertex   1.870720e+002 -3.393809e+001 1.000000e+001
    endloop
  endfacet
  facet normal 1.000000e+000 1.235726e-015 2.407194e-031
    outer loop
      vertex   1.770720e+002 -5.693809e+001 4.647551e+001
      vertex   1.770720e+002 -5.693809e+001 1.000000e+001
      vertex   1.770720e+002 -3.393809e+001 4.647551e+001
    endloop
  endfacet
  facet normal 1.000000e+000 1.235726e-015 2.407194e-031
    outer loop
      vertex   1.770720e+002 -3.393809e+001 4.647551e+001
      vertex   1.770720e+002 -5.693809e+001 1.000000e+001
      vertex   1.770720e+002 -3.393809e+001 1.000000e+001
    endloop
  endfacet
  facet normal 1.000000e+000 1.235726e-015 0.000000e+000
    outer loop
      vertex   1.770720e+002 2.146191e+001 1.000000e+001
      vertex   1.770720e+002 2.146191e+001 4.647551e+001
      vertex   1.770720e+002 -1.538089e+000 1.000000e+001
    endloop
  endfacet
  facet normal 1.000000e+000 1.235726e-015 0.000000e+000
    outer loop
      vertex   1.770720e+002 -1.538089e+000 1.000000e+001
      vertex   1.770720e+002 2.146191e+001 4.647551e+001
      vertex   1.770720e+002 -1.538089e+000 4.647551e+001
    endloop
  endfacet
  facet normal 0.000000e+000 1.000000e+000 0.000000e+000
    outer loop
      vertex   1.770720e+002 -1.538089e+000 1.000000e+001
      vertex   1.770720e+002 -1.538089e+000 4.647551e+001
      vertex   1.870720e+002 -1.538089e+000 1.000000e+001
    endloop
  endfacet
  facet normal 0.000000e+000 1.000000e+000 0.000000e+000
    outer loop
      vertex   1.870720e+002 -1.538089e+000 1.000000e+001
      vertex   1.770720e+002 -1.538089e+000 4.647551e+001
      vertex   1.870720e+002 -1.538089e+000 4.647551e+001
    endloop
  endfacet
  facet normal 1.000000e+000 0.000000e+000 0.000000e+000
    outer loop
      vertex   1.870720e+002 -3.393809e+001 4.647551e+001
      vertex   1.870720e+002 -3.393809e+001 1.000000e+001
      vertex   1.870720e+002 -1.538089e+000 4.647551e+001
    endloop
  endfacet
  facet normal 1.000000e+000 0.000000e+000 0.000000e+000
    outer loop
      vertex   1.870720e+002 -1.538089e+000 4.647551e+001
      vertex   1.870720e+002 -3.393809e+001 1.000000e+001
      vertex   1.870720e+002 -1.538089e+000 1.000000e+001
    endloop
  endfacet
  facet normal 0.000000e+000 0.000000e+000 -1.000000e+000
    outer loop
      vertex   1.770720e+002 -1.538089e+000 4.647551e+001
      vertex   1.770720e+002 2.146191e+001 4.647551e+001
      vertex   1.870720e+002 -1.538089e+000 4.647551e+001
    endloop
  endfacet
  facet normal 0.000000e+000 0.000000e+000 -1.000000e+000
    outer loop
      vertex   1.870720e+002 -1.538089e+000 4.647551e+001
      vertex   1.770720e+002 2.146191e+001 4.647551e+001
      vertex   1.920720e+002 2.146191e+001 4.647551e+001
    endloop
  endfacet
  facet normal -4.169001e-016 9.063045e-017 -1.000000e+000
    outer loop
      vertex   1.920720e+002 -5.693809e+001 4.647551e+001
      vertex   1.870720e+002 -1.538089e+000 4.647551e+001
      vertex   1.920720e+002 2.146191e+001 4.647551e+001
    endloop
  endfacet
  facet normal -1.421085e-015 0.000000e+000 -1.000000e+000
    outer loop
      vertex   1.920720e+002 -5.693809e+001 4.647551e+001
      vertex   1.870720e+002 -3.393809e+001 4.647551e+001
      vertex   1.870720e+002 -1.538089e+000 4.647551e+001
    endloop
  endfacet
  facet normal -4.736952e-016 2.059544e-016 -1.000000e+000
    outer loop
      vertex   1.920720e+002 -5.693809e+001 4.647551e+001
      vertex   1.770720e+002 -5.693809e+001 4.647551e+001
      vertex   1.870720e+002 -3.393809e+001 4.647551e+001
    endloop
  endfacet
  facet normal 0.000000e+000 0.000000e+000 -1.000000e+000
    outer loop
      vertex   1.870720e+002 -3.393809e+001 4.647551e+001
      vertex   1.770720e+002 -5.693809e+001 4.647551e+001
      vertex   1.770720e+002 -3.393809e+001 4.647551e+001
    endloop
  endfacet
  facet normal 1.000000e+000 0.000000e+000 0.000000e+000
    outer loop
      vertex   1.920720e+002 -6.493809e+001 1.000000e+001
      vertex   1.920720e+002 -6.493809e+001 0.000000e+000
      vertex   1.920720e+002 2.946191e+001 1.000000e+001
    endloop
  endfacet
  facet normal 1.000000e+000 0.000000e+000 0.000000e+000
    outer loop
      vertex   1.920720e+002 2.946191e+001 1.000000e+001
      vertex   1.920720e+002 -6.493809e+001 0.000000e+000
      vertex   1.920720e+002 2.946191e+001 0.000000e+000
    endloop
  endfacet
  facet normal 1.000000e+000 0.000000e+000 0.000000e+000
    outer loop
      vertex   1.920720e+002 2.146191e+001 4.647551e+001
      vertex   1.920720e+002 2.146191e+001 5.500000e+001
      vertex   1.920720e+002 -5.693809e+001 4.647551e+001
    endloop
  endfacet
  facet normal 1.000000e+000 0.000000e+000 0.000000e+000
    outer loop
      vertex   1.920720e+002 -5.693809e+001 4.647551e+001
      vertex   1.920720e+002 2.146191e+001 5.500000e+001
      vertex   1.920720e+002 -5.693809e+001 5.500000e+001
    endloop
  endfacet
  facet normal -7.171463e-032 4.440892e-016 1.000000e+000
    outer loop
      vertex   1.330720e+002 -5.693809e+001 1.000000e+001
      vertex   1.280720e+002 -6.493809e+001 1.000000e+001
      vertex   1.770720e+002 -5.693809e+001 1.000000e+001
    endloop
  endfacet
  facet normal 8.939086e-016 -1.146037e-016 1.000000e+000
    outer loop
      vertex   1.330720e+002 -5.693809e+001 1.000000e+001
      vertex   1.280720e+002 -3.393809e+001 1.000000e+001
      vertex   1.280720e+002 -6.493809e+001 1.000000e+001
    endloop
  endfacet
  facet normal 0.000000e+000 -3.089316e-016 1.000000e+000
    outer loop
      vertex   1.330720e+002 -5.693809e+001 1.000000e+001
      vertex   1.330720e+002 -3.393809e+001 1.000000e+001
      vertex   1.280720e+002 -3.393809e+001 1.000000e+001
    endloop
  endfacet
  facet normal 9.860761e-032 4.440892e-016 1.000000e+000
    outer loop
      vertex   1.280720e+002 -6.493809e+001 1.000000e+001
      vertex   1.920720e+002 -6.493809e+001 1.000000e+001
      vertex   1.770720e+002 -5.693809e+001 1.000000e+001
    endloop
  endfacet
  facet normal -3.260137e-016 -1.671865e-016 1.000000e+000
    outer loop
      vertex   1.770720e+002 -5.693809e+001 1.000000e+001
      vertex   1.920720e+002 -6.493809e+001 1.000000e+001
      vertex   1.870720e+002 -3.393809e+001 1.000000e+001
    endloop
  endfacet
  facet normal 0.000000e+000 -3.089316e-016 1.000000e+000
    outer loop
      vertex   1.770720e+002 -3.393809e+001 1.000000e+001
      vertex   1.770720e+002 -5.693809e+001 1.000000e+001
      vertex   1.870720e+002 -3.393809e+001 1.000000e+001
    endloop
  endfacet
  facet normal 1.390383e-015 1.096517e-016 1.000000e+000
    outer loop
      vertex   1.870720e+002 -3.393809e+001 1.000000e+001
      vertex   1.920720e+002 -6.493809e+001 1.000000e+001
      vertex   1.870720e+002 -1.538089e+000 1.000000e+001
    endloop
  endfacet
  facet normal 9.544155e-016 7.526936e-017 1.000000e+000
    outer loop
      vertex   1.870720e+002 -1.538089e+000 1.000000e+001
      vertex   1.920720e+002 -6.493809e+001 1.000000e+001
      vertex   1.920720e+002 2.946191e+001 1.000000e+001
    endloop
  endfacet
  facet normal 0.000000e+000 2.220446e-015 1.000000e+000
    outer loop
      vertex   1.770720e+002 2.146191e+001 1.000000e+001
      vertex   1.920720e+002 2.946191e+001 1.000000e+001
      vertex   1.280720e+002 2.946191e+001 1.000000e+001
    endloop
  endfacet
  facet normal -3.185982e-015 2.292073e-016 1.000000e+000
    outer loop
      vertex   1.330720e+002 2.146191e+001 1.000000e+001
      vertex   1.280720e+002 2.946191e+001 1.000000e+001
      vertex   1.280720e+002 -1.538089e+000 1.000000e+001
    endloop
  endfacet
  facet normal 0.000000e+000 -4.633974e-016 1.000000e+000
    outer loop
      vertex   1.330720e+002 -1.538089e+000 1.000000e+001
      vertex   1.330720e+002 2.146191e+001 1.000000e+001
      vertex   1.280720e+002 -1.538089e+000 1.000000e+001
    endloop
  endfacet
  facet normal 1.161946e-015 4.179663e-017 1.000000e+000
    outer loop
      vertex   1.870720e+002 -1.538089e+000 1.000000e+001
      vertex   1.920720e+002 2.946191e+001 1.000000e+001
      vertex   1.770720e+002 2.146191e+001 1.000000e+001
    endloop
  endfacet
  facet normal 0.000000e+000 -4.633974e-016 1.000000e+000
    outer loop
      vertex   1.770720e+002 -1.538089e+000 1.000000e+001
      vertex   1.870720e+002 -1.538089e+000 1.000000e+001
      vertex   1.770720e+002 2.146191e+001 1.000000e+001
    endloop
  endfacet
  facet normal -5.020024e-031 2.220446e-015 1.000000e+000
    outer loop
      vertex   1.770720e+002 2.146191e+001 1.000000e+001
      vertex   1.280720e+002 2.946191e+001 1.000000e+001
      vertex   1.330720e+002 2.146191e+001 1.000000e+001
    endloop
  endfacet
  facet normal 0.000000e+000 0.000000e+000 1.000000e+000
    outer loop
      vertex   1.920720e+002 2.146191e+001 5.500000e+001
      vertex   1.280720e+002 2.146191e+001 5.500000e+001
      vertex   1.920720e+002 -5.693809e+001 5.500000e+001
    endloop
  endfacet
  facet normal 0.000000e+000 0.000000e+000 1.000000e+000
    outer loop
      vertex   1.920720e+002 -5.693809e+001 5.500000e+001
      vertex   1.280720e+002 2.146191e+001 5.500000e+001
      vertex   1.280720e+002 -5.693809e+001 5.500000e+001
    endloop
  endfacet
  facet normal -1.000000e+000 0.000000e+000 0.000000e+000
    outer loop
      vertex   1.280720e+002 2.946191e+001 1.000000e+001
      vertex   1.280720e+002 2.946191e+001 0.000000e+000
      vertex   1.280720e+002 -1.538089e+000 1.000000e+001
    endloop
  endfacet
  facet normal -1.000000e+000 -3.010774e-016 -9.333400e-016
    outer loop
      vertex   1.280720e+002 -1.538089e+000 1.000000e+001
      vertex   1.280720e+002 2.946191e+001 0.000000e+000
      vertex   1.280720e+002 -6.493809e+001 0.000000e+000
    endloop
  endfacet
  facet normal -1.000000e+000 0.000000e+000 0.000000e+000
    outer loop
      vertex   1.280720e+002 -3.393809e+001 1.000000e+001
      vertex   1.280720e+002 -6.493809e+001 0.000000e+000
      vertex   1.280720e+002 -6.493809e+001 1.000000e+001
    endloop
  endfacet
  facet normal -1.000000e+000 -8.772133e-016 2.719361e-015
    outer loop
      vertex   1.280720e+002 -3.393809e+001 1.000000e+001
      vertex   1.280720e+002 -1.538089e+000 1.000000e+001
      vertex   1.280720e+002 -6.493809e+001 0.000000e+000
    endloop
  endfacet
  facet normal -1.000000e+000 -8.772133e-016 -1.708811e-031
    outer loop
      vertex   1.280720e+002 -3.393809e+001 1.000000e+001
      vertex   1.280720e+002 -3.393809e+001 4.647551e+001
      vertex   1.280720e+002 -1.538089e+000 1.000000e+001
    endloop
  endfacet
  facet normal -1.000000e+000 -8.772133e-016 0.000000e+000
    outer loop
      vertex   1.280720e+002 -1.538089e+000 1.000000e+001
      vertex   1.280720e+002 -3.393809e+001 4.647551e+001
      vertex   1.280720e+002 -1.538089e+000 4.647551e+001
    endloop
  endfacet
  facet normal -1.000000e+000 -8.772133e-016 -2.366817e-015
    outer loop
      vertex   1.280720e+002 -1.538089e+000 4.647551e+001
      vertex   1.280720e+002 -3.393809e+001 4.647551e+001
      vertex   1.280720e+002 -5.693809e+001 5.500000e+001
    endloop
  endfacet
  facet normal -1.000000e+000 -3.625218e-016 9.781235e-016
    outer loop
      vertex   1.280720e+002 2.146191e+001 5.500000e+001
      vertex   1.280720e+002 -1.538089e+000 4.647551e+001
      vertex   1.280720e+002 -5.693809e+001 5.500000e+001
    endloop
  endfacet
  facet normal -1.000000e+000 0.000000e+000 0.000000e+000
    outer loop
      vertex   1.280720e+002 2.146191e+001 5.500000e+001
      vertex   1.280720e+002 2.146191e+001 4.647551e+001
      vertex   1.280720e+002 -1.538089e+000 4.647551e+001
    endloop
  endfacet
  facet normal -1.000000e+000 0.000000e+000 0.000000e+000
    outer loop
      vertex   1.280720e+002 -3.393809e+001 4.647551e+001
      vertex   1.280720e+002 -5.693809e+001 4.647551e+001
      vertex   1.280720e+002 -5.693809e+001 5.500000e+001
    endloop
  endfacet
  facet normal -2.220446e-016 -1.000000e+000 0.000000e+000
    outer loop
      vertex   1.280720e+002 -6.493809e+001 1.000000e+001
      vertex   1.280720e+002 -6.493809e+001 0.000000e+000
      vertex   1.920720e+002 -6.493809e+001 1.000000e+001
    endloop
  endfacet
  facet normal -2.220446e-016 -1.000000e+000 0.000000e+000
    outer loop
      vertex   1.920720e+002 -6.493809e+001 1.000000e+001
      vertex   1.280720e+002 -6.493809e+001 0.000000e+000
      vertex   1.920720e+002 -6.493809e+001 0.000000e+000
    endloop
  endfacet
  facet normal 0.000000e+000 1.000000e+000 0.000000e+000
    outer loop
      vertex   1.920720e+002 2.946191e+001 1.000000e+001
      vertex   1.920720e+002 2.946191e+001 0.000000e+000
      vertex   1.280720e+002 2.946191e+001 1.000000e+001
    endloop
  endfacet
  facet normal 0.000000e+000 1.000000e+000 0.000000e+000
    outer loop
      vertex   1.280720e+002 2.946191e+001 1.000000e+001
      vertex   1.920720e+002 2.946191e+001 0.000000e+000
      vertex   1.280720e+002 2.946191e+001 0.000000e+000
    endloop
  endfacet
  facet normal 0.000000e+000 0.000000e+000 -1.000000e+000
    outer loop
      vertex   1.280720e+002 2.946191e+001 0.000000e+000
      vertex   1.920720e+002 2.946191e+001 0.000000e+000
      vertex   1.280720e+002 -6.493809e+001 0.000000e+000
    endloop
  endfacet
  facet normal 0.000000e+000 0.000000e+000 -1.000000e+000
    outer loop
      vertex   1.280720e+002 -6.493809e+001 0.000000e+000
      vertex   1.920720e+002 2.946191e+001 0.000000e+000
      vertex   1.920720e+002 -6.493809e+001 0.000000e+000
    endloop
  endfacet
endsolid
