solid ascii
  facet normal 8.861347e-001 0.000000e+000 -4.634277e-001
    outer loop
      vertex   -5.780533e+001 1.219041e+002 6.891606e+001
      vertex   -6.288660e+001 1.219041e+002 5.920000e+001
      vertex   -5.780533e+001 1.269041e+002 6.891606e+001
    endloop
  endfacet
  facet normal 8.861347e-001 -1.259273e-015 -4.634277e-001
    outer loop
      vertex   -5.780533e+001 1.269041e+002 6.891606e+001
      vertex   -6.288660e+001 1.219041e+002 5.920000e+001
      vertex   -6.288660e+001 1.269041e+002 5.920000e+001
    endloop
  endfacet
  facet normal 3.211385e-016 0.000000e+000 -1.000000e+000
    outer loop
      vertex   -1.355385e+001 1.219041e+002 6.891606e+001
      vertex   -5.780533e+001 1.219041e+002 6.891606e+001
      vertex   -1.355385e+001 1.269041e+002 6.891606e+001
    endloop
  endfacet
  facet normal 3.211385e-016 0.000000e+000 -1.000000e+000
    outer loop
      vertex   -1.355385e+001 1.269041e+002 6.891606e+001
      vertex   -5.780533e+001 1.219041e+002 6.891606e+001
      vertex   -5.780533e+001 1.269041e+002 6.891606e+001
    endloop
  endfacet
  facet normal -8.922157e-001 -6.524841e-016 -4.516096e-001
    outer loop
      vertex   -8.635909e+000 1.219041e+002 5.920000e+001
      vertex   -1.355385e+001 1.219041e+002 6.891606e+001
      vertex   -8.635909e+000 1.269041e+002 5.920000e+001
    endloop
  endfacet
  facet normal -8.922157e-001 0.000000e+000 -4.516096e-001
    outer loop
      vertex   -8.635909e+000 1.269041e+002 5.920000e+001
      vertex   -1.355385e+001 1.219041e+002 6.891606e+001
      vertex   -1.355385e+001 1.269041e+002 6.891606e+001
    endloop
  endfacet
  facet normal -8.861347e-001 -2.518546e-015 4.634277e-001
    outer loop
      vertex   -6.554146e+001 1.219041e+002 5.920000e+001
      vertex   -5.821979e+001 1.219041e+002 7.320000e+001
      vertex   -6.554146e+001 1.269041e+002 5.920000e+001
    endloop
  endfacet
  facet normal -8.861347e-001 0.000000e+000 4.634277e-001
    outer loop
      vertex   -6.554146e+001 1.269041e+002 5.920000e+001
      vertex   -5.821979e+001 1.219041e+002 7.320000e+001
      vertex   -5.821979e+001 1.269041e+002 7.320000e+001
    endloop
  endfacet
  facet normal 8.922157e-001 1.086784e-015 4.516096e-001
    outer loop
      vertex   -1.102779e+001 1.219041e+002 7.320000e+001
      vertex   -3.941464e+000 1.219041e+002 5.920000e+001
      vertex   -1.102779e+001 1.269041e+002 7.320000e+001
    endloop
  endfacet
  facet normal 8.922157e-001 0.000000e+000 4.516096e-001
    outer loop
      vertex   -1.102779e+001 1.269041e+002 7.320000e+001
      vertex   -3.941464e+000 1.219041e+002 5.920000e+001
      vertex   -3.941464e+000 1.269041e+002 5.920000e+001
    endloop
  endfacet
  facet normal 0.000000e+000 -1.000000e+000 0.000000e+000
    outer loop
      vertex   -6.288660e+001 1.219041e+002 5.920000e+001
      vertex   -5.780533e+001 1.219041e+002 6.891606e+001
      vertex   -6.554146e+001 1.219041e+002 5.920000e+001
    endloop
  endfacet
  facet normal 0.000000e+000 -1.000000e+000 0.000000e+000
    outer loop
      vertex   -6.554146e+001 1.219041e+002 5.920000e+001
      vertex   -5.780533e+001 1.219041e+002 6.891606e+001
      vertex   -5.821979e+001 1.219041e+002 7.320000e+001
    endloop
  endfacet
  facet normal 0.000000e+000 -1.000000e+000 0.000000e+000
    outer loop
      vertex   -5.821979e+001 1.219041e+002 7.320000e+001
      vertex   -5.780533e+001 1.219041e+002 6.891606e+001
      vertex   -1.355385e+001 1.219041e+002 6.891606e+001
    endloop
  endfacet
  facet normal 0.000000e+000 -1.000000e+000 0.000000e+000
    outer loop
      vertex   -1.102779e+001 1.219041e+002 7.320000e+001
      vertex   -1.355385e+001 1.219041e+002 6.891606e+001
      vertex   -3.941464e+000 1.219041e+002 5.920000e+001
    endloop
  endfacet
  facet normal 0.000000e+000 -1.000000e+000 0.000000e+000
    outer loop
      vertex   -1.102779e+001 1.219041e+002 7.320000e+001
      vertex   -5.821979e+001 1.219041e+002 7.320000e+001
      vertex   -1.355385e+001 1.219041e+002 6.891606e+001
    endloop
  endfacet
  facet normal 0.000000e+000 -1.000000e+000 0.000000e+000
    outer loop
      vertex   -1.355385e+001 1.219041e+002 6.891606e+001
      vertex   -8.635909e+000 1.219041e+002 5.920000e+001
      vertex   -3.941464e+000 1.219041e+002 5.920000e+001
    endloop
  endfacet
  facet normal 0.000000e+000 0.000000e+000 1.000000e+000
    outer loop
      vertex   -5.821979e+001 1.219041e+002 7.320000e+001
      vertex   -1.102779e+001 1.219041e+002 7.320000e+001
      vertex   -5.821979e+001 1.269041e+002 7.320000e+001
    endloop
  endfacet
  facet normal 0.000000e+000 0.000000e+000 1.000000e+000
    outer loop
      vertex   -5.821979e+001 1.269041e+002 7.320000e+001
      vertex   -1.102779e+001 1.219041e+002 7.320000e+001
      vertex   -1.102779e+001 1.269041e+002 7.320000e+001
    endloop
  endfacet
  facet normal 0.000000e+000 1.000000e+000 0.000000e+000
    outer loop
      vertex   -8.635909e+000 1.269041e+002 5.920000e+001
      vertex   -1.355385e+001 1.269041e+002 6.891606e+001
      vertex   -3.941464e+000 1.269041e+002 5.920000e+001
    endloop
  endfacet
  facet normal 0.000000e+000 1.000000e+000 0.000000e+000
    outer loop
      vertex   -3.941464e+000 1.269041e+002 5.920000e+001
      vertex   -1.355385e+001 1.269041e+002 6.891606e+001
      vertex   -1.102779e+001 1.269041e+002 7.320000e+001
    endloop
  endfacet
  facet normal 0.000000e+000 1.000000e+000 0.000000e+000
    outer loop
      vertex   -1.102779e+001 1.269041e+002 7.320000e+001
      vertex   -1.355385e+001 1.269041e+002 6.891606e+001
      vertex   -5.821979e+001 1.269041e+002 7.320000e+001
    endloop
  endfacet
  facet normal 0.000000e+000 1.000000e+000 0.000000e+000
    outer loop
      vertex   -5.821979e+001 1.269041e+002 7.320000e+001
      vertex   -1.355385e+001 1.269041e+002 6.891606e+001
      vertex   -5.780533e+001 1.269041e+002 6.891606e+001
    endloop
  endfacet
  facet normal 0.000000e+000 1.000000e+000 0.000000e+000
    outer loop
      vertex   -6.554146e+001 1.269041e+002 5.920000e+001
      vertex   -5.780533e+001 1.269041e+002 6.891606e+001
      vertex   -6.288660e+001 1.269041e+002 5.920000e+001
    endloop
  endfacet
  facet normal 0.000000e+000 1.000000e+000 0.000000e+000
    outer loop
      vertex   -6.554146e+001 1.269041e+002 5.920000e+001
      vertex   -5.821979e+001 1.269041e+002 7.320000e+001
      vertex   -5.780533e+001 1.269041e+002 6.891606e+001
    endloop
  endfacet
  facet normal 0.000000e+000 1.000000e+000 0.000000e+000
    outer loop
      vertex   -2.441464e+000 1.419041e+002 5.920000e+001
      vertex   2.355854e+001 1.419041e+002 3.320000e+001
      vertex   -6.704146e+001 1.419041e+002 5.920000e+001
    endloop
  endfacet
  facet normal 0.000000e+000 1.000000e+000 0.000000e+000
    outer loop
      vertex   -6.704146e+001 1.419041e+002 5.920000e+001
      vertex   2.355854e+001 1.419041e+002 3.320000e+001
      vertex   -8.624146e+001 1.419041e+002 4.320000e+001
    endloop
  endfacet
  facet normal 0.000000e+000 1.000000e+000 0.000000e+000
    outer loop
      vertex   -8.624146e+001 1.419041e+002 4.320000e+001
      vertex   2.355854e+001 1.419041e+002 3.320000e+001
      vertex   -8.624146e+001 1.419041e+002 1.000000e+001
    endloop
  endfacet
  facet normal 0.000000e+000 1.000000e+000 0.000000e+000
    outer loop
      vertex   -8.624146e+001 1.419041e+002 1.000000e+001
      vertex   2.355854e+001 1.419041e+002 3.320000e+001
      vertex   -7.124146e+001 1.419041e+002 0.000000e+000
    endloop
  endfacet
  facet normal 0.000000e+000 1.000000e+000 0.000000e+000
    outer loop
      vertex   -7.124146e+001 1.419041e+002 0.000000e+000
      vertex   2.355854e+001 1.419041e+002 3.320000e+001
      vertex   8.558536e+000 1.419041e+002 0.000000e+000
    endloop
  endfacet
  facet normal 0.000000e+000 1.000000e+000 0.000000e+000
    outer loop
      vertex   8.558536e+000 1.419041e+002 0.000000e+000
      vertex   2.355854e+001 1.419041e+002 3.320000e+001
      vertex   2.355854e+001 1.419041e+002 1.000000e+001
    endloop
  endfacet
  facet normal 0.000000e+000 -1.000000e+000 0.000000e+000
    outer loop
      vertex   -2.441464e+000 9.690408e+001 5.920000e+001
      vertex   -6.704146e+001 9.690408e+001 5.920000e+001
      vertex   3.558536e+000 9.690408e+001 5.320000e+001
    endloop
  endfacet
  facet normal 0.000000e+000 -1.000000e+000 0.000000e+000
    outer loop
      vertex   3.558536e+000 9.690408e+001 5.320000e+001
      vertex   -6.704146e+001 9.690408e+001 5.920000e+001
      vertex   -7.424146e+001 9.690408e+001 5.320000e+001
    endloop
  endfacet
  facet normal 0.000000e+000 0.000000e+000 1.000000e+000
    outer loop
      vertex   -6.554146e+001 1.219041e+002 5.920000e+001
      vertex   -6.704146e+001 9.690408e+001 5.920000e+001
      vertex   -6.288660e+001 1.219041e+002 5.920000e+001
    endloop
  endfacet
  facet normal 0.000000e+000 0.000000e+000 1.000000e+000
    outer loop
      vertex   -6.554146e+001 1.219041e+002 5.920000e+001
      vertex   -6.704146e+001 1.419041e+002 5.920000e+001
      vertex   -6.704146e+001 9.690408e+001 5.920000e+001
    endloop
  endfacet
  facet normal 0.000000e+000 0.000000e+000 1.000000e+000
    outer loop
      vertex   -6.554146e+001 1.219041e+002 5.920000e+001
      vertex   -6.554146e+001 1.269041e+002 5.920000e+001
      vertex   -6.704146e+001 1.419041e+002 5.920000e+001
    endloop
  endfacet
  facet normal 0.000000e+000 0.000000e+000 1.000000e+000
    outer loop
      vertex   -6.704146e+001 1.419041e+002 5.920000e+001
      vertex   -6.554146e+001 1.269041e+002 5.920000e+001
      vertex   -6.288660e+001 1.269041e+002 5.920000e+001
    endloop
  endfacet
  facet normal 0.000000e+000 0.000000e+000 1.000000e+000
    outer loop
      vertex   -8.635909e+000 1.269041e+002 5.920000e+001
      vertex   -6.288660e+001 1.269041e+002 5.920000e+001
      vertex   -8.635909e+000 1.219041e+002 5.920000e+001
    endloop
  endfacet
  facet normal 0.000000e+000 0.000000e+000 1.000000e+000
    outer loop
      vertex   -8.635909e+000 1.269041e+002 5.920000e+001
      vertex   -6.704146e+001 1.419041e+002 5.920000e+001
      vertex   -6.288660e+001 1.269041e+002 5.920000e+001
    endloop
  endfacet
  facet normal 0.000000e+000 0.000000e+000 1.000000e+000
    outer loop
      vertex   -8.635909e+000 1.269041e+002 5.920000e+001
      vertex   -2.441464e+000 1.419041e+002 5.920000e+001
      vertex   -6.704146e+001 1.419041e+002 5.920000e+001
    endloop
  endfacet
  facet normal 0.000000e+000 0.000000e+000 1.000000e+000
    outer loop
      vertex   -8.635909e+000 1.269041e+002 5.920000e+001
      vertex   -3.941464e+000 1.269041e+002 5.920000e+001
      vertex   -2.441464e+000 1.419041e+002 5.920000e+001
    endloop
  endfacet
  facet normal 0.000000e+000 0.000000e+000 1.000000e+000
    outer loop
      vertex   -2.441464e+000 1.419041e+002 5.920000e+001
      vertex   -3.941464e+000 1.269041e+002 5.920000e+001
      vertex   -3.941464e+000 1.219041e+002 5.920000e+001
    endloop
  endfacet
  facet normal 0.000000e+000 -5.684342e-016 1.000000e+000
    outer loop
      vertex   -2.441464e+000 9.690408e+001 5.920000e+001
      vertex   -3.941464e+000 1.219041e+002 5.920000e+001
      vertex   -8.635909e+000 1.219041e+002 5.920000e+001
    endloop
  endfacet
  facet normal 0.000000e+000 0.000000e+000 1.000000e+000
    outer loop
      vertex   -6.704146e+001 9.690408e+001 5.920000e+001
      vertex   -8.635909e+000 1.219041e+002 5.920000e+001
      vertex   -6.288660e+001 1.219041e+002 5.920000e+001
    endloop
  endfacet
  facet normal 2.199823e-016 -5.139275e-016 1.000000e+000
    outer loop
      vertex   -6.704146e+001 9.690408e+001 5.920000e+001
      vertex   -2.441464e+000 9.690408e+001 5.920000e+001
      vertex   -8.635909e+000 1.219041e+002 5.920000e+001
    endloop
  endfacet
  facet normal 0.000000e+000 0.000000e+000 1.000000e+000
    outer loop
      vertex   -6.288660e+001 1.269041e+002 5.920000e+001
      vertex   -6.288660e+001 1.219041e+002 5.920000e+001
      vertex   -8.635909e+000 1.219041e+002 5.920000e+001
    endloop
  endfacet
  facet normal 4.210624e-015 -3.157968e-016 1.000000e+000
    outer loop
      vertex   -2.441464e+000 1.419041e+002 5.920000e+001
      vertex   -3.941464e+000 1.219041e+002 5.920000e+001
      vertex   -2.441464e+000 9.690408e+001 5.920000e+001
    endloop
  endfacet
  facet normal 0.000000e+000 0.000000e+000 1.000000e+000
    outer loop
      vertex   5.585364e-001 6.850408e+001 5.320000e+001
      vertex   1.155854e+001 6.450408e+001 5.320000e+001
      vertex   5.585364e-001 9.290408e+001 5.320000e+001
    endloop
  endfacet
  facet normal 0.000000e+000 0.000000e+000 1.000000e+000
    outer loop
      vertex   5.585364e-001 6.850408e+001 5.320000e+001
      vertex   3.558536e+000 6.450408e+001 5.320000e+001
      vertex   1.155854e+001 6.450408e+001 5.320000e+001
    endloop
  endfacet
  facet normal 0.000000e+000 0.000000e+000 1.000000e+000
    outer loop
      vertex   5.585364e-001 6.850408e+001 5.320000e+001
      vertex   -5.624146e+001 6.850408e+001 5.320000e+001
      vertex   3.558536e+000 6.450408e+001 5.320000e+001
    endloop
  endfacet
  facet normal 0.000000e+000 0.000000e+000 1.000000e+000
    outer loop
      vertex   3.558536e+000 6.450408e+001 5.320000e+001
      vertex   -5.624146e+001 6.850408e+001 5.320000e+001
      vertex   -7.424146e+001 6.450408e+001 5.320000e+001
    endloop
  endfacet
  facet normal 0.000000e+000 0.000000e+000 1.000000e+000
    outer loop
      vertex   -7.424146e+001 6.450408e+001 5.320000e+001
      vertex   -5.624146e+001 6.850408e+001 5.320000e+001
      vertex   -5.624146e+001 9.290408e+001 5.320000e+001
    endloop
  endfacet
  facet normal 0.000000e+000 0.000000e+000 1.000000e+000
    outer loop
      vertex   -7.424146e+001 9.690408e+001 5.320000e+001
      vertex   -5.624146e+001 9.290408e+001 5.320000e+001
      vertex   3.558536e+000 9.690408e+001 5.320000e+001
    endloop
  endfacet
  facet normal 0.000000e+000 0.000000e+000 1.000000e+000
    outer loop
      vertex   -7.424146e+001 9.690408e+001 5.320000e+001
      vertex   -7.424146e+001 6.450408e+001 5.320000e+001
      vertex   -5.624146e+001 9.290408e+001 5.320000e+001
    endloop
  endfacet
  facet normal 0.000000e+000 0.000000e+000 1.000000e+000
    outer loop
      vertex   -5.624146e+001 9.290408e+001 5.320000e+001
      vertex   5.585364e-001 9.290408e+001 5.320000e+001
      vertex   3.558536e+000 9.690408e+001 5.320000e+001
    endloop
  endfacet
  facet normal 0.000000e+000 0.000000e+000 1.000000e+000
    outer loop
      vertex   3.558536e+000 9.690408e+001 5.320000e+001
      vertex   5.585364e-001 9.290408e+001 5.320000e+001
      vertex   1.155854e+001 9.690408e+001 5.320000e+001
    endloop
  endfacet
  facet normal 0.000000e+000 0.000000e+000 1.000000e+000
    outer loop
      vertex   1.155854e+001 9.690408e+001 5.320000e+001
      vertex   5.585364e-001 9.290408e+001 5.320000e+001
      vertex   1.155854e+001 6.450408e+001 5.320000e+001
    endloop
  endfacet
  facet normal 8.861347e-001 0.000000e+000 -4.634277e-001
    outer loop
      vertex   -6.288660e+001 3.950408e+001 5.920000e+001
      vertex   -5.780533e+001 3.950408e+001 6.891606e+001
      vertex   -6.288660e+001 3.450408e+001 5.920000e+001
    endloop
  endfacet
  facet normal 8.861347e-001 0.000000e+000 -4.634277e-001
    outer loop
      vertex   -6.288660e+001 3.450408e+001 5.920000e+001
      vertex   -5.780533e+001 3.950408e+001 6.891606e+001
      vertex   -5.780533e+001 3.450408e+001 6.891606e+001
    endloop
  endfacet
  facet normal -8.922157e-001 0.000000e+000 -4.516096e-001
    outer loop
      vertex   -1.355385e+001 3.950408e+001 6.891606e+001
      vertex   -8.635909e+000 3.950408e+001 5.920000e+001
      vertex   -1.355385e+001 3.450408e+001 6.891606e+001
    endloop
  endfacet
  facet normal -8.922157e-001 0.000000e+000 -4.516096e-001
    outer loop
      vertex   -1.355385e+001 3.450408e+001 6.891606e+001
      vertex   -8.635909e+000 3.950408e+001 5.920000e+001
      vertex   -8.635909e+000 3.450408e+001 5.920000e+001
    endloop
  endfacet
  facet normal 3.211385e-016 0.000000e+000 -1.000000e+000
    outer loop
      vertex   -5.780533e+001 3.950408e+001 6.891606e+001
      vertex   -1.355385e+001 3.950408e+001 6.891606e+001
      vertex   -5.780533e+001 3.450408e+001 6.891606e+001
    endloop
  endfacet
  facet normal 3.211385e-016 0.000000e+000 -1.000000e+000
    outer loop
      vertex   -5.780533e+001 3.450408e+001 6.891606e+001
      vertex   -1.355385e+001 3.950408e+001 6.891606e+001
      vertex   -1.355385e+001 3.450408e+001 6.891606e+001
    endloop
  endfacet
  facet normal 0.000000e+000 1.000000e+000 0.000000e+000
    outer loop
      vertex   -8.635909e+000 3.950408e+001 5.920000e+001
      vertex   -1.355385e+001 3.950408e+001 6.891606e+001
      vertex   -3.941464e+000 3.950408e+001 5.920000e+001
    endloop
  endfacet
  facet normal 0.000000e+000 1.000000e+000 0.000000e+000
    outer loop
      vertex   -3.941464e+000 3.950408e+001 5.920000e+001
      vertex   -1.355385e+001 3.950408e+001 6.891606e+001
      vertex   -1.102779e+001 3.950408e+001 7.320000e+001
    endloop
  endfacet
  facet normal 0.000000e+000 1.000000e+000 0.000000e+000
    outer loop
      vertex   -1.102779e+001 3.950408e+001 7.320000e+001
      vertex   -1.355385e+001 3.950408e+001 6.891606e+001
      vertex   -5.821979e+001 3.950408e+001 7.320000e+001
    endloop
  endfacet
  facet normal 0.000000e+000 1.000000e+000 0.000000e+000
    outer loop
      vertex   -5.821979e+001 3.950408e+001 7.320000e+001
      vertex   -1.355385e+001 3.950408e+001 6.891606e+001
      vertex   -5.780533e+001 3.950408e+001 6.891606e+001
    endloop
  endfacet
  facet normal 0.000000e+000 1.000000e+000 0.000000e+000
    outer loop
      vertex   -6.554146e+001 3.950408e+001 5.920000e+001
      vertex   -5.780533e+001 3.950408e+001 6.891606e+001
      vertex   -6.288660e+001 3.950408e+001 5.920000e+001
    endloop
  endfacet
  facet normal 0.000000e+000 1.000000e+000 0.000000e+000
    outer loop
      vertex   -6.554146e+001 3.950408e+001 5.920000e+001
      vertex   -5.821979e+001 3.950408e+001 7.320000e+001
      vertex   -5.780533e+001 3.950408e+001 6.891606e+001
    endloop
  endfacet
  facet normal -8.861347e-001 0.000000e+000 4.634277e-001
    outer loop
      vertex   -5.821979e+001 3.950408e+001 7.320000e+001
      vertex   -6.554146e+001 3.950408e+001 5.920000e+001
      vertex   -5.821979e+001 3.450408e+001 7.320000e+001
    endloop
  endfacet
  facet normal -8.861347e-001 0.000000e+000 4.634277e-001
    outer loop
      vertex   -5.821979e+001 3.450408e+001 7.320000e+001
      vertex   -6.554146e+001 3.950408e+001 5.920000e+001
      vertex   -6.554146e+001 3.450408e+001 5.920000e+001
    endloop
  endfacet
  facet normal 8.922157e-001 1.811307e-016 4.516096e-001
    outer loop
      vertex   -3.941464e+000 3.950408e+001 5.920000e+001
      vertex   -1.102779e+001 3.950408e+001 7.320000e+001
      vertex   -3.941464e+000 3.450408e+001 5.920000e+001
    endloop
  endfacet
  facet normal 8.922157e-001 0.000000e+000 4.516096e-001
    outer loop
      vertex   -3.941464e+000 3.450408e+001 5.920000e+001
      vertex   -1.102779e+001 3.950408e+001 7.320000e+001
      vertex   -1.102779e+001 3.450408e+001 7.320000e+001
    endloop
  endfacet
  facet normal 0.000000e+000 0.000000e+000 1.000000e+000
    outer loop
      vertex   -5.821979e+001 3.450408e+001 7.320000e+001
      vertex   -1.102779e+001 3.450408e+001 7.320000e+001
      vertex   -5.821979e+001 3.950408e+001 7.320000e+001
    endloop
  endfacet
  facet normal 0.000000e+000 0.000000e+000 1.000000e+000
    outer loop
      vertex   -5.821979e+001 3.950408e+001 7.320000e+001
      vertex   -1.102779e+001 3.450408e+001 7.320000e+001
      vertex   -1.102779e+001 3.950408e+001 7.320000e+001
    endloop
  endfacet
  facet normal 0.000000e+000 -1.000000e+000 0.000000e+000
    outer loop
      vertex   -8.635909e+000 3.450408e+001 5.920000e+001
      vertex   -3.941464e+000 3.450408e+001 5.920000e+001
      vertex   -1.355385e+001 3.450408e+001 6.891606e+001
    endloop
  endfacet
  facet normal 0.000000e+000 -1.000000e+000 0.000000e+000
    outer loop
      vertex   -1.355385e+001 3.450408e+001 6.891606e+001
      vertex   -3.941464e+000 3.450408e+001 5.920000e+001
      vertex   -1.102779e+001 3.450408e+001 7.320000e+001
    endloop
  endfacet
  facet normal 3.011285e-016 -1.000000e+000 -1.775626e-016
    outer loop
      vertex   -5.821979e+001 3.450408e+001 7.320000e+001
      vertex   -1.355385e+001 3.450408e+001 6.891606e+001
      vertex   -1.102779e+001 3.450408e+001 7.320000e+001
    endloop
  endfacet
  facet normal 3.211385e-016 -1.000000e+000 3.106950e-017
    outer loop
      vertex   -5.821979e+001 3.450408e+001 7.320000e+001
      vertex   -5.780533e+001 3.450408e+001 6.891606e+001
      vertex   -1.355385e+001 3.450408e+001 6.891606e+001
    endloop
  endfacet
  facet normal 0.000000e+000 -1.000000e+000 0.000000e+000
    outer loop
      vertex   -5.821979e+001 3.450408e+001 7.320000e+001
      vertex   -6.554146e+001 3.450408e+001 5.920000e+001
      vertex   -5.780533e+001 3.450408e+001 6.891606e+001
    endloop
  endfacet
  facet normal 0.000000e+000 -1.000000e+000 0.000000e+000
    outer loop
      vertex   -5.780533e+001 3.450408e+001 6.891606e+001
      vertex   -6.554146e+001 3.450408e+001 5.920000e+001
      vertex   -6.288660e+001 3.450408e+001 5.920000e+001
    endloop
  endfacet
  facet normal 0.000000e+000 0.000000e+000 1.000000e+000
    outer loop
      vertex   -6.554146e+001 3.450408e+001 5.920000e+001
      vertex   -6.704146e+001 1.950408e+001 5.920000e+001
      vertex   -6.288660e+001 3.450408e+001 5.920000e+001
    endloop
  endfacet
  facet normal 0.000000e+000 0.000000e+000 1.000000e+000
    outer loop
      vertex   -6.554146e+001 3.450408e+001 5.920000e+001
      vertex   -6.554146e+001 3.950408e+001 5.920000e+001
      vertex   -6.704146e+001 1.950408e+001 5.920000e+001
    endloop
  endfacet
  facet normal 0.000000e+000 0.000000e+000 1.000000e+000
    outer loop
      vertex   -6.704146e+001 1.950408e+001 5.920000e+001
      vertex   -6.554146e+001 3.950408e+001 5.920000e+001
      vertex   -6.704146e+001 6.450408e+001 5.920000e+001
    endloop
  endfacet
  facet normal 0.000000e+000 0.000000e+000 1.000000e+000
    outer loop
      vertex   -6.704146e+001 6.450408e+001 5.920000e+001
      vertex   -6.554146e+001 3.950408e+001 5.920000e+001
      vertex   -6.288660e+001 3.950408e+001 5.920000e+001
    endloop
  endfacet
  facet normal 0.000000e+000 0.000000e+000 1.000000e+000
    outer loop
      vertex   -8.635909e+000 3.950408e+001 5.920000e+001
      vertex   -6.288660e+001 3.950408e+001 5.920000e+001
      vertex   -8.635909e+000 3.450408e+001 5.920000e+001
    endloop
  endfacet
  facet normal 0.000000e+000 0.000000e+000 1.000000e+000
    outer loop
      vertex   -8.635909e+000 3.950408e+001 5.920000e+001
      vertex   -6.704146e+001 6.450408e+001 5.920000e+001
      vertex   -6.288660e+001 3.950408e+001 5.920000e+001
    endloop
  endfacet
  facet normal 0.000000e+000 0.000000e+000 1.000000e+000
    outer loop
      vertex   -8.635909e+000 3.950408e+001 5.920000e+001
      vertex   -2.441464e+000 6.450408e+001 5.920000e+001
      vertex   -6.704146e+001 6.450408e+001 5.920000e+001
    endloop
  endfacet
  facet normal 0.000000e+000 0.000000e+000 1.000000e+000
    outer loop
      vertex   -8.635909e+000 3.950408e+001 5.920000e+001
      vertex   -3.941464e+000 3.950408e+001 5.920000e+001
      vertex   -2.441464e+000 6.450408e+001 5.920000e+001
    endloop
  endfacet
  facet normal 0.000000e+000 0.000000e+000 1.000000e+000
    outer loop
      vertex   -2.441464e+000 6.450408e+001 5.920000e+001
      vertex   -3.941464e+000 3.950408e+001 5.920000e+001
      vertex   -2.441464e+000 1.950408e+001 5.920000e+001
    endloop
  endfacet
  facet normal 0.000000e+000 0.000000e+000 1.000000e+000
    outer loop
      vertex   -2.441464e+000 1.950408e+001 5.920000e+001
      vertex   -3.941464e+000 3.950408e+001 5.920000e+001
      vertex   -3.941464e+000 3.450408e+001 5.920000e+001
    endloop
  endfacet
  facet normal 0.000000e+000 0.000000e+000 1.000000e+000
    outer loop
      vertex   -8.635909e+000 3.450408e+001 5.920000e+001
      vertex   -2.441464e+000 1.950408e+001 5.920000e+001
      vertex   -3.941464e+000 3.450408e+001 5.920000e+001
    endloop
  endfacet
  facet normal 0.000000e+000 0.000000e+000 1.000000e+000
    outer loop
      vertex   -8.635909e+000 3.450408e+001 5.920000e+001
      vertex   -6.704146e+001 1.950408e+001 5.920000e+001
      vertex   -2.441464e+000 1.950408e+001 5.920000e+001
    endloop
  endfacet
  facet normal 0.000000e+000 0.000000e+000 1.000000e+000
    outer loop
      vertex   -8.635909e+000 3.450408e+001 5.920000e+001
      vertex   -6.288660e+001 3.450408e+001 5.920000e+001
      vertex   -6.704146e+001 1.950408e+001 5.920000e+001
    endloop
  endfacet
  facet normal 0.000000e+000 0.000000e+000 1.000000e+000
    outer loop
      vertex   -8.635909e+000 3.450408e+001 5.920000e+001
      vertex   -6.288660e+001 3.950408e+001 5.920000e+001
      vertex   -6.288660e+001 3.450408e+001 5.920000e+001
    endloop
  endfacet
  facet normal 0.000000e+000 1.000000e+000 0.000000e+000
    outer loop
      vertex   -7.424146e+001 6.450408e+001 5.320000e+001
      vertex   -6.704146e+001 6.450408e+001 5.920000e+001
      vertex   3.558536e+000 6.450408e+001 5.320000e+001
    endloop
  endfacet
  facet normal 0.000000e+000 1.000000e+000 0.000000e+000
    outer loop
      vertex   3.558536e+000 6.450408e+001 5.320000e+001
      vertex   -6.704146e+001 6.450408e+001 5.920000e+001
      vertex   -2.441464e+000 6.450408e+001 5.920000e+001
    endloop
  endfacet
  facet normal 0.000000e+000 2.282453e-001 -9.736037e-001
    outer loop
      vertex   5.558536e+000 8.166893e+001 5.352288e+001
      vertex   5.585364e-001 8.166893e+001 5.352288e+001
      vertex   5.558536e+000 8.414067e+001 5.410234e+001
    endloop
  endfacet
  facet normal 0.000000e+000 2.282453e-001 -9.736037e-001
    outer loop
      vertex   5.558536e+000 8.414067e+001 5.410234e+001
      vertex   5.585364e-001 8.166893e+001 5.352288e+001
      vertex   5.585364e-001 8.414067e+001 5.410234e+001
    endloop
  endfacet
  facet normal 0.000000e+000 -3.151914e-002 -9.995031e-001
    outer loop
      vertex   5.558536e+000 7.913143e+001 5.360290e+001
      vertex   5.585364e-001 7.913143e+001 5.360290e+001
      vertex   5.558536e+000 8.166893e+001 5.352288e+001
    endloop
  endfacet
  facet normal 0.000000e+000 -3.151914e-002 -9.995031e-001
    outer loop
      vertex   5.558536e+000 8.166893e+001 5.352288e+001
      vertex   5.585364e-001 7.913143e+001 5.360290e+001
      vertex   5.585364e-001 8.166893e+001 5.352288e+001
    endloop
  endfacet
  facet normal 0.000000e+000 -2.891356e-001 -9.572881e-001
    outer loop
      vertex   5.558536e+000 7.670110e+001 5.433694e+001
      vertex   5.585364e-001 7.670110e+001 5.433694e+001
      vertex   5.558536e+000 7.913143e+001 5.360290e+001
    endloop
  endfacet
  facet normal 0.000000e+000 -2.891356e-001 -9.572881e-001
    outer loop
      vertex   5.558536e+000 7.913143e+001 5.360290e+001
      vertex   5.585364e-001 7.670110e+001 5.433694e+001
      vertex   5.585364e-001 7.913143e+001 5.360290e+001
    endloop
  endfacet
  facet normal 0.000000e+000 -5.270480e-001 -8.498355e-001
    outer loop
      vertex   5.558536e+000 7.454357e+001 5.567499e+001
      vertex   5.585364e-001 7.454357e+001 5.567499e+001
      vertex   5.558536e+000 7.670110e+001 5.433694e+001
    endloop
  endfacet
  facet normal 0.000000e+000 -5.270480e-001 -8.498355e-001
    outer loop
      vertex   5.558536e+000 7.670110e+001 5.433694e+001
      vertex   5.585364e-001 7.454357e+001 5.567499e+001
      vertex   5.585364e-001 7.670110e+001 5.433694e+001
    endloop
  endfacet
  facet normal 0.000000e+000 -7.290429e-001 -6.844681e-001
    outer loop
      vertex   5.558536e+000 7.280587e+001 5.752586e+001
      vertex   5.585364e-001 7.280587e+001 5.752586e+001
      vertex   5.558536e+000 7.454357e+001 5.567499e+001
    endloop
  endfacet
  facet normal 0.000000e+000 -7.290429e-001 -6.844681e-001
    outer loop
      vertex   5.558536e+000 7.454357e+001 5.567499e+001
      vertex   5.585364e-001 7.280587e+001 5.752586e+001
      vertex   5.585364e-001 7.454357e+001 5.567499e+001
    endloop
  endfacet
  facet normal 0.000000e+000 -8.813547e-001 -4.724552e-001
    outer loop
      vertex   5.558536e+000 7.280587e+001 5.752586e+001
      vertex   5.558536e+000 7.160642e+001 5.976341e+001
      vertex   5.585364e-001 7.280587e+001 5.752586e+001
    endloop
  endfacet
  facet normal 0.000000e+000 -8.813547e-001 -4.724552e-001
    outer loop
      vertex   5.585364e-001 7.280587e+001 5.752586e+001
      vertex   5.558536e+000 7.160642e+001 5.976341e+001
      vertex   5.585364e-001 7.160642e+001 5.976341e+001
    endloop
  endfacet
  facet normal 0.000000e+000 -9.736037e-001 -2.282453e-001
    outer loop
      vertex   5.558536e+000 7.160642e+001 5.976341e+001
      vertex   5.558536e+000 7.102696e+001 6.223515e+001
      vertex   5.585364e-001 7.160642e+001 5.976341e+001
    endloop
  endfacet
  facet normal 0.000000e+000 -9.736037e-001 -2.282453e-001
    outer loop
      vertex   5.585364e-001 7.160642e+001 5.976341e+001
      vertex   5.558536e+000 7.102696e+001 6.223515e+001
      vertex   5.585364e-001 7.102696e+001 6.223515e+001
    endloop
  endfacet
  facet normal 0.000000e+000 -9.995031e-001 3.151914e-002
    outer loop
      vertex   5.558536e+000 7.102696e+001 6.223515e+001
      vertex   5.558536e+000 7.110698e+001 6.477265e+001
      vertex   5.585364e-001 7.102696e+001 6.223515e+001
    endloop
  endfacet
  facet normal 0.000000e+000 -9.995031e-001 3.151914e-002
    outer loop
      vertex   5.585364e-001 7.102696e+001 6.223515e+001
      vertex   5.558536e+000 7.110698e+001 6.477265e+001
      vertex   5.585364e-001 7.110698e+001 6.477265e+001
    endloop
  endfacet
  facet normal 0.000000e+000 -9.572881e-001 2.891356e-001
    outer loop
      vertex   5.558536e+000 7.110698e+001 6.477265e+001
      vertex   5.558536e+000 7.184102e+001 6.720298e+001
      vertex   5.585364e-001 7.110698e+001 6.477265e+001
    endloop
  endfacet
  facet normal 0.000000e+000 -9.572881e-001 2.891356e-001
    outer loop
      vertex   5.585364e-001 7.110698e+001 6.477265e+001
      vertex   5.558536e+000 7.184102e+001 6.720298e+001
      vertex   5.585364e-001 7.184102e+001 6.720298e+001
    endloop
  endfacet
  facet normal 0.000000e+000 -8.498355e-001 5.270480e-001
    outer loop
      vertex   5.558536e+000 7.317907e+001 6.936051e+001
      vertex   5.585364e-001 7.317907e+001 6.936051e+001
      vertex   5.558536e+000 7.184102e+001 6.720298e+001
    endloop
  endfacet
  facet normal 0.000000e+000 -8.498355e-001 5.270480e-001
    outer loop
      vertex   5.558536e+000 7.184102e+001 6.720298e+001
      vertex   5.585364e-001 7.317907e+001 6.936051e+001
      vertex   5.585364e-001 7.184102e+001 6.720298e+001
    endloop
  endfacet
  facet normal 0.000000e+000 -6.844681e-001 7.290429e-001
    outer loop
      vertex   5.558536e+000 7.502994e+001 7.109821e+001
      vertex   5.585364e-001 7.502994e+001 7.109821e+001
      vertex   5.558536e+000 7.317907e+001 6.936051e+001
    endloop
  endfacet
  facet normal 0.000000e+000 -6.844681e-001 7.290429e-001
    outer loop
      vertex   5.558536e+000 7.317907e+001 6.936051e+001
      vertex   5.585364e-001 7.502994e+001 7.109821e+001
      vertex   5.585364e-001 7.317907e+001 6.936051e+001
    endloop
  endfacet
  facet normal 0.000000e+000 -4.724552e-001 8.813547e-001
    outer loop
      vertex   5.558536e+000 7.726749e+001 7.229766e+001
      vertex   5.585364e-001 7.726749e+001 7.229766e+001
      vertex   5.558536e+000 7.502994e+001 7.109821e+001
    endloop
  endfacet
  facet normal 0.000000e+000 -4.724552e-001 8.813547e-001
    outer loop
      vertex   5.558536e+000 7.502994e+001 7.109821e+001
      vertex   5.585364e-001 7.726749e+001 7.229766e+001
      vertex   5.585364e-001 7.502994e+001 7.109821e+001
    endloop
  endfacet
  facet normal 0.000000e+000 -2.282453e-001 9.736037e-001
    outer loop
      vertex   5.558536e+000 7.973923e+001 7.287712e+001
      vertex   5.585364e-001 7.973923e+001 7.287712e+001
      vertex   5.558536e+000 7.726749e+001 7.229766e+001
    endloop
  endfacet
  facet normal 0.000000e+000 -2.282453e-001 9.736037e-001
    outer loop
      vertex   5.558536e+000 7.726749e+001 7.229766e+001
      vertex   5.585364e-001 7.973923e+001 7.287712e+001
      vertex   5.585364e-001 7.726749e+001 7.229766e+001
    endloop
  endfacet
  facet normal 0.000000e+000 3.151914e-002 9.995031e-001
    outer loop
      vertex   5.558536e+000 8.227673e+001 7.279710e+001
      vertex   5.585364e-001 8.227673e+001 7.279710e+001
      vertex   5.558536e+000 7.973923e+001 7.287712e+001
    endloop
  endfacet
  facet normal 0.000000e+000 3.151914e-002 9.995031e-001
    outer loop
      vertex   5.558536e+000 7.973923e+001 7.287712e+001
      vertex   5.585364e-001 8.227673e+001 7.279710e+001
      vertex   5.585364e-001 7.973923e+001 7.287712e+001
    endloop
  endfacet
  facet normal 0.000000e+000 2.891356e-001 9.572881e-001
    outer loop
      vertex   5.558536e+000 8.470706e+001 7.206306e+001
      vertex   5.585364e-001 8.470706e+001 7.206306e+001
      vertex   5.558536e+000 8.227673e+001 7.279710e+001
    endloop
  endfacet
  facet normal 0.000000e+000 2.891356e-001 9.572881e-001
    outer loop
      vertex   5.558536e+000 8.227673e+001 7.279710e+001
      vertex   5.585364e-001 8.470706e+001 7.206306e+001
      vertex   5.585364e-001 8.227673e+001 7.279710e+001
    endloop
  endfacet
  facet normal 0.000000e+000 5.270480e-001 8.498355e-001
    outer loop
      vertex   5.558536e+000 8.686459e+001 7.072501e+001
      vertex   5.585364e-001 8.686459e+001 7.072501e+001
      vertex   5.558536e+000 8.470706e+001 7.206306e+001
    endloop
  endfacet
  facet normal 0.000000e+000 5.270480e-001 8.498355e-001
    outer loop
      vertex   5.558536e+000 8.470706e+001 7.206306e+001
      vertex   5.585364e-001 8.686459e+001 7.072501e+001
      vertex   5.585364e-001 8.470706e+001 7.206306e+001
    endloop
  endfacet
  facet normal 0.000000e+000 7.290429e-001 6.844681e-001
    outer loop
      vertex   5.558536e+000 8.860229e+001 6.887414e+001
      vertex   5.585364e-001 8.860229e+001 6.887414e+001
      vertex   5.558536e+000 8.686459e+001 7.072501e+001
    endloop
  endfacet
  facet normal 0.000000e+000 7.290429e-001 6.844681e-001
    outer loop
      vertex   5.558536e+000 8.686459e+001 7.072501e+001
      vertex   5.585364e-001 8.860229e+001 6.887414e+001
      vertex   5.585364e-001 8.686459e+001 7.072501e+001
    endloop
  endfacet
  facet normal 0.000000e+000 8.813547e-001 4.724552e-001
    outer loop
      vertex   5.558536e+000 8.860229e+001 6.887414e+001
      vertex   5.558536e+000 8.980174e+001 6.663659e+001
      vertex   5.585364e-001 8.860229e+001 6.887414e+001
    endloop
  endfacet
  facet normal 0.000000e+000 8.813547e-001 4.724552e-001
    outer loop
      vertex   5.585364e-001 8.860229e+001 6.887414e+001
      vertex   5.558536e+000 8.980174e+001 6.663659e+001
      vertex   5.585364e-001 8.980174e+001 6.663659e+001
    endloop
  endfacet
  facet normal 0.000000e+000 9.736037e-001 2.282453e-001
    outer loop
      vertex   5.558536e+000 8.980174e+001 6.663659e+001
      vertex   5.558536e+000 9.038120e+001 6.416485e+001
      vertex   5.585364e-001 8.980174e+001 6.663659e+001
    endloop
  endfacet
  facet normal 0.000000e+000 9.736037e-001 2.282453e-001
    outer loop
      vertex   5.585364e-001 8.980174e+001 6.663659e+001
      vertex   5.558536e+000 9.038120e+001 6.416485e+001
      vertex   5.585364e-001 9.038120e+001 6.416485e+001
    endloop
  endfacet
  facet normal 0.000000e+000 9.995031e-001 -3.151914e-002
    outer loop
      vertex   5.558536e+000 9.038120e+001 6.416485e+001
      vertex   5.558536e+000 9.030118e+001 6.162735e+001
      vertex   5.585364e-001 9.038120e+001 6.416485e+001
    endloop
  endfacet
  facet normal 0.000000e+000 9.995031e-001 -3.151914e-002
    outer loop
      vertex   5.585364e-001 9.038120e+001 6.416485e+001
      vertex   5.558536e+000 9.030118e+001 6.162735e+001
      vertex   5.585364e-001 9.030118e+001 6.162735e+001
    endloop
  endfacet
  facet normal 0.000000e+000 9.572881e-001 -2.891356e-001
    outer loop
      vertex   5.558536e+000 9.030118e+001 6.162735e+001
      vertex   5.558536e+000 8.956714e+001 5.919702e+001
      vertex   5.585364e-001 9.030118e+001 6.162735e+001
    endloop
  endfacet
  facet normal 0.000000e+000 9.572881e-001 -2.891356e-001
    outer loop
      vertex   5.585364e-001 9.030118e+001 6.162735e+001
      vertex   5.558536e+000 8.956714e+001 5.919702e+001
      vertex   5.585364e-001 8.956714e+001 5.919702e+001
    endloop
  endfacet
  facet normal 0.000000e+000 8.498355e-001 -5.270480e-001
    outer loop
      vertex   5.558536e+000 8.822909e+001 5.703949e+001
      vertex   5.585364e-001 8.822909e+001 5.703949e+001
      vertex   5.558536e+000 8.956714e+001 5.919702e+001
    endloop
  endfacet
  facet normal 0.000000e+000 8.498355e-001 -5.270480e-001
    outer loop
      vertex   5.558536e+000 8.956714e+001 5.919702e+001
      vertex   5.585364e-001 8.822909e+001 5.703949e+001
      vertex   5.585364e-001 8.956714e+001 5.919702e+001
    endloop
  endfacet
  facet normal 0.000000e+000 6.844681e-001 -7.290429e-001
    outer loop
      vertex   5.558536e+000 8.637822e+001 5.530179e+001
      vertex   5.585364e-001 8.637822e+001 5.530179e+001
      vertex   5.558536e+000 8.822909e+001 5.703949e+001
    endloop
  endfacet
  facet normal 0.000000e+000 6.844681e-001 -7.290429e-001
    outer loop
      vertex   5.558536e+000 8.822909e+001 5.703949e+001
      vertex   5.585364e-001 8.637822e+001 5.530179e+001
      vertex   5.585364e-001 8.822909e+001 5.703949e+001
    endloop
  endfacet
  facet normal 0.000000e+000 4.724552e-001 -8.813547e-001
    outer loop
      vertex   5.558536e+000 8.414067e+001 5.410234e+001
      vertex   5.585364e-001 8.414067e+001 5.410234e+001
      vertex   5.558536e+000 8.637822e+001 5.530179e+001
    endloop
  endfacet
  facet normal 0.000000e+000 4.724552e-001 -8.813547e-001
    outer loop
      vertex   5.558536e+000 8.637822e+001 5.530179e+001
      vertex   5.585364e-001 8.414067e+001 5.410234e+001
      vertex   5.585364e-001 8.637822e+001 5.530179e+001
    endloop
  endfacet
  facet normal 1.000000e+000 1.075142e-015 1.217675e-017
    outer loop
      vertex   5.558536e+000 8.414067e+001 5.410234e+001
      vertex   5.558536e+000 8.227673e+001 7.279710e+001
      vertex   5.558536e+000 8.166893e+001 5.352288e+001
    endloop
  endfacet
  facet normal 1.000000e+000 7.240171e-016 -2.283174e-017
    outer loop
      vertex   5.558536e+000 8.414067e+001 5.410234e+001
      vertex   5.558536e+000 8.470706e+001 7.206306e+001
      vertex   5.558536e+000 8.227673e+001 7.279710e+001
    endloop
  endfacet
  facet normal 1.000000e+000 4.037680e-016 -1.273275e-017
    outer loop
      vertex   5.558536e+000 8.414067e+001 5.410234e+001
      vertex   5.558536e+000 8.637822e+001 5.530179e+001
      vertex   5.558536e+000 8.470706e+001 7.206306e+001
    endloop
  endfacet
  facet normal 1.000000e+000 4.037680e-016 -1.273275e-017
    outer loop
      vertex   5.558536e+000 8.470706e+001 7.206306e+001
      vertex   5.558536e+000 8.637822e+001 5.530179e+001
      vertex   5.558536e+000 8.686459e+001 7.072501e+001
    endloop
  endfacet
  facet normal 1.000000e+000 0.000000e+000 0.000000e+000
    outer loop
      vertex   5.558536e+000 8.686459e+001 7.072501e+001
      vertex   5.558536e+000 8.637822e+001 5.530179e+001
      vertex   5.558536e+000 8.822909e+001 5.703949e+001
    endloop
  endfacet
  facet normal 1.000000e+000 1.970545e-015 1.290821e-017
    outer loop
      vertex   5.558536e+000 8.860229e+001 6.887414e+001
      vertex   5.558536e+000 8.822909e+001 5.703949e+001
      vertex   5.558536e+000 8.956714e+001 5.919702e+001
    endloop
  endfacet
  facet normal 1.000000e+000 -1.819369e-015 -1.813979e-016
    outer loop
      vertex   5.558536e+000 8.980174e+001 6.663659e+001
      vertex   5.558536e+000 8.956714e+001 5.919702e+001
      vertex   5.558536e+000 9.030118e+001 6.162735e+001
    endloop
  endfacet
  facet normal 1.000000e+000 0.000000e+000 0.000000e+000
    outer loop
      vertex   5.558536e+000 9.038120e+001 6.416485e+001
      vertex   5.558536e+000 8.980174e+001 6.663659e+001
      vertex   5.558536e+000 9.030118e+001 6.162735e+001
    endloop
  endfacet
  facet normal 1.000000e+000 5.718516e-016 5.701575e-017
    outer loop
      vertex   5.558536e+000 8.686459e+001 7.072501e+001
      vertex   5.558536e+000 8.822909e+001 5.703949e+001
      vertex   5.558536e+000 8.860229e+001 6.887414e+001
    endloop
  endfacet
  facet normal 1.000000e+000 -4.206754e-016 -2.255054e-016
    outer loop
      vertex   5.558536e+000 8.860229e+001 6.887414e+001
      vertex   5.558536e+000 8.956714e+001 5.919702e+001
      vertex   5.558536e+000 8.980174e+001 6.663659e+001
    endloop
  endfacet
  facet normal 1.000000e+000 3.511251e-016 3.500849e-017
    outer loop
      vertex   5.558536e+000 8.227673e+001 7.279710e+001
      vertex   5.558536e+000 7.973923e+001 7.287712e+001
      vertex   5.558536e+000 8.166893e+001 5.352288e+001
    endloop
  endfacet
  facet normal 1.000000e+000 3.511251e-016 3.500849e-017
    outer loop
      vertex   5.558536e+000 8.166893e+001 5.352288e+001
      vertex   5.558536e+000 7.973923e+001 7.287712e+001
      vertex   5.558536e+000 7.913143e+001 5.360290e+001
    endloop
  endfacet
  facet normal 1.000000e+000 7.131336e-016 2.359262e-017
    outer loop
      vertex   5.558536e+000 7.913143e+001 5.360290e+001
      vertex   5.558536e+000 7.973923e+001 7.287712e+001
      vertex   5.558536e+000 7.726749e+001 7.229766e+001
    endloop
  endfacet
  facet normal 1.000000e+000 4.307324e-016 -6.303424e-017
    outer loop
      vertex   5.558536e+000 7.670110e+001 5.433694e+001
      vertex   5.558536e+000 7.726749e+001 7.229766e+001
      vertex   5.558536e+000 7.502994e+001 7.109821e+001
    endloop
  endfacet
  facet normal 1.000000e+000 0.000000e+000 0.000000e+000
    outer loop
      vertex   5.558536e+000 7.454357e+001 5.567499e+001
      vertex   5.558536e+000 7.502994e+001 7.109821e+001
      vertex   5.558536e+000 7.317907e+001 6.936051e+001
    endloop
  endfacet
  facet normal 1.000000e+000 -2.549904e-016 1.581390e-016
    outer loop
      vertex   5.558536e+000 7.280587e+001 5.752586e+001
      vertex   5.558536e+000 7.317907e+001 6.936051e+001
      vertex   5.558536e+000 7.184102e+001 6.720298e+001
    endloop
  endfacet
  facet normal 1.000000e+000 1.378019e-015 3.147015e-016
    outer loop
      vertex   5.558536e+000 7.160642e+001 5.976341e+001
      vertex   5.558536e+000 7.184102e+001 6.720298e+001
      vertex   5.558536e+000 7.110698e+001 6.477265e+001
    endloop
  endfacet
  facet normal 1.000000e+000 -1.351034e-015 4.260461e-017
    outer loop
      vertex   5.558536e+000 7.102696e+001 6.223515e+001
      vertex   5.558536e+000 7.160642e+001 5.976341e+001
      vertex   5.558536e+000 7.110698e+001 6.477265e+001
    endloop
  endfacet
  facet normal 1.000000e+000 -1.479512e-017 -4.898461e-017
    outer loop
      vertex   5.558536e+000 7.913143e+001 5.360290e+001
      vertex   5.558536e+000 7.726749e+001 7.229766e+001
      vertex   5.558536e+000 7.670110e+001 5.433694e+001
    endloop
  endfacet
  facet normal 1.000000e+000 8.075361e-016 -2.546550e-017
    outer loop
      vertex   5.558536e+000 7.670110e+001 5.433694e+001
      vertex   5.558536e+000 7.502994e+001 7.109821e+001
      vertex   5.558536e+000 7.454357e+001 5.567499e+001
    endloop
  endfacet
  facet normal 1.000000e+000 1.143703e-015 1.140315e-016
    outer loop
      vertex   5.558536e+000 7.454357e+001 5.567499e+001
      vertex   5.558536e+000 7.317907e+001 6.936051e+001
      vertex   5.558536e+000 7.280587e+001 5.752586e+001
    endloop
  endfacet
  facet normal 1.000000e+000 1.330360e-015 3.162044e-016
    outer loop
      vertex   5.558536e+000 7.280587e+001 5.752586e+001
      vertex   5.558536e+000 7.184102e+001 6.720298e+001
      vertex   5.558536e+000 7.160642e+001 5.976341e+001
    endloop
  endfacet
  facet normal 1.000000e+000 4.944224e-016 3.275417e-018
    outer loop
      vertex   5.585364e-001 8.637822e+001 5.530179e+001
      vertex   5.585364e-001 8.414067e+001 5.410234e+001
      vertex   5.585364e-001 9.290408e+001 5.320000e+001
    endloop
  endfacet
  facet normal 1.000000e+000 4.984167e-016 -3.577992e-019
    outer loop
      vertex   5.585364e-001 8.822909e+001 5.703949e+001
      vertex   5.585364e-001 9.290408e+001 5.320000e+001
      vertex   5.585364e-001 8.956714e+001 5.919702e+001
    endloop
  endfacet
  facet normal 1.000000e+000 4.899204e-016 -1.070287e-017
    outer loop
      vertex   5.585364e-001 8.822909e+001 5.703949e+001
      vertex   5.585364e-001 8.637822e+001 5.530179e+001
      vertex   5.585364e-001 9.290408e+001 5.320000e+001
    endloop
  endfacet
  facet normal 1.000000e+000 4.904379e-016 2.904379e-016
    outer loop
      vertex   5.585364e-001 7.913143e+001 5.360290e+001
      vertex   5.585364e-001 6.850408e+001 5.320000e+001
      vertex   5.585364e-001 8.166893e+001 5.352288e+001
    endloop
  endfacet
  facet normal 1.000000e+000 5.015664e-016 -3.100071e-018
    outer loop
      vertex   5.585364e-001 7.913143e+001 5.360290e+001
      vertex   5.585364e-001 7.670110e+001 5.433694e+001
      vertex   5.585364e-001 6.850408e+001 5.320000e+001
    endloop
  endfacet
  facet normal 1.000000e+000 4.941885e-016 5.009199e-017
    outer loop
      vertex   5.585364e-001 6.850408e+001 5.320000e+001
      vertex   5.585364e-001 7.670110e+001 5.433694e+001
      vertex   5.585364e-001 7.454357e+001 5.567499e+001
    endloop
  endfacet
  facet normal 1.000000e+000 5.314695e-016 -4.088126e-017
    outer loop
      vertex   5.585364e-001 7.280587e+001 5.752586e+001
      vertex   5.585364e-001 6.850408e+001 5.320000e+001
      vertex   5.585364e-001 7.454357e+001 5.567499e+001
    endloop
  endfacet
  facet normal 1.000000e+000 4.807085e-016 9.597386e-018
    outer loop
      vertex   5.585364e-001 7.280587e+001 5.752586e+001
      vertex   5.585364e-001 7.160642e+001 5.976341e+001
      vertex   5.585364e-001 6.850408e+001 5.320000e+001
    endloop
  endfacet
  facet normal 1.000000e+000 5.254724e-016 -1.156128e-017
    outer loop
      vertex   5.585364e-001 6.850408e+001 5.320000e+001
      vertex   5.585364e-001 7.160642e+001 5.976341e+001
      vertex   5.585364e-001 7.102696e+001 6.223515e+001
    endloop
  endfacet
  facet normal 1.000000e+000 5.929564e-016 2.505387e-017
    outer loop
      vertex   5.585364e-001 6.850408e+001 7.320000e+001
      vertex   5.585364e-001 7.102696e+001 6.223515e+001
      vertex   5.585364e-001 7.110698e+001 6.477265e+001
    endloop
  endfacet
  facet normal 1.000000e+000 4.831152e-016 -8.872045e-018
    outer loop
      vertex   5.585364e-001 7.184102e+001 6.720298e+001
      vertex   5.585364e-001 6.850408e+001 7.320000e+001
      vertex   5.585364e-001 7.110698e+001 6.477265e+001
    endloop
  endfacet
  facet normal 1.000000e+000 4.984167e-016 -3.577992e-019
    outer loop
      vertex   5.585364e-001 7.184102e+001 6.720298e+001
      vertex   5.585364e-001 7.317907e+001 6.936051e+001
      vertex   5.585364e-001 6.850408e+001 7.320000e+001
    endloop
  endfacet
  facet normal 1.000000e+000 4.899204e-016 -1.070287e-017
    outer loop
      vertex   5.585364e-001 6.850408e+001 7.320000e+001
      vertex   5.585364e-001 7.317907e+001 6.936051e+001
      vertex   5.585364e-001 7.502994e+001 7.109821e+001
    endloop
  endfacet
  facet normal 1.000000e+000 4.944224e-016 3.275417e-018
    outer loop
      vertex   5.585364e-001 7.726749e+001 7.229766e+001
      vertex   5.585364e-001 6.850408e+001 7.320000e+001
      vertex   5.585364e-001 7.502994e+001 7.109821e+001
    endloop
  endfacet
  facet normal 1.000000e+000 5.077916e-016 1.331156e-016
    outer loop
      vertex   5.585364e-001 7.726749e+001 7.229766e+001
      vertex   5.585364e-001 7.973923e+001 7.287712e+001
      vertex   5.585364e-001 6.850408e+001 7.320000e+001
    endloop
  endfacet
  facet normal 1.000000e+000 5.005104e-016 -1.202490e-016
    outer loop
      vertex   5.585364e-001 6.850408e+001 7.320000e+001
      vertex   5.585364e-001 7.973923e+001 7.287712e+001
      vertex   5.585364e-001 9.290408e+001 7.320000e+001
    endloop
  endfacet
  facet normal 1.000000e+000 4.904379e-016 2.904379e-016
    outer loop
      vertex   5.585364e-001 9.290408e+001 7.320000e+001
      vertex   5.585364e-001 7.973923e+001 7.287712e+001
      vertex   5.585364e-001 8.227673e+001 7.279710e+001
    endloop
  endfacet
  facet normal 1.000000e+000 5.015664e-016 -3.100071e-018
    outer loop
      vertex   5.585364e-001 8.470706e+001 7.206306e+001
      vertex   5.585364e-001 9.290408e+001 7.320000e+001
      vertex   5.585364e-001 8.227673e+001 7.279710e+001
    endloop
  endfacet
  facet normal 1.000000e+000 4.941885e-016 5.009199e-017
    outer loop
      vertex   5.585364e-001 8.470706e+001 7.206306e+001
      vertex   5.585364e-001 8.686459e+001 7.072501e+001
      vertex   5.585364e-001 9.290408e+001 7.320000e+001
    endloop
  endfacet
  facet normal 1.000000e+000 5.314695e-016 -4.088126e-017
    outer loop
      vertex   5.585364e-001 9.290408e+001 7.320000e+001
      vertex   5.585364e-001 8.686459e+001 7.072501e+001
      vertex   5.585364e-001 8.860229e+001 6.887414e+001
    endloop
  endfacet
  facet normal 1.000000e+000 4.807085e-016 9.597386e-018
    outer loop
      vertex   5.585364e-001 8.980174e+001 6.663659e+001
      vertex   5.585364e-001 9.290408e+001 7.320000e+001
      vertex   5.585364e-001 8.860229e+001 6.887414e+001
    endloop
  endfacet
  facet normal 1.000000e+000 5.254724e-016 -1.156128e-017
    outer loop
      vertex   5.585364e-001 8.980174e+001 6.663659e+001
      vertex   5.585364e-001 9.038120e+001 6.416485e+001
      vertex   5.585364e-001 9.290408e+001 7.320000e+001
    endloop
  endfacet
  facet normal 1.000000e+000 4.840681e-016 0.000000e+000
    outer loop
      vertex   5.585364e-001 9.290408e+001 7.320000e+001
      vertex   5.585364e-001 9.038120e+001 6.416485e+001
      vertex   5.585364e-001 9.290408e+001 5.320000e+001
    endloop
  endfacet
  facet normal 1.000000e+000 5.929564e-016 2.505387e-017
    outer loop
      vertex   5.585364e-001 9.290408e+001 5.320000e+001
      vertex   5.585364e-001 9.038120e+001 6.416485e+001
      vertex   5.585364e-001 9.030118e+001 6.162735e+001
    endloop
  endfacet
  facet normal 1.000000e+000 4.831152e-016 -8.872045e-018
    outer loop
      vertex   5.585364e-001 8.956714e+001 5.919702e+001
      vertex   5.585364e-001 9.290408e+001 5.320000e+001
      vertex   5.585364e-001 9.030118e+001 6.162735e+001
    endloop
  endfacet
  facet normal 1.000000e+000 4.840681e-016 0.000000e+000
    outer loop
      vertex   5.585364e-001 6.850408e+001 5.320000e+001
      vertex   5.585364e-001 7.102696e+001 6.223515e+001
      vertex   5.585364e-001 6.850408e+001 7.320000e+001
    endloop
  endfacet
  facet normal 1.000000e+000 5.005104e-016 -1.202490e-016
    outer loop
      vertex   5.585364e-001 6.850408e+001 5.320000e+001
      vertex   5.585364e-001 9.290408e+001 5.320000e+001
      vertex   5.585364e-001 8.166893e+001 5.352288e+001
    endloop
  endfacet
  facet normal 1.000000e+000 5.077916e-016 1.331156e-016
    outer loop
      vertex   5.585364e-001 8.166893e+001 5.352288e+001
      vertex   5.585364e-001 9.290408e+001 5.320000e+001
      vertex   5.585364e-001 8.414067e+001 5.410234e+001
    endloop
  endfacet
  facet normal 2.501911e-016 -1.000000e+000 0.000000e+000
    outer loop
      vertex   -5.624146e+001 6.850408e+001 7.320000e+001
      vertex   -5.624146e+001 6.850408e+001 5.320000e+001
      vertex   5.585364e-001 6.850408e+001 7.320000e+001
    endloop
  endfacet
  facet normal 2.501911e-016 -1.000000e+000 0.000000e+000
    outer loop
      vertex   5.585364e-001 6.850408e+001 7.320000e+001
      vertex   -5.624146e+001 6.850408e+001 5.320000e+001
      vertex   5.585364e-001 6.850408e+001 5.320000e+001
    endloop
  endfacet
  facet normal -1.000000e+000 0.000000e+000 0.000000e+000
    outer loop
      vertex   -5.624146e+001 9.290408e+001 7.320000e+001
      vertex   -5.624146e+001 9.290408e+001 5.320000e+001
      vertex   -5.624146e+001 6.850408e+001 7.320000e+001
    endloop
  endfacet
  facet normal -1.000000e+000 0.000000e+000 0.000000e+000
    outer loop
      vertex   -5.624146e+001 6.850408e+001 7.320000e+001
      vertex   -5.624146e+001 9.290408e+001 5.320000e+001
      vertex   -5.624146e+001 6.850408e+001 5.320000e+001
    endloop
  endfacet
  facet normal 0.000000e+000 1.000000e+000 0.000000e+000
    outer loop
      vertex   5.585364e-001 9.290408e+001 7.320000e+001
      vertex   5.585364e-001 9.290408e+001 5.320000e+001
      vertex   -5.624146e+001 9.290408e+001 7.320000e+001
    endloop
  endfacet
  facet normal 0.000000e+000 1.000000e+000 0.000000e+000
    outer loop
      vertex   -5.624146e+001 9.290408e+001 7.320000e+001
      vertex   5.585364e-001 9.290408e+001 5.320000e+001
      vertex   -5.624146e+001 9.290408e+001 5.320000e+001
    endloop
  endfacet
  facet normal 0.000000e+000 0.000000e+000 1.000000e+000
    outer loop
      vertex   5.585364e-001 9.290408e+001 7.320000e+001
      vertex   -5.624146e+001 9.290408e+001 7.320000e+001
      vertex   5.585364e-001 6.850408e+001 7.320000e+001
    endloop
  endfacet
  facet normal 0.000000e+000 0.000000e+000 1.000000e+000
    outer loop
      vertex   5.585364e-001 6.850408e+001 7.320000e+001
      vertex   -5.624146e+001 9.290408e+001 7.320000e+001
      vertex   -5.624146e+001 6.850408e+001 7.320000e+001
    endloop
  endfacet
  facet normal 7.071068e-001 1.033806e-016 7.071068e-001
    outer loop
      vertex   2.355854e+001 9.690408e+001 4.120000e+001
      vertex   1.155854e+001 9.690408e+001 5.320000e+001
      vertex   2.355854e+001 6.450408e+001 4.120000e+001
    endloop
  endfacet
  facet normal 7.071068e-001 0.000000e+000 7.071068e-001
    outer loop
      vertex   2.355854e+001 6.450408e+001 4.120000e+001
      vertex   1.155854e+001 9.690408e+001 5.320000e+001
      vertex   1.155854e+001 6.450408e+001 5.320000e+001
    endloop
  endfacet
  facet normal 0.000000e+000 1.000000e+000 0.000000e+000
    outer loop
      vertex   2.355854e+001 9.690408e+001 4.120000e+001
      vertex   2.355854e+001 9.690408e+001 3.320000e+001
      vertex   1.155854e+001 9.690408e+001 5.320000e+001
    endloop
  endfacet
  facet normal 0.000000e+000 1.000000e+000 0.000000e+000
    outer loop
      vertex   1.155854e+001 9.690408e+001 5.320000e+001
      vertex   2.355854e+001 9.690408e+001 3.320000e+001
      vertex   3.558536e+000 9.690408e+001 5.320000e+001
    endloop
  endfacet
  facet normal 0.000000e+000 -1.000000e+000 0.000000e+000
    outer loop
      vertex   1.155854e+001 6.450408e+001 5.320000e+001
      vertex   3.558536e+000 6.450408e+001 5.320000e+001
      vertex   2.355854e+001 6.450408e+001 4.120000e+001
    endloop
  endfacet
  facet normal 0.000000e+000 -1.000000e+000 0.000000e+000
    outer loop
      vertex   2.355854e+001 6.450408e+001 4.120000e+001
      vertex   3.558536e+000 6.450408e+001 5.320000e+001
      vertex   2.355854e+001 6.450408e+001 3.320000e+001
    endloop
  endfacet
  facet normal -6.401844e-001 0.000000e+000 7.682213e-001
    outer loop
      vertex   -6.704146e+001 9.690408e+001 5.920000e+001
      vertex   -6.704146e+001 1.419041e+002 5.920000e+001
      vertex   -7.424146e+001 9.690408e+001 5.320000e+001
    endloop
  endfacet
  facet normal -6.401844e-001 2.527102e-017 7.682213e-001
    outer loop
      vertex   -7.424146e+001 9.690408e+001 5.320000e+001
      vertex   -6.704146e+001 1.419041e+002 5.920000e+001
      vertex   -8.624146e+001 1.419041e+002 4.320000e+001
    endloop
  endfacet
  facet normal -6.401844e-001 0.000000e+000 7.682213e-001
    outer loop
      vertex   -8.624146e+001 1.950408e+001 4.320000e+001
      vertex   -7.424146e+001 9.690408e+001 5.320000e+001
      vertex   -8.624146e+001 1.419041e+002 4.320000e+001
    endloop
  endfacet
  facet normal -6.401844e-001 0.000000e+000 7.682213e-001
    outer loop
      vertex   -8.624146e+001 1.950408e+001 4.320000e+001
      vertex   -7.424146e+001 6.450408e+001 5.320000e+001
      vertex   -7.424146e+001 9.690408e+001 5.320000e+001
    endloop
  endfacet
  facet normal -6.401844e-001 -2.527102e-017 7.682213e-001
    outer loop
      vertex   -8.624146e+001 1.950408e+001 4.320000e+001
      vertex   -6.704146e+001 1.950408e+001 5.920000e+001
      vertex   -7.424146e+001 6.450408e+001 5.320000e+001
    endloop
  endfacet
  facet normal -6.401844e-001 0.000000e+000 7.682213e-001
    outer loop
      vertex   -7.424146e+001 6.450408e+001 5.320000e+001
      vertex   -6.704146e+001 1.950408e+001 5.920000e+001
      vertex   -6.704146e+001 6.450408e+001 5.920000e+001
    endloop
  endfacet
  facet normal -5.547002e-001 3.864100e-017 -8.320503e-001
    outer loop
      vertex   -8.624146e+001 1.419041e+002 1.000000e+001
      vertex   -7.124146e+001 1.419041e+002 0.000000e+000
      vertex   -8.624146e+001 1.950408e+001 1.000000e+001
    endloop
  endfacet
  facet normal -5.547002e-001 0.000000e+000 -8.320503e-001
    outer loop
      vertex   -8.624146e+001 1.950408e+001 1.000000e+001
      vertex   -7.124146e+001 1.419041e+002 0.000000e+000
      vertex   -7.124146e+001 1.950408e+001 0.000000e+000
    endloop
  endfacet
  facet normal 0.000000e+000 -1.000000e+000 0.000000e+000
    outer loop
      vertex   -2.441464e+000 1.950408e+001 5.920000e+001
      vertex   -6.704146e+001 1.950408e+001 5.920000e+001
      vertex   2.355854e+001 1.950408e+001 3.320000e+001
    endloop
  endfacet
  facet normal 0.000000e+000 -1.000000e+000 0.000000e+000
    outer loop
      vertex   2.355854e+001 1.950408e+001 3.320000e+001
      vertex   -6.704146e+001 1.950408e+001 5.920000e+001
      vertex   -8.624146e+001 1.950408e+001 4.320000e+001
    endloop
  endfacet
  facet normal 0.000000e+000 -1.000000e+000 0.000000e+000
    outer loop
      vertex   8.558536e+000 1.950408e+001 0.000000e+000
      vertex   -8.624146e+001 1.950408e+001 4.320000e+001
      vertex   -7.124146e+001 1.950408e+001 0.000000e+000
    endloop
  endfacet
  facet normal 0.000000e+000 -1.000000e+000 0.000000e+000
    outer loop
      vertex   8.558536e+000 1.950408e+001 0.000000e+000
      vertex   2.355854e+001 1.950408e+001 3.320000e+001
      vertex   -8.624146e+001 1.950408e+001 4.320000e+001
    endloop
  endfacet
  facet normal 0.000000e+000 -1.000000e+000 0.000000e+000
    outer loop
      vertex   8.558536e+000 1.950408e+001 0.000000e+000
      vertex   2.355854e+001 1.950408e+001 1.000000e+001
      vertex   2.355854e+001 1.950408e+001 3.320000e+001
    endloop
  endfacet
  facet normal 0.000000e+000 -1.000000e+000 0.000000e+000
    outer loop
      vertex   -8.624146e+001 1.950408e+001 4.320000e+001
      vertex   -8.624146e+001 1.950408e+001 1.000000e+001
      vertex   -7.124146e+001 1.950408e+001 0.000000e+000
    endloop
  endfacet
  facet normal 5.547002e-001 0.000000e+000 -8.320503e-001
    outer loop
      vertex   8.558536e+000 1.419041e+002 0.000000e+000
      vertex   2.355854e+001 1.419041e+002 1.000000e+001
      vertex   8.558536e+000 1.950408e+001 0.000000e+000
    endloop
  endfacet
  facet normal 5.547002e-001 -4.025104e-018 -8.320503e-001
    outer loop
      vertex   8.558536e+000 1.950408e+001 0.000000e+000
      vertex   2.355854e+001 1.419041e+002 1.000000e+001
      vertex   2.355854e+001 1.950408e+001 1.000000e+001
    endloop
  endfacet
  facet normal 1.000000e+000 3.289550e-016 0.000000e+000
    outer loop
      vertex   2.355854e+001 6.450408e+001 4.120000e+001
      vertex   2.355854e+001 6.450408e+001 3.320000e+001
      vertex   2.355854e+001 9.690408e+001 4.120000e+001
    endloop
  endfacet
  facet normal 1.000000e+000 0.000000e+000 1.332268e-015
    outer loop
      vertex   2.355854e+001 9.690408e+001 4.120000e+001
      vertex   2.355854e+001 6.450408e+001 3.320000e+001
      vertex   2.355854e+001 9.690408e+001 3.320000e+001
    endloop
  endfacet
  facet normal 1.000000e+000 0.000000e+000 0.000000e+000
    outer loop
      vertex   2.355854e+001 9.690408e+001 3.320000e+001
      vertex   2.355854e+001 6.450408e+001 3.320000e+001
      vertex   2.355854e+001 1.950408e+001 1.000000e+001
    endloop
  endfacet
  facet normal 1.000000e+000 1.451272e-016 -4.841743e-016
    outer loop
      vertex   2.355854e+001 1.419041e+002 1.000000e+001
      vertex   2.355854e+001 9.690408e+001 3.320000e+001
      vertex   2.355854e+001 1.950408e+001 1.000000e+001
    endloop
  endfacet
  facet normal 1.000000e+000 0.000000e+000 -7.656711e-016
    outer loop
      vertex   2.355854e+001 1.419041e+002 1.000000e+001
      vertex   2.355854e+001 1.419041e+002 3.320000e+001
      vertex   2.355854e+001 9.690408e+001 3.320000e+001
    endloop
  endfacet
  facet normal 1.000000e+000 0.000000e+000 0.000000e+000
    outer loop
      vertex   2.355854e+001 6.450408e+001 3.320000e+001
      vertex   2.355854e+001 1.950408e+001 3.320000e+001
      vertex   2.355854e+001 1.950408e+001 1.000000e+001
    endloop
  endfacet
  facet normal 0.000000e+000 0.000000e+000 -1.000000e+000
    outer loop
      vertex   -7.124146e+001 1.419041e+002 0.000000e+000
      vertex   8.558536e+000 1.419041e+002 0.000000e+000
      vertex   -7.124146e+001 1.950408e+001 0.000000e+000
    endloop
  endfacet
  facet normal 0.000000e+000 0.000000e+000 -1.000000e+000
    outer loop
      vertex   -7.124146e+001 1.950408e+001 0.000000e+000
      vertex   8.558536e+000 1.419041e+002 0.000000e+000
      vertex   8.558536e+000 1.950408e+001 0.000000e+000
    endloop
  endfacet
  facet normal 7.071068e-001 0.000000e+000 7.071068e-001
    outer loop
      vertex   2.355854e+001 9.690408e+001 3.320000e+001
      vertex   2.355854e+001 1.419041e+002 3.320000e+001
      vertex   3.558536e+000 9.690408e+001 5.320000e+001
    endloop
  endfacet
  facet normal 7.071068e-001 -6.870832e-017 7.071068e-001
    outer loop
      vertex   3.558536e+000 9.690408e+001 5.320000e+001
      vertex   2.355854e+001 1.419041e+002 3.320000e+001
      vertex   -2.441464e+000 1.419041e+002 5.920000e+001
    endloop
  endfacet
  facet normal 7.071068e-001 -5.582551e-017 7.071068e-001
    outer loop
      vertex   -2.441464e+000 9.690408e+001 5.920000e+001
      vertex   3.558536e+000 9.690408e+001 5.320000e+001
      vertex   -2.441464e+000 1.419041e+002 5.920000e+001
    endloop
  endfacet
  facet normal 7.071068e-001 0.000000e+000 7.071068e-001
    outer loop
      vertex   2.355854e+001 6.450408e+001 3.320000e+001
      vertex   3.558536e+000 6.450408e+001 5.320000e+001
      vertex   2.355854e+001 1.950408e+001 3.320000e+001
    endloop
  endfacet
  facet normal 7.071068e-001 4.294270e-017 7.071068e-001
    outer loop
      vertex   2.355854e+001 1.950408e+001 3.320000e+001
      vertex   3.558536e+000 6.450408e+001 5.320000e+001
      vertex   -2.441464e+000 1.950408e+001 5.920000e+001
    endloop
  endfacet
  facet normal 7.071068e-001 0.000000e+000 7.071068e-001
    outer loop
      vertex   -2.441464e+000 1.950408e+001 5.920000e+001
      vertex   3.558536e+000 6.450408e+001 5.320000e+001
      vertex   -2.441464e+000 6.450408e+001 5.920000e+001
    endloop
  endfacet
  facet normal -1.000000e+000 0.000000e+000 8.560756e-016
    outer loop
      vertex   -8.624146e+001 1.419041e+002 4.320000e+001
      vertex   -8.624146e+001 1.419041e+002 1.000000e+001
      vertex   -8.624146e+001 1.950408e+001 4.320000e+001
    endloop
  endfacet
  facet normal -1.000000e+000 -2.322035e-016 0.000000e+000
    outer loop
      vertex   -8.624146e+001 1.950408e+001 4.320000e+001
      vertex   -8.624146e+001 1.419041e+002 1.000000e+001
      vertex   -8.624146e+001 1.950408e+001 1.000000e+001
    endloop
  endfacet
endsolid
