solid ascii
  facet normal 3.739699e-016 -1.000000e+000 0.000000e+000
    outer loop
      vertex   7.830814e+001 1.097284e+002 3.000000e+000
      vertex   7.830814e+001 1.097284e+002 5.000000e+000
      vertex   2.308142e+000 1.097284e+002 3.000000e+000
    endloop
  endfacet
  facet normal 3.739699e-016 -1.000000e+000 0.000000e+000
    outer loop
      vertex   2.308142e+000 1.097284e+002 3.000000e+000
      vertex   7.830814e+001 1.097284e+002 5.000000e+000
      vertex   2.308142e+000 1.097284e+002 5.000000e+000
    endloop
  endfacet
  facet normal -3.739699e-016 1.000000e+000 0.000000e+000
    outer loop
      vertex   2.308142e+000 7.266791e+001 3.000000e+000
      vertex   2.308142e+000 7.266791e+001 5.000000e+000
      vertex   7.830814e+001 7.266791e+001 3.000000e+000
    endloop
  endfacet
  facet normal -3.739699e-016 1.000000e+000 0.000000e+000
    outer loop
      vertex   7.830814e+001 7.266791e+001 3.000000e+000
      vertex   2.308142e+000 7.266791e+001 5.000000e+000
      vertex   7.830814e+001 7.266791e+001 5.000000e+000
    endloop
  endfacet
  facet normal 0.000000e+000 0.000000e+000 1.000000e+000
    outer loop
      vertex   7.830814e+001 1.097284e+002 3.000000e+000
      vertex   2.308142e+000 1.097284e+002 3.000000e+000
      vertex   7.830814e+001 7.266791e+001 3.000000e+000
    endloop
  endfacet
  facet normal 0.000000e+000 0.000000e+000 1.000000e+000
    outer loop
      vertex   7.830814e+001 7.266791e+001 3.000000e+000
      vertex   2.308142e+000 1.097284e+002 3.000000e+000
      vertex   2.308142e+000 7.266791e+001 3.000000e+000
    endloop
  endfacet
  facet normal 5.199093e-016 -1.000000e+000 0.000000e+000
    outer loop
      vertex   8.230814e+001 7.066791e+001 3.000000e+000
      vertex   8.230814e+001 7.066791e+001 5.000000e+000
      vertex   3.081421e-001 7.066791e+001 3.000000e+000
    endloop
  endfacet
  facet normal 5.199093e-016 -1.000000e+000 0.000000e+000
    outer loop
      vertex   3.081421e-001 7.066791e+001 3.000000e+000
      vertex   8.230814e+001 7.066791e+001 5.000000e+000
      vertex   3.081421e-001 7.066791e+001 5.000000e+000
    endloop
  endfacet
  facet normal 0.000000e+000 -1.000000e+000 0.000000e+000
    outer loop
      vertex   3.081421e-001 1.097284e+002 3.000000e+000
      vertex   3.081421e-001 1.097284e+002 5.000000e+000
      vertex   -2.369186e+001 1.097284e+002 3.000000e+000
    endloop
  endfacet
  facet normal 0.000000e+000 -1.000000e+000 0.000000e+000
    outer loop
      vertex   -2.369186e+001 1.097284e+002 3.000000e+000
      vertex   3.081421e-001 1.097284e+002 5.000000e+000
      vertex   -2.369186e+001 1.097284e+002 5.000000e+000
    endloop
  endfacet
  facet normal 1.000000e+000 1.091449e-015 0.000000e+000
    outer loop
      vertex   8.230814e+001 7.066791e+001 5.000000e+000
      vertex   8.230814e+001 7.066791e+001 3.000000e+000
      vertex   8.230814e+001 1.097284e+002 5.000000e+000
    endloop
  endfacet
  facet normal 1.000000e+000 1.091449e-015 0.000000e+000
    outer loop
      vertex   8.230814e+001 1.097284e+002 5.000000e+000
      vertex   8.230814e+001 7.066791e+001 3.000000e+000
      vertex   8.230814e+001 1.097284e+002 3.000000e+000
    endloop
  endfacet
  facet normal -1.387779e-016 1.000000e+000 0.000000e+000
    outer loop
      vertex   -2.369186e+001 2.872843e+001 3.000000e+000
      vertex   -2.369186e+001 2.872843e+001 5.000000e+000
      vertex   1.043081e+002 2.872843e+001 3.000000e+000
    endloop
  endfacet
  facet normal -1.387779e-016 1.000000e+000 0.000000e+000
    outer loop
      vertex   1.043081e+002 2.872843e+001 3.000000e+000
      vertex   -2.369186e+001 2.872843e+001 5.000000e+000
      vertex   1.043081e+002 2.872843e+001 5.000000e+000
    endloop
  endfacet
  facet normal 0.000000e+000 -1.000000e+000 0.000000e+000
    outer loop
      vertex   1.043081e+002 1.097284e+002 3.000000e+000
      vertex   1.043081e+002 1.097284e+002 5.000000e+000
      vertex   8.230814e+001 1.097284e+002 3.000000e+000
    endloop
  endfacet
  facet normal 0.000000e+000 -1.000000e+000 0.000000e+000
    outer loop
      vertex   8.230814e+001 1.097284e+002 3.000000e+000
      vertex   1.043081e+002 1.097284e+002 5.000000e+000
      vertex   8.230814e+001 1.097284e+002 5.000000e+000
    endloop
  endfacet
  facet normal 3.700743e-017 2.759390e-032 1.000000e+000
    outer loop
      vertex   -2.369186e+001 1.097284e+002 3.000000e+000
      vertex   -2.369186e+001 2.872843e+001 3.000000e+000
      vertex   3.081421e-001 7.066791e+001 3.000000e+000
    endloop
  endfacet
  facet normal 0.000000e+000 -2.273852e-017 1.000000e+000
    outer loop
      vertex   3.081421e-001 1.097284e+002 3.000000e+000
      vertex   -2.369186e+001 1.097284e+002 3.000000e+000
      vertex   3.081421e-001 7.066791e+001 3.000000e+000
    endloop
  endfacet
  facet normal -4.037175e-017 -1.416585e-032 1.000000e+000
    outer loop
      vertex   1.043081e+002 1.097284e+002 3.000000e+000
      vertex   8.230814e+001 7.066791e+001 3.000000e+000
      vertex   1.043081e+002 2.872843e+001 3.000000e+000
    endloop
  endfacet
  facet normal 0.000000e+000 -2.273852e-017 1.000000e+000
    outer loop
      vertex   1.043081e+002 1.097284e+002 3.000000e+000
      vertex   8.230814e+001 1.097284e+002 3.000000e+000
      vertex   8.230814e+001 7.066791e+001 3.000000e+000
    endloop
  endfacet
  facet normal -1.101044e-032 2.117762e-017 1.000000e+000
    outer loop
      vertex   8.230814e+001 7.066791e+001 3.000000e+000
      vertex   3.081421e-001 7.066791e+001 3.000000e+000
      vertex   1.043081e+002 2.872843e+001 3.000000e+000
    endloop
  endfacet
  facet normal -3.526783e-033 2.117762e-017 1.000000e+000
    outer loop
      vertex   1.043081e+002 2.872843e+001 3.000000e+000
      vertex   3.081421e-001 7.066791e+001 3.000000e+000
      vertex   -2.369186e+001 2.872843e+001 3.000000e+000
    endloop
  endfacet
  facet normal 1.000000e+000 0.000000e+000 0.000000e+000
    outer loop
      vertex   1.043081e+002 1.097284e+002 5.000000e+000
      vertex   1.043081e+002 1.097284e+002 3.000000e+000
      vertex   1.043081e+002 1.117284e+002 5.000000e+000
    endloop
  endfacet
  facet normal 1.000000e+000 0.000000e+000 0.000000e+000
    outer loop
      vertex   1.043081e+002 1.117284e+002 5.000000e+000
      vertex   1.043081e+002 1.097284e+002 3.000000e+000
      vertex   1.043081e+002 1.117284e+002 0.000000e+000
    endloop
  endfacet
  facet normal 1.000000e+000 1.671865e-016 1.114577e-016
    outer loop
      vertex   1.043081e+002 1.117284e+002 0.000000e+000
      vertex   1.043081e+002 1.097284e+002 3.000000e+000
      vertex   1.043081e+002 2.672843e+001 0.000000e+000
    endloop
  endfacet
  facet normal 1.000000e+000 3.508853e-016 -4.970875e-015
    outer loop
      vertex   1.043081e+002 2.672843e+001 0.000000e+000
      vertex   1.043081e+002 1.097284e+002 3.000000e+000
      vertex   1.043081e+002 2.872843e+001 3.000000e+000
    endloop
  endfacet
  facet normal 1.000000e+000 -7.105427e-015 0.000000e+000
    outer loop
      vertex   1.043081e+002 2.672843e+001 5.000000e+000
      vertex   1.043081e+002 2.872843e+001 3.000000e+000
      vertex   1.043081e+002 2.872843e+001 5.000000e+000
    endloop
  endfacet
  facet normal 1.000000e+000 -7.105427e-015 0.000000e+000
    outer loop
      vertex   1.043081e+002 2.672843e+001 5.000000e+000
      vertex   1.043081e+002 2.672843e+001 0.000000e+000
      vertex   1.043081e+002 2.872843e+001 3.000000e+000
    endloop
  endfacet
  facet normal -1.000000e+000 7.105427e-015 0.000000e+000
    outer loop
      vertex   -2.369186e+001 2.872843e+001 5.000000e+000
      vertex   -2.369186e+001 2.872843e+001 3.000000e+000
      vertex   -2.369186e+001 2.672843e+001 5.000000e+000
    endloop
  endfacet
  facet normal -1.000000e+000 7.105427e-015 0.000000e+000
    outer loop
      vertex   -2.369186e+001 2.672843e+001 5.000000e+000
      vertex   -2.369186e+001 2.872843e+001 3.000000e+000
      vertex   -2.369186e+001 2.672843e+001 0.000000e+000
    endloop
  endfacet
  facet normal -1.000000e+000 -7.456313e-016 5.234039e-015
    outer loop
      vertex   -2.369186e+001 2.672843e+001 0.000000e+000
      vertex   -2.369186e+001 2.872843e+001 3.000000e+000
      vertex   -2.369186e+001 1.097284e+002 3.000000e+000
    endloop
  endfacet
  facet normal -1.000000e+000 1.065814e-014 0.000000e+000
    outer loop
      vertex   -2.369186e+001 1.117284e+002 0.000000e+000
      vertex   -2.369186e+001 1.097284e+002 3.000000e+000
      vertex   -2.369186e+001 1.117284e+002 5.000000e+000
    endloop
  endfacet
  facet normal -1.000000e+000 -2.925764e-016 -7.300478e-015
    outer loop
      vertex   -2.369186e+001 1.117284e+002 0.000000e+000
      vertex   -2.369186e+001 2.672843e+001 0.000000e+000
      vertex   -2.369186e+001 1.097284e+002 3.000000e+000
    endloop
  endfacet
  facet normal -1.000000e+000 1.065814e-014 0.000000e+000
    outer loop
      vertex   -2.369186e+001 1.097284e+002 3.000000e+000
      vertex   -2.369186e+001 1.097284e+002 5.000000e+000
      vertex   -2.369186e+001 1.117284e+002 5.000000e+000
    endloop
  endfacet
  facet normal 0.000000e+000 0.000000e+000 1.000000e+000
    outer loop
      vertex   -2.369186e+001 1.097284e+002 5.000000e+000
      vertex   3.081421e-001 1.097284e+002 5.000000e+000
      vertex   -2.369186e+001 1.117284e+002 5.000000e+000
    endloop
  endfacet
  facet normal 0.000000e+000 0.000000e+000 1.000000e+000
    outer loop
      vertex   -2.369186e+001 1.117284e+002 5.000000e+000
      vertex   3.081421e-001 1.097284e+002 5.000000e+000
      vertex   3.081421e-001 1.117284e+002 5.000000e+000
    endloop
  endfacet
  facet normal 2.033782e-030 -1.465494e-014 1.000000e+000
    outer loop
      vertex   1.043081e+002 2.872843e+001 5.000000e+000
      vertex   -2.369186e+001 2.872843e+001 5.000000e+000
      vertex   1.043081e+002 2.672843e+001 5.000000e+000
    endloop
  endfacet
  facet normal 2.289835e-016 -1.627026e-030 1.000000e+000
    outer loop
      vertex   1.043081e+002 2.672843e+001 5.000000e+000
      vertex   -2.369186e+001 2.872843e+001 5.000000e+000
      vertex   -2.369186e+001 2.672843e+001 5.000000e+000
    endloop
  endfacet
  facet normal -8.303799e-031 2.220446e-015 1.000000e+000
    outer loop
      vertex   2.308142e+000 1.097284e+002 5.000000e+000
      vertex   7.830814e+001 1.097284e+002 5.000000e+000
      vertex   2.308142e+000 1.117284e+002 5.000000e+000
    endloop
  endfacet
  facet normal 2.454177e-016 1.154632e-014 1.000000e+000
    outer loop
      vertex   2.308142e+000 1.117284e+002 5.000000e+000
      vertex   7.830814e+001 1.097284e+002 5.000000e+000
      vertex   7.830814e+001 1.117284e+002 5.000000e+000
    endloop
  endfacet
  facet normal 2.262279e-029 -6.049361e-014 1.000000e+000
    outer loop
      vertex   7.830814e+001 7.266791e+001 5.000000e+000
      vertex   2.308142e+000 7.266791e+001 5.000000e+000
      vertex   7.830814e+001 7.227149e+001 5.000000e+000
    endloop
  endfacet
  facet normal 2.571043e-016 -1.120252e-014 1.000000e+000
    outer loop
      vertex   7.830814e+001 7.227149e+001 5.000000e+000
      vertex   2.308142e+000 7.266791e+001 5.000000e+000
      vertex   2.308142e+000 7.227149e+001 5.000000e+000
    endloop
  endfacet
  facet normal 2.220446e-015 1.967748e-030 1.000000e+000
    outer loop
      vertex   3.081421e-001 7.066791e+001 5.000000e+000
      vertex   2.308142e+000 7.227149e+001 5.000000e+000
      vertex   3.081421e-001 7.227149e+001 5.000000e+000
    endloop
  endfacet
  facet normal 2.571043e-016 2.448697e-015 1.000000e+000
    outer loop
      vertex   3.081421e-001 7.066791e+001 5.000000e+000
      vertex   7.830814e+001 7.227149e+001 5.000000e+000
      vertex   2.308142e+000 7.227149e+001 5.000000e+000
    endloop
  endfacet
  facet normal -7.775005e-030 1.495454e-014 1.000000e+000
    outer loop
      vertex   3.081421e-001 7.066791e+001 5.000000e+000
      vertex   8.230814e+001 7.066791e+001 5.000000e+000
      vertex   7.830814e+001 7.227149e+001 5.000000e+000
    endloop
  endfacet
  facet normal 0.000000e+000 1.495454e-014 1.000000e+000
    outer loop
      vertex   7.830814e+001 7.227149e+001 5.000000e+000
      vertex   8.230814e+001 7.066791e+001 5.000000e+000
      vertex   8.030814e+001 7.227149e+001 5.000000e+000
    endloop
  endfacet
  facet normal -1.199041e-014 -1.308692e-029 1.000000e+000
    outer loop
      vertex   8.030814e+001 7.227149e+001 5.000000e+000
      vertex   8.230814e+001 7.066791e+001 5.000000e+000
      vertex   8.230814e+001 1.097284e+002 5.000000e+000
    endloop
  endfacet
  facet normal 2.220446e-016 1.221245e-014 1.000000e+000
    outer loop
      vertex   8.030814e+001 1.117284e+002 5.000000e+000
      vertex   8.230814e+001 1.097284e+002 5.000000e+000
      vertex   1.043081e+002 1.117284e+002 5.000000e+000
    endloop
  endfacet
  facet normal -1.199041e-014 -4.318478e-030 1.000000e+000
    outer loop
      vertex   8.030814e+001 1.117284e+002 5.000000e+000
      vertex   8.030814e+001 7.227149e+001 5.000000e+000
      vertex   8.230814e+001 1.097284e+002 5.000000e+000
    endloop
  endfacet
  facet normal 0.000000e+000 1.465494e-014 1.000000e+000
    outer loop
      vertex   8.230814e+001 1.097284e+002 5.000000e+000
      vertex   1.043081e+002 1.097284e+002 5.000000e+000
      vertex   1.043081e+002 1.117284e+002 5.000000e+000
    endloop
  endfacet
  facet normal 0.000000e+000 9.145728e-001 4.044213e-001
    outer loop
      vertex   8.030814e+001 1.019738e+002 3.200000e+001
      vertex   8.030814e+001 1.117284e+002 9.940629e+000
      vertex   7.830814e+001 1.019738e+002 3.200000e+001
    endloop
  endfacet
  facet normal 3.591983e-016 9.145728e-001 4.044213e-001
    outer loop
      vertex   7.830814e+001 1.019738e+002 3.200000e+001
      vertex   8.030814e+001 1.117284e+002 9.940629e+000
      vertex   7.830814e+001 1.117284e+002 9.940629e+000
    endloop
  endfacet
  facet normal -5.891764e-016 9.145728e-001 4.044213e-001
    outer loop
      vertex   3.081421e-001 1.117284e+002 9.940629e+000
      vertex   3.081421e-001 1.019738e+002 3.200000e+001
      vertex   2.308142e+000 1.117284e+002 9.940629e+000
    endloop
  endfacet
  facet normal 0.000000e+000 9.145728e-001 4.044213e-001
    outer loop
      vertex   2.308142e+000 1.117284e+002 9.940629e+000
      vertex   3.081421e-001 1.019738e+002 3.200000e+001
      vertex   2.308142e+000 1.019738e+002 3.200000e+001
    endloop
  endfacet
  facet normal 0.000000e+000 -9.194254e-001 3.932645e-001
    outer loop
      vertex   7.830814e+001 7.983162e+001 3.200000e+001
      vertex   7.830814e+001 7.227149e+001 1.432494e+001
      vertex   8.030814e+001 7.983162e+001 3.200000e+001
    endloop
  endfacet
  facet normal 0.000000e+000 -9.194254e-001 3.932645e-001
    outer loop
      vertex   8.030814e+001 7.983162e+001 3.200000e+001
      vertex   7.830814e+001 7.227149e+001 1.432494e+001
      vertex   8.030814e+001 7.227149e+001 1.432494e+001
    endloop
  endfacet
  facet normal 0.000000e+000 -9.194254e-001 3.932645e-001
    outer loop
      vertex   3.081421e-001 7.983162e+001 3.200000e+001
      vertex   3.081421e-001 7.227149e+001 1.432494e+001
      vertex   2.308142e+000 7.983162e+001 3.200000e+001
    endloop
  endfacet
  facet normal 6.532910e-015 -9.194254e-001 3.932645e-001
    outer loop
      vertex   2.308142e+000 7.983162e+001 3.200000e+001
      vertex   3.081421e-001 7.227149e+001 1.432494e+001
      vertex   2.308142e+000 7.227149e+001 1.432494e+001
    endloop
  endfacet
  facet normal 0.000000e+000 -1.000000e+000 -1.523962e-015
    outer loop
      vertex   7.830814e+001 7.227149e+001 1.432494e+001
      vertex   7.830814e+001 7.227149e+001 5.000000e+000
      vertex   8.030814e+001 7.227149e+001 1.432494e+001
    endloop
  endfacet
  facet normal 0.000000e+000 -1.000000e+000 -1.523962e-015
    outer loop
      vertex   8.030814e+001 7.227149e+001 1.432494e+001
      vertex   7.830814e+001 7.227149e+001 5.000000e+000
      vertex   8.030814e+001 7.227149e+001 5.000000e+000
    endloop
  endfacet
  facet normal 7.105427e-015 -1.000000e+000 -1.523962e-015
    outer loop
      vertex   3.081421e-001 7.227149e+001 1.432494e+001
      vertex   3.081421e-001 7.227149e+001 5.000000e+000
      vertex   2.308142e+000 7.227149e+001 1.432494e+001
    endloop
  endfacet
  facet normal 0.000000e+000 -1.000000e+000 0.000000e+000
    outer loop
      vertex   2.308142e+000 7.227149e+001 1.432494e+001
      vertex   3.081421e-001 7.227149e+001 5.000000e+000
      vertex   2.308142e+000 7.227149e+001 5.000000e+000
    endloop
  endfacet
  facet normal 0.000000e+000 1.000000e+000 0.000000e+000
    outer loop
      vertex   8.030814e+001 1.117284e+002 9.940629e+000
      vertex   8.030814e+001 1.117284e+002 5.000000e+000
      vertex   7.830814e+001 1.117284e+002 9.940629e+000
    endloop
  endfacet
  facet normal 0.000000e+000 1.000000e+000 0.000000e+000
    outer loop
      vertex   7.830814e+001 1.117284e+002 9.940629e+000
      vertex   8.030814e+001 1.117284e+002 5.000000e+000
      vertex   7.830814e+001 1.117284e+002 5.000000e+000
    endloop
  endfacet
  facet normal 0.000000e+000 1.000000e+000 0.000000e+000
    outer loop
      vertex   7.830814e+001 1.117284e+002 5.000000e+000
      vertex   8.030814e+001 1.117284e+002 5.000000e+000
      vertex   1.043081e+002 1.117284e+002 0.000000e+000
    endloop
  endfacet
  facet normal -2.220446e-016 1.000000e+000 -1.154632e-015
    outer loop
      vertex   -2.369186e+001 1.117284e+002 0.000000e+000
      vertex   7.830814e+001 1.117284e+002 5.000000e+000
      vertex   1.043081e+002 1.117284e+002 0.000000e+000
    endloop
  endfacet
  facet normal -3.739699e-016 1.000000e+000 1.944643e-015
    outer loop
      vertex   -2.369186e+001 1.117284e+002 0.000000e+000
      vertex   2.308142e+000 1.117284e+002 5.000000e+000
      vertex   7.830814e+001 1.117284e+002 5.000000e+000
    endloop
  endfacet
  facet normal 0.000000e+000 1.000000e+000 0.000000e+000
    outer loop
      vertex   -2.369186e+001 1.117284e+002 0.000000e+000
      vertex   3.081421e-001 1.117284e+002 5.000000e+000
      vertex   2.308142e+000 1.117284e+002 5.000000e+000
    endloop
  endfacet
  facet normal 0.000000e+000 1.000000e+000 0.000000e+000
    outer loop
      vertex   -2.369186e+001 1.117284e+002 0.000000e+000
      vertex   -2.369186e+001 1.117284e+002 5.000000e+000
      vertex   3.081421e-001 1.117284e+002 5.000000e+000
    endloop
  endfacet
  facet normal 0.000000e+000 1.000000e+000 0.000000e+000
    outer loop
      vertex   8.030814e+001 1.117284e+002 5.000000e+000
      vertex   1.043081e+002 1.117284e+002 5.000000e+000
      vertex   1.043081e+002 1.117284e+002 0.000000e+000
    endloop
  endfacet
  facet normal 0.000000e+000 1.000000e+000 0.000000e+000
    outer loop
      vertex   3.081421e-001 1.117284e+002 5.000000e+000
      vertex   3.081421e-001 1.117284e+002 9.940629e+000
      vertex   2.308142e+000 1.117284e+002 5.000000e+000
    endloop
  endfacet
  facet normal 0.000000e+000 1.000000e+000 0.000000e+000
    outer loop
      vertex   2.308142e+000 1.117284e+002 5.000000e+000
      vertex   3.081421e-001 1.117284e+002 9.940629e+000
      vertex   2.308142e+000 1.117284e+002 9.940629e+000
    endloop
  endfacet
  facet normal 0.000000e+000 0.000000e+000 1.000000e+000
    outer loop
      vertex   2.308142e+000 1.019738e+002 3.200000e+001
      vertex   3.081421e-001 1.019738e+002 3.200000e+001
      vertex   2.308142e+000 7.983162e+001 3.200000e+001
    endloop
  endfacet
  facet normal 0.000000e+000 0.000000e+000 1.000000e+000
    outer loop
      vertex   2.308142e+000 7.983162e+001 3.200000e+001
      vertex   3.081421e-001 1.019738e+002 3.200000e+001
      vertex   3.081421e-001 7.983162e+001 3.200000e+001
    endloop
  endfacet
  facet normal 1.000000e+000 1.540980e-016 -2.338315e-016
    outer loop
      vertex   2.308142e+000 1.019738e+002 3.200000e+001
      vertex   2.308142e+000 7.227149e+001 1.432494e+001
      vertex   2.308142e+000 1.117284e+002 9.940629e+000
    endloop
  endfacet
  facet normal 1.000000e+000 2.807870e-016 -4.467280e-016
    outer loop
      vertex   2.308142e+000 1.019738e+002 3.200000e+001
      vertex   2.308142e+000 7.983162e+001 3.200000e+001
      vertex   2.308142e+000 7.227149e+001 1.432494e+001
    endloop
  endfacet
  facet normal 1.000000e+000 -1.792403e-014 2.381191e-016
    outer loop
      vertex   2.308142e+000 7.227149e+001 5.000000e+000
      vertex   2.308142e+000 7.266791e+001 5.000000e+000
      vertex   2.308142e+000 7.227149e+001 1.432494e+001
    endloop
  endfacet
  facet normal 1.000000e+000 4.793124e-016 1.020477e-015
    outer loop
      vertex   2.308142e+000 7.227149e+001 1.432494e+001
      vertex   2.308142e+000 7.266791e+001 5.000000e+000
      vertex   2.308142e+000 1.097284e+002 5.000000e+000
    endloop
  endfacet
  facet normal 1.000000e+000 2.220446e-016 -3.595406e-016
    outer loop
      vertex   2.308142e+000 1.117284e+002 9.940629e+000
      vertex   2.308142e+000 1.097284e+002 5.000000e+000
      vertex   2.308142e+000 1.117284e+002 5.000000e+000
    endloop
  endfacet
  facet normal 1.000000e+000 1.436557e-016 -3.278083e-016
    outer loop
      vertex   2.308142e+000 1.117284e+002 9.940629e+000
      vertex   2.308142e+000 7.227149e+001 1.432494e+001
      vertex   2.308142e+000 1.097284e+002 5.000000e+000
    endloop
  endfacet
  facet normal 1.000000e+000 4.793124e-016 0.000000e+000
    outer loop
      vertex   2.308142e+000 7.266791e+001 5.000000e+000
      vertex   2.308142e+000 7.266791e+001 3.000000e+000
      vertex   2.308142e+000 1.097284e+002 5.000000e+000
    endloop
  endfacet
  facet normal 1.000000e+000 4.793124e-016 0.000000e+000
    outer loop
      vertex   2.308142e+000 1.097284e+002 5.000000e+000
      vertex   2.308142e+000 7.266791e+001 3.000000e+000
      vertex   2.308142e+000 1.097284e+002 3.000000e+000
    endloop
  endfacet
  facet normal -1.000000e+000 0.000000e+000 0.000000e+000
    outer loop
      vertex   7.830814e+001 7.983162e+001 3.200000e+001
      vertex   7.830814e+001 1.019738e+002 3.200000e+001
      vertex   7.830814e+001 7.227149e+001 1.432494e+001
    endloop
  endfacet
  facet normal -1.000000e+000 -3.034910e-016 5.100066e-016
    outer loop
      vertex   7.830814e+001 7.227149e+001 1.432494e+001
      vertex   7.830814e+001 1.019738e+002 3.200000e+001
      vertex   7.830814e+001 1.117284e+002 9.940629e+000
    endloop
  endfacet
  facet normal -1.000000e+000 0.000000e+000 0.000000e+000
    outer loop
      vertex   7.830814e+001 1.097284e+002 5.000000e+000
      vertex   7.830814e+001 1.117284e+002 9.940629e+000
      vertex   7.830814e+001 1.117284e+002 5.000000e+000
    endloop
  endfacet
  facet normal -1.000000e+000 -3.446581e-016 1.395199e-016
    outer loop
      vertex   7.830814e+001 1.097284e+002 5.000000e+000
      vertex   7.830814e+001 7.227149e+001 1.432494e+001
      vertex   7.830814e+001 1.117284e+002 9.940629e+000
    endloop
  endfacet
  facet normal -1.000000e+000 -3.834499e-016 -1.630111e-017
    outer loop
      vertex   7.830814e+001 1.097284e+002 5.000000e+000
      vertex   7.830814e+001 7.266791e+001 5.000000e+000
      vertex   7.830814e+001 7.227149e+001 1.432494e+001
    endloop
  endfacet
  facet normal -1.000000e+000 -3.834499e-016 0.000000e+000
    outer loop
      vertex   7.830814e+001 1.097284e+002 5.000000e+000
      vertex   7.830814e+001 7.266791e+001 3.000000e+000
      vertex   7.830814e+001 7.266791e+001 5.000000e+000
    endloop
  endfacet
  facet normal -1.000000e+000 -3.834499e-016 0.000000e+000
    outer loop
      vertex   7.830814e+001 1.097284e+002 5.000000e+000
      vertex   7.830814e+001 1.097284e+002 3.000000e+000
      vertex   7.830814e+001 7.266791e+001 3.000000e+000
    endloop
  endfacet
  facet normal -1.000000e+000 0.000000e+000 0.000000e+000
    outer loop
      vertex   7.830814e+001 7.266791e+001 5.000000e+000
      vertex   7.830814e+001 7.227149e+001 5.000000e+000
      vertex   7.830814e+001 7.227149e+001 1.432494e+001
    endloop
  endfacet
  facet normal 1.000000e+000 3.787721e-016 1.674919e-016
    outer loop
      vertex   8.030814e+001 1.019738e+002 3.200000e+001
      vertex   8.030814e+001 7.227149e+001 1.432494e+001
      vertex   8.030814e+001 1.117284e+002 9.940629e+000
    endloop
  endfacet
  facet normal 1.000000e+000 0.000000e+000 8.040060e-016
    outer loop
      vertex   8.030814e+001 1.019738e+002 3.200000e+001
      vertex   8.030814e+001 7.983162e+001 3.200000e+001
      vertex   8.030814e+001 7.227149e+001 1.432494e+001
    endloop
  endfacet
  facet normal 1.000000e+000 3.601611e-016 5.488719e-031
    outer loop
      vertex   8.030814e+001 7.227149e+001 1.432494e+001
      vertex   8.030814e+001 7.227149e+001 5.000000e+000
      vertex   8.030814e+001 1.117284e+002 9.940629e+000
    endloop
  endfacet
  facet normal 1.000000e+000 3.601611e-016 0.000000e+000
    outer loop
      vertex   8.030814e+001 1.117284e+002 9.940629e+000
      vertex   8.030814e+001 7.227149e+001 5.000000e+000
      vertex   8.030814e+001 1.117284e+002 5.000000e+000
    endloop
  endfacet
  facet normal -1.000000e+000 -2.807870e-016 -9.665637e-016
    outer loop
      vertex   3.081421e-001 7.983162e+001 3.200000e+001
      vertex   3.081421e-001 1.019738e+002 3.200000e+001
      vertex   3.081421e-001 7.227149e+001 1.432494e+001
    endloop
  endfacet
  facet normal -1.000000e+000 -6.088874e-016 -4.152018e-016
    outer loop
      vertex   3.081421e-001 7.227149e+001 1.432494e+001
      vertex   3.081421e-001 1.019738e+002 3.200000e+001
      vertex   3.081421e-001 1.117284e+002 9.940629e+000
    endloop
  endfacet
  facet normal -1.000000e+000 4.857226e-015 0.000000e+000
    outer loop
      vertex   3.081421e-001 1.097284e+002 5.000000e+000
      vertex   3.081421e-001 1.117284e+002 9.940629e+000
      vertex   3.081421e-001 1.117284e+002 5.000000e+000
    endloop
  endfacet
  facet normal -1.000000e+000 -3.294516e-016 2.099602e-015
    outer loop
      vertex   3.081421e-001 1.097284e+002 5.000000e+000
      vertex   3.081421e-001 7.227149e+001 1.432494e+001
      vertex   3.081421e-001 1.117284e+002 9.940629e+000
    endloop
  endfacet
  facet normal -1.000000e+000 -5.527856e-016 1.202501e-015
    outer loop
      vertex   3.081421e-001 1.097284e+002 5.000000e+000
      vertex   3.081421e-001 7.227149e+001 5.000000e+000
      vertex   3.081421e-001 7.227149e+001 1.432494e+001
    endloop
  endfacet
  facet normal -1.000000e+000 -5.527856e-016 0.000000e+000
    outer loop
      vertex   3.081421e-001 1.097284e+002 5.000000e+000
      vertex   3.081421e-001 1.097284e+002 3.000000e+000
      vertex   3.081421e-001 7.227149e+001 5.000000e+000
    endloop
  endfacet
  facet normal -1.000000e+000 -5.684629e-016 -2.936123e-016
    outer loop
      vertex   3.081421e-001 7.227149e+001 5.000000e+000
      vertex   3.081421e-001 1.097284e+002 3.000000e+000
      vertex   3.081421e-001 7.066791e+001 3.000000e+000
    endloop
  endfacet
  facet normal -1.000000e+000 -9.346588e-016 0.000000e+000
    outer loop
      vertex   3.081421e-001 7.066791e+001 5.000000e+000
      vertex   3.081421e-001 7.227149e+001 5.000000e+000
      vertex   3.081421e-001 7.066791e+001 3.000000e+000
    endloop
  endfacet
  facet normal 0.000000e+000 0.000000e+000 1.000000e+000
    outer loop
      vertex   8.030814e+001 1.019738e+002 3.200000e+001
      vertex   7.830814e+001 1.019738e+002 3.200000e+001
      vertex   8.030814e+001 7.983162e+001 3.200000e+001
    endloop
  endfacet
  facet normal 0.000000e+000 0.000000e+000 1.000000e+000
    outer loop
      vertex   8.030814e+001 7.983162e+001 3.200000e+001
      vertex   7.830814e+001 1.019738e+002 3.200000e+001
      vertex   7.830814e+001 7.983162e+001 3.200000e+001
    endloop
  endfacet
  facet normal 0.000000e+000 -1.000000e+000 0.000000e+000
    outer loop
      vertex   -2.369186e+001 2.672843e+001 5.000000e+000
      vertex   -2.369186e+001 2.672843e+001 0.000000e+000
      vertex   1.043081e+002 2.672843e+001 5.000000e+000
    endloop
  endfacet
  facet normal 0.000000e+000 -1.000000e+000 0.000000e+000
    outer loop
      vertex   1.043081e+002 2.672843e+001 5.000000e+000
      vertex   -2.369186e+001 2.672843e+001 0.000000e+000
      vertex   1.043081e+002 2.672843e+001 0.000000e+000
    endloop
  endfacet
  facet normal 0.000000e+000 0.000000e+000 -1.000000e+000
    outer loop
      vertex   1.043081e+002 2.672843e+001 0.000000e+000
      vertex   -2.369186e+001 2.672843e+001 0.000000e+000
      vertex   1.043081e+002 1.117284e+002 0.000000e+000
    endloop
  endfacet
  facet normal 0.000000e+000 0.000000e+000 -1.000000e+000
    outer loop
      vertex   1.043081e+002 1.117284e+002 0.000000e+000
      vertex   -2.369186e+001 2.672843e+001 0.000000e+000
      vertex   -2.369186e+001 1.117284e+002 0.000000e+000
    endloop
  endfacet
endsolid
