solid ascii
  facet normal 0.000000e+000 1.000000e+000 8.458842e-017
    outer loop
      vertex   2.569551e+001 1.371719e+001 4.600000e+001
      vertex   2.569551e+001 1.371719e+001 8.800000e+001
      vertex   3.519551e+001 1.371719e+001 4.600000e+001
    endloop
  endfacet
  facet normal 0.000000e+000 1.000000e+000 8.458842e-017
    outer loop
      vertex   3.519551e+001 1.371719e+001 4.600000e+001
      vertex   2.569551e+001 1.371719e+001 8.800000e+001
      vertex   3.519551e+001 1.371719e+001 8.800000e+001
    endloop
  endfacet
  facet normal -1.869849e-016 1.000000e+000 4.229421e-017
    outer loop
      vertex   -1.280449e+001 1.371719e+001 4.600000e+001
      vertex   -1.280449e+001 1.371719e+001 8.800000e+001
      vertex   -3.304489e+000 1.371719e+001 4.600000e+001
    endloop
  endfacet
  facet normal -1.869849e-016 1.000000e+000 4.229421e-017
    outer loop
      vertex   -3.304489e+000 1.371719e+001 4.600000e+001
      vertex   -1.280449e+001 1.371719e+001 8.800000e+001
      vertex   -3.304489e+000 1.371719e+001 8.800000e+001
    endloop
  endfacet
  facet normal 1.000000e+000 3.739699e-016 3.163352e-032
    outer loop
      vertex   3.519551e+001 1.371719e+001 4.600000e+001
      vertex   3.519551e+001 1.371719e+001 8.800000e+001
      vertex   3.519551e+001 -5.282806e+000 4.600000e+001
    endloop
  endfacet
  facet normal 1.000000e+000 3.739699e-016 0.000000e+000
    outer loop
      vertex   3.519551e+001 -5.282806e+000 4.600000e+001
      vertex   3.519551e+001 1.371719e+001 8.800000e+001
      vertex   3.519551e+001 -5.282806e+000 8.800000e+001
    endloop
  endfacet
  facet normal 0.000000e+000 0.000000e+000 1.000000e+000
    outer loop
      vertex   3.519551e+001 1.371719e+001 8.800000e+001
      vertex   2.569551e+001 1.371719e+001 8.800000e+001
      vertex   3.519551e+001 -5.282806e+000 8.800000e+001
    endloop
  endfacet
  facet normal 0.000000e+000 0.000000e+000 1.000000e+000
    outer loop
      vertex   3.519551e+001 -5.282806e+000 8.800000e+001
      vertex   2.569551e+001 1.371719e+001 8.800000e+001
      vertex   2.569551e+001 -5.282806e+000 8.800000e+001
    endloop
  endfacet
  facet normal -1.000000e+000 9.349247e-017 3.954190e-033
    outer loop
      vertex   -1.280449e+001 1.371719e+001 8.800000e+001
      vertex   -1.280449e+001 1.371719e+001 4.600000e+001
      vertex   -1.280449e+001 -5.282806e+000 8.800000e+001
    endloop
  endfacet
  facet normal -1.000000e+000 -1.869849e-016 -1.268826e-016
    outer loop
      vertex   -1.280449e+001 -5.282806e+000 8.800000e+001
      vertex   -1.280449e+001 1.371719e+001 4.600000e+001
      vertex   -1.280449e+001 -5.282806e+000 4.600000e+001
    endloop
  endfacet
  facet normal -2.097802e-031 1.121910e-015 -1.000000e+000
    outer loop
      vertex   -1.280449e+001 1.371719e+001 4.600000e+001
      vertex   -3.304489e+000 1.371719e+001 4.600000e+001
      vertex   -1.280449e+001 -5.282806e+000 4.600000e+001
    endloop
  endfacet
  facet normal 2.243819e-015 -1.048901e-031 -1.000000e+000
    outer loop
      vertex   -1.280449e+001 -5.282806e+000 4.600000e+001
      vertex   -3.304489e+000 1.371719e+001 4.600000e+001
      vertex   -3.304489e+000 -5.282806e+000 4.600000e+001
    endloop
  endfacet
  facet normal -1.000000e+000 0.000000e+000 0.000000e+000
    outer loop
      vertex   2.369551e+001 -5.282806e+000 3.600000e+001
      vertex   2.369551e+001 -5.282806e+000 4.600000e+001
      vertex   2.369551e+001 1.471719e+001 3.600000e+001
    endloop
  endfacet
  facet normal -1.000000e+000 0.000000e+000 0.000000e+000
    outer loop
      vertex   2.369551e+001 1.471719e+001 3.600000e+001
      vertex   2.369551e+001 -5.282806e+000 4.600000e+001
      vertex   2.369551e+001 1.671719e+001 4.600000e+001
    endloop
  endfacet
  facet normal -1.000000e+000 1.158494e-015 -2.316987e-016
    outer loop
      vertex   2.369551e+001 1.671719e+001 -1.776357e-014
      vertex   2.369551e+001 1.471719e+001 3.600000e+001
      vertex   2.369551e+001 1.671719e+001 4.600000e+001
    endloop
  endfacet
  facet normal -1.000000e+000 0.000000e+000 -2.960595e-016
    outer loop
      vertex   2.369551e+001 1.671719e+001 -1.776357e-014
      vertex   2.369551e+001 1.471719e+001 -1.776357e-014
      vertex   2.369551e+001 1.471719e+001 3.600000e+001
    endloop
  endfacet
  facet normal 8.526513e-016 0.000000e+000 -1.000000e+000
    outer loop
      vertex   -1.304489e+000 1.671719e+001 4.600000e+001
      vertex   2.369551e+001 1.671719e+001 4.600000e+001
      vertex   -1.304489e+000 -5.282806e+000 4.600000e+001
    endloop
  endfacet
  facet normal 8.526513e-016 0.000000e+000 -1.000000e+000
    outer loop
      vertex   -1.304489e+000 -5.282806e+000 4.600000e+001
      vertex   2.369551e+001 1.671719e+001 4.600000e+001
      vertex   2.369551e+001 -5.282806e+000 4.600000e+001
    endloop
  endfacet
  facet normal 1.000000e+000 2.220446e-016 2.220446e-016
    outer loop
      vertex   -1.304489e+000 -5.282806e+000 3.600000e+001
      vertex   -1.304489e+000 1.471719e+001 3.600000e+001
      vertex   -1.304489e+000 -5.282806e+000 4.600000e+001
    endloop
  endfacet
  facet normal 1.000000e+000 0.000000e+000 -2.220446e-016
    outer loop
      vertex   -1.304489e+000 -5.282806e+000 4.600000e+001
      vertex   -1.304489e+000 1.471719e+001 3.600000e+001
      vertex   -1.304489e+000 1.671719e+001 4.600000e+001
    endloop
  endfacet
  facet normal 1.000000e+000 -1.834282e-015 1.448117e-016
    outer loop
      vertex   -1.304489e+000 1.671719e+001 4.600000e+001
      vertex   -1.304489e+000 1.471719e+001 3.600000e+001
      vertex   -1.304489e+000 1.671719e+001 -1.776357e-014
    endloop
  endfacet
  facet normal 1.000000e+000 0.000000e+000 2.467162e-016
    outer loop
      vertex   -1.304489e+000 1.671719e+001 -1.776357e-014
      vertex   -1.304489e+000 1.471719e+001 3.600000e+001
      vertex   -1.304489e+000 1.471719e+001 -1.776357e-014
    endloop
  endfacet
  facet normal 0.000000e+000 -1.000000e+000 0.000000e+000
    outer loop
      vertex   -1.304489e+000 1.671719e+001 4.600000e+001
      vertex   -1.304489e+000 1.671719e+001 -1.776357e-014
      vertex   2.369551e+001 1.671719e+001 4.600000e+001
    endloop
  endfacet
  facet normal 0.000000e+000 -1.000000e+000 0.000000e+000
    outer loop
      vertex   2.369551e+001 1.671719e+001 4.600000e+001
      vertex   -1.304489e+000 1.671719e+001 -1.776357e-014
      vertex   2.369551e+001 1.671719e+001 -1.776357e-014
    endloop
  endfacet
  facet normal 0.000000e+000 0.000000e+000 1.000000e+000
    outer loop
      vertex   2.369551e+001 1.671719e+001 8.800000e+001
      vertex   -1.304489e+000 1.671719e+001 8.800000e+001
      vertex   2.369551e+001 -5.282806e+000 8.800000e+001
    endloop
  endfacet
  facet normal 0.000000e+000 0.000000e+000 1.000000e+000
    outer loop
      vertex   2.369551e+001 -5.282806e+000 8.800000e+001
      vertex   -1.304489e+000 1.671719e+001 8.800000e+001
      vertex   -1.304489e+000 -5.282806e+000 8.800000e+001
    endloop
  endfacet
  facet normal -1.000000e+000 0.000000e+000 0.000000e+000
    outer loop
      vertex   2.369551e+001 1.671719e+001 9.600000e+001
      vertex   2.369551e+001 1.671719e+001 8.800000e+001
      vertex   2.369551e+001 -5.282806e+000 9.600000e+001
    endloop
  endfacet
  facet normal -1.000000e+000 0.000000e+000 0.000000e+000
    outer loop
      vertex   2.369551e+001 -5.282806e+000 9.600000e+001
      vertex   2.369551e+001 1.671719e+001 8.800000e+001
      vertex   2.369551e+001 -5.282806e+000 8.800000e+001
    endloop
  endfacet
  facet normal 1.000000e+000 0.000000e+000 0.000000e+000
    outer loop
      vertex   -1.304489e+000 1.671719e+001 8.800000e+001
      vertex   -1.304489e+000 1.671719e+001 9.600000e+001
      vertex   -1.304489e+000 -5.282806e+000 8.800000e+001
    endloop
  endfacet
  facet normal 1.000000e+000 0.000000e+000 0.000000e+000
    outer loop
      vertex   -1.304489e+000 -5.282806e+000 8.800000e+001
      vertex   -1.304489e+000 1.671719e+001 9.600000e+001
      vertex   -1.304489e+000 -5.282806e+000 9.600000e+001
    endloop
  endfacet
  facet normal 0.000000e+000 -1.000000e+000 0.000000e+000
    outer loop
      vertex   2.369551e+001 1.671719e+001 8.800000e+001
      vertex   2.369551e+001 1.671719e+001 9.600000e+001
      vertex   -1.304489e+000 1.671719e+001 8.800000e+001
    endloop
  endfacet
  facet normal 0.000000e+000 -1.000000e+000 0.000000e+000
    outer loop
      vertex   -1.304489e+000 1.671719e+001 8.800000e+001
      vertex   2.369551e+001 1.671719e+001 9.600000e+001
      vertex   -1.304489e+000 1.671719e+001 9.600000e+001
    endloop
  endfacet
  facet normal 0.000000e+000 0.000000e+000 -1.000000e+000
    outer loop
      vertex   2.369551e+001 1.471719e+001 -1.776357e-014
      vertex   2.369551e+001 1.671719e+001 -1.776357e-014
      vertex   2.569551e+001 1.471719e+001 -1.776357e-014
    endloop
  endfacet
  facet normal 0.000000e+000 0.000000e+000 -1.000000e+000
    outer loop
      vertex   2.569551e+001 1.471719e+001 -1.776357e-014
      vertex   2.369551e+001 1.671719e+001 -1.776357e-014
      vertex   2.569551e+001 1.871719e+001 -1.776357e-014
    endloop
  endfacet
  facet normal 0.000000e+000 0.000000e+000 -1.000000e+000
    outer loop
      vertex   2.569551e+001 1.871719e+001 -1.776357e-014
      vertex   2.369551e+001 1.671719e+001 -1.776357e-014
      vertex   -1.304489e+000 1.671719e+001 -1.776357e-014
    endloop
  endfacet
  facet normal 0.000000e+000 0.000000e+000 -1.000000e+000
    outer loop
      vertex   -3.304489e+000 1.871719e+001 -1.776357e-014
      vertex   -1.304489e+000 1.671719e+001 -1.776357e-014
      vertex   -3.304489e+000 1.471719e+001 -1.776357e-014
    endloop
  endfacet
  facet normal 0.000000e+000 0.000000e+000 -1.000000e+000
    outer loop
      vertex   -3.304489e+000 1.871719e+001 -1.776357e-014
      vertex   2.569551e+001 1.871719e+001 -1.776357e-014
      vertex   -1.304489e+000 1.671719e+001 -1.776357e-014
    endloop
  endfacet
  facet normal 0.000000e+000 0.000000e+000 -1.000000e+000
    outer loop
      vertex   -1.304489e+000 1.671719e+001 -1.776357e-014
      vertex   -1.304489e+000 1.471719e+001 -1.776357e-014
      vertex   -3.304489e+000 1.471719e+001 -1.776357e-014
    endloop
  endfacet
  facet normal 0.000000e+000 3.552714e-016 -1.000000e+000
    outer loop
      vertex   -1.304489e+000 -5.282806e+000 3.600000e+001
      vertex   -3.304489e+000 -5.282806e+000 3.600000e+001
      vertex   -1.304489e+000 1.471719e+001 3.600000e+001
    endloop
  endfacet
  facet normal 0.000000e+000 3.552714e-016 -1.000000e+000
    outer loop
      vertex   -1.304489e+000 1.471719e+001 3.600000e+001
      vertex   -3.304489e+000 -5.282806e+000 3.600000e+001
      vertex   -3.304489e+000 1.471719e+001 3.600000e+001
    endloop
  endfacet
  facet normal 0.000000e+000 -1.000000e+000 -2.960595e-016
    outer loop
      vertex   -1.304489e+000 1.471719e+001 -1.776357e-014
      vertex   -1.304489e+000 1.471719e+001 3.600000e+001
      vertex   -3.304489e+000 1.471719e+001 -1.776357e-014
    endloop
  endfacet
  facet normal 0.000000e+000 -1.000000e+000 -2.960595e-016
    outer loop
      vertex   -3.304489e+000 1.471719e+001 -1.776357e-014
      vertex   -1.304489e+000 1.471719e+001 3.600000e+001
      vertex   -3.304489e+000 1.471719e+001 3.600000e+001
    endloop
  endfacet
  facet normal 0.000000e+000 -1.000000e+000 -4.440892e-016
    outer loop
      vertex   2.369551e+001 1.471719e+001 3.600000e+001
      vertex   2.369551e+001 1.471719e+001 -1.776357e-014
      vertex   2.569551e+001 1.471719e+001 3.600000e+001
    endloop
  endfacet
  facet normal 0.000000e+000 -1.000000e+000 -4.440892e-016
    outer loop
      vertex   2.569551e+001 1.471719e+001 3.600000e+001
      vertex   2.369551e+001 1.471719e+001 -1.776357e-014
      vertex   2.569551e+001 1.471719e+001 -1.776357e-014
    endloop
  endfacet
  facet normal 0.000000e+000 0.000000e+000 1.000000e+000
    outer loop
      vertex   -1.304489e+000 -5.282806e+000 9.600000e+001
      vertex   -1.304489e+000 1.671719e+001 9.600000e+001
      vertex   -3.304489e+000 -5.282806e+000 9.600000e+001
    endloop
  endfacet
  facet normal 0.000000e+000 0.000000e+000 1.000000e+000
    outer loop
      vertex   -3.304489e+000 -5.282806e+000 9.600000e+001
      vertex   -1.304489e+000 1.671719e+001 9.600000e+001
      vertex   -3.304489e+000 1.871719e+001 9.600000e+001
    endloop
  endfacet
  facet normal 0.000000e+000 0.000000e+000 1.000000e+000
    outer loop
      vertex   -3.304489e+000 1.871719e+001 9.600000e+001
      vertex   -1.304489e+000 1.671719e+001 9.600000e+001
      vertex   2.369551e+001 1.671719e+001 9.600000e+001
    endloop
  endfacet
  facet normal 0.000000e+000 0.000000e+000 1.000000e+000
    outer loop
      vertex   2.569551e+001 1.871719e+001 9.600000e+001
      vertex   2.369551e+001 1.671719e+001 9.600000e+001
      vertex   2.569551e+001 -5.282806e+000 9.600000e+001
    endloop
  endfacet
  facet normal 0.000000e+000 0.000000e+000 1.000000e+000
    outer loop
      vertex   2.569551e+001 1.871719e+001 9.600000e+001
      vertex   -3.304489e+000 1.871719e+001 9.600000e+001
      vertex   2.369551e+001 1.671719e+001 9.600000e+001
    endloop
  endfacet
  facet normal 0.000000e+000 0.000000e+000 1.000000e+000
    outer loop
      vertex   2.369551e+001 1.671719e+001 9.600000e+001
      vertex   2.369551e+001 -5.282806e+000 9.600000e+001
      vertex   2.569551e+001 -5.282806e+000 9.600000e+001
    endloop
  endfacet
  facet normal 0.000000e+000 0.000000e+000 -1.000000e+000
    outer loop
      vertex   2.569551e+001 1.371719e+001 4.600000e+001
      vertex   3.519551e+001 1.371719e+001 4.600000e+001
      vertex   2.569551e+001 -5.282806e+000 4.600000e+001
    endloop
  endfacet
  facet normal 1.495879e-015 -7.479397e-016 -1.000000e+000
    outer loop
      vertex   2.569551e+001 -5.282806e+000 4.600000e+001
      vertex   3.519551e+001 1.371719e+001 4.600000e+001
      vertex   3.519551e+001 -5.282806e+000 4.600000e+001
    endloop
  endfacet
  facet normal 1.000000e+000 0.000000e+000 3.947460e-016
    outer loop
      vertex   2.569551e+001 1.471719e+001 -1.776357e-014
      vertex   2.569551e+001 1.871719e+001 -1.776357e-014
      vertex   2.569551e+001 1.471719e+001 3.600000e+001
    endloop
  endfacet
  facet normal 1.000000e+000 -4.551914e-015 -1.110223e-016
    outer loop
      vertex   2.569551e+001 1.471719e+001 3.600000e+001
      vertex   2.569551e+001 1.871719e+001 -1.776357e-014
      vertex   2.569551e+001 1.871719e+001 9.600000e+001
    endloop
  endfacet
  facet normal 1.000000e+000 -5.684342e-015 -4.808295e-031
    outer loop
      vertex   2.569551e+001 1.371719e+001 4.600000e+001
      vertex   2.569551e+001 1.871719e+001 9.600000e+001
      vertex   2.569551e+001 1.371719e+001 8.800000e+001
    endloop
  endfacet
  facet normal 1.000000e+000 -4.618528e-015 -1.065814e-016
    outer loop
      vertex   2.569551e+001 1.371719e+001 4.600000e+001
      vertex   2.569551e+001 1.471719e+001 3.600000e+001
      vertex   2.569551e+001 1.871719e+001 9.600000e+001
    endloop
  endfacet
  facet normal 1.000000e+000 -1.776357e-016 3.375078e-016
    outer loop
      vertex   2.569551e+001 1.371719e+001 4.600000e+001
      vertex   2.569551e+001 -5.282806e+000 3.600000e+001
      vertex   2.569551e+001 1.471719e+001 3.600000e+001
    endloop
  endfacet
  facet normal 1.000000e+000 0.000000e+000 0.000000e+000
    outer loop
      vertex   2.569551e+001 1.371719e+001 4.600000e+001
      vertex   2.569551e+001 -5.282806e+000 4.600000e+001
      vertex   2.569551e+001 -5.282806e+000 3.600000e+001
    endloop
  endfacet
  facet normal 1.000000e+000 0.000000e+000 -3.552714e-015
    outer loop
      vertex   2.569551e+001 1.871719e+001 9.600000e+001
      vertex   2.569551e+001 -5.282806e+000 9.600000e+001
      vertex   2.569551e+001 1.371719e+001 8.800000e+001
    endloop
  endfacet
  facet normal 1.000000e+000 1.495879e-015 0.000000e+000
    outer loop
      vertex   2.569551e+001 1.371719e+001 8.800000e+001
      vertex   2.569551e+001 -5.282806e+000 9.600000e+001
      vertex   2.569551e+001 -5.282806e+000 8.800000e+001
    endloop
  endfacet
  facet normal -1.000000e+000 6.938894e-016 -4.625929e-017
    outer loop
      vertex   -3.304489e+000 1.871719e+001 -1.776357e-014
      vertex   -3.304489e+000 1.471719e+001 3.600000e+001
      vertex   -3.304489e+000 1.871719e+001 9.600000e+001
    endloop
  endfacet
  facet normal -1.000000e+000 0.000000e+000 -1.233581e-016
    outer loop
      vertex   -3.304489e+000 1.871719e+001 -1.776357e-014
      vertex   -3.304489e+000 1.471719e+001 -1.776357e-014
      vertex   -3.304489e+000 1.471719e+001 3.600000e+001
    endloop
  endfacet
  facet normal -1.000000e+000 -1.065814e-015 7.105427e-017
    outer loop
      vertex   -3.304489e+000 1.871719e+001 9.600000e+001
      vertex   -3.304489e+000 1.471719e+001 3.600000e+001
      vertex   -3.304489e+000 1.371719e+001 4.600000e+001
    endloop
  endfacet
  facet normal -1.000000e+000 -3.552714e-016 -1.502592e-032
    outer loop
      vertex   -3.304489e+000 1.371719e+001 8.800000e+001
      vertex   -3.304489e+000 1.871719e+001 9.600000e+001
      vertex   -3.304489e+000 1.371719e+001 4.600000e+001
    endloop
  endfacet
  facet normal -1.000000e+000 0.000000e+000 -2.220446e-016
    outer loop
      vertex   -3.304489e+000 1.371719e+001 8.800000e+001
      vertex   -3.304489e+000 -5.282806e+000 9.600000e+001
      vertex   -3.304489e+000 1.871719e+001 9.600000e+001
    endloop
  endfacet
  facet normal -1.000000e+000 2.804774e-016 4.440892e-016
    outer loop
      vertex   -3.304489e+000 1.371719e+001 8.800000e+001
      vertex   -3.304489e+000 -5.282806e+000 8.800000e+001
      vertex   -3.304489e+000 -5.282806e+000 9.600000e+001
    endloop
  endfacet
  facet normal -1.000000e+000 4.674623e-017 -8.881784e-017
    outer loop
      vertex   -3.304489e+000 -5.282806e+000 4.600000e+001
      vertex   -3.304489e+000 1.371719e+001 4.600000e+001
      vertex   -3.304489e+000 -5.282806e+000 3.600000e+001
    endloop
  endfacet
  facet normal -1.000000e+000 -8.881784e-017 1.687539e-016
    outer loop
      vertex   -3.304489e+000 -5.282806e+000 3.600000e+001
      vertex   -3.304489e+000 1.371719e+001 4.600000e+001
      vertex   -3.304489e+000 1.471719e+001 3.600000e+001
    endloop
  endfacet
  facet normal 0.000000e+000 0.000000e+000 1.000000e+000
    outer loop
      vertex   -3.304489e+000 1.371719e+001 8.800000e+001
      vertex   -1.280449e+001 1.371719e+001 8.800000e+001
      vertex   -3.304489e+000 -5.282806e+000 8.800000e+001
    endloop
  endfacet
  facet normal 0.000000e+000 0.000000e+000 1.000000e+000
    outer loop
      vertex   -3.304489e+000 -5.282806e+000 8.800000e+001
      vertex   -1.280449e+001 1.371719e+001 8.800000e+001
      vertex   -1.280449e+001 -5.282806e+000 8.800000e+001
    endloop
  endfacet
  facet normal 0.000000e+000 -1.000000e+000 0.000000e+000
    outer loop
      vertex   2.369551e+001 -5.282806e+000 3.600000e+001
      vertex   2.569551e+001 -5.282806e+000 4.600000e+001
      vertex   2.369551e+001 -5.282806e+000 4.600000e+001
    endloop
  endfacet
  facet normal 0.000000e+000 -1.000000e+000 0.000000e+000
    outer loop
      vertex   2.369551e+001 -5.282806e+000 3.600000e+001
      vertex   2.569551e+001 -5.282806e+000 3.600000e+001
      vertex   2.569551e+001 -5.282806e+000 4.600000e+001
    endloop
  endfacet
  facet normal 0.000000e+000 -1.000000e+000 0.000000e+000
    outer loop
      vertex   3.519551e+001 -5.282806e+000 4.600000e+001
      vertex   3.519551e+001 -5.282806e+000 8.800000e+001
      vertex   2.569551e+001 -5.282806e+000 4.600000e+001
    endloop
  endfacet
  facet normal 0.000000e+000 -1.000000e+000 0.000000e+000
    outer loop
      vertex   2.569551e+001 -5.282806e+000 4.600000e+001
      vertex   3.519551e+001 -5.282806e+000 8.800000e+001
      vertex   2.569551e+001 -5.282806e+000 8.800000e+001
    endloop
  endfacet
  facet normal 0.000000e+000 -1.000000e+000 0.000000e+000
    outer loop
      vertex   2.369551e+001 -5.282806e+000 4.600000e+001
      vertex   2.569551e+001 -5.282806e+000 8.800000e+001
      vertex   2.369551e+001 -5.282806e+000 8.800000e+001
    endloop
  endfacet
  facet normal 0.000000e+000 -1.000000e+000 0.000000e+000
    outer loop
      vertex   -1.304489e+000 -5.282806e+000 4.600000e+001
      vertex   2.369551e+001 -5.282806e+000 8.800000e+001
      vertex   -1.304489e+000 -5.282806e+000 8.800000e+001
    endloop
  endfacet
  facet normal 0.000000e+000 -1.000000e+000 0.000000e+000
    outer loop
      vertex   -3.304489e+000 -5.282806e+000 8.800000e+001
      vertex   -1.304489e+000 -5.282806e+000 8.800000e+001
      vertex   -3.304489e+000 -5.282806e+000 9.600000e+001
    endloop
  endfacet
  facet normal 0.000000e+000 -1.000000e+000 0.000000e+000
    outer loop
      vertex   -3.304489e+000 -5.282806e+000 8.800000e+001
      vertex   -1.304489e+000 -5.282806e+000 4.600000e+001
      vertex   -1.304489e+000 -5.282806e+000 8.800000e+001
    endloop
  endfacet
  facet normal 0.000000e+000 -1.000000e+000 0.000000e+000
    outer loop
      vertex   -3.304489e+000 -5.282806e+000 8.800000e+001
      vertex   -3.304489e+000 -5.282806e+000 4.600000e+001
      vertex   -1.304489e+000 -5.282806e+000 4.600000e+001
    endloop
  endfacet
  facet normal 0.000000e+000 -1.000000e+000 0.000000e+000
    outer loop
      vertex   -3.304489e+000 -5.282806e+000 8.800000e+001
      vertex   -1.280449e+001 -5.282806e+000 4.600000e+001
      vertex   -3.304489e+000 -5.282806e+000 4.600000e+001
    endloop
  endfacet
  facet normal 0.000000e+000 -1.000000e+000 0.000000e+000
    outer loop
      vertex   -3.304489e+000 -5.282806e+000 8.800000e+001
      vertex   -1.280449e+001 -5.282806e+000 8.800000e+001
      vertex   -1.280449e+001 -5.282806e+000 4.600000e+001
    endloop
  endfacet
  facet normal 0.000000e+000 -1.000000e+000 0.000000e+000
    outer loop
      vertex   2.569551e+001 -5.282806e+000 8.800000e+001
      vertex   2.569551e+001 -5.282806e+000 9.600000e+001
      vertex   2.369551e+001 -5.282806e+000 8.800000e+001
    endloop
  endfacet
  facet normal 0.000000e+000 -1.000000e+000 0.000000e+000
    outer loop
      vertex   2.369551e+001 -5.282806e+000 8.800000e+001
      vertex   2.569551e+001 -5.282806e+000 9.600000e+001
      vertex   2.369551e+001 -5.282806e+000 9.600000e+001
    endloop
  endfacet
  facet normal 0.000000e+000 -1.000000e+000 0.000000e+000
    outer loop
      vertex   2.369551e+001 -5.282806e+000 4.600000e+001
      vertex   2.369551e+001 -5.282806e+000 8.800000e+001
      vertex   -1.304489e+000 -5.282806e+000 4.600000e+001
    endloop
  endfacet
  facet normal 0.000000e+000 -1.000000e+000 0.000000e+000
    outer loop
      vertex   -1.304489e+000 -5.282806e+000 8.800000e+001
      vertex   -1.304489e+000 -5.282806e+000 9.600000e+001
      vertex   -3.304489e+000 -5.282806e+000 9.600000e+001
    endloop
  endfacet
  facet normal 0.000000e+000 -1.000000e+000 0.000000e+000
    outer loop
      vertex   -3.304489e+000 -5.282806e+000 4.600000e+001
      vertex   -3.304489e+000 -5.282806e+000 3.600000e+001
      vertex   -1.304489e+000 -5.282806e+000 4.600000e+001
    endloop
  endfacet
  facet normal 0.000000e+000 -1.000000e+000 0.000000e+000
    outer loop
      vertex   -1.304489e+000 -5.282806e+000 4.600000e+001
      vertex   -3.304489e+000 -5.282806e+000 3.600000e+001
      vertex   -1.304489e+000 -5.282806e+000 3.600000e+001
    endloop
  endfacet
  facet normal 0.000000e+000 -1.000000e+000 0.000000e+000
    outer loop
      vertex   2.569551e+001 -5.282806e+000 4.600000e+001
      vertex   2.569551e+001 -5.282806e+000 8.800000e+001
      vertex   2.369551e+001 -5.282806e+000 4.600000e+001
    endloop
  endfacet
  facet normal -1.225074e-016 1.000000e+000 1.360105e-032
    outer loop
      vertex   2.569551e+001 1.871719e+001 9.600000e+001
      vertex   2.569551e+001 1.871719e+001 -1.776357e-014
      vertex   -3.304489e+000 1.871719e+001 9.600000e+001
    endloop
  endfacet
  facet normal -1.225074e-016 1.000000e+000 -4.533683e-033
    outer loop
      vertex   -3.304489e+000 1.871719e+001 9.600000e+001
      vertex   2.569551e+001 1.871719e+001 -1.776357e-014
      vertex   -3.304489e+000 1.871719e+001 -1.776357e-014
    endloop
  endfacet
  facet normal 0.000000e+000 3.552714e-016 -1.000000e+000
    outer loop
      vertex   2.369551e+001 1.471719e+001 3.600000e+001
      vertex   2.569551e+001 1.471719e+001 3.600000e+001
      vertex   2.369551e+001 -5.282806e+000 3.600000e+001
    endloop
  endfacet
  facet normal 0.000000e+000 3.552714e-016 -1.000000e+000
    outer loop
      vertex   2.369551e+001 -5.282806e+000 3.600000e+001
      vertex   2.569551e+001 1.471719e+001 3.600000e+001
      vertex   2.569551e+001 -5.282806e+000 3.600000e+001
    endloop
  endfacet
endsolid
