solid ascii
  facet normal 0.000000e+000 -7.071068e-001 7.071068e-001
    outer loop
      vertex   3.587727e+001 9.093910e+000 8.279154e+001
      vertex   3.787727e+001 9.093910e+000 8.279154e+001
      vertex   3.587727e+001 1.328538e+001 8.698302e+001
    endloop
  endfacet
  facet normal 0.000000e+000 -7.071068e-001 7.071068e-001
    outer loop
      vertex   3.587727e+001 1.328538e+001 8.698302e+001
      vertex   3.787727e+001 9.093910e+000 8.279154e+001
      vertex   3.787727e+001 1.328538e+001 8.698302e+001
    endloop
  endfacet
  facet normal 0.000000e+000 -1.000000e+000 0.000000e+000
    outer loop
      vertex   3.587727e+001 1.328538e+001 9.291066e+001
      vertex   3.587727e+001 1.328538e+001 8.698302e+001
      vertex   3.787727e+001 1.328538e+001 9.291066e+001
    endloop
  endfacet
  facet normal 0.000000e+000 -1.000000e+000 0.000000e+000
    outer loop
      vertex   3.787727e+001 1.328538e+001 9.291066e+001
      vertex   3.587727e+001 1.328538e+001 8.698302e+001
      vertex   3.787727e+001 1.328538e+001 8.698302e+001
    endloop
  endfacet
  facet normal 0.000000e+000 -7.071068e-001 -7.071068e-001
    outer loop
      vertex   3.587727e+001 1.328538e+001 9.291066e+001
      vertex   3.787727e+001 1.328538e+001 9.291066e+001
      vertex   3.587727e+001 9.093910e+000 9.710213e+001
    endloop
  endfacet
  facet normal 0.000000e+000 -7.071068e-001 -7.071068e-001
    outer loop
      vertex   3.587727e+001 9.093910e+000 9.710213e+001
      vertex   3.787727e+001 1.328538e+001 9.291066e+001
      vertex   3.787727e+001 9.093910e+000 9.710213e+001
    endloop
  endfacet
  facet normal 0.000000e+000 0.000000e+000 -1.000000e+000
    outer loop
      vertex   3.587727e+001 9.093910e+000 9.710213e+001
      vertex   3.787727e+001 9.093910e+000 9.710213e+001
      vertex   3.587727e+001 3.166270e+000 9.710213e+001
    endloop
  endfacet
  facet normal 0.000000e+000 0.000000e+000 -1.000000e+000
    outer loop
      vertex   3.587727e+001 3.166270e+000 9.710213e+001
      vertex   3.787727e+001 9.093910e+000 9.710213e+001
      vertex   3.787727e+001 3.166270e+000 9.710213e+001
    endloop
  endfacet
  facet normal 0.000000e+000 7.071068e-001 -7.071068e-001
    outer loop
      vertex   3.587727e+001 3.166270e+000 9.710213e+001
      vertex   3.787727e+001 3.166270e+000 9.710213e+001
      vertex   3.587727e+001 -1.025204e+000 9.291066e+001
    endloop
  endfacet
  facet normal 0.000000e+000 7.071068e-001 -7.071068e-001
    outer loop
      vertex   3.587727e+001 -1.025204e+000 9.291066e+001
      vertex   3.787727e+001 3.166270e+000 9.710213e+001
      vertex   3.787727e+001 -1.025204e+000 9.291066e+001
    endloop
  endfacet
  facet normal -1.110223e-016 1.000000e+000 -3.745919e-016
    outer loop
      vertex   3.587727e+001 -1.025204e+000 8.698302e+001
      vertex   3.587727e+001 -1.025204e+000 9.291066e+001
      vertex   3.787727e+001 -1.025204e+000 8.698302e+001
    endloop
  endfacet
  facet normal -1.110223e-016 1.000000e+000 -3.745919e-016
    outer loop
      vertex   3.787727e+001 -1.025204e+000 8.698302e+001
      vertex   3.587727e+001 -1.025204e+000 9.291066e+001
      vertex   3.787727e+001 -1.025204e+000 9.291066e+001
    endloop
  endfacet
  facet normal -7.850462e-017 7.071068e-001 7.071068e-001
    outer loop
      vertex   3.587727e+001 -1.025204e+000 8.698302e+001
      vertex   3.787727e+001 -1.025204e+000 8.698302e+001
      vertex   3.587727e+001 3.166270e+000 8.279154e+001
    endloop
  endfacet
  facet normal 0.000000e+000 7.071068e-001 7.071068e-001
    outer loop
      vertex   3.587727e+001 3.166270e+000 8.279154e+001
      vertex   3.787727e+001 -1.025204e+000 8.698302e+001
      vertex   3.787727e+001 3.166270e+000 8.279154e+001
    endloop
  endfacet
  facet normal 0.000000e+000 4.794777e-015 1.000000e+000
    outer loop
      vertex   3.587727e+001 3.166270e+000 8.279154e+001
      vertex   3.787727e+001 3.166270e+000 8.279154e+001
      vertex   3.587727e+001 9.093910e+000 8.279154e+001
    endloop
  endfacet
  facet normal 0.000000e+000 4.794777e-015 1.000000e+000
    outer loop
      vertex   3.587727e+001 9.093910e+000 8.279154e+001
      vertex   3.787727e+001 3.166270e+000 8.279154e+001
      vertex   3.787727e+001 9.093910e+000 8.279154e+001
    endloop
  endfacet
  facet normal -1.000000e+000 1.198694e-015 1.096790e-015
    outer loop
      vertex   3.587727e+001 9.093910e+000 9.710213e+001
      vertex   3.587727e+001 3.166270e+000 9.710213e+001
      vertex   3.587727e+001 -1.096850e+001 1.060718e+002
    endloop
  endfacet
  facet normal -1.000000e+000 4.155562e-016 -6.548505e-016
    outer loop
      vertex   3.587727e+001 2.322868e+001 1.060718e+002
      vertex   3.587727e+001 9.093910e+000 9.710213e+001
      vertex   3.587727e+001 -1.096850e+001 1.060718e+002
    endloop
  endfacet
  facet normal -1.000000e+000 0.000000e+000 0.000000e+000
    outer loop
      vertex   3.587727e+001 2.322868e+001 1.060718e+002
      vertex   3.587727e+001 1.328538e+001 9.291066e+001
      vertex   3.587727e+001 9.093910e+000 9.710213e+001
    endloop
  endfacet
  facet normal -1.000000e+000 0.000000e+000 0.000000e+000
    outer loop
      vertex   3.587727e+001 2.322868e+001 1.060718e+002
      vertex   3.587727e+001 1.328538e+001 8.698302e+001
      vertex   3.587727e+001 1.328538e+001 9.291066e+001
    endloop
  endfacet
  facet normal -1.000000e+000 0.000000e+000 0.000000e+000
    outer loop
      vertex   3.587727e+001 2.322868e+001 1.060718e+002
      vertex   3.587727e+001 2.322868e+001 6.013200e+001
      vertex   3.587727e+001 1.328538e+001 8.698302e+001
    endloop
  endfacet
  facet normal -1.000000e+000 0.000000e+000 0.000000e+000
    outer loop
      vertex   3.587727e+001 1.328538e+001 8.698302e+001
      vertex   3.587727e+001 2.322868e+001 6.013200e+001
      vertex   3.587727e+001 9.093910e+000 8.279154e+001
    endloop
  endfacet
  facet normal -1.000000e+000 4.155562e-016 2.592194e-016
    outer loop
      vertex   3.587727e+001 9.093910e+000 8.279154e+001
      vertex   3.587727e+001 2.322868e+001 6.013200e+001
      vertex   3.587727e+001 -1.096850e+001 6.013200e+001
    endloop
  endfacet
  facet normal -1.000000e+000 1.931121e-016 1.931121e-016
    outer loop
      vertex   3.587727e+001 3.166270e+000 8.279154e+001
      vertex   3.587727e+001 -1.096850e+001 6.013200e+001
      vertex   3.587727e+001 -1.025204e+000 8.698302e+001
    endloop
  endfacet
  facet normal -1.000000e+000 1.198694e-015 -4.341590e-016
    outer loop
      vertex   3.587727e+001 3.166270e+000 8.279154e+001
      vertex   3.587727e+001 9.093910e+000 8.279154e+001
      vertex   3.587727e+001 -1.096850e+001 6.013200e+001
    endloop
  endfacet
  facet normal -1.000000e+000 3.075351e-016 -3.075351e-016
    outer loop
      vertex   3.587727e+001 3.166270e+000 9.710213e+001
      vertex   3.587727e+001 -1.025204e+000 9.291066e+001
      vertex   3.587727e+001 -1.096850e+001 1.060718e+002
    endloop
  endfacet
  facet normal -1.000000e+000 7.145945e-016 -2.676813e-031
    outer loop
      vertex   3.587727e+001 -1.096850e+001 1.060718e+002
      vertex   3.587727e+001 -1.025204e+000 9.291066e+001
      vertex   3.587727e+001 -1.025204e+000 8.698302e+001
    endloop
  endfacet
  facet normal -1.000000e+000 7.145945e-016 0.000000e+000
    outer loop
      vertex   3.587727e+001 -1.096850e+001 6.013200e+001
      vertex   3.587727e+001 -1.096850e+001 1.060718e+002
      vertex   3.587727e+001 -1.025204e+000 8.698302e+001
    endloop
  endfacet
  facet normal -7.071068e-001 -7.071068e-001 0.000000e+000
    outer loop
      vertex   2.897586e+001 3.013009e+001 1.002169e+002
      vertex   2.897586e+001 3.013009e+001 5.347837e+001
      vertex   2.980429e+001 2.930166e+001 1.002169e+002
    endloop
  endfacet
  facet normal -7.071068e-001 -7.071068e-001 4.159852e-017
    outer loop
      vertex   2.980429e+001 2.930166e+001 1.002169e+002
      vertex   2.897586e+001 3.013009e+001 5.347837e+001
      vertex   3.587727e+001 2.322868e+001 6.013200e+001
    endloop
  endfacet
  facet normal -7.071068e-001 -7.071068e-001 0.000000e+000
    outer loop
      vertex   3.587727e+001 2.322868e+001 1.060718e+002
      vertex   2.980429e+001 2.930166e+001 1.002169e+002
      vertex   3.587727e+001 2.322868e+001 6.013200e+001
    endloop
  endfacet
  facet normal 0.000000e+000 -1.000000e+000 0.000000e+000
    outer loop
      vertex   2.897586e+001 3.013009e+001 5.347837e+001
      vertex   2.897586e+001 3.013009e+001 1.002169e+002
      vertex   2.857506e+001 3.013009e+001 5.309196e+001
    endloop
  endfacet
  facet normal -2.634015e-016 -1.000000e+000 2.240239e-018
    outer loop
      vertex   2.857506e+001 3.013009e+001 5.309196e+001
      vertex   2.897586e+001 3.013009e+001 1.002169e+002
      vertex   2.000211e+000 3.013009e+001 1.002169e+002
    endloop
  endfacet
  facet normal -1.398149e-016 -1.000000e+000 7.193369e-017
    outer loop
      vertex   -8.500258e+000 3.013009e+001 7.980748e+001
      vertex   2.857506e+001 3.013009e+001 5.309196e+001
      vertex   2.000211e+000 3.013009e+001 1.002169e+002
    endloop
  endfacet
  facet normal -1.762844e-016 -1.000000e+000 2.132186e-017
    outer loop
      vertex   -8.500258e+000 3.013009e+001 7.980748e+001
      vertex   2.000211e+000 3.013009e+001 0.000000e+000
      vertex   2.857506e+001 3.013009e+001 5.309196e+001
    endloop
  endfacet
  facet normal -1.336870e-016 -1.000000e+000 0.000000e+000
    outer loop
      vertex   2.857506e+001 3.013009e+001 5.309196e+001
      vertex   2.000211e+000 3.013009e+001 0.000000e+000
      vertex   2.857506e+001 3.013009e+001 4.312976e+001
    endloop
  endfacet
  facet normal -1.570067e-016 -1.000000e+000 1.436865e-017
    outer loop
      vertex   2.857506e+001 3.013009e+001 4.312976e+001
      vertex   2.000211e+000 3.013009e+001 0.000000e+000
      vertex   2.462799e+001 3.013009e+001 0.000000e+000
    endloop
  endfacet
  facet normal -7.071068e-001 7.071068e-001 0.000000e+000
    outer loop
      vertex   3.587727e+001 -1.096850e+001 1.060718e+002
      vertex   3.587727e+001 -1.096850e+001 6.013200e+001
      vertex   2.980429e+001 -1.704148e+001 1.002169e+002
    endloop
  endfacet
  facet normal -7.071068e-001 7.071068e-001 4.754116e-017
    outer loop
      vertex   2.980429e+001 -1.704148e+001 1.002169e+002
      vertex   3.587727e+001 -1.096850e+001 6.013200e+001
      vertex   2.897586e+001 -1.786991e+001 5.347837e+001
    endloop
  endfacet
  facet normal -7.071068e-001 7.071068e-001 0.000000e+000
    outer loop
      vertex   2.897586e+001 -1.786991e+001 1.002169e+002
      vertex   2.980429e+001 -1.704148e+001 1.002169e+002
      vertex   2.897586e+001 -1.786991e+001 5.347837e+001
    endloop
  endfacet
  facet normal 0.000000e+000 1.000000e+000 0.000000e+000
    outer loop
      vertex   2.897586e+001 -1.786991e+001 5.347837e+001
      vertex   2.857506e+001 -1.786991e+001 5.309196e+001
      vertex   2.897586e+001 -1.786991e+001 1.002169e+002
    endloop
  endfacet
  facet normal 2.634015e-016 1.000000e+000 -2.240239e-018
    outer loop
      vertex   2.897586e+001 -1.786991e+001 1.002169e+002
      vertex   2.857506e+001 -1.786991e+001 5.309196e+001
      vertex   2.000211e+000 -1.786991e+001 1.002169e+002
    endloop
  endfacet
  facet normal 3.012299e-016 1.000000e+000 1.909211e-017
    outer loop
      vertex   2.000211e+000 -1.786991e+001 1.002169e+002
      vertex   2.857506e+001 -1.786991e+001 5.309196e+001
      vertex   -8.500258e+000 -1.786991e+001 7.980748e+001
    endloop
  endfacet
  facet normal 2.874726e-016 1.000000e+000 0.000000e+000
    outer loop
      vertex   -8.500258e+000 -1.786991e+001 7.980748e+001
      vertex   2.857506e+001 -1.786991e+001 5.309196e+001
      vertex   2.857506e+001 -1.786991e+001 4.312976e+001
    endloop
  endfacet
  facet normal 1.570067e-016 1.000000e+000 6.800402e-017
    outer loop
      vertex   2.000211e+000 -1.786991e+001 0.000000e+000
      vertex   2.857506e+001 -1.786991e+001 4.312976e+001
      vertex   2.462799e+001 -1.786991e+001 0.000000e+000
    endloop
  endfacet
  facet normal 2.798611e-016 1.000000e+000 -7.694021e-018
    outer loop
      vertex   2.000211e+000 -1.786991e+001 0.000000e+000
      vertex   -8.500258e+000 -1.786991e+001 7.980748e+001
      vertex   2.857506e+001 -1.786991e+001 4.312976e+001
    endloop
  endfacet
  facet normal 6.940656e-001 0.000000e+000 -7.199117e-001
    outer loop
      vertex   2.857506e+001 -1.786991e+001 5.309196e+001
      vertex   2.897586e+001 -1.786991e+001 5.347837e+001
      vertex   2.857506e+001 -1.986991e+001 5.309196e+001
    endloop
  endfacet
  facet normal 6.940656e-001 1.430476e-015 -7.199117e-001
    outer loop
      vertex   2.857506e+001 -1.986991e+001 5.309196e+001
      vertex   2.897586e+001 -1.786991e+001 5.347837e+001
      vertex   2.980429e+001 -1.986991e+001 5.427705e+001
    endloop
  endfacet
  facet normal 6.940656e-001 1.670579e-015 -7.199117e-001
    outer loop
      vertex   2.980429e+001 -1.986991e+001 5.427705e+001
      vertex   2.897586e+001 -1.786991e+001 5.347837e+001
      vertex   3.587727e+001 -1.096850e+001 6.013200e+001
    endloop
  endfacet
  facet normal 6.940656e-001 1.074052e-017 -7.199117e-001
    outer loop
      vertex   3.787727e+001 -1.179693e+001 6.206019e+001
      vertex   3.587727e+001 -1.096850e+001 6.013200e+001
      vertex   3.587727e+001 2.322868e+001 6.013200e+001
    endloop
  endfacet
  facet normal 6.940656e-001 7.280715e-016 -7.199117e-001
    outer loop
      vertex   3.787727e+001 2.405711e+001 6.206019e+001
      vertex   3.587727e+001 2.322868e+001 6.013200e+001
      vertex   2.980429e+001 3.213009e+001 5.427705e+001
    endloop
  endfacet
  facet normal 6.940656e-001 0.000000e+000 -7.199117e-001
    outer loop
      vertex   3.787727e+001 2.405711e+001 6.206019e+001
      vertex   3.787727e+001 -1.179693e+001 6.206019e+001
      vertex   3.587727e+001 2.322868e+001 6.013200e+001
    endloop
  endfacet
  facet normal 6.940656e-001 -8.960881e-016 -7.199117e-001
    outer loop
      vertex   2.980429e+001 -1.986991e+001 5.427705e+001
      vertex   3.587727e+001 -1.096850e+001 6.013200e+001
      vertex   3.787727e+001 -1.179693e+001 6.206019e+001
    endloop
  endfacet
  facet normal 6.940656e-001 -1.015450e-015 -7.199117e-001
    outer loop
      vertex   3.587727e+001 2.322868e+001 6.013200e+001
      vertex   2.897586e+001 3.013009e+001 5.347837e+001
      vertex   2.980429e+001 3.213009e+001 5.427705e+001
    endloop
  endfacet
  facet normal 6.940656e-001 -3.901297e-016 -7.199117e-001
    outer loop
      vertex   2.980429e+001 3.213009e+001 5.427705e+001
      vertex   2.897586e+001 3.013009e+001 5.347837e+001
      vertex   2.857506e+001 3.213009e+001 5.309196e+001
    endloop
  endfacet
  facet normal 6.940656e-001 0.000000e+000 -7.199117e-001
    outer loop
      vertex   2.857506e+001 3.213009e+001 5.309196e+001
      vertex   2.897586e+001 3.013009e+001 5.347837e+001
      vertex   2.857506e+001 3.013009e+001 5.309196e+001
    endloop
  endfacet
  facet normal 0.000000e+000 0.000000e+000 1.000000e+000
    outer loop
      vertex   2.980429e+001 2.930166e+001 1.002169e+002
      vertex   2.980429e+001 3.213009e+001 1.002169e+002
      vertex   2.897586e+001 3.013009e+001 1.002169e+002
    endloop
  endfacet
  facet normal 0.000000e+000 0.000000e+000 1.000000e+000
    outer loop
      vertex   2.897586e+001 3.013009e+001 1.002169e+002
      vertex   2.980429e+001 3.213009e+001 1.002169e+002
      vertex   2.000211e+000 3.213009e+001 1.002169e+002
    endloop
  endfacet
  facet normal 0.000000e+000 0.000000e+000 1.000000e+000
    outer loop
      vertex   2.000211e+000 3.013009e+001 1.002169e+002
      vertex   2.897586e+001 3.013009e+001 1.002169e+002
      vertex   2.000211e+000 3.213009e+001 1.002169e+002
    endloop
  endfacet
  facet normal 0.000000e+000 0.000000e+000 1.000000e+000
    outer loop
      vertex   2.980429e+001 -1.704148e+001 1.002169e+002
      vertex   2.897586e+001 -1.786991e+001 1.002169e+002
      vertex   2.980429e+001 -1.986991e+001 1.002169e+002
    endloop
  endfacet
  facet normal 0.000000e+000 0.000000e+000 1.000000e+000
    outer loop
      vertex   2.980429e+001 -1.986991e+001 1.002169e+002
      vertex   2.897586e+001 -1.786991e+001 1.002169e+002
      vertex   2.000211e+000 -1.986991e+001 1.002169e+002
    endloop
  endfacet
  facet normal 0.000000e+000 0.000000e+000 1.000000e+000
    outer loop
      vertex   2.000211e+000 -1.986991e+001 1.002169e+002
      vertex   2.897586e+001 -1.786991e+001 1.002169e+002
      vertex   2.000211e+000 -1.786991e+001 1.002169e+002
    endloop
  endfacet
  facet normal 1.000000e+000 0.000000e+000 0.000000e+000
    outer loop
      vertex   2.857506e+001 3.013009e+001 5.309196e+001
      vertex   2.857506e+001 3.013009e+001 4.312976e+001
      vertex   2.857506e+001 3.213009e+001 5.309196e+001
    endloop
  endfacet
  facet normal 1.000000e+000 0.000000e+000 0.000000e+000
    outer loop
      vertex   2.857506e+001 3.213009e+001 5.309196e+001
      vertex   2.857506e+001 3.013009e+001 4.312976e+001
      vertex   2.857506e+001 3.213009e+001 4.312976e+001
    endloop
  endfacet
  facet normal 9.958385e-001 0.000000e+000 -9.113532e-002
    outer loop
      vertex   2.857506e+001 3.013009e+001 4.312976e+001
      vertex   2.462799e+001 3.013009e+001 0.000000e+000
      vertex   2.857506e+001 3.213009e+001 4.312976e+001
    endloop
  endfacet
  facet normal 9.958385e-001 0.000000e+000 -9.113532e-002
    outer loop
      vertex   2.857506e+001 3.213009e+001 4.312976e+001
      vertex   2.462799e+001 3.013009e+001 0.000000e+000
      vertex   2.462799e+001 3.213009e+001 0.000000e+000
    endloop
  endfacet
  facet normal -8.892130e-001 0.000000e+000 4.574934e-001
    outer loop
      vertex   -8.500258e+000 3.013009e+001 7.980748e+001
      vertex   2.000211e+000 3.013009e+001 1.002169e+002
      vertex   -8.500258e+000 3.213009e+001 7.980748e+001
    endloop
  endfacet
  facet normal -8.892130e-001 0.000000e+000 4.574934e-001
    outer loop
      vertex   -8.500258e+000 3.213009e+001 7.980748e+001
      vertex   2.000211e+000 3.013009e+001 1.002169e+002
      vertex   2.000211e+000 3.213009e+001 1.002169e+002
    endloop
  endfacet
  facet normal -8.892130e-001 0.000000e+000 4.574934e-001
    outer loop
      vertex   2.000211e+000 -1.786991e+001 1.002169e+002
      vertex   -8.500258e+000 -1.786991e+001 7.980748e+001
      vertex   2.000211e+000 -1.986991e+001 1.002169e+002
    endloop
  endfacet
  facet normal -8.892130e-001 0.000000e+000 4.574934e-001
    outer loop
      vertex   2.000211e+000 -1.986991e+001 1.002169e+002
      vertex   -8.500258e+000 -1.786991e+001 7.980748e+001
      vertex   -8.500258e+000 -1.986991e+001 7.980748e+001
    endloop
  endfacet
  facet normal 0.000000e+000 0.000000e+000 -1.000000e+000
    outer loop
      vertex   2.462799e+001 3.013009e+001 0.000000e+000
      vertex   2.000211e+000 3.013009e+001 0.000000e+000
      vertex   2.462799e+001 3.213009e+001 0.000000e+000
    endloop
  endfacet
  facet normal 0.000000e+000 0.000000e+000 -1.000000e+000
    outer loop
      vertex   2.462799e+001 3.213009e+001 0.000000e+000
      vertex   2.000211e+000 3.013009e+001 0.000000e+000
      vertex   2.000211e+000 3.213009e+001 0.000000e+000
    endloop
  endfacet
  facet normal -9.914551e-001 0.000000e+000 -1.304482e-001
    outer loop
      vertex   2.000211e+000 3.013009e+001 0.000000e+000
      vertex   -8.500258e+000 3.013009e+001 7.980748e+001
      vertex   2.000211e+000 3.213009e+001 0.000000e+000
    endloop
  endfacet
  facet normal -9.914551e-001 0.000000e+000 -1.304482e-001
    outer loop
      vertex   2.000211e+000 3.213009e+001 0.000000e+000
      vertex   -8.500258e+000 3.013009e+001 7.980748e+001
      vertex   -8.500258e+000 3.213009e+001 7.980748e+001
    endloop
  endfacet
  facet normal -9.914551e-001 0.000000e+000 -1.304482e-001
    outer loop
      vertex   -8.500258e+000 -1.786991e+001 7.980748e+001
      vertex   2.000211e+000 -1.786991e+001 0.000000e+000
      vertex   -8.500258e+000 -1.986991e+001 7.980748e+001
    endloop
  endfacet
  facet normal -9.914551e-001 0.000000e+000 -1.304482e-001
    outer loop
      vertex   -8.500258e+000 -1.986991e+001 7.980748e+001
      vertex   2.000211e+000 -1.786991e+001 0.000000e+000
      vertex   2.000211e+000 -1.986991e+001 0.000000e+000
    endloop
  endfacet
  facet normal 7.071068e-001 7.071068e-001 0.000000e+000
    outer loop
      vertex   2.980429e+001 3.213009e+001 5.427705e+001
      vertex   2.980429e+001 3.213009e+001 1.002169e+002
      vertex   3.787727e+001 2.405711e+001 6.206019e+001
    endloop
  endfacet
  facet normal 7.071068e-001 7.071068e-001 -1.083783e-016
    outer loop
      vertex   3.787727e+001 2.405711e+001 6.206019e+001
      vertex   2.980429e+001 3.213009e+001 1.002169e+002
      vertex   3.787727e+001 2.405711e+001 1.080000e+002
    endloop
  endfacet
  facet normal 7.071068e-001 -7.071068e-001 -2.709457e-017
    outer loop
      vertex   3.787727e+001 -1.179693e+001 1.080000e+002
      vertex   2.980429e+001 -1.986991e+001 1.002169e+002
      vertex   3.787727e+001 -1.179693e+001 6.206019e+001
    endloop
  endfacet
  facet normal 7.071068e-001 -7.071068e-001 0.000000e+000
    outer loop
      vertex   3.787727e+001 -1.179693e+001 6.206019e+001
      vertex   2.980429e+001 -1.986991e+001 1.002169e+002
      vertex   2.980429e+001 -1.986991e+001 5.427705e+001
    endloop
  endfacet
  facet normal 1.000000e+000 6.596367e-016 -2.470946e-031
    outer loop
      vertex   3.787727e+001 -1.025204e+000 8.698302e+001
      vertex   3.787727e+001 -1.025204e+000 9.291066e+001
      vertex   3.787727e+001 -1.179693e+001 1.080000e+002
    endloop
  endfacet
  facet normal 1.000000e+000 3.578598e-016 -1.546682e-016
    outer loop
      vertex   3.787727e+001 -1.179693e+001 6.206019e+001
      vertex   3.787727e+001 -1.025204e+000 8.698302e+001
      vertex   3.787727e+001 -1.179693e+001 1.080000e+002
    endloop
  endfacet
  facet normal 1.000000e+000 0.000000e+000 0.000000e+000
    outer loop
      vertex   3.787727e+001 -1.179693e+001 6.206019e+001
      vertex   3.787727e+001 3.166270e+000 8.279154e+001
      vertex   3.787727e+001 -1.025204e+000 8.698302e+001
    endloop
  endfacet
  facet normal 1.000000e+000 0.000000e+000 0.000000e+000
    outer loop
      vertex   3.787727e+001 -1.179693e+001 6.206019e+001
      vertex   3.787727e+001 9.093910e+000 8.279154e+001
      vertex   3.787727e+001 3.166270e+000 8.279154e+001
    endloop
  endfacet
  facet normal 1.000000e+000 0.000000e+000 0.000000e+000
    outer loop
      vertex   3.787727e+001 -1.179693e+001 6.206019e+001
      vertex   3.787727e+001 2.405711e+001 6.206019e+001
      vertex   3.787727e+001 9.093910e+000 8.279154e+001
    endloop
  endfacet
  facet normal 1.000000e+000 0.000000e+000 0.000000e+000
    outer loop
      vertex   3.787727e+001 9.093910e+000 8.279154e+001
      vertex   3.787727e+001 2.405711e+001 6.206019e+001
      vertex   3.787727e+001 1.328538e+001 8.698302e+001
    endloop
  endfacet
  facet normal 1.000000e+000 -3.578598e-016 -1.546682e-016
    outer loop
      vertex   3.787727e+001 1.328538e+001 8.698302e+001
      vertex   3.787727e+001 2.405711e+001 6.206019e+001
      vertex   3.787727e+001 2.405711e+001 1.080000e+002
    endloop
  endfacet
  facet normal 1.000000e+000 -2.747538e-016 -2.747538e-016
    outer loop
      vertex   3.787727e+001 1.328538e+001 9.291066e+001
      vertex   3.787727e+001 2.405711e+001 1.080000e+002
      vertex   3.787727e+001 9.093910e+000 9.710213e+001
    endloop
  endfacet
  facet normal 1.000000e+000 -6.596367e-016 0.000000e+000
    outer loop
      vertex   3.787727e+001 1.328538e+001 9.291066e+001
      vertex   3.787727e+001 1.328538e+001 8.698302e+001
      vertex   3.787727e+001 2.405711e+001 1.080000e+002
    endloop
  endfacet
  facet normal 1.000000e+000 2.747538e-016 -2.747538e-016
    outer loop
      vertex   3.787727e+001 -1.025204e+000 9.291066e+001
      vertex   3.787727e+001 3.166270e+000 9.710213e+001
      vertex   3.787727e+001 -1.179693e+001 1.080000e+002
    endloop
  endfacet
  facet normal 1.000000e+000 0.000000e+000 -6.520016e-016
    outer loop
      vertex   3.787727e+001 -1.179693e+001 1.080000e+002
      vertex   3.787727e+001 3.166270e+000 9.710213e+001
      vertex   3.787727e+001 9.093910e+000 9.710213e+001
    endloop
  endfacet
  facet normal 1.000000e+000 0.000000e+000 -6.520016e-016
    outer loop
      vertex   3.787727e+001 2.405711e+001 1.080000e+002
      vertex   3.787727e+001 -1.179693e+001 1.080000e+002
      vertex   3.787727e+001 9.093910e+000 9.710213e+001
    endloop
  endfacet
  facet normal -6.940656e-001 0.000000e+000 7.199117e-001
    outer loop
      vertex   2.980429e+001 -1.704148e+001 1.002169e+002
      vertex   2.980429e+001 -1.986991e+001 1.002169e+002
      vertex   3.587727e+001 -1.096850e+001 1.060718e+002
    endloop
  endfacet
  facet normal -6.940656e-001 8.960881e-016 7.199117e-001
    outer loop
      vertex   3.587727e+001 -1.096850e+001 1.060718e+002
      vertex   2.980429e+001 -1.986991e+001 1.002169e+002
      vertex   3.787727e+001 -1.179693e+001 1.080000e+002
    endloop
  endfacet
  facet normal -6.940656e-001 0.000000e+000 7.199117e-001
    outer loop
      vertex   3.587727e+001 2.322868e+001 1.060718e+002
      vertex   3.787727e+001 -1.179693e+001 1.080000e+002
      vertex   3.787727e+001 2.405711e+001 1.080000e+002
    endloop
  endfacet
  facet normal -6.940656e-001 -7.840770e-016 7.199117e-001
    outer loop
      vertex   2.980429e+001 3.213009e+001 1.002169e+002
      vertex   3.587727e+001 2.322868e+001 1.060718e+002
      vertex   3.787727e+001 2.405711e+001 1.080000e+002
    endloop
  endfacet
  facet normal -6.940656e-001 0.000000e+000 7.199117e-001
    outer loop
      vertex   2.980429e+001 3.213009e+001 1.002169e+002
      vertex   2.980429e+001 2.930166e+001 1.002169e+002
      vertex   3.587727e+001 2.322868e+001 1.060718e+002
    endloop
  endfacet
  facet normal -6.940656e-001 -9.348869e-018 7.199117e-001
    outer loop
      vertex   3.587727e+001 -1.096850e+001 1.060718e+002
      vertex   3.787727e+001 -1.179693e+001 1.080000e+002
      vertex   3.587727e+001 2.322868e+001 1.060718e+002
    endloop
  endfacet
  facet normal 1.000000e+000 0.000000e+000 0.000000e+000
    outer loop
      vertex   2.857506e+001 -1.786991e+001 4.312976e+001
      vertex   2.857506e+001 -1.786991e+001 5.309196e+001
      vertex   2.857506e+001 -1.986991e+001 4.312976e+001
    endloop
  endfacet
  facet normal 1.000000e+000 0.000000e+000 0.000000e+000
    outer loop
      vertex   2.857506e+001 -1.986991e+001 4.312976e+001
      vertex   2.857506e+001 -1.786991e+001 5.309196e+001
      vertex   2.857506e+001 -1.986991e+001 5.309196e+001
    endloop
  endfacet
  facet normal 9.958385e-001 0.000000e+000 -9.113532e-002
    outer loop
      vertex   2.462799e+001 -1.786991e+001 0.000000e+000
      vertex   2.857506e+001 -1.786991e+001 4.312976e+001
      vertex   2.462799e+001 -1.986991e+001 0.000000e+000
    endloop
  endfacet
  facet normal 9.958385e-001 0.000000e+000 -9.113532e-002
    outer loop
      vertex   2.462799e+001 -1.986991e+001 0.000000e+000
      vertex   2.857506e+001 -1.786991e+001 4.312976e+001
      vertex   2.857506e+001 -1.986991e+001 4.312976e+001
    endloop
  endfacet
  facet normal 0.000000e+000 1.000000e+000 0.000000e+000
    outer loop
      vertex   2.980429e+001 3.213009e+001 5.427705e+001
      vertex   2.857506e+001 3.213009e+001 5.309196e+001
      vertex   2.980429e+001 3.213009e+001 1.002169e+002
    endloop
  endfacet
  facet normal -2.555534e-016 1.000000e+000 6.665964e-018
    outer loop
      vertex   2.980429e+001 3.213009e+001 1.002169e+002
      vertex   2.857506e+001 3.213009e+001 5.309196e+001
      vertex   2.000211e+000 3.213009e+001 1.002169e+002
    endloop
  endfacet
  facet normal -1.398149e-016 1.000000e+000 7.193369e-017
    outer loop
      vertex   2.000211e+000 3.213009e+001 1.002169e+002
      vertex   2.857506e+001 3.213009e+001 5.309196e+001
      vertex   -8.500258e+000 3.213009e+001 7.980748e+001
    endloop
  endfacet
  facet normal -1.916484e-016 1.000000e+000 0.000000e+000
    outer loop
      vertex   -8.500258e+000 3.213009e+001 7.980748e+001
      vertex   2.857506e+001 3.213009e+001 5.309196e+001
      vertex   2.857506e+001 3.213009e+001 4.312976e+001
    endloop
  endfacet
  facet normal -3.140134e-016 1.000000e+000 2.873730e-017
    outer loop
      vertex   2.000211e+000 3.213009e+001 0.000000e+000
      vertex   2.857506e+001 3.213009e+001 4.312976e+001
      vertex   2.462799e+001 3.213009e+001 0.000000e+000
    endloop
  endfacet
  facet normal -2.203265e-016 1.000000e+000 -2.898890e-017
    outer loop
      vertex   2.000211e+000 3.213009e+001 0.000000e+000
      vertex   -8.500258e+000 3.213009e+001 7.980748e+001
      vertex   2.857506e+001 3.213009e+001 4.312976e+001
    endloop
  endfacet
  facet normal 0.000000e+000 0.000000e+000 -1.000000e+000
    outer loop
      vertex   2.000211e+000 -1.786991e+001 0.000000e+000
      vertex   2.462799e+001 -1.786991e+001 0.000000e+000
      vertex   2.000211e+000 -1.986991e+001 0.000000e+000
    endloop
  endfacet
  facet normal 0.000000e+000 0.000000e+000 -1.000000e+000
    outer loop
      vertex   2.000211e+000 -1.986991e+001 0.000000e+000
      vertex   2.462799e+001 -1.786991e+001 0.000000e+000
      vertex   2.462799e+001 -1.986991e+001 0.000000e+000
    endloop
  endfacet
  facet normal 0.000000e+000 -1.000000e+000 0.000000e+000
    outer loop
      vertex   2.980429e+001 -1.986991e+001 5.427705e+001
      vertex   2.980429e+001 -1.986991e+001 1.002169e+002
      vertex   2.857506e+001 -1.986991e+001 5.309196e+001
    endloop
  endfacet
  facet normal 0.000000e+000 -1.000000e+000 0.000000e+000
    outer loop
      vertex   2.857506e+001 -1.986991e+001 5.309196e+001
      vertex   2.980429e+001 -1.986991e+001 1.002169e+002
      vertex   2.000211e+000 -1.986991e+001 1.002169e+002
    endloop
  endfacet
  facet normal 0.000000e+000 -1.000000e+000 0.000000e+000
    outer loop
      vertex   -8.500258e+000 -1.986991e+001 7.980748e+001
      vertex   2.857506e+001 -1.986991e+001 5.309196e+001
      vertex   2.000211e+000 -1.986991e+001 1.002169e+002
    endloop
  endfacet
  facet normal 0.000000e+000 -1.000000e+000 0.000000e+000
    outer loop
      vertex   -8.500258e+000 -1.986991e+001 7.980748e+001
      vertex   2.857506e+001 -1.986991e+001 4.312976e+001
      vertex   2.857506e+001 -1.986991e+001 5.309196e+001
    endloop
  endfacet
  facet normal 0.000000e+000 -1.000000e+000 0.000000e+000
    outer loop
      vertex   -8.500258e+000 -1.986991e+001 7.980748e+001
      vertex   2.000211e+000 -1.986991e+001 0.000000e+000
      vertex   2.857506e+001 -1.986991e+001 4.312976e+001
    endloop
  endfacet
  facet normal 0.000000e+000 -1.000000e+000 0.000000e+000
    outer loop
      vertex   2.857506e+001 -1.986991e+001 4.312976e+001
      vertex   2.000211e+000 -1.986991e+001 0.000000e+000
      vertex   2.462799e+001 -1.986991e+001 0.000000e+000
    endloop
  endfacet
endsolid
