solid ascii
  facet normal -1.000000e+000 0.000000e+000 0.000000e+000
    outer loop
      vertex   1.575407e+001 -2.418616e+000 4.900000e+001
      vertex   1.575407e+001 -2.418616e+000 5.700000e+001
      vertex   1.575407e+001 1.858138e+001 4.900000e+001
    endloop
  endfacet
  facet normal -1.000000e+000 0.000000e+000 0.000000e+000
    outer loop
      vertex   1.575407e+001 1.858138e+001 4.900000e+001
      vertex   1.575407e+001 -2.418616e+000 5.700000e+001
      vertex   1.575407e+001 1.858138e+001 5.700000e+001
    endloop
  endfacet
  facet normal 0.000000e+000 0.000000e+000 1.000000e+000
    outer loop
      vertex   -4.745930e+000 -2.418616e+000 4.900000e+001
      vertex   1.575407e+001 -2.418616e+000 4.900000e+001
      vertex   -4.745930e+000 1.858138e+001 4.900000e+001
    endloop
  endfacet
  facet normal 0.000000e+000 0.000000e+000 1.000000e+000
    outer loop
      vertex   -4.745930e+000 1.858138e+001 4.900000e+001
      vertex   1.575407e+001 -2.418616e+000 4.900000e+001
      vertex   1.575407e+001 1.858138e+001 4.900000e+001
    endloop
  endfacet
  facet normal 0.000000e+000 0.000000e+000 1.000000e+000
    outer loop
      vertex   4.325407e+001 -1.641862e+001 4.900000e+001
      vertex   6.275407e+001 -1.641862e+001 4.900000e+001
      vertex   4.325407e+001 -2.418616e+000 4.900000e+001
    endloop
  endfacet
  facet normal -3.643809e-016 -5.075305e-016 1.000000e+000
    outer loop
      vertex   4.325407e+001 -2.418616e+000 4.900000e+001
      vertex   6.275407e+001 -1.641862e+001 4.900000e+001
      vertex   6.275407e+001 -2.418616e+000 4.900000e+001
    endloop
  endfacet
  facet normal 0.000000e+000 5.075305e-016 1.000000e+000
    outer loop
      vertex   6.275407e+001 3.258138e+001 4.900000e+001
      vertex   4.325407e+001 3.258138e+001 4.900000e+001
      vertex   6.275407e+001 1.858138e+001 4.900000e+001
    endloop
  endfacet
  facet normal -3.643809e-016 0.000000e+000 1.000000e+000
    outer loop
      vertex   6.275407e+001 1.858138e+001 4.900000e+001
      vertex   4.325407e+001 3.258138e+001 4.900000e+001
      vertex   4.325407e+001 1.858138e+001 4.900000e+001
    endloop
  endfacet
  facet normal 1.000000e+000 3.383537e-016 0.000000e+000
    outer loop
      vertex   6.275407e+001 1.858138e+001 4.900000e+001
      vertex   6.275407e+001 1.858138e+001 5.700000e+001
      vertex   6.275407e+001 -2.418616e+000 4.900000e+001
    endloop
  endfacet
  facet normal 1.000000e+000 3.383537e-016 0.000000e+000
    outer loop
      vertex   6.275407e+001 -2.418616e+000 4.900000e+001
      vertex   6.275407e+001 1.858138e+001 5.700000e+001
      vertex   6.275407e+001 -2.418616e+000 5.700000e+001
    endloop
  endfacet
  facet normal 0.000000e+000 0.000000e+000 1.000000e+000
    outer loop
      vertex   6.275407e+001 -2.418616e+000 4.900000e+001
      vertex   7.175407e+001 -2.418616e+000 4.900000e+001
      vertex   6.275407e+001 1.858138e+001 4.900000e+001
    endloop
  endfacet
  facet normal 0.000000e+000 0.000000e+000 1.000000e+000
    outer loop
      vertex   6.275407e+001 1.858138e+001 4.900000e+001
      vertex   7.175407e+001 -2.418616e+000 4.900000e+001
      vertex   7.175407e+001 1.858138e+001 4.900000e+001
    endloop
  endfacet
  facet normal -9.448707e-018 -1.000000e+000 8.556985e-016
    outer loop
      vertex   6.275407e+001 -2.418616e+000 5.700000e+001
      vertex   1.575407e+001 -2.418616e+000 5.700000e+001
      vertex   4.325407e+001 -2.418616e+000 4.900000e+001
    endloop
  endfacet
  facet normal 3.416071e-016 -1.000000e+000 0.000000e+000
    outer loop
      vertex   6.275407e+001 -2.418616e+000 4.900000e+001
      vertex   6.275407e+001 -2.418616e+000 5.700000e+001
      vertex   4.325407e+001 -2.418616e+000 4.900000e+001
    endloop
  endfacet
  facet normal -3.032804e-016 -1.000000e+000 1.083144e-017
    outer loop
      vertex   -4.745930e+000 -2.418616e+000 4.900000e+001
      vertex   -4.745930e+000 -2.418616e+000 8.000000e+000
      vertex   1.575407e+001 -2.418616e+000 4.900000e+001
    endloop
  endfacet
  facet normal -2.816175e-016 -1.000000e+000 0.000000e+000
    outer loop
      vertex   1.575407e+001 -2.418616e+000 4.900000e+001
      vertex   -4.745930e+000 -2.418616e+000 8.000000e+000
      vertex   1.575407e+001 -2.418616e+000 8.000000e+000
    endloop
  endfacet
  facet normal -2.583792e-016 -1.000000e+000 0.000000e+000
    outer loop
      vertex   4.325407e+001 -2.418616e+000 4.900000e+001
      vertex   1.575407e+001 -2.418616e+000 8.000000e+000
      vertex   4.325407e+001 -2.418616e+000 8.000000e+000
    endloop
  endfacet
  facet normal -2.583792e-016 -1.000000e+000 0.000000e+000
    outer loop
      vertex   4.325407e+001 -2.418616e+000 4.900000e+001
      vertex   1.575407e+001 -2.418616e+000 4.900000e+001
      vertex   1.575407e+001 -2.418616e+000 8.000000e+000
    endloop
  endfacet
  facet normal -2.583792e-016 -1.000000e+000 0.000000e+000
    outer loop
      vertex   4.325407e+001 -2.418616e+000 4.900000e+001
      vertex   1.575407e+001 -2.418616e+000 5.700000e+001
      vertex   1.575407e+001 -2.418616e+000 4.900000e+001
    endloop
  endfacet
  facet normal -2.583792e-016 -1.000000e+000 0.000000e+000
    outer loop
      vertex   1.575407e+001 -2.418616e+000 8.000000e+000
      vertex   1.575407e+001 -2.418616e+000 0.000000e+000
      vertex   4.325407e+001 -2.418616e+000 8.000000e+000
    endloop
  endfacet
  facet normal -9.448707e-018 -1.000000e+000 -8.556985e-016
    outer loop
      vertex   4.325407e+001 -2.418616e+000 8.000000e+000
      vertex   1.575407e+001 -2.418616e+000 0.000000e+000
      vertex   6.275407e+001 -2.418616e+000 0.000000e+000
    endloop
  endfacet
  facet normal 3.416071e-016 -1.000000e+000 0.000000e+000
    outer loop
      vertex   6.275407e+001 -2.418616e+000 8.000000e+000
      vertex   4.325407e+001 -2.418616e+000 8.000000e+000
      vertex   6.275407e+001 -2.418616e+000 0.000000e+000
    endloop
  endfacet
  facet normal -1.000000e+000 -1.268826e-016 0.000000e+000
    outer loop
      vertex   -4.745930e+000 1.858138e+001 4.900000e+001
      vertex   -4.745930e+000 1.858138e+001 8.000000e+000
      vertex   -4.745930e+000 -2.418616e+000 4.900000e+001
    endloop
  endfacet
  facet normal -1.000000e+000 -1.691768e-016 -2.166289e-017
    outer loop
      vertex   -4.745930e+000 -2.418616e+000 4.900000e+001
      vertex   -4.745930e+000 1.858138e+001 8.000000e+000
      vertex   -4.745930e+000 -2.418616e+000 8.000000e+000
    endloop
  endfacet
  facet normal -1.000000e+000 0.000000e+000 0.000000e+000
    outer loop
      vertex   4.325407e+001 -2.418616e+000 4.900000e+001
      vertex   4.325407e+001 -2.418616e+000 8.000000e+000
      vertex   4.325407e+001 -1.641862e+001 4.900000e+001
    endloop
  endfacet
  facet normal -1.000000e+000 0.000000e+000 0.000000e+000
    outer loop
      vertex   4.325407e+001 -1.641862e+001 4.900000e+001
      vertex   4.325407e+001 -2.418616e+000 8.000000e+000
      vertex   4.325407e+001 -1.641862e+001 8.000000e+000
    endloop
  endfacet
  facet normal -1.000000e+000 0.000000e+000 0.000000e+000
    outer loop
      vertex   4.325407e+001 3.258138e+001 4.900000e+001
      vertex   4.325407e+001 3.258138e+001 8.000000e+000
      vertex   4.325407e+001 1.858138e+001 4.900000e+001
    endloop
  endfacet
  facet normal -1.000000e+000 0.000000e+000 0.000000e+000
    outer loop
      vertex   4.325407e+001 1.858138e+001 4.900000e+001
      vertex   4.325407e+001 3.258138e+001 8.000000e+000
      vertex   4.325407e+001 1.858138e+001 8.000000e+000
    endloop
  endfacet
  facet normal 0.000000e+000 1.000000e+000 0.000000e+000
    outer loop
      vertex   6.275407e+001 3.258138e+001 4.900000e+001
      vertex   6.275407e+001 3.258138e+001 8.000000e+000
      vertex   4.325407e+001 3.258138e+001 4.900000e+001
    endloop
  endfacet
  facet normal 0.000000e+000 1.000000e+000 0.000000e+000
    outer loop
      vertex   4.325407e+001 3.258138e+001 4.900000e+001
      vertex   6.275407e+001 3.258138e+001 8.000000e+000
      vertex   4.325407e+001 3.258138e+001 8.000000e+000
    endloop
  endfacet
  facet normal 1.000000e+000 0.000000e+000 0.000000e+000
    outer loop
      vertex   6.275407e+001 1.858138e+001 4.900000e+001
      vertex   6.275407e+001 1.858138e+001 8.000000e+000
      vertex   6.275407e+001 3.258138e+001 4.900000e+001
    endloop
  endfacet
  facet normal 1.000000e+000 0.000000e+000 0.000000e+000
    outer loop
      vertex   6.275407e+001 3.258138e+001 4.900000e+001
      vertex   6.275407e+001 1.858138e+001 8.000000e+000
      vertex   6.275407e+001 3.258138e+001 8.000000e+000
    endloop
  endfacet
  facet normal 3.947460e-016 1.000000e+000 0.000000e+000
    outer loop
      vertex   7.175407e+001 1.858138e+001 4.900000e+001
      vertex   7.175407e+001 1.858138e+001 8.000000e+000
      vertex   6.275407e+001 1.858138e+001 4.900000e+001
    endloop
  endfacet
  facet normal 3.947460e-016 1.000000e+000 0.000000e+000
    outer loop
      vertex   6.275407e+001 1.858138e+001 4.900000e+001
      vertex   7.175407e+001 1.858138e+001 8.000000e+000
      vertex   6.275407e+001 1.858138e+001 8.000000e+000
    endloop
  endfacet
  facet normal -1.000000e+000 0.000000e+000 0.000000e+000
    outer loop
      vertex   1.575407e+001 1.858138e+001 8.000000e+000
      vertex   1.575407e+001 1.858138e+001 0.000000e+000
      vertex   1.575407e+001 -2.418616e+000 8.000000e+000
    endloop
  endfacet
  facet normal -1.000000e+000 0.000000e+000 0.000000e+000
    outer loop
      vertex   1.575407e+001 -2.418616e+000 8.000000e+000
      vertex   1.575407e+001 1.858138e+001 0.000000e+000
      vertex   1.575407e+001 -2.418616e+000 0.000000e+000
    endloop
  endfacet
  facet normal 0.000000e+000 0.000000e+000 -1.000000e+000
    outer loop
      vertex   -4.745930e+000 1.858138e+001 8.000000e+000
      vertex   1.575407e+001 1.858138e+001 8.000000e+000
      vertex   -4.745930e+000 -2.418616e+000 8.000000e+000
    endloop
  endfacet
  facet normal 0.000000e+000 0.000000e+000 -1.000000e+000
    outer loop
      vertex   -4.745930e+000 -2.418616e+000 8.000000e+000
      vertex   1.575407e+001 1.858138e+001 8.000000e+000
      vertex   1.575407e+001 -2.418616e+000 8.000000e+000
    endloop
  endfacet
  facet normal 0.000000e+000 0.000000e+000 -1.000000e+000
    outer loop
      vertex   6.275407e+001 -1.641862e+001 8.000000e+000
      vertex   4.325407e+001 -1.641862e+001 8.000000e+000
      vertex   6.275407e+001 -2.418616e+000 8.000000e+000
    endloop
  endfacet
  facet normal 0.000000e+000 0.000000e+000 -1.000000e+000
    outer loop
      vertex   6.275407e+001 -2.418616e+000 8.000000e+000
      vertex   4.325407e+001 -1.641862e+001 8.000000e+000
      vertex   4.325407e+001 -2.418616e+000 8.000000e+000
    endloop
  endfacet
  facet normal 0.000000e+000 0.000000e+000 -1.000000e+000
    outer loop
      vertex   4.325407e+001 3.258138e+001 8.000000e+000
      vertex   6.275407e+001 3.258138e+001 8.000000e+000
      vertex   4.325407e+001 1.858138e+001 8.000000e+000
    endloop
  endfacet
  facet normal 0.000000e+000 0.000000e+000 -1.000000e+000
    outer loop
      vertex   4.325407e+001 1.858138e+001 8.000000e+000
      vertex   6.275407e+001 3.258138e+001 8.000000e+000
      vertex   6.275407e+001 1.858138e+001 8.000000e+000
    endloop
  endfacet
  facet normal 1.000000e+000 3.383537e-016 0.000000e+000
    outer loop
      vertex   6.275407e+001 -2.418616e+000 8.000000e+000
      vertex   6.275407e+001 -2.418616e+000 0.000000e+000
      vertex   6.275407e+001 1.858138e+001 8.000000e+000
    endloop
  endfacet
  facet normal 1.000000e+000 3.383537e-016 0.000000e+000
    outer loop
      vertex   6.275407e+001 1.858138e+001 8.000000e+000
      vertex   6.275407e+001 -2.418616e+000 0.000000e+000
      vertex   6.275407e+001 1.858138e+001 0.000000e+000
    endloop
  endfacet
  facet normal 0.000000e+000 0.000000e+000 -1.000000e+000
    outer loop
      vertex   7.175407e+001 -2.418616e+000 8.000000e+000
      vertex   6.275407e+001 -2.418616e+000 8.000000e+000
      vertex   7.175407e+001 1.858138e+001 8.000000e+000
    endloop
  endfacet
  facet normal 0.000000e+000 0.000000e+000 -1.000000e+000
    outer loop
      vertex   7.175407e+001 1.858138e+001 8.000000e+000
      vertex   6.275407e+001 -2.418616e+000 8.000000e+000
      vertex   6.275407e+001 1.858138e+001 8.000000e+000
    endloop
  endfacet
  facet normal 2.583792e-016 1.000000e+000 0.000000e+000
    outer loop
      vertex   1.575407e+001 1.858138e+001 5.700000e+001
      vertex   4.325407e+001 1.858138e+001 4.900000e+001
      vertex   1.575407e+001 1.858138e+001 4.900000e+001
    endloop
  endfacet
  facet normal -2.267690e-016 1.000000e+000 -1.667697e-015
    outer loop
      vertex   1.575407e+001 1.858138e+001 5.700000e+001
      vertex   6.275407e+001 1.858138e+001 5.700000e+001
      vertex   4.325407e+001 1.858138e+001 4.900000e+001
    endloop
  endfacet
  facet normal -9.109522e-016 1.000000e+000 0.000000e+000
    outer loop
      vertex   4.325407e+001 1.858138e+001 4.900000e+001
      vertex   6.275407e+001 1.858138e+001 5.700000e+001
      vertex   6.275407e+001 1.858138e+001 4.900000e+001
    endloop
  endfacet
  facet normal 2.583792e-016 1.000000e+000 0.000000e+000
    outer loop
      vertex   4.325407e+001 1.858138e+001 4.900000e+001
      vertex   4.325407e+001 1.858138e+001 8.000000e+000
      vertex   1.575407e+001 1.858138e+001 4.900000e+001
    endloop
  endfacet
  facet normal 2.583792e-016 1.000000e+000 0.000000e+000
    outer loop
      vertex   1.575407e+001 1.858138e+001 4.900000e+001
      vertex   4.325407e+001 1.858138e+001 8.000000e+000
      vertex   1.575407e+001 1.858138e+001 8.000000e+000
    endloop
  endfacet
  facet normal 0.000000e+000 1.000000e+000 0.000000e+000
    outer loop
      vertex   -4.745930e+000 1.858138e+001 4.900000e+001
      vertex   1.575407e+001 1.858138e+001 8.000000e+000
      vertex   -4.745930e+000 1.858138e+001 8.000000e+000
    endloop
  endfacet
  facet normal 0.000000e+000 1.000000e+000 0.000000e+000
    outer loop
      vertex   -4.745930e+000 1.858138e+001 4.900000e+001
      vertex   1.575407e+001 1.858138e+001 4.900000e+001
      vertex   1.575407e+001 1.858138e+001 8.000000e+000
    endloop
  endfacet
  facet normal -9.109522e-016 1.000000e+000 0.000000e+000
    outer loop
      vertex   6.275407e+001 1.858138e+001 8.000000e+000
      vertex   6.275407e+001 1.858138e+001 0.000000e+000
      vertex   4.325407e+001 1.858138e+001 8.000000e+000
    endloop
  endfacet
  facet normal -2.267690e-016 1.000000e+000 1.667697e-015
    outer loop
      vertex   4.325407e+001 1.858138e+001 8.000000e+000
      vertex   6.275407e+001 1.858138e+001 0.000000e+000
      vertex   1.575407e+001 1.858138e+001 0.000000e+000
    endloop
  endfacet
  facet normal 2.583792e-016 1.000000e+000 0.000000e+000
    outer loop
      vertex   1.575407e+001 1.858138e+001 8.000000e+000
      vertex   4.325407e+001 1.858138e+001 8.000000e+000
      vertex   1.575407e+001 1.858138e+001 0.000000e+000
    endloop
  endfacet
  facet normal 0.000000e+000 -1.000000e+000 0.000000e+000
    outer loop
      vertex   4.325407e+001 -1.641862e+001 4.900000e+001
      vertex   4.325407e+001 -1.641862e+001 8.000000e+000
      vertex   6.275407e+001 -1.641862e+001 4.900000e+001
    endloop
  endfacet
  facet normal 0.000000e+000 -1.000000e+000 0.000000e+000
    outer loop
      vertex   6.275407e+001 -1.641862e+001 4.900000e+001
      vertex   4.325407e+001 -1.641862e+001 8.000000e+000
      vertex   6.275407e+001 -1.641862e+001 8.000000e+000
    endloop
  endfacet
  facet normal 1.000000e+000 0.000000e+000 0.000000e+000
    outer loop
      vertex   6.275407e+001 -1.641862e+001 4.900000e+001
      vertex   6.275407e+001 -1.641862e+001 8.000000e+000
      vertex   6.275407e+001 -2.418616e+000 4.900000e+001
    endloop
  endfacet
  facet normal 1.000000e+000 0.000000e+000 0.000000e+000
    outer loop
      vertex   6.275407e+001 -2.418616e+000 4.900000e+001
      vertex   6.275407e+001 -1.641862e+001 8.000000e+000
      vertex   6.275407e+001 -2.418616e+000 8.000000e+000
    endloop
  endfacet
  facet normal 0.000000e+000 -1.000000e+000 0.000000e+000
    outer loop
      vertex   6.275407e+001 -2.418616e+000 4.900000e+001
      vertex   6.275407e+001 -2.418616e+000 8.000000e+000
      vertex   7.175407e+001 -2.418616e+000 4.900000e+001
    endloop
  endfacet
  facet normal 0.000000e+000 -1.000000e+000 0.000000e+000
    outer loop
      vertex   7.175407e+001 -2.418616e+000 4.900000e+001
      vertex   6.275407e+001 -2.418616e+000 8.000000e+000
      vertex   7.175407e+001 -2.418616e+000 8.000000e+000
    endloop
  endfacet
  facet normal 1.000000e+000 0.000000e+000 0.000000e+000
    outer loop
      vertex   7.175407e+001 -2.418616e+000 4.900000e+001
      vertex   7.175407e+001 -2.418616e+000 8.000000e+000
      vertex   7.175407e+001 1.858138e+001 4.900000e+001
    endloop
  endfacet
  facet normal 1.000000e+000 0.000000e+000 0.000000e+000
    outer loop
      vertex   7.175407e+001 1.858138e+001 4.900000e+001
      vertex   7.175407e+001 -2.418616e+000 8.000000e+000
      vertex   7.175407e+001 1.858138e+001 8.000000e+000
    endloop
  endfacet
  facet normal 0.000000e+000 0.000000e+000 1.000000e+000
    outer loop
      vertex   1.575407e+001 -2.418616e+000 5.700000e+001
      vertex   6.275407e+001 -2.418616e+000 5.700000e+001
      vertex   1.575407e+001 1.858138e+001 5.700000e+001
    endloop
  endfacet
  facet normal 0.000000e+000 0.000000e+000 1.000000e+000
    outer loop
      vertex   1.575407e+001 1.858138e+001 5.700000e+001
      vertex   6.275407e+001 -2.418616e+000 5.700000e+001
      vertex   6.275407e+001 1.858138e+001 5.700000e+001
    endloop
  endfacet
  facet normal 0.000000e+000 0.000000e+000 -1.000000e+000
    outer loop
      vertex   1.575407e+001 1.858138e+001 0.000000e+000
      vertex   6.275407e+001 1.858138e+001 0.000000e+000
      vertex   1.575407e+001 -2.418616e+000 0.000000e+000
    endloop
  endfacet
  facet normal 0.000000e+000 0.000000e+000 -1.000000e+000
    outer loop
      vertex   1.575407e+001 -2.418616e+000 0.000000e+000
      vertex   6.275407e+001 1.858138e+001 0.000000e+000
      vertex   6.275407e+001 -2.418616e+000 0.000000e+000
    endloop
  endfacet
endsolid
