solid ascii
  facet normal 0.000000e+000 1.000000e+000 0.000000e+000
    outer loop
      vertex   -1.809508e+001 1.039386e+001 7.000000e+000
      vertex   -1.809508e+001 1.039386e+001 4.200000e+001
      vertex   4.070492e+001 1.039386e+001 7.000000e+000
    endloop
  endfacet
  facet normal 0.000000e+000 1.000000e+000 0.000000e+000
    outer loop
      vertex   4.070492e+001 1.039386e+001 7.000000e+000
      vertex   -1.809508e+001 1.039386e+001 4.200000e+001
      vertex   4.070492e+001 1.039386e+001 4.200000e+001
    endloop
  endfacet
  facet normal 0.000000e+000 1.000000e+000 0.000000e+000
    outer loop
      vertex   3.070492e+001 7.393863e+000 7.000000e+000
      vertex   3.070492e+001 7.393863e+000 0.000000e+000
      vertex   -8.095082e+000 7.393863e+000 7.000000e+000
    endloop
  endfacet
  facet normal 0.000000e+000 1.000000e+000 0.000000e+000
    outer loop
      vertex   -8.095082e+000 7.393863e+000 7.000000e+000
      vertex   3.070492e+001 7.393863e+000 0.000000e+000
      vertex   -8.095082e+000 7.393863e+000 0.000000e+000
    endloop
  endfacet
  facet normal -4.463208e-017 1.000000e+000 -1.225074e-016
    outer loop
      vertex   -9.095082e+000 7.393863e+000 4.200000e+001
      vertex   -9.095082e+000 7.393863e+000 7.100000e+001
      vertex   3.070492e+001 7.393863e+000 4.200000e+001
    endloop
  endfacet
  facet normal 0.000000e+000 1.000000e+000 -6.125368e-017
    outer loop
      vertex   3.070492e+001 7.393863e+000 4.200000e+001
      vertex   -9.095082e+000 7.393863e+000 7.100000e+001
      vertex   3.070492e+001 7.393863e+000 7.100000e+001
    endloop
  endfacet
  facet normal 0.000000e+000 1.000000e+000 0.000000e+000
    outer loop
      vertex   3.070492e+001 7.393863e+000 7.100000e+001
      vertex   -9.095082e+000 7.393863e+000 7.100000e+001
      vertex   -1.309508e+001 7.393863e+000 9.200000e+001
    endloop
  endfacet
  facet normal 0.000000e+000 1.000000e+000 0.000000e+000
    outer loop
      vertex   3.470492e+001 7.393863e+000 9.200000e+001
      vertex   3.070492e+001 7.393863e+000 7.100000e+001
      vertex   -1.309508e+001 7.393863e+000 9.200000e+001
    endloop
  endfacet
  facet normal 0.000000e+000 1.000000e+000 0.000000e+000
    outer loop
      vertex   3.470492e+001 7.393863e+000 9.200000e+001
      vertex   3.470492e+001 7.393863e+000 7.100000e+001
      vertex   3.070492e+001 7.393863e+000 7.100000e+001
    endloop
  endfacet
  facet normal 0.000000e+000 1.000000e+000 0.000000e+000
    outer loop
      vertex   -9.095082e+000 7.393863e+000 7.100000e+001
      vertex   -1.309508e+001 7.393863e+000 7.100000e+001
      vertex   -1.309508e+001 7.393863e+000 9.200000e+001
    endloop
  endfacet
  facet normal 9.063045e-017 -1.000000e+000 0.000000e+000
    outer loop
      vertex   4.070492e+001 -1.560614e+001 7.000000e+000
      vertex   4.070492e+001 -1.560614e+001 4.200000e+001
      vertex   -1.809508e+001 -1.560614e+001 7.000000e+000
    endloop
  endfacet
  facet normal 9.063045e-017 -1.000000e+000 0.000000e+000
    outer loop
      vertex   -1.809508e+001 -1.560614e+001 7.000000e+000
      vertex   4.070492e+001 -1.560614e+001 4.200000e+001
      vertex   -1.809508e+001 -1.560614e+001 4.200000e+001
    endloop
  endfacet
  facet normal 9.156479e-017 -1.000000e+000 -2.323596e-032
    outer loop
      vertex   -8.095082e+000 -1.260614e+001 7.000000e+000
      vertex   -8.095082e+000 -1.260614e+001 0.000000e+000
      vertex   3.070492e+001 -1.260614e+001 7.000000e+000
    endloop
  endfacet
  facet normal 9.156479e-017 -1.000000e+000 0.000000e+000
    outer loop
      vertex   3.070492e+001 -1.260614e+001 7.000000e+000
      vertex   -8.095082e+000 -1.260614e+001 0.000000e+000
      vertex   3.070492e+001 -1.260614e+001 0.000000e+000
    endloop
  endfacet
  facet normal 8.926416e-017 -1.000000e+000 1.837611e-016
    outer loop
      vertex   3.070492e+001 -1.260614e+001 4.200000e+001
      vertex   3.070492e+001 -1.260614e+001 7.100000e+001
      vertex   -9.095082e+000 -1.260614e+001 4.200000e+001
    endloop
  endfacet
  facet normal 1.338962e-016 -1.000000e+000 1.225074e-016
    outer loop
      vertex   -9.095082e+000 -1.260614e+001 4.200000e+001
      vertex   3.070492e+001 -1.260614e+001 7.100000e+001
      vertex   -9.095082e+000 -1.260614e+001 7.100000e+001
    endloop
  endfacet
  facet normal 1.338962e-016 -1.000000e+000 2.550405e-017
    outer loop
      vertex   -9.095082e+000 -1.260614e+001 7.100000e+001
      vertex   3.070492e+001 -1.260614e+001 7.100000e+001
      vertex   -1.309508e+001 -1.260614e+001 9.200000e+001
    endloop
  endfacet
  facet normal 0.000000e+000 -1.000000e+000 0.000000e+000
    outer loop
      vertex   -1.309508e+001 -1.260614e+001 7.100000e+001
      vertex   -9.095082e+000 -1.260614e+001 7.100000e+001
      vertex   -1.309508e+001 -1.260614e+001 9.200000e+001
    endloop
  endfacet
  facet normal 0.000000e+000 -1.000000e+000 0.000000e+000
    outer loop
      vertex   3.470492e+001 -1.260614e+001 7.100000e+001
      vertex   3.470492e+001 -1.260614e+001 9.200000e+001
      vertex   3.070492e+001 -1.260614e+001 7.100000e+001
    endloop
  endfacet
  facet normal 1.114868e-016 -1.000000e+000 -2.123559e-017
    outer loop
      vertex   3.070492e+001 -1.260614e+001 7.100000e+001
      vertex   3.470492e+001 -1.260614e+001 9.200000e+001
      vertex   -1.309508e+001 -1.260614e+001 9.200000e+001
    endloop
  endfacet
  facet normal 0.000000e+000 0.000000e+000 -1.000000e+000
    outer loop
      vertex   3.070492e+001 7.393863e+000 7.100000e+001
      vertex   3.470492e+001 7.393863e+000 7.100000e+001
      vertex   3.070492e+001 -1.260614e+001 7.100000e+001
    endloop
  endfacet
  facet normal 0.000000e+000 0.000000e+000 -1.000000e+000
    outer loop
      vertex   3.070492e+001 -1.260614e+001 7.100000e+001
      vertex   3.470492e+001 7.393863e+000 7.100000e+001
      vertex   3.470492e+001 -1.260614e+001 7.100000e+001
    endloop
  endfacet
  facet normal 1.000000e+000 0.000000e+000 0.000000e+000
    outer loop
      vertex   3.470492e+001 7.393863e+000 7.100000e+001
      vertex   3.470492e+001 7.393863e+000 9.200000e+001
      vertex   3.470492e+001 -1.260614e+001 7.100000e+001
    endloop
  endfacet
  facet normal 1.000000e+000 0.000000e+000 0.000000e+000
    outer loop
      vertex   3.470492e+001 -1.260614e+001 7.100000e+001
      vertex   3.470492e+001 7.393863e+000 9.200000e+001
      vertex   3.470492e+001 -1.260614e+001 9.200000e+001
    endloop
  endfacet
  facet normal -1.000000e+000 -8.881784e-017 0.000000e+000
    outer loop
      vertex   -1.309508e+001 7.393863e+000 9.200000e+001
      vertex   -1.309508e+001 7.393863e+000 7.100000e+001
      vertex   -1.309508e+001 -1.260614e+001 9.200000e+001
    endloop
  endfacet
  facet normal -1.000000e+000 -8.881784e-017 0.000000e+000
    outer loop
      vertex   -1.309508e+001 -1.260614e+001 9.200000e+001
      vertex   -1.309508e+001 7.393863e+000 7.100000e+001
      vertex   -1.309508e+001 -1.260614e+001 7.100000e+001
    endloop
  endfacet
  facet normal 0.000000e+000 0.000000e+000 -1.000000e+000
    outer loop
      vertex   -1.309508e+001 7.393863e+000 7.100000e+001
      vertex   -9.095082e+000 7.393863e+000 7.100000e+001
      vertex   -1.309508e+001 -1.260614e+001 7.100000e+001
    endloop
  endfacet
  facet normal 0.000000e+000 0.000000e+000 -1.000000e+000
    outer loop
      vertex   -1.309508e+001 -1.260614e+001 7.100000e+001
      vertex   -9.095082e+000 7.393863e+000 7.100000e+001
      vertex   -9.095082e+000 -1.260614e+001 7.100000e+001
    endloop
  endfacet
  facet normal 1.000000e+000 1.776357e-016 7.350442e-016
    outer loop
      vertex   3.070492e+001 -1.260614e+001 7.100000e+001
      vertex   3.070492e+001 -1.260614e+001 4.200000e+001
      vertex   3.070492e+001 7.393863e+000 7.100000e+001
    endloop
  endfacet
  facet normal 1.000000e+000 0.000000e+000 8.575516e-016
    outer loop
      vertex   3.070492e+001 7.393863e+000 7.100000e+001
      vertex   3.070492e+001 -1.260614e+001 4.200000e+001
      vertex   3.070492e+001 7.393863e+000 4.200000e+001
    endloop
  endfacet
  facet normal 1.000000e+000 0.000000e+000 0.000000e+000
    outer loop
      vertex   3.070492e+001 7.393863e+000 0.000000e+000
      vertex   3.070492e+001 7.393863e+000 7.000000e+000
      vertex   3.070492e+001 -1.260614e+001 0.000000e+000
    endloop
  endfacet
  facet normal 1.000000e+000 0.000000e+000 0.000000e+000
    outer loop
      vertex   3.070492e+001 -1.260614e+001 0.000000e+000
      vertex   3.070492e+001 7.393863e+000 7.000000e+000
      vertex   3.070492e+001 -1.260614e+001 7.000000e+000
    endloop
  endfacet
  facet normal -1.000000e+000 -8.881784e-017 2.537653e-016
    outer loop
      vertex   -8.095082e+000 7.393863e+000 7.000000e+000
      vertex   -8.095082e+000 7.393863e+000 0.000000e+000
      vertex   -8.095082e+000 -1.260614e+001 7.000000e+000
    endloop
  endfacet
  facet normal -1.000000e+000 -8.881784e-017 2.537653e-016
    outer loop
      vertex   -8.095082e+000 -1.260614e+001 7.000000e+000
      vertex   -8.095082e+000 7.393863e+000 0.000000e+000
      vertex   -8.095082e+000 -1.260614e+001 0.000000e+000
    endloop
  endfacet
  facet normal 8.881784e-017 0.000000e+000 -1.000000e+000
    outer loop
      vertex   4.070492e+001 -1.560614e+001 7.000000e+000
      vertex   3.070492e+001 7.393863e+000 7.000000e+000
      vertex   4.070492e+001 1.039386e+001 7.000000e+000
    endloop
  endfacet
  facet normal 8.881784e-017 0.000000e+000 -1.000000e+000
    outer loop
      vertex   4.070492e+001 -1.560614e+001 7.000000e+000
      vertex   3.070492e+001 -1.260614e+001 7.000000e+000
      vertex   3.070492e+001 7.393863e+000 7.000000e+000
    endloop
  endfacet
  facet normal 2.683200e-032 -2.960595e-016 -1.000000e+000
    outer loop
      vertex   4.070492e+001 -1.560614e+001 7.000000e+000
      vertex   -1.809508e+001 -1.560614e+001 7.000000e+000
      vertex   3.070492e+001 -1.260614e+001 7.000000e+000
    endloop
  endfacet
  facet normal 2.710862e-032 -2.960595e-016 -1.000000e+000
    outer loop
      vertex   3.070492e+001 -1.260614e+001 7.000000e+000
      vertex   -1.809508e+001 -1.560614e+001 7.000000e+000
      vertex   -8.095082e+000 -1.260614e+001 7.000000e+000
    endloop
  endfacet
  facet normal -8.881784e-017 -7.888609e-033 -1.000000e+000
    outer loop
      vertex   -8.095082e+000 -1.260614e+001 7.000000e+000
      vertex   -1.809508e+001 -1.560614e+001 7.000000e+000
      vertex   -8.095082e+000 7.393863e+000 7.000000e+000
    endloop
  endfacet
  facet normal -8.881784e-017 -2.427264e-032 -1.000000e+000
    outer loop
      vertex   -8.095082e+000 7.393863e+000 7.000000e+000
      vertex   -1.809508e+001 -1.560614e+001 7.000000e+000
      vertex   -1.809508e+001 1.039386e+001 7.000000e+000
    endloop
  endfacet
  facet normal 0.000000e+000 2.960595e-016 -1.000000e+000
    outer loop
      vertex   4.070492e+001 1.039386e+001 7.000000e+000
      vertex   -8.095082e+000 7.393863e+000 7.000000e+000
      vertex   -1.809508e+001 1.039386e+001 7.000000e+000
    endloop
  endfacet
  facet normal 0.000000e+000 2.960595e-016 -1.000000e+000
    outer loop
      vertex   4.070492e+001 1.039386e+001 7.000000e+000
      vertex   3.070492e+001 7.393863e+000 7.000000e+000
      vertex   -8.095082e+000 7.393863e+000 7.000000e+000
    endloop
  endfacet
  facet normal 0.000000e+000 0.000000e+000 -1.000000e+000
    outer loop
      vertex   3.070492e+001 -1.260614e+001 0.000000e+000
      vertex   -8.095082e+000 -1.260614e+001 0.000000e+000
      vertex   3.070492e+001 7.393863e+000 0.000000e+000
    endloop
  endfacet
  facet normal 0.000000e+000 0.000000e+000 -1.000000e+000
    outer loop
      vertex   3.070492e+001 7.393863e+000 0.000000e+000
      vertex   -8.095082e+000 -1.260614e+001 0.000000e+000
      vertex   -8.095082e+000 7.393863e+000 0.000000e+000
    endloop
  endfacet
  facet normal -1.000000e+000 -2.732857e-016 0.000000e+000
    outer loop
      vertex   -1.809508e+001 -1.560614e+001 7.000000e+000
      vertex   -1.809508e+001 -1.560614e+001 4.200000e+001
      vertex   -1.809508e+001 1.039386e+001 7.000000e+000
    endloop
  endfacet
  facet normal -1.000000e+000 -2.732857e-016 0.000000e+000
    outer loop
      vertex   -1.809508e+001 1.039386e+001 7.000000e+000
      vertex   -1.809508e+001 -1.560614e+001 4.200000e+001
      vertex   -1.809508e+001 1.039386e+001 4.200000e+001
    endloop
  endfacet
  facet normal -1.000000e+000 -8.881784e-017 2.450147e-016
    outer loop
      vertex   -9.095082e+000 7.393863e+000 7.100000e+001
      vertex   -9.095082e+000 7.393863e+000 4.200000e+001
      vertex   -9.095082e+000 -1.260614e+001 7.100000e+001
    endloop
  endfacet
  facet normal -1.000000e+000 -1.776357e-016 1.837611e-016
    outer loop
      vertex   -9.095082e+000 -1.260614e+001 7.100000e+001
      vertex   -9.095082e+000 7.393863e+000 4.200000e+001
      vertex   -9.095082e+000 -1.260614e+001 4.200000e+001
    endloop
  endfacet
  facet normal 0.000000e+000 0.000000e+000 1.000000e+000
    outer loop
      vertex   3.070492e+001 -1.260614e+001 4.200000e+001
      vertex   4.070492e+001 -1.560614e+001 4.200000e+001
      vertex   3.070492e+001 7.393863e+000 4.200000e+001
    endloop
  endfacet
  facet normal 0.000000e+000 0.000000e+000 1.000000e+000
    outer loop
      vertex   3.070492e+001 -1.260614e+001 4.200000e+001
      vertex   -1.809508e+001 -1.560614e+001 4.200000e+001
      vertex   4.070492e+001 -1.560614e+001 4.200000e+001
    endloop
  endfacet
  facet normal 0.000000e+000 0.000000e+000 1.000000e+000
    outer loop
      vertex   3.070492e+001 -1.260614e+001 4.200000e+001
      vertex   -9.095082e+000 -1.260614e+001 4.200000e+001
      vertex   -1.809508e+001 -1.560614e+001 4.200000e+001
    endloop
  endfacet
  facet normal 0.000000e+000 0.000000e+000 1.000000e+000
    outer loop
      vertex   -1.809508e+001 -1.560614e+001 4.200000e+001
      vertex   -9.095082e+000 -1.260614e+001 4.200000e+001
      vertex   -9.095082e+000 7.393863e+000 4.200000e+001
    endloop
  endfacet
  facet normal 0.000000e+000 0.000000e+000 1.000000e+000
    outer loop
      vertex   -1.809508e+001 1.039386e+001 4.200000e+001
      vertex   -9.095082e+000 7.393863e+000 4.200000e+001
      vertex   3.070492e+001 7.393863e+000 4.200000e+001
    endloop
  endfacet
  facet normal 0.000000e+000 0.000000e+000 1.000000e+000
    outer loop
      vertex   4.070492e+001 1.039386e+001 4.200000e+001
      vertex   3.070492e+001 7.393863e+000 4.200000e+001
      vertex   4.070492e+001 -1.560614e+001 4.200000e+001
    endloop
  endfacet
  facet normal 0.000000e+000 0.000000e+000 1.000000e+000
    outer loop
      vertex   4.070492e+001 1.039386e+001 4.200000e+001
      vertex   -1.809508e+001 1.039386e+001 4.200000e+001
      vertex   3.070492e+001 7.393863e+000 4.200000e+001
    endloop
  endfacet
  facet normal 0.000000e+000 0.000000e+000 1.000000e+000
    outer loop
      vertex   -1.809508e+001 -1.560614e+001 4.200000e+001
      vertex   -9.095082e+000 7.393863e+000 4.200000e+001
      vertex   -1.809508e+001 1.039386e+001 4.200000e+001
    endloop
  endfacet
  facet normal 0.000000e+000 0.000000e+000 1.000000e+000
    outer loop
      vertex   3.470492e+001 7.393863e+000 9.200000e+001
      vertex   -1.309508e+001 7.393863e+000 9.200000e+001
      vertex   3.470492e+001 -1.260614e+001 9.200000e+001
    endloop
  endfacet
  facet normal 0.000000e+000 0.000000e+000 1.000000e+000
    outer loop
      vertex   3.470492e+001 -1.260614e+001 9.200000e+001
      vertex   -1.309508e+001 7.393863e+000 9.200000e+001
      vertex   -1.309508e+001 -1.260614e+001 9.200000e+001
    endloop
  endfacet
  facet normal 1.000000e+000 0.000000e+000 0.000000e+000
    outer loop
      vertex   4.070492e+001 1.039386e+001 7.000000e+000
      vertex   4.070492e+001 1.039386e+001 4.200000e+001
      vertex   4.070492e+001 -1.560614e+001 7.000000e+000
    endloop
  endfacet
  facet normal 1.000000e+000 0.000000e+000 0.000000e+000
    outer loop
      vertex   4.070492e+001 -1.560614e+001 7.000000e+000
      vertex   4.070492e+001 1.039386e+001 4.200000e+001
      vertex   4.070492e+001 -1.560614e+001 4.200000e+001
    endloop
  endfacet
endsolid
