solid ascii
  facet normal 0.000000e+000 -9.781476e-001 -2.079117e-001
    outer loop
      vertex   3.258266e+000 4.423455e+001 -3.800000e+001
      vertex   3.258266e+000 3.615740e+001 0.000000e+000
      vertex   1.258266e+000 4.423455e+001 -3.800000e+001
    endloop
  endfacet
  facet normal -6.950157e-015 -9.781476e-001 -2.079117e-001
    outer loop
      vertex   1.258266e+000 4.423455e+001 -3.800000e+001
      vertex   3.258266e+000 3.615740e+001 0.000000e+000
      vertex   1.258266e+000 3.615740e+001 0.000000e+000
    endloop
  endfacet
  facet normal 7.315954e-015 9.781476e-001 -2.079117e-001
    outer loop
      vertex   3.258266e+000 6.815740e+001 0.000000e+000
      vertex   3.258266e+000 6.008025e+001 -3.800000e+001
      vertex   1.258266e+000 6.815740e+001 0.000000e+000
    endloop
  endfacet
  facet normal 0.000000e+000 9.781476e-001 -2.079117e-001
    outer loop
      vertex   1.258266e+000 6.815740e+001 0.000000e+000
      vertex   3.258266e+000 6.008025e+001 -3.800000e+001
      vertex   1.258266e+000 6.008025e+001 -3.800000e+001
    endloop
  endfacet
  facet normal 0.000000e+000 0.000000e+000 -1.000000e+000
    outer loop
      vertex   3.258266e+000 4.423455e+001 -3.800000e+001
      vertex   1.258266e+000 4.423455e+001 -3.800000e+001
      vertex   3.258266e+000 6.008025e+001 -3.800000e+001
    endloop
  endfacet
  facet normal 0.000000e+000 0.000000e+000 -1.000000e+000
    outer loop
      vertex   3.258266e+000 6.008025e+001 -3.800000e+001
      vertex   1.258266e+000 4.423455e+001 -3.800000e+001
      vertex   1.258266e+000 6.008025e+001 -3.800000e+001
    endloop
  endfacet
  facet normal 1.000000e+000 2.802585e-016 1.137987e-018
    outer loop
      vertex   3.258266e+000 4.423455e+001 -3.800000e+001
      vertex   3.258266e+000 6.008025e+001 -3.800000e+001
      vertex   3.258266e+000 3.615740e+001 0.000000e+000
    endloop
  endfacet
  facet normal 1.000000e+000 2.775558e-016 -5.635064e-019
    outer loop
      vertex   3.258266e+000 3.615740e+001 0.000000e+000
      vertex   3.258266e+000 6.008025e+001 -3.800000e+001
      vertex   3.258266e+000 6.815740e+001 0.000000e+000
    endloop
  endfacet
  facet normal 0.000000e+000 0.000000e+000 -1.000000e+000
    outer loop
      vertex   5.125827e+001 6.008025e+001 -3.800000e+001
      vertex   5.325827e+001 6.008025e+001 -3.800000e+001
      vertex   5.125827e+001 4.423455e+001 -3.800000e+001
    endloop
  endfacet
  facet normal 0.000000e+000 0.000000e+000 -1.000000e+000
    outer loop
      vertex   5.125827e+001 4.423455e+001 -3.800000e+001
      vertex   5.325827e+001 6.008025e+001 -3.800000e+001
      vertex   5.325827e+001 4.423455e+001 -3.800000e+001
    endloop
  endfacet
  facet normal 0.000000e+000 9.781476e-001 -2.079117e-001
    outer loop
      vertex   5.125827e+001 6.008025e+001 -3.800000e+001
      vertex   5.125827e+001 6.815740e+001 0.000000e+000
      vertex   5.325827e+001 6.008025e+001 -3.800000e+001
    endloop
  endfacet
  facet normal 0.000000e+000 9.781476e-001 -2.079117e-001
    outer loop
      vertex   5.325827e+001 6.008025e+001 -3.800000e+001
      vertex   5.125827e+001 6.815740e+001 0.000000e+000
      vertex   5.325827e+001 6.815740e+001 0.000000e+000
    endloop
  endfacet
  facet normal 0.000000e+000 -9.781476e-001 -2.079117e-001
    outer loop
      vertex   5.125827e+001 3.615740e+001 0.000000e+000
      vertex   5.125827e+001 4.423455e+001 -3.800000e+001
      vertex   5.325827e+001 3.615740e+001 0.000000e+000
    endloop
  endfacet
  facet normal 0.000000e+000 -9.781476e-001 -2.079117e-001
    outer loop
      vertex   5.325827e+001 3.615740e+001 0.000000e+000
      vertex   5.125827e+001 4.423455e+001 -3.800000e+001
      vertex   5.325827e+001 4.423455e+001 -3.800000e+001
    endloop
  endfacet
  facet normal -1.000000e+000 -4.484136e-016 9.167169e-017
    outer loop
      vertex   5.125827e+001 4.423455e+001 -3.800000e+001
      vertex   5.125827e+001 3.615740e+001 0.000000e+000
      vertex   5.125827e+001 6.008025e+001 -3.800000e+001
    endloop
  endfacet
  facet normal -1.000000e+000 -4.440892e-016 9.439408e-017
    outer loop
      vertex   5.125827e+001 6.008025e+001 -3.800000e+001
      vertex   5.125827e+001 3.615740e+001 0.000000e+000
      vertex   5.125827e+001 6.815740e+001 0.000000e+000
    endloop
  endfacet
  facet normal -1.000000e+000 -2.775558e-016 0.000000e+000
    outer loop
      vertex   1.258266e+000 6.815740e+001 2.000000e+000
      vertex   1.258266e+000 6.815740e+001 0.000000e+000
      vertex   1.258266e+000 3.615740e+001 2.000000e+000
    endloop
  endfacet
  facet normal -1.000000e+000 -2.775558e-016 0.000000e+000
    outer loop
      vertex   1.258266e+000 3.615740e+001 2.000000e+000
      vertex   1.258266e+000 6.815740e+001 0.000000e+000
      vertex   1.258266e+000 3.615740e+001 0.000000e+000
    endloop
  endfacet
  facet normal -1.000000e+000 -2.775558e-016 -5.635064e-019
    outer loop
      vertex   1.258266e+000 3.615740e+001 0.000000e+000
      vertex   1.258266e+000 6.815740e+001 0.000000e+000
      vertex   1.258266e+000 4.423455e+001 -3.800000e+001
    endloop
  endfacet
  facet normal -1.000000e+000 -2.802585e-016 1.137987e-018
    outer loop
      vertex   1.258266e+000 4.423455e+001 -3.800000e+001
      vertex   1.258266e+000 6.815740e+001 0.000000e+000
      vertex   1.258266e+000 6.008025e+001 -3.800000e+001
    endloop
  endfacet
  facet normal 0.000000e+000 1.000000e+000 0.000000e+000
    outer loop
      vertex   5.325827e+001 6.815740e+001 2.000000e+000
      vertex   5.125827e+001 6.815740e+001 0.000000e+000
      vertex   1.258266e+000 6.815740e+001 2.000000e+000
    endloop
  endfacet
  facet normal 0.000000e+000 1.000000e+000 0.000000e+000
    outer loop
      vertex   5.325827e+001 6.815740e+001 2.000000e+000
      vertex   5.325827e+001 6.815740e+001 0.000000e+000
      vertex   5.125827e+001 6.815740e+001 0.000000e+000
    endloop
  endfacet
  facet normal -2.960595e-016 1.000000e+000 -7.401487e-015
    outer loop
      vertex   5.125827e+001 6.815740e+001 0.000000e+000
      vertex   3.258266e+000 6.815740e+001 0.000000e+000
      vertex   1.258266e+000 6.815740e+001 2.000000e+000
    endloop
  endfacet
  facet normal 7.105427e-015 1.000000e+000 0.000000e+000
    outer loop
      vertex   1.258266e+000 6.815740e+001 2.000000e+000
      vertex   3.258266e+000 6.815740e+001 0.000000e+000
      vertex   1.258266e+000 6.815740e+001 0.000000e+000
    endloop
  endfacet
  facet normal 1.000000e+000 6.661338e-016 0.000000e+000
    outer loop
      vertex   5.325827e+001 6.815740e+001 2.000000e+000
      vertex   5.325827e+001 3.615740e+001 2.000000e+000
      vertex   5.325827e+001 6.815740e+001 0.000000e+000
    endloop
  endfacet
  facet normal 1.000000e+000 6.661338e-016 0.000000e+000
    outer loop
      vertex   5.325827e+001 6.815740e+001 0.000000e+000
      vertex   5.325827e+001 3.615740e+001 2.000000e+000
      vertex   5.325827e+001 3.615740e+001 0.000000e+000
    endloop
  endfacet
  facet normal 1.000000e+000 6.661338e-016 -2.323787e-016
    outer loop
      vertex   5.325827e+001 4.423455e+001 -3.800000e+001
      vertex   5.325827e+001 6.815740e+001 0.000000e+000
      vertex   5.325827e+001 3.615740e+001 0.000000e+000
    endloop
  endfacet
  facet normal 1.000000e+000 0.000000e+000 1.869849e-016
    outer loop
      vertex   5.325827e+001 4.423455e+001 -3.800000e+001
      vertex   5.325827e+001 6.008025e+001 -3.800000e+001
      vertex   5.325827e+001 6.815740e+001 0.000000e+000
    endloop
  endfacet
  facet normal 0.000000e+000 -1.000000e+000 0.000000e+000
    outer loop
      vertex   5.325827e+001 3.615740e+001 0.000000e+000
      vertex   5.325827e+001 3.615740e+001 2.000000e+000
      vertex   5.125827e+001 3.615740e+001 0.000000e+000
    endloop
  endfacet
  facet normal 0.000000e+000 -1.000000e+000 0.000000e+000
    outer loop
      vertex   5.125827e+001 3.615740e+001 0.000000e+000
      vertex   5.325827e+001 3.615740e+001 2.000000e+000
      vertex   1.258266e+000 3.615740e+001 2.000000e+000
    endloop
  endfacet
  facet normal -7.105427e-015 -1.000000e+000 0.000000e+000
    outer loop
      vertex   3.258266e+000 3.615740e+001 0.000000e+000
      vertex   1.258266e+000 3.615740e+001 2.000000e+000
      vertex   1.258266e+000 3.615740e+001 0.000000e+000
    endloop
  endfacet
  facet normal 2.960595e-016 -1.000000e+000 7.401487e-015
    outer loop
      vertex   3.258266e+000 3.615740e+001 0.000000e+000
      vertex   5.125827e+001 3.615740e+001 0.000000e+000
      vertex   1.258266e+000 3.615740e+001 2.000000e+000
    endloop
  endfacet
  facet normal 0.000000e+000 0.000000e+000 -1.000000e+000
    outer loop
      vertex   3.258266e+000 6.815740e+001 0.000000e+000
      vertex   5.125827e+001 6.815740e+001 0.000000e+000
      vertex   3.258266e+000 3.615740e+001 0.000000e+000
    endloop
  endfacet
  facet normal 0.000000e+000 0.000000e+000 -1.000000e+000
    outer loop
      vertex   3.258266e+000 3.615740e+001 0.000000e+000
      vertex   5.125827e+001 6.815740e+001 0.000000e+000
      vertex   5.125827e+001 3.615740e+001 0.000000e+000
    endloop
  endfacet
  facet normal 0.000000e+000 0.000000e+000 1.000000e+000
    outer loop
      vertex   1.258266e+000 3.615740e+001 2.000000e+000
      vertex   5.325827e+001 3.615740e+001 2.000000e+000
      vertex   1.258266e+000 6.815740e+001 2.000000e+000
    endloop
  endfacet
  facet normal 0.000000e+000 0.000000e+000 1.000000e+000
    outer loop
      vertex   1.258266e+000 6.815740e+001 2.000000e+000
      vertex   5.325827e+001 3.615740e+001 2.000000e+000
      vertex   5.325827e+001 6.815740e+001 2.000000e+000
    endloop
  endfacet
endsolid
