solid ascii
  facet normal 1.000000e+000 0.000000e+000 0.000000e+000
    outer loop
      vertex   -3.932578e+001 1.286719e+001 2.700000e+001
      vertex   -3.932578e+001 -2.513281e+001 2.700000e+001
      vertex   -3.932578e+001 1.286719e+001 1.600000e+001
    endloop
  endfacet
  facet normal 1.000000e+000 0.000000e+000 0.000000e+000
    outer loop
      vertex   -3.932578e+001 1.286719e+001 1.600000e+001
      vertex   -3.932578e+001 -2.513281e+001 2.700000e+001
      vertex   -3.932578e+001 -2.513281e+001 1.600000e+001
    endloop
  endfacet
  facet normal 1.000000e+000 5.921189e-016 1.147230e-015
    outer loop
      vertex   -3.932578e+001 5.867187e+000 1.110223e-015
      vertex   -3.932578e+001 -2.513281e+001 1.600000e+001
      vertex   -3.932578e+001 -1.813281e+001 -2.775558e-016
    endloop
  endfacet
  facet normal 1.000000e+000 0.000000e+000 0.000000e+000
    outer loop
      vertex   -3.932578e+001 5.867187e+000 1.110223e-015
      vertex   -3.932578e+001 1.286719e+001 1.600000e+001
      vertex   -3.932578e+001 -2.513281e+001 1.600000e+001
    endloop
  endfacet
  facet normal -1.000000e+000 0.000000e+000 0.000000e+000
    outer loop
      vertex   3.417422e+001 1.286719e+001 2.700000e+001
      vertex   3.417422e+001 1.286719e+001 1.600000e+001
      vertex   3.417422e+001 -2.513281e+001 2.700000e+001
    endloop
  endfacet
  facet normal -1.000000e+000 0.000000e+000 0.000000e+000
    outer loop
      vertex   3.417422e+001 -2.513281e+001 2.700000e+001
      vertex   3.417422e+001 1.286719e+001 1.600000e+001
      vertex   3.417422e+001 -2.513281e+001 1.600000e+001
    endloop
  endfacet
  facet normal -1.000000e+000 0.000000e+000 0.000000e+000
    outer loop
      vertex   3.417422e+001 -2.513281e+001 1.600000e+001
      vertex   3.417422e+001 1.286719e+001 1.600000e+001
      vertex   3.417422e+001 5.867187e+000 1.110223e-015
    endloop
  endfacet
  facet normal -1.000000e+000 0.000000e+000 0.000000e+000
    outer loop
      vertex   3.417422e+001 -1.813281e+001 -2.775558e-016
      vertex   3.417422e+001 -2.513281e+001 1.600000e+001
      vertex   3.417422e+001 5.867187e+000 1.110223e-015
    endloop
  endfacet
  facet normal 0.000000e+000 0.000000e+000 -1.000000e+000
    outer loop
      vertex   -3.932578e+001 1.286719e+001 2.700000e+001
      vertex   3.417422e+001 1.286719e+001 2.700000e+001
      vertex   -3.932578e+001 -2.513281e+001 2.700000e+001
    endloop
  endfacet
  facet normal 0.000000e+000 0.000000e+000 -1.000000e+000
    outer loop
      vertex   -3.932578e+001 -2.513281e+001 2.700000e+001
      vertex   3.417422e+001 1.286719e+001 2.700000e+001
      vertex   3.417422e+001 -2.513281e+001 2.700000e+001
    endloop
  endfacet
  facet normal 0.000000e+000 9.161573e-001 -4.008188e-001
    outer loop
      vertex   3.417422e+001 5.867187e+000 1.110223e-015
      vertex   3.417422e+001 1.286719e+001 1.600000e+001
      vertex   3.717422e+001 5.867187e+000 0.000000e+000
    endloop
  endfacet
  facet normal -9.493297e-016 9.161573e-001 -4.008188e-001
    outer loop
      vertex   3.717422e+001 5.867187e+000 0.000000e+000
      vertex   3.417422e+001 1.286719e+001 1.600000e+001
      vertex   3.717422e+001 1.286719e+001 1.600000e+001
    endloop
  endfacet
  facet normal 2.712371e-016 9.161573e-001 -4.008188e-001
    outer loop
      vertex   -3.932578e+001 1.286719e+001 1.600000e+001
      vertex   -3.932578e+001 5.867187e+000 1.110223e-015
      vertex   -4.232578e+001 1.286719e+001 1.600000e+001
    endloop
  endfacet
  facet normal -3.941413e-016 9.161573e-001 -4.008188e-001
    outer loop
      vertex   -4.232578e+001 1.286719e+001 1.600000e+001
      vertex   -3.932578e+001 5.867187e+000 1.110223e-015
      vertex   -4.232578e+001 5.867187e+000 0.000000e+000
    endloop
  endfacet
  facet normal 8.289665e-015 -1.000000e+000 0.000000e+000
    outer loop
      vertex   -3.932578e+001 -2.513281e+001 1.600000e+001
      vertex   -3.932578e+001 -2.513281e+001 2.700000e+001
      vertex   -4.232578e+001 -2.513281e+001 1.600000e+001
    endloop
  endfacet
  facet normal 1.776357e-015 -1.000000e+000 1.776357e-015
    outer loop
      vertex   -4.232578e+001 -2.513281e+001 1.600000e+001
      vertex   -3.932578e+001 -2.513281e+001 2.700000e+001
      vertex   -4.232578e+001 -2.513281e+001 3.000000e+001
    endloop
  endfacet
  facet normal 0.000000e+000 -1.000000e+000 0.000000e+000
    outer loop
      vertex   -4.232578e+001 -2.513281e+001 3.000000e+001
      vertex   -3.932578e+001 -2.513281e+001 2.700000e+001
      vertex   3.417422e+001 -2.513281e+001 2.700000e+001
    endloop
  endfacet
  facet normal 0.000000e+000 -1.000000e+000 0.000000e+000
    outer loop
      vertex   3.717422e+001 -2.513281e+001 3.000000e+001
      vertex   3.417422e+001 -2.513281e+001 2.700000e+001
      vertex   3.717422e+001 -2.513281e+001 1.600000e+001
    endloop
  endfacet
  facet normal 0.000000e+000 -1.000000e+000 0.000000e+000
    outer loop
      vertex   3.717422e+001 -2.513281e+001 3.000000e+001
      vertex   -4.232578e+001 -2.513281e+001 3.000000e+001
      vertex   3.417422e+001 -2.513281e+001 2.700000e+001
    endloop
  endfacet
  facet normal 0.000000e+000 -1.000000e+000 0.000000e+000
    outer loop
      vertex   3.417422e+001 -2.513281e+001 2.700000e+001
      vertex   3.417422e+001 -2.513281e+001 1.600000e+001
      vertex   3.717422e+001 -2.513281e+001 1.600000e+001
    endloop
  endfacet
  facet normal -3.700743e-016 5.782412e-017 -1.000000e+000
    outer loop
      vertex   3.417422e+001 5.867187e+000 1.110223e-015
      vertex   3.717422e+001 5.867187e+000 0.000000e+000
      vertex   3.417422e+001 -1.813281e+001 -2.775558e-016
    endloop
  endfacet
  facet normal 9.251859e-017 2.739100e-032 -1.000000e+000
    outer loop
      vertex   3.417422e+001 -1.813281e+001 -2.775558e-016
      vertex   3.717422e+001 5.867187e+000 0.000000e+000
      vertex   3.717422e+001 -1.813281e+001 0.000000e+000
    endloop
  endfacet
  facet normal -9.251859e-017 5.782412e-017 -1.000000e+000
    outer loop
      vertex   -3.932578e+001 -1.813281e+001 -2.775558e-016
      vertex   -4.232578e+001 -1.813281e+001 0.000000e+000
      vertex   -3.932578e+001 5.867187e+000 1.110223e-015
    endloop
  endfacet
  facet normal 3.700743e-016 3.286920e-031 -1.000000e+000
    outer loop
      vertex   -3.932578e+001 5.867187e+000 1.110223e-015
      vertex   -4.232578e+001 -1.813281e+001 0.000000e+000
      vertex   -4.232578e+001 5.867187e+000 0.000000e+000
    endloop
  endfacet
  facet normal -5.424741e-016 -9.161573e-001 -4.008188e-001
    outer loop
      vertex   3.417422e+001 -2.513281e+001 1.600000e+001
      vertex   3.417422e+001 -1.813281e+001 -2.775558e-016
      vertex   3.717422e+001 -2.513281e+001 1.600000e+001
    endloop
  endfacet
  facet normal 3.708319e-017 -9.161573e-001 -4.008188e-001
    outer loop
      vertex   3.717422e+001 -2.513281e+001 1.600000e+001
      vertex   3.417422e+001 -1.813281e+001 -2.775558e-016
      vertex   3.717422e+001 -1.813281e+001 0.000000e+000
    endloop
  endfacet
  facet normal 0.000000e+000 -9.161573e-001 -4.008188e-001
    outer loop
      vertex   -3.932578e+001 -1.813281e+001 -2.775558e-016
      vertex   -3.932578e+001 -2.513281e+001 1.600000e+001
      vertex   -4.232578e+001 -1.813281e+001 0.000000e+000
    endloop
  endfacet
  facet normal 4.746649e-016 -9.161573e-001 -4.008188e-001
    outer loop
      vertex   -4.232578e+001 -1.813281e+001 0.000000e+000
      vertex   -3.932578e+001 -2.513281e+001 1.600000e+001
      vertex   -4.232578e+001 -2.513281e+001 1.600000e+001
    endloop
  endfacet
  facet normal -4.736952e-015 1.000000e+000 3.229740e-016
    outer loop
      vertex   -3.932578e+001 1.286719e+001 1.600000e+001
      vertex   -4.232578e+001 1.286719e+001 1.600000e+001
      vertex   -3.932578e+001 1.286719e+001 2.700000e+001
    endloop
  endfacet
  facet normal -2.960595e-016 1.000000e+000 -8.881784e-016
    outer loop
      vertex   -3.932578e+001 1.286719e+001 2.700000e+001
      vertex   -4.232578e+001 1.286719e+001 1.600000e+001
      vertex   -4.232578e+001 1.286719e+001 3.000000e+001
    endloop
  endfacet
  facet normal -2.010970e-016 1.000000e+000 -9.831409e-016
    outer loop
      vertex   3.417422e+001 1.286719e+001 2.700000e+001
      vertex   -4.232578e+001 1.286719e+001 3.000000e+001
      vertex   3.717422e+001 1.286719e+001 3.000000e+001
    endloop
  endfacet
  facet normal -1.184238e-015 1.000000e+000 0.000000e+000
    outer loop
      vertex   3.717422e+001 1.286719e+001 1.600000e+001
      vertex   3.417422e+001 1.286719e+001 2.700000e+001
      vertex   3.717422e+001 1.286719e+001 3.000000e+001
    endloop
  endfacet
  facet normal 7.649560e-031 1.000000e+000 3.229740e-016
    outer loop
      vertex   3.717422e+001 1.286719e+001 1.600000e+001
      vertex   3.417422e+001 1.286719e+001 1.600000e+001
      vertex   3.417422e+001 1.286719e+001 2.700000e+001
    endloop
  endfacet
  facet normal -1.933450e-016 1.000000e+000 -7.854639e-016
    outer loop
      vertex   -3.932578e+001 1.286719e+001 2.700000e+001
      vertex   -4.232578e+001 1.286719e+001 3.000000e+001
      vertex   3.417422e+001 1.286719e+001 2.700000e+001
    endloop
  endfacet
  facet normal 1.000000e+000 2.960595e-016 3.145632e-016
    outer loop
      vertex   3.717422e+001 5.867187e+000 0.000000e+000
      vertex   3.717422e+001 1.286719e+001 1.600000e+001
      vertex   3.717422e+001 -1.813281e+001 0.000000e+000
    endloop
  endfacet
  facet normal 1.000000e+000 3.739699e-016 1.636118e-016
    outer loop
      vertex   3.717422e+001 -1.813281e+001 0.000000e+000
      vertex   3.717422e+001 1.286719e+001 1.600000e+001
      vertex   3.717422e+001 -2.513281e+001 1.600000e+001
    endloop
  endfacet
  facet normal 1.000000e+000 3.739699e-016 0.000000e+000
    outer loop
      vertex   3.717422e+001 -2.513281e+001 1.600000e+001
      vertex   3.717422e+001 1.286719e+001 1.600000e+001
      vertex   3.717422e+001 -2.513281e+001 3.000000e+001
    endloop
  endfacet
  facet normal 1.000000e+000 3.739699e-016 0.000000e+000
    outer loop
      vertex   3.717422e+001 -2.513281e+001 3.000000e+001
      vertex   3.717422e+001 1.286719e+001 1.600000e+001
      vertex   3.717422e+001 1.286719e+001 3.000000e+001
    endloop
  endfacet
  facet normal -1.000000e+000 -8.881784e-016 3.885781e-016
    outer loop
      vertex   -4.232578e+001 5.867187e+000 0.000000e+000
      vertex   -4.232578e+001 -1.813281e+001 0.000000e+000
      vertex   -4.232578e+001 1.286719e+001 1.600000e+001
    endloop
  endfacet
  facet normal -1.000000e+000 -5.609548e-016 -2.454177e-016
    outer loop
      vertex   -4.232578e+001 1.286719e+001 1.600000e+001
      vertex   -4.232578e+001 -1.813281e+001 0.000000e+000
      vertex   -4.232578e+001 -2.513281e+001 1.600000e+001
    endloop
  endfacet
  facet normal -1.000000e+000 -5.609548e-016 7.592045e-031
    outer loop
      vertex   -4.232578e+001 -2.513281e+001 3.000000e+001
      vertex   -4.232578e+001 1.286719e+001 1.600000e+001
      vertex   -4.232578e+001 -2.513281e+001 1.600000e+001
    endloop
  endfacet
  facet normal -1.000000e+000 -5.609548e-016 4.982279e-031
    outer loop
      vertex   -4.232578e+001 -2.513281e+001 3.000000e+001
      vertex   -4.232578e+001 1.286719e+001 3.000000e+001
      vertex   -4.232578e+001 1.286719e+001 1.600000e+001
    endloop
  endfacet
  facet normal 0.000000e+000 0.000000e+000 1.000000e+000
    outer loop
      vertex   -4.232578e+001 -2.513281e+001 3.000000e+001
      vertex   3.717422e+001 -2.513281e+001 3.000000e+001
      vertex   -4.232578e+001 1.286719e+001 3.000000e+001
    endloop
  endfacet
  facet normal 0.000000e+000 0.000000e+000 1.000000e+000
    outer loop
      vertex   -4.232578e+001 1.286719e+001 3.000000e+001
      vertex   3.717422e+001 -2.513281e+001 3.000000e+001
      vertex   3.717422e+001 1.286719e+001 3.000000e+001
    endloop
  endfacet
endsolid
