solid ascii
  facet normal 0.000000e+000 1.000000e+000 0.000000e+000
    outer loop
      vertex   -5.347137e+001 5.205590e+001 3.000000e+000
      vertex   -5.347137e+001 5.205590e+001 5.000000e+000
      vertex   -2.947137e+001 5.205590e+001 3.000000e+000
    endloop
  endfacet
  facet normal 0.000000e+000 1.000000e+000 0.000000e+000
    outer loop
      vertex   -2.947137e+001 5.205590e+001 3.000000e+000
      vertex   -5.347137e+001 5.205590e+001 5.000000e+000
      vertex   -2.947137e+001 5.205590e+001 5.000000e+000
    endloop
  endfacet
  facet normal 2.220446e-016 -1.000000e+000 0.000000e+000
    outer loop
      vertex   -2.947137e+001 1.330559e+002 3.000000e+000
      vertex   -2.947137e+001 1.330559e+002 5.000000e+000
      vertex   -1.574714e+002 1.330559e+002 3.000000e+000
    endloop
  endfacet
  facet normal 2.220446e-016 -1.000000e+000 0.000000e+000
    outer loop
      vertex   -1.574714e+002 1.330559e+002 3.000000e+000
      vertex   -2.947137e+001 1.330559e+002 5.000000e+000
      vertex   -1.574714e+002 1.330559e+002 5.000000e+000
    endloop
  endfacet
  facet normal 0.000000e+000 1.000000e+000 0.000000e+000
    outer loop
      vertex   -1.574714e+002 5.205590e+001 3.000000e+000
      vertex   -1.574714e+002 5.205590e+001 5.000000e+000
      vertex   -1.334714e+002 5.205590e+001 3.000000e+000
    endloop
  endfacet
  facet normal 0.000000e+000 1.000000e+000 0.000000e+000
    outer loop
      vertex   -1.334714e+002 5.205590e+001 3.000000e+000
      vertex   -1.574714e+002 5.205590e+001 5.000000e+000
      vertex   -1.334714e+002 5.205590e+001 5.000000e+000
    endloop
  endfacet
  facet normal 2.386980e-016 -1.032766e-018 1.000000e+000
    outer loop
      vertex   -5.347137e+001 9.005590e+001 3.000000e+000
      vertex   -1.574714e+002 1.330559e+002 3.000000e+000
      vertex   -1.334714e+002 9.005590e+001 3.000000e+000
    endloop
  endfacet
  facet normal 2.359224e-016 -7.745742e-018 1.000000e+000
    outer loop
      vertex   -5.347137e+001 9.005590e+001 3.000000e+000
      vertex   -2.947137e+001 1.330559e+002 3.000000e+000
      vertex   -1.574714e+002 1.330559e+002 3.000000e+000
    endloop
  endfacet
  facet normal 2.220446e-016 0.000000e+000 1.000000e+000
    outer loop
      vertex   -5.347137e+001 9.005590e+001 3.000000e+000
      vertex   -2.947137e+001 5.205590e+001 3.000000e+000
      vertex   -2.947137e+001 1.330559e+002 3.000000e+000
    endloop
  endfacet
  facet normal 2.220446e-016 0.000000e+000 1.000000e+000
    outer loop
      vertex   -5.347137e+001 9.005590e+001 3.000000e+000
      vertex   -5.347137e+001 5.205590e+001 3.000000e+000
      vertex   -2.947137e+001 5.205590e+001 3.000000e+000
    endloop
  endfacet
  facet normal 2.405483e-016 0.000000e+000 1.000000e+000
    outer loop
      vertex   -1.574714e+002 1.330559e+002 3.000000e+000
      vertex   -1.574714e+002 5.205590e+001 3.000000e+000
      vertex   -1.334714e+002 9.005590e+001 3.000000e+000
    endloop
  endfacet
  facet normal 2.405483e-016 -1.660760e-031 1.000000e+000
    outer loop
      vertex   -1.334714e+002 9.005590e+001 3.000000e+000
      vertex   -1.574714e+002 5.205590e+001 3.000000e+000
      vertex   -1.334714e+002 5.205590e+001 3.000000e+000
    endloop
  endfacet
  facet normal 0.000000e+000 -1.000000e+000 0.000000e+000
    outer loop
      vertex   -5.547137e+001 8.805590e+001 3.000000e+000
      vertex   -5.547137e+001 8.805590e+001 5.000000e+000
      vertex   -1.314714e+002 8.805590e+001 3.000000e+000
    endloop
  endfacet
  facet normal 0.000000e+000 -1.000000e+000 0.000000e+000
    outer loop
      vertex   -1.314714e+002 8.805590e+001 3.000000e+000
      vertex   -5.547137e+001 8.805590e+001 5.000000e+000
      vertex   -1.314714e+002 8.805590e+001 5.000000e+000
    endloop
  endfacet
  facet normal -4.674623e-016 1.000000e+000 0.000000e+000
    outer loop
      vertex   -1.314714e+002 5.205590e+001 3.000000e+000
      vertex   -1.314714e+002 5.205590e+001 5.000000e+000
      vertex   -5.547137e+001 5.205590e+001 3.000000e+000
    endloop
  endfacet
  facet normal -4.674623e-016 1.000000e+000 0.000000e+000
    outer loop
      vertex   -5.547137e+001 5.205590e+001 3.000000e+000
      vertex   -1.314714e+002 5.205590e+001 5.000000e+000
      vertex   -5.547137e+001 5.205590e+001 5.000000e+000
    endloop
  endfacet
  facet normal 2.337312e-016 0.000000e+000 1.000000e+000
    outer loop
      vertex   -5.547137e+001 8.805590e+001 3.000000e+000
      vertex   -1.314714e+002 8.805590e+001 3.000000e+000
      vertex   -5.547137e+001 5.205590e+001 3.000000e+000
    endloop
  endfacet
  facet normal 2.337312e-016 0.000000e+000 1.000000e+000
    outer loop
      vertex   -5.547137e+001 5.205590e+001 3.000000e+000
      vertex   -1.314714e+002 8.805590e+001 3.000000e+000
      vertex   -1.314714e+002 5.205590e+001 3.000000e+000
    endloop
  endfacet
  facet normal 1.000000e+000 3.552714e-015 0.000000e+000
    outer loop
      vertex   -2.947137e+001 1.330559e+002 5.000000e+000
      vertex   -2.947137e+001 1.330559e+002 3.000000e+000
      vertex   -2.947137e+001 1.350559e+002 5.000000e+000
    endloop
  endfacet
  facet normal 1.000000e+000 3.552714e-015 0.000000e+000
    outer loop
      vertex   -2.947137e+001 1.350559e+002 5.000000e+000
      vertex   -2.947137e+001 1.330559e+002 3.000000e+000
      vertex   -2.947137e+001 1.350559e+002 0.000000e+000
    endloop
  endfacet
  facet normal 1.000000e+000 8.359326e-017 -2.312747e-015
    outer loop
      vertex   -2.947137e+001 1.350559e+002 0.000000e+000
      vertex   -2.947137e+001 1.330559e+002 3.000000e+000
      vertex   -2.947137e+001 5.005590e+001 0.000000e+000
    endloop
  endfacet
  facet normal 1.000000e+000 0.000000e+000 0.000000e+000
    outer loop
      vertex   -2.947137e+001 5.005590e+001 0.000000e+000
      vertex   -2.947137e+001 1.330559e+002 3.000000e+000
      vertex   -2.947137e+001 5.205590e+001 3.000000e+000
    endloop
  endfacet
  facet normal 1.000000e+000 0.000000e+000 0.000000e+000
    outer loop
      vertex   -2.947137e+001 5.005590e+001 5.000000e+000
      vertex   -2.947137e+001 5.205590e+001 3.000000e+000
      vertex   -2.947137e+001 5.205590e+001 5.000000e+000
    endloop
  endfacet
  facet normal 1.000000e+000 0.000000e+000 0.000000e+000
    outer loop
      vertex   -2.947137e+001 5.005590e+001 5.000000e+000
      vertex   -2.947137e+001 5.005590e+001 0.000000e+000
      vertex   -2.947137e+001 5.205590e+001 3.000000e+000
    endloop
  endfacet
  facet normal 2.337312e-016 -8.881784e-016 1.000000e+000
    outer loop
      vertex   -5.547137e+001 5.205590e+001 5.000000e+000
      vertex   -1.314714e+002 5.205590e+001 5.000000e+000
      vertex   -5.547137e+001 5.005590e+001 5.000000e+000
    endloop
  endfacet
  facet normal 2.571043e-016 0.000000e+000 1.000000e+000
    outer loop
      vertex   -5.547137e+001 5.005590e+001 5.000000e+000
      vertex   -1.314714e+002 5.205590e+001 5.000000e+000
      vertex   -1.314714e+002 5.005590e+001 5.000000e+000
    endloop
  endfacet
  facet normal 2.220446e-016 4.440892e-016 1.000000e+000
    outer loop
      vertex   -2.947137e+001 5.205590e+001 5.000000e+000
      vertex   -5.347137e+001 5.205590e+001 5.000000e+000
      vertex   -2.947137e+001 5.005590e+001 5.000000e+000
    endloop
  endfacet
  facet normal 1.480297e-016 -4.440892e-016 1.000000e+000
    outer loop
      vertex   -2.947137e+001 5.005590e+001 5.000000e+000
      vertex   -5.347137e+001 5.205590e+001 5.000000e+000
      vertex   -5.347137e+001 5.005590e+001 5.000000e+000
    endloop
  endfacet
  facet normal 6.077010e-016 0.000000e+000 1.000000e+000
    outer loop
      vertex   -5.547137e+001 9.005590e+001 5.000000e+000
      vertex   -1.314714e+002 9.005590e+001 5.000000e+000
      vertex   -5.547137e+001 8.805590e+001 5.000000e+000
    endloop
  endfacet
  facet normal 2.337312e-016 -1.421085e-014 1.000000e+000
    outer loop
      vertex   -5.547137e+001 8.805590e+001 5.000000e+000
      vertex   -1.314714e+002 9.005590e+001 5.000000e+000
      vertex   -1.314714e+002 8.805590e+001 5.000000e+000
    endloop
  endfacet
  facet normal 2.220446e-016 0.000000e+000 1.000000e+000
    outer loop
      vertex   -1.334714e+002 5.205590e+001 5.000000e+000
      vertex   -1.574714e+002 5.205590e+001 5.000000e+000
      vertex   -1.334714e+002 5.005590e+001 5.000000e+000
    endloop
  endfacet
  facet normal 2.220446e-016 0.000000e+000 1.000000e+000
    outer loop
      vertex   -1.334714e+002 5.005590e+001 5.000000e+000
      vertex   -1.574714e+002 5.205590e+001 5.000000e+000
      vertex   -1.574714e+002 5.005590e+001 5.000000e+000
    endloop
  endfacet
  facet normal 2.359224e-016 0.000000e+000 1.000000e+000
    outer loop
      vertex   -1.574714e+002 1.330559e+002 5.000000e+000
      vertex   -2.947137e+001 1.330559e+002 5.000000e+000
      vertex   -1.574714e+002 1.350559e+002 5.000000e+000
    endloop
  endfacet
  facet normal 2.289835e-016 -4.440892e-016 1.000000e+000
    outer loop
      vertex   -1.574714e+002 1.350559e+002 5.000000e+000
      vertex   -2.947137e+001 1.330559e+002 5.000000e+000
      vertex   -2.947137e+001 1.350559e+002 5.000000e+000
    endloop
  endfacet
  facet normal 0.000000e+000 1.000000e+000 0.000000e+000
    outer loop
      vertex   -1.334714e+002 9.005590e+001 1.200000e+001
      vertex   -1.314714e+002 9.005590e+001 5.000000e+000
      vertex   -1.334714e+002 9.005590e+001 3.000000e+000
    endloop
  endfacet
  facet normal 0.000000e+000 1.000000e+000 0.000000e+000
    outer loop
      vertex   -1.334714e+002 9.005590e+001 1.200000e+001
      vertex   -1.314714e+002 9.005590e+001 1.200000e+001
      vertex   -1.314714e+002 9.005590e+001 5.000000e+000
    endloop
  endfacet
  facet normal 0.000000e+000 1.000000e+000 0.000000e+000
    outer loop
      vertex   -1.314714e+002 9.005590e+001 5.000000e+000
      vertex   -5.547137e+001 9.005590e+001 5.000000e+000
      vertex   -1.334714e+002 9.005590e+001 3.000000e+000
    endloop
  endfacet
  facet normal 0.000000e+000 1.000000e+000 0.000000e+000
    outer loop
      vertex   -1.334714e+002 9.005590e+001 3.000000e+000
      vertex   -5.547137e+001 9.005590e+001 5.000000e+000
      vertex   -5.347137e+001 9.005590e+001 3.000000e+000
    endloop
  endfacet
  facet normal 0.000000e+000 1.000000e+000 0.000000e+000
    outer loop
      vertex   -5.347137e+001 9.005590e+001 3.000000e+000
      vertex   -5.547137e+001 9.005590e+001 5.000000e+000
      vertex   -5.347137e+001 9.005590e+001 1.200000e+001
    endloop
  endfacet
  facet normal 0.000000e+000 1.000000e+000 0.000000e+000
    outer loop
      vertex   -5.347137e+001 9.005590e+001 1.200000e+001
      vertex   -5.547137e+001 9.005590e+001 5.000000e+000
      vertex   -5.547137e+001 9.005590e+001 1.200000e+001
    endloop
  endfacet
  facet normal 6.439704e-016 9.063078e-001 4.226183e-001
    outer loop
      vertex   -5.547137e+001 9.005590e+001 1.200000e+001
      vertex   -5.547137e+001 8.072975e+001 3.200000e+001
      vertex   -5.347137e+001 9.005590e+001 1.200000e+001
    endloop
  endfacet
  facet normal 0.000000e+000 9.063078e-001 4.226183e-001
    outer loop
      vertex   -5.347137e+001 9.005590e+001 1.200000e+001
      vertex   -5.547137e+001 8.072975e+001 3.200000e+001
      vertex   -5.347137e+001 8.072975e+001 3.200000e+001
    endloop
  endfacet
  facet normal 0.000000e+000 9.063078e-001 4.226183e-001
    outer loop
      vertex   -1.334714e+002 9.005590e+001 1.200000e+001
      vertex   -1.334714e+002 8.072975e+001 3.200000e+001
      vertex   -1.314714e+002 9.005590e+001 1.200000e+001
    endloop
  endfacet
  facet normal 0.000000e+000 9.063078e-001 4.226183e-001
    outer loop
      vertex   -1.314714e+002 9.005590e+001 1.200000e+001
      vertex   -1.334714e+002 8.072975e+001 3.200000e+001
      vertex   -1.314714e+002 8.072975e+001 3.200000e+001
    endloop
  endfacet
  facet normal 2.575882e-015 -9.063078e-001 4.226183e-001
    outer loop
      vertex   -1.314714e+002 5.005590e+001 1.200000e+001
      vertex   -1.314714e+002 5.938205e+001 3.200000e+001
      vertex   -1.334714e+002 5.005590e+001 1.200000e+001
    endloop
  endfacet
  facet normal 0.000000e+000 -9.063078e-001 4.226183e-001
    outer loop
      vertex   -1.334714e+002 5.005590e+001 1.200000e+001
      vertex   -1.314714e+002 5.938205e+001 3.200000e+001
      vertex   -1.334714e+002 5.938205e+001 3.200000e+001
    endloop
  endfacet
  facet normal 0.000000e+000 -9.063078e-001 4.226183e-001
    outer loop
      vertex   -5.547137e+001 5.938205e+001 3.200000e+001
      vertex   -5.547137e+001 5.005590e+001 1.200000e+001
      vertex   -5.347137e+001 5.938205e+001 3.200000e+001
    endloop
  endfacet
  facet normal 7.507208e-016 -9.063078e-001 4.226183e-001
    outer loop
      vertex   -5.347137e+001 5.938205e+001 3.200000e+001
      vertex   -5.547137e+001 5.005590e+001 1.200000e+001
      vertex   -5.347137e+001 5.005590e+001 1.200000e+001
    endloop
  endfacet
  facet normal 0.000000e+000 1.000000e+000 0.000000e+000
    outer loop
      vertex   -2.947137e+001 1.350559e+002 5.000000e+000
      vertex   -2.947137e+001 1.350559e+002 0.000000e+000
      vertex   -1.574714e+002 1.350559e+002 5.000000e+000
    endloop
  endfacet
  facet normal 0.000000e+000 1.000000e+000 0.000000e+000
    outer loop
      vertex   -1.574714e+002 1.350559e+002 5.000000e+000
      vertex   -2.947137e+001 1.350559e+002 0.000000e+000
      vertex   -1.574714e+002 1.350559e+002 0.000000e+000
    endloop
  endfacet
  facet normal 0.000000e+000 0.000000e+000 1.000000e+000
    outer loop
      vertex   -5.347137e+001 8.072975e+001 3.200000e+001
      vertex   -5.547137e+001 8.072975e+001 3.200000e+001
      vertex   -5.347137e+001 5.938205e+001 3.200000e+001
    endloop
  endfacet
  facet normal 0.000000e+000 0.000000e+000 1.000000e+000
    outer loop
      vertex   -5.347137e+001 5.938205e+001 3.200000e+001
      vertex   -5.547137e+001 8.072975e+001 3.200000e+001
      vertex   -5.547137e+001 5.938205e+001 3.200000e+001
    endloop
  endfacet
  facet normal 1.000000e+000 0.000000e+000 0.000000e+000
    outer loop
      vertex   -5.347137e+001 5.205590e+001 3.000000e+000
      vertex   -5.347137e+001 9.005590e+001 3.000000e+000
      vertex   -5.347137e+001 5.205590e+001 5.000000e+000
    endloop
  endfacet
  facet normal 1.000000e+000 0.000000e+000 0.000000e+000
    outer loop
      vertex   -5.347137e+001 5.205590e+001 5.000000e+000
      vertex   -5.347137e+001 9.005590e+001 3.000000e+000
      vertex   -5.347137e+001 9.005590e+001 1.200000e+001
    endloop
  endfacet
  facet normal 1.000000e+000 0.000000e+000 -7.105427e-016
    outer loop
      vertex   -5.347137e+001 5.005590e+001 1.200000e+001
      vertex   -5.347137e+001 9.005590e+001 1.200000e+001
      vertex   -5.347137e+001 5.938205e+001 3.200000e+001
    endloop
  endfacet
  facet normal 1.000000e+000 0.000000e+000 0.000000e+000
    outer loop
      vertex   -5.347137e+001 5.005590e+001 1.200000e+001
      vertex   -5.347137e+001 5.205590e+001 5.000000e+000
      vertex   -5.347137e+001 9.005590e+001 1.200000e+001
    endloop
  endfacet
  facet normal 1.000000e+000 0.000000e+000 0.000000e+000
    outer loop
      vertex   -5.347137e+001 5.005590e+001 1.200000e+001
      vertex   -5.347137e+001 5.005590e+001 5.000000e+000
      vertex   -5.347137e+001 5.205590e+001 5.000000e+000
    endloop
  endfacet
  facet normal 1.000000e+000 0.000000e+000 -7.105427e-016
    outer loop
      vertex   -5.347137e+001 9.005590e+001 1.200000e+001
      vertex   -5.347137e+001 8.072975e+001 3.200000e+001
      vertex   -5.347137e+001 5.938205e+001 3.200000e+001
    endloop
  endfacet
  facet normal -1.000000e+000 7.479397e-016 0.000000e+000
    outer loop
      vertex   -1.334714e+002 9.005590e+001 3.000000e+000
      vertex   -1.334714e+002 5.205590e+001 5.000000e+000
      vertex   -1.334714e+002 9.005590e+001 1.200000e+001
    endloop
  endfacet
  facet normal -1.000000e+000 7.479397e-016 0.000000e+000
    outer loop
      vertex   -1.334714e+002 9.005590e+001 3.000000e+000
      vertex   -1.334714e+002 5.205590e+001 3.000000e+000
      vertex   -1.334714e+002 5.205590e+001 5.000000e+000
    endloop
  endfacet
  facet normal -1.000000e+000 0.000000e+000 4.060244e-015
    outer loop
      vertex   -1.334714e+002 5.005590e+001 5.000000e+000
      vertex   -1.334714e+002 5.005590e+001 1.200000e+001
      vertex   -1.334714e+002 5.205590e+001 5.000000e+000
    endloop
  endfacet
  facet normal -1.000000e+000 1.803111e-031 4.060244e-015
    outer loop
      vertex   -1.334714e+002 5.205590e+001 5.000000e+000
      vertex   -1.334714e+002 5.005590e+001 1.200000e+001
      vertex   -1.334714e+002 9.005590e+001 1.200000e+001
    endloop
  endfacet
  facet normal -1.000000e+000 0.000000e+000 0.000000e+000
    outer loop
      vertex   -1.334714e+002 9.005590e+001 1.200000e+001
      vertex   -1.334714e+002 5.005590e+001 1.200000e+001
      vertex   -1.334714e+002 5.938205e+001 3.200000e+001
    endloop
  endfacet
  facet normal -1.000000e+000 0.000000e+000 0.000000e+000
    outer loop
      vertex   -1.334714e+002 8.072975e+001 3.200000e+001
      vertex   -1.334714e+002 9.005590e+001 1.200000e+001
      vertex   -1.334714e+002 5.938205e+001 3.200000e+001
    endloop
  endfacet
  facet normal -1.000000e+000 0.000000e+000 0.000000e+000
    outer loop
      vertex   -1.574714e+002 1.330559e+002 5.000000e+000
      vertex   -1.574714e+002 1.350559e+002 5.000000e+000
      vertex   -1.574714e+002 1.330559e+002 3.000000e+000
    endloop
  endfacet
  facet normal -1.000000e+000 0.000000e+000 0.000000e+000
    outer loop
      vertex   -1.574714e+002 1.330559e+002 3.000000e+000
      vertex   -1.574714e+002 1.350559e+002 5.000000e+000
      vertex   -1.574714e+002 1.350559e+002 0.000000e+000
    endloop
  endfacet
  facet normal -1.000000e+000 0.000000e+000 0.000000e+000
    outer loop
      vertex   -1.574714e+002 5.005590e+001 0.000000e+000
      vertex   -1.574714e+002 1.330559e+002 3.000000e+000
      vertex   -1.574714e+002 1.350559e+002 0.000000e+000
    endloop
  endfacet
  facet normal -1.000000e+000 0.000000e+000 0.000000e+000
    outer loop
      vertex   -1.574714e+002 5.005590e+001 0.000000e+000
      vertex   -1.574714e+002 5.205590e+001 3.000000e+000
      vertex   -1.574714e+002 1.330559e+002 3.000000e+000
    endloop
  endfacet
  facet normal -1.000000e+000 0.000000e+000 0.000000e+000
    outer loop
      vertex   -1.574714e+002 5.005590e+001 0.000000e+000
      vertex   -1.574714e+002 5.005590e+001 5.000000e+000
      vertex   -1.574714e+002 5.205590e+001 3.000000e+000
    endloop
  endfacet
  facet normal -1.000000e+000 0.000000e+000 0.000000e+000
    outer loop
      vertex   -1.574714e+002 5.205590e+001 3.000000e+000
      vertex   -1.574714e+002 5.005590e+001 5.000000e+000
      vertex   -1.574714e+002 5.205590e+001 5.000000e+000
    endloop
  endfacet
  facet normal 0.000000e+000 -1.000000e+000 0.000000e+000
    outer loop
      vertex   -5.547137e+001 5.005590e+001 1.200000e+001
      vertex   -5.547137e+001 5.005590e+001 5.000000e+000
      vertex   -5.347137e+001 5.005590e+001 1.200000e+001
    endloop
  endfacet
  facet normal 0.000000e+000 -1.000000e+000 0.000000e+000
    outer loop
      vertex   -5.347137e+001 5.005590e+001 1.200000e+001
      vertex   -5.547137e+001 5.005590e+001 5.000000e+000
      vertex   -5.347137e+001 5.005590e+001 5.000000e+000
    endloop
  endfacet
  facet normal 0.000000e+000 -1.000000e+000 0.000000e+000
    outer loop
      vertex   -5.347137e+001 5.005590e+001 5.000000e+000
      vertex   -5.547137e+001 5.005590e+001 5.000000e+000
      vertex   -2.947137e+001 5.005590e+001 0.000000e+000
    endloop
  endfacet
  facet normal 0.000000e+000 -1.000000e+000 0.000000e+000
    outer loop
      vertex   -2.947137e+001 5.005590e+001 5.000000e+000
      vertex   -5.347137e+001 5.005590e+001 5.000000e+000
      vertex   -2.947137e+001 5.005590e+001 0.000000e+000
    endloop
  endfacet
  facet normal 1.110223e-016 -1.000000e+000 5.773160e-016
    outer loop
      vertex   -2.947137e+001 5.005590e+001 0.000000e+000
      vertex   -5.547137e+001 5.005590e+001 5.000000e+000
      vertex   -1.574714e+002 5.005590e+001 0.000000e+000
    endloop
  endfacet
  facet normal 1.869849e-016 -1.000000e+000 -9.723216e-016
    outer loop
      vertex   -1.574714e+002 5.005590e+001 0.000000e+000
      vertex   -5.547137e+001 5.005590e+001 5.000000e+000
      vertex   -1.314714e+002 5.005590e+001 5.000000e+000
    endloop
  endfacet
  facet normal 0.000000e+000 -1.000000e+000 0.000000e+000
    outer loop
      vertex   -1.334714e+002 5.005590e+001 5.000000e+000
      vertex   -1.314714e+002 5.005590e+001 5.000000e+000
      vertex   -1.314714e+002 5.005590e+001 1.200000e+001
    endloop
  endfacet
  facet normal -7.105427e-015 -1.000000e+000 2.030122e-015
    outer loop
      vertex   -1.334714e+002 5.005590e+001 1.200000e+001
      vertex   -1.334714e+002 5.005590e+001 5.000000e+000
      vertex   -1.314714e+002 5.005590e+001 1.200000e+001
    endloop
  endfacet
  facet normal 0.000000e+000 -1.000000e+000 0.000000e+000
    outer loop
      vertex   -1.574714e+002 5.005590e+001 0.000000e+000
      vertex   -1.314714e+002 5.005590e+001 5.000000e+000
      vertex   -1.334714e+002 5.005590e+001 5.000000e+000
    endloop
  endfacet
  facet normal 0.000000e+000 -1.000000e+000 0.000000e+000
    outer loop
      vertex   -1.574714e+002 5.005590e+001 5.000000e+000
      vertex   -1.574714e+002 5.005590e+001 0.000000e+000
      vertex   -1.334714e+002 5.005590e+001 5.000000e+000
    endloop
  endfacet
  facet normal 1.000000e+000 -7.105427e-016 -1.752417e-015
    outer loop
      vertex   -1.314714e+002 8.072975e+001 3.200000e+001
      vertex   -1.314714e+002 5.005590e+001 1.200000e+001
      vertex   -1.314714e+002 9.005590e+001 1.200000e+001
    endloop
  endfacet
  facet normal 1.000000e+000 0.000000e+000 -2.842171e-015
    outer loop
      vertex   -1.314714e+002 8.072975e+001 3.200000e+001
      vertex   -1.314714e+002 5.938205e+001 3.200000e+001
      vertex   -1.314714e+002 5.005590e+001 1.200000e+001
    endloop
  endfacet
  facet normal 1.000000e+000 0.000000e+000 4.060244e-015
    outer loop
      vertex   -1.314714e+002 5.005590e+001 5.000000e+000
      vertex   -1.314714e+002 5.205590e+001 5.000000e+000
      vertex   -1.314714e+002 5.005590e+001 1.200000e+001
    endloop
  endfacet
  facet normal 1.000000e+000 0.000000e+000 4.060244e-015
    outer loop
      vertex   -1.314714e+002 5.005590e+001 1.200000e+001
      vertex   -1.314714e+002 5.205590e+001 5.000000e+000
      vertex   -1.314714e+002 8.805590e+001 5.000000e+000
    endloop
  endfacet
  facet normal 1.000000e+000 0.000000e+000 0.000000e+000
    outer loop
      vertex   -1.314714e+002 9.005590e+001 1.200000e+001
      vertex   -1.314714e+002 8.805590e+001 5.000000e+000
      vertex   -1.314714e+002 9.005590e+001 5.000000e+000
    endloop
  endfacet
  facet normal 1.000000e+000 -7.105427e-016 2.030122e-016
    outer loop
      vertex   -1.314714e+002 9.005590e+001 1.200000e+001
      vertex   -1.314714e+002 5.005590e+001 1.200000e+001
      vertex   -1.314714e+002 8.805590e+001 5.000000e+000
    endloop
  endfacet
  facet normal 1.000000e+000 0.000000e+000 0.000000e+000
    outer loop
      vertex   -1.314714e+002 5.205590e+001 5.000000e+000
      vertex   -1.314714e+002 5.205590e+001 3.000000e+000
      vertex   -1.314714e+002 8.805590e+001 5.000000e+000
    endloop
  endfacet
  facet normal 1.000000e+000 0.000000e+000 0.000000e+000
    outer loop
      vertex   -1.314714e+002 8.805590e+001 5.000000e+000
      vertex   -1.314714e+002 5.205590e+001 3.000000e+000
      vertex   -1.314714e+002 8.805590e+001 3.000000e+000
    endloop
  endfacet
  facet normal -1.000000e+000 0.000000e+000 0.000000e+000
    outer loop
      vertex   -5.547137e+001 9.005590e+001 5.000000e+000
      vertex   -5.547137e+001 8.805590e+001 5.000000e+000
      vertex   -5.547137e+001 9.005590e+001 1.200000e+001
    endloop
  endfacet
  facet normal -1.000000e+000 0.000000e+000 0.000000e+000
    outer loop
      vertex   -5.547137e+001 9.005590e+001 1.200000e+001
      vertex   -5.547137e+001 8.805590e+001 5.000000e+000
      vertex   -5.547137e+001 5.205590e+001 5.000000e+000
    endloop
  endfacet
  facet normal -1.000000e+000 1.803111e-030 -2.030122e-015
    outer loop
      vertex   -5.547137e+001 5.005590e+001 1.200000e+001
      vertex   -5.547137e+001 5.205590e+001 5.000000e+000
      vertex   -5.547137e+001 5.005590e+001 5.000000e+000
    endloop
  endfacet
  facet normal -1.000000e+000 3.552714e-016 -1.928616e-015
    outer loop
      vertex   -5.547137e+001 5.005590e+001 1.200000e+001
      vertex   -5.547137e+001 9.005590e+001 1.200000e+001
      vertex   -5.547137e+001 5.205590e+001 5.000000e+000
    endloop
  endfacet
  facet normal -1.000000e+000 3.552714e-016 -5.209371e-016
    outer loop
      vertex   -5.547137e+001 5.005590e+001 1.200000e+001
      vertex   -5.547137e+001 5.938205e+001 3.200000e+001
      vertex   -5.547137e+001 9.005590e+001 1.200000e+001
    endloop
  endfacet
  facet normal -1.000000e+000 0.000000e+000 -1.065814e-015
    outer loop
      vertex   -5.547137e+001 9.005590e+001 1.200000e+001
      vertex   -5.547137e+001 5.938205e+001 3.200000e+001
      vertex   -5.547137e+001 8.072975e+001 3.200000e+001
    endloop
  endfacet
  facet normal -1.000000e+000 0.000000e+000 0.000000e+000
    outer loop
      vertex   -5.547137e+001 8.805590e+001 3.000000e+000
      vertex   -5.547137e+001 5.205590e+001 3.000000e+000
      vertex   -5.547137e+001 8.805590e+001 5.000000e+000
    endloop
  endfacet
  facet normal -1.000000e+000 0.000000e+000 0.000000e+000
    outer loop
      vertex   -5.547137e+001 8.805590e+001 5.000000e+000
      vertex   -5.547137e+001 5.205590e+001 3.000000e+000
      vertex   -5.547137e+001 5.205590e+001 5.000000e+000
    endloop
  endfacet
  facet normal 0.000000e+000 0.000000e+000 1.000000e+000
    outer loop
      vertex   -1.314714e+002 8.072975e+001 3.200000e+001
      vertex   -1.334714e+002 8.072975e+001 3.200000e+001
      vertex   -1.314714e+002 5.938205e+001 3.200000e+001
    endloop
  endfacet
  facet normal 0.000000e+000 0.000000e+000 1.000000e+000
    outer loop
      vertex   -1.314714e+002 5.938205e+001 3.200000e+001
      vertex   -1.334714e+002 8.072975e+001 3.200000e+001
      vertex   -1.334714e+002 5.938205e+001 3.200000e+001
    endloop
  endfacet
  facet normal 0.000000e+000 0.000000e+000 -1.000000e+000
    outer loop
      vertex   -1.574714e+002 1.350559e+002 0.000000e+000
      vertex   -2.947137e+001 1.350559e+002 0.000000e+000
      vertex   -1.574714e+002 5.005590e+001 0.000000e+000
    endloop
  endfacet
  facet normal 0.000000e+000 0.000000e+000 -1.000000e+000
    outer loop
      vertex   -1.574714e+002 5.005590e+001 0.000000e+000
      vertex   -2.947137e+001 1.350559e+002 0.000000e+000
      vertex   -2.947137e+001 5.005590e+001 0.000000e+000
    endloop
  endfacet
endsolid
