solid ascii
  facet normal 0.000000e+000 -1.000000e+000 0.000000e+000
    outer loop
      vertex   3.047399e+001 4.295844e+001 3.512419e+001
      vertex   5.336378e+001 4.295844e+001 3.512419e+001
      vertex   2.596037e+001 4.295844e+001 5.635910e+001
    endloop
  endfacet
  facet normal 0.000000e+000 -1.000000e+000 0.000000e+000
    outer loop
      vertex   2.596037e+001 4.295844e+001 5.635910e+001
      vertex   5.336378e+001 4.295844e+001 3.512419e+001
      vertex   5.785358e+001 4.295844e+001 5.624705e+001
    endloop
  endfacet
  facet normal 0.000000e+000 -1.000000e+000 0.000000e+000
    outer loop
      vertex   3.089910e+001 4.295844e+001 9.150000e+001
      vertex   5.785358e+001 4.295844e+001 5.624705e+001
      vertex   5.289910e+001 4.295844e+001 9.150000e+001
    endloop
  endfacet
  facet normal 0.000000e+000 -1.000000e+000 0.000000e+000
    outer loop
      vertex   3.089910e+001 4.295844e+001 9.150000e+001
      vertex   2.596037e+001 4.295844e+001 5.635910e+001
      vertex   5.785358e+001 4.295844e+001 5.624705e+001
    endloop
  endfacet
  facet normal -3.104191e-016 1.480297e-016 1.000000e+000
    outer loop
      vertex   3.047399e+001 -5.041559e+000 3.512419e+001
      vertex   5.336378e+001 -5.041559e+000 3.512419e+001
      vertex   3.047399e+001 4.295844e+001 3.512419e+001
    endloop
  endfacet
  facet normal -3.104191e-016 1.480297e-016 1.000000e+000
    outer loop
      vertex   3.047399e+001 4.295844e+001 3.512419e+001
      vertex   5.336378e+001 -5.041559e+000 3.512419e+001
      vertex   5.336378e+001 4.295844e+001 3.512419e+001
    endloop
  endfacet
  facet normal 3.895108e-032 1.000000e+000 -1.254790e-016
    outer loop
      vertex   3.047399e+001 -5.041559e+000 3.512419e+001
      vertex   2.596037e+001 -5.041559e+000 5.635910e+001
      vertex   5.336378e+001 -5.041559e+000 3.512419e+001
    endloop
  endfacet
  facet normal -4.428374e-019 1.000000e+000 -1.260505e-016
    outer loop
      vertex   5.336378e+001 -5.041559e+000 3.512419e+001
      vertex   2.596037e+001 -5.041559e+000 5.635910e+001
      vertex   5.785358e+001 -5.041559e+000 5.624705e+001
    endloop
  endfacet
  facet normal -1.775017e-019 1.000000e+000 -5.052460e-017
    outer loop
      vertex   5.785358e+001 -5.041559e+000 5.624705e+001
      vertex   2.596037e+001 -5.041559e+000 5.635910e+001
      vertex   3.089910e+001 -5.041559e+000 9.150000e+001
    endloop
  endfacet
  facet normal 0.000000e+000 1.000000e+000 -5.038889e-017
    outer loop
      vertex   5.289910e+001 -5.041559e+000 9.150000e+001
      vertex   5.785358e+001 -5.041559e+000 5.624705e+001
      vertex   3.089910e+001 -5.041559e+000 9.150000e+001
    endloop
  endfacet
  facet normal -9.781476e-001 0.000000e+000 -2.079117e-001
    outer loop
      vertex   2.596037e+001 -5.041559e+000 5.635910e+001
      vertex   3.047399e+001 -5.041559e+000 3.512419e+001
      vertex   2.596037e+001 -7.041559e+000 5.635910e+001
    endloop
  endfacet
  facet normal -9.781476e-001 1.009549e-015 -2.079117e-001
    outer loop
      vertex   2.596037e+001 -7.041559e+000 5.635910e+001
      vertex   3.047399e+001 -5.041559e+000 3.512419e+001
      vertex   3.089910e+001 -7.041559e+000 3.312419e+001
    endloop
  endfacet
  facet normal -9.781476e-001 -9.928795e-016 -2.079117e-001
    outer loop
      vertex   3.089910e+001 -7.041559e+000 3.312419e+001
      vertex   3.047399e+001 -5.041559e+000 3.512419e+001
      vertex   3.089910e+001 -4.155933e-002 3.312419e+001
    endloop
  endfacet
  facet normal -9.781476e-001 0.000000e+000 -2.079117e-001
    outer loop
      vertex   3.089910e+001 -4.155933e-002 3.312419e+001
      vertex   3.047399e+001 -5.041559e+000 3.512419e+001
      vertex   3.089910e+001 3.795844e+001 3.312419e+001
    endloop
  endfacet
  facet normal -9.781476e-001 4.162035e-017 -2.079117e-001
    outer loop
      vertex   3.089910e+001 3.795844e+001 3.312419e+001
      vertex   3.047399e+001 -5.041559e+000 3.512419e+001
      vertex   3.047399e+001 4.295844e+001 3.512419e+001
    endloop
  endfacet
  facet normal -9.781476e-001 -2.019098e-015 -2.079117e-001
    outer loop
      vertex   3.089910e+001 4.495844e+001 3.312419e+001
      vertex   3.047399e+001 4.295844e+001 3.512419e+001
      vertex   2.596037e+001 4.495844e+001 5.635910e+001
    endloop
  endfacet
  facet normal -9.781476e-001 9.928795e-016 -2.079117e-001
    outer loop
      vertex   3.089910e+001 4.495844e+001 3.312419e+001
      vertex   3.089910e+001 3.795844e+001 3.312419e+001
      vertex   3.047399e+001 4.295844e+001 3.512419e+001
    endloop
  endfacet
  facet normal -9.781476e-001 0.000000e+000 -2.079117e-001
    outer loop
      vertex   3.047399e+001 4.295844e+001 3.512419e+001
      vertex   2.596037e+001 4.295844e+001 5.635910e+001
      vertex   2.596037e+001 4.495844e+001 5.635910e+001
    endloop
  endfacet
  facet normal -9.902681e-001 0.000000e+000 1.391731e-001
    outer loop
      vertex   2.596037e+001 4.295844e+001 5.635910e+001
      vertex   3.089910e+001 4.295844e+001 9.150000e+001
      vertex   2.596037e+001 4.495844e+001 5.635910e+001
    endloop
  endfacet
  facet normal -9.902681e-001 0.000000e+000 1.391731e-001
    outer loop
      vertex   2.596037e+001 4.495844e+001 5.635910e+001
      vertex   3.089910e+001 4.295844e+001 9.150000e+001
      vertex   3.089910e+001 4.495844e+001 9.150000e+001
    endloop
  endfacet
  facet normal -9.902681e-001 0.000000e+000 1.391731e-001
    outer loop
      vertex   3.089910e+001 -5.041559e+000 9.150000e+001
      vertex   2.596037e+001 -5.041559e+000 5.635910e+001
      vertex   3.089910e+001 -7.041559e+000 9.150000e+001
    endloop
  endfacet
  facet normal -9.902681e-001 0.000000e+000 1.391731e-001
    outer loop
      vertex   3.089910e+001 -7.041559e+000 9.150000e+001
      vertex   2.596037e+001 -5.041559e+000 5.635910e+001
      vertex   2.596037e+001 -7.041559e+000 5.635910e+001
    endloop
  endfacet
  facet normal 0.000000e+000 0.000000e+000 1.000000e+000
    outer loop
      vertex   3.089910e+001 4.295844e+001 9.150000e+001
      vertex   5.289910e+001 4.295844e+001 9.150000e+001
      vertex   3.089910e+001 4.495844e+001 9.150000e+001
    endloop
  endfacet
  facet normal 0.000000e+000 0.000000e+000 1.000000e+000
    outer loop
      vertex   3.089910e+001 4.495844e+001 9.150000e+001
      vertex   5.289910e+001 4.295844e+001 9.150000e+001
      vertex   5.289910e+001 4.495844e+001 9.150000e+001
    endloop
  endfacet
  facet normal 9.902681e-001 -3.193504e-015 1.391731e-001
    outer loop
      vertex   5.289910e+001 4.295844e+001 9.150000e+001
      vertex   5.785358e+001 4.295844e+001 5.624705e+001
      vertex   5.289910e+001 4.495844e+001 9.150000e+001
    endloop
  endfacet
  facet normal 9.902681e-001 0.000000e+000 1.391731e-001
    outer loop
      vertex   5.289910e+001 4.495844e+001 9.150000e+001
      vertex   5.785358e+001 4.295844e+001 5.624705e+001
      vertex   5.785358e+001 4.495844e+001 5.624705e+001
    endloop
  endfacet
  facet normal 0.000000e+000 1.000000e+000 0.000000e+000
    outer loop
      vertex   5.293867e+001 3.795844e+001 3.312419e+001
      vertex   5.289910e+001 3.795844e+001 3.293806e+001
      vertex   3.089910e+001 3.795844e+001 3.312419e+001
    endloop
  endfacet
  facet normal 0.000000e+000 1.000000e+000 0.000000e+000
    outer loop
      vertex   3.089910e+001 3.795844e+001 3.312419e+001
      vertex   5.289910e+001 3.795844e+001 3.293806e+001
      vertex   3.089910e+001 3.795844e+001 0.000000e+000
    endloop
  endfacet
  facet normal 0.000000e+000 1.000000e+000 0.000000e+000
    outer loop
      vertex   3.089910e+001 3.795844e+001 0.000000e+000
      vertex   5.289910e+001 3.795844e+001 3.293806e+001
      vertex   5.289910e+001 3.795844e+001 9.665642e-015
    endloop
  endfacet
  facet normal 6.447884e-016 0.000000e+000 -1.000000e+000
    outer loop
      vertex   5.293867e+001 3.795844e+001 3.312419e+001
      vertex   3.089910e+001 3.795844e+001 3.312419e+001
      vertex   5.293867e+001 4.495844e+001 3.312419e+001
    endloop
  endfacet
  facet normal 6.447884e-016 -6.544996e-031 -1.000000e+000
    outer loop
      vertex   5.293867e+001 4.495844e+001 3.312419e+001
      vertex   3.089910e+001 3.795844e+001 3.312419e+001
      vertex   3.089910e+001 4.495844e+001 3.312419e+001
    endloop
  endfacet
  facet normal 6.447884e-016 0.000000e+000 -1.000000e+000
    outer loop
      vertex   5.293867e+001 -7.041559e+000 3.312419e+001
      vertex   3.089910e+001 -7.041559e+000 3.312419e+001
      vertex   5.293867e+001 -4.155933e-002 3.312419e+001
    endloop
  endfacet
  facet normal 6.447884e-016 6.544996e-031 -1.000000e+000
    outer loop
      vertex   5.293867e+001 -4.155933e-002 3.312419e+001
      vertex   3.089910e+001 -7.041559e+000 3.312419e+001
      vertex   3.089910e+001 -4.155933e-002 3.312419e+001
    endloop
  endfacet
  facet normal 0.000000e+000 -1.000000e+000 0.000000e+000
    outer loop
      vertex   5.293867e+001 -4.155933e-002 3.312419e+001
      vertex   3.089910e+001 -4.155933e-002 3.312419e+001
      vertex   5.289910e+001 -4.155933e-002 3.293806e+001
    endloop
  endfacet
  facet normal 5.671399e-019 -1.000000e+000 6.703397e-017
    outer loop
      vertex   5.289910e+001 -4.155933e-002 3.293806e+001
      vertex   3.089910e+001 -4.155933e-002 3.312419e+001
      vertex   3.089910e+001 -4.155933e-002 0.000000e+000
    endloop
  endfacet
  facet normal -1.741806e-032 -1.000000e+000 6.741278e-017
    outer loop
      vertex   5.289910e+001 -4.155933e-002 8.848484e-015
      vertex   5.289910e+001 -4.155933e-002 3.293806e+001
      vertex   3.089910e+001 -4.155933e-002 0.000000e+000
    endloop
  endfacet
  facet normal 0.000000e+000 1.000000e+000 0.000000e+000
    outer loop
      vertex   3.089910e+001 4.495844e+001 3.312419e+001
      vertex   2.596037e+001 4.495844e+001 5.635910e+001
      vertex   5.293867e+001 4.495844e+001 3.312419e+001
    endloop
  endfacet
  facet normal -2.237006e-016 1.000000e+000 -2.597411e-016
    outer loop
      vertex   5.293867e+001 4.495844e+001 3.312419e+001
      vertex   2.596037e+001 4.495844e+001 5.635910e+001
      vertex   5.785358e+001 4.495844e+001 5.624705e+001
    endloop
  endfacet
  facet normal -2.226781e-016 1.000000e+000 3.129537e-017
    outer loop
      vertex   5.785358e+001 4.495844e+001 5.624705e+001
      vertex   2.596037e+001 4.495844e+001 5.635910e+001
      vertex   3.089910e+001 4.495844e+001 9.150000e+001
    endloop
  endfacet
  facet normal -3.229740e-016 1.000000e+000 -4.539103e-017
    outer loop
      vertex   5.289910e+001 4.495844e+001 9.150000e+001
      vertex   5.785358e+001 4.495844e+001 5.624705e+001
      vertex   3.089910e+001 4.495844e+001 9.150000e+001
    endloop
  endfacet
  facet normal 0.000000e+000 -1.000000e+000 0.000000e+000
    outer loop
      vertex   3.089910e+001 -7.041559e+000 3.312419e+001
      vertex   5.293867e+001 -7.041559e+000 3.312419e+001
      vertex   2.596037e+001 -7.041559e+000 5.635910e+001
    endloop
  endfacet
  facet normal 0.000000e+000 -1.000000e+000 0.000000e+000
    outer loop
      vertex   2.596037e+001 -7.041559e+000 5.635910e+001
      vertex   5.293867e+001 -7.041559e+000 3.312419e+001
      vertex   5.785358e+001 -7.041559e+000 5.624705e+001
    endloop
  endfacet
  facet normal 0.000000e+000 -1.000000e+000 0.000000e+000
    outer loop
      vertex   3.089910e+001 -7.041559e+000 9.150000e+001
      vertex   5.785358e+001 -7.041559e+000 5.624705e+001
      vertex   5.289910e+001 -7.041559e+000 9.150000e+001
    endloop
  endfacet
  facet normal 0.000000e+000 -1.000000e+000 0.000000e+000
    outer loop
      vertex   3.089910e+001 -7.041559e+000 9.150000e+001
      vertex   2.596037e+001 -7.041559e+000 5.635910e+001
      vertex   5.785358e+001 -7.041559e+000 5.624705e+001
    endloop
  endfacet
  facet normal -1.000000e+000 0.000000e+000 -4.290174e-016
    outer loop
      vertex   3.089910e+001 3.795844e+001 3.312419e+001
      vertex   3.089910e+001 3.795844e+001 0.000000e+000
      vertex   3.089910e+001 -4.155933e-002 3.312419e+001
    endloop
  endfacet
  facet normal -1.000000e+000 0.000000e+000 -4.290174e-016
    outer loop
      vertex   3.089910e+001 -4.155933e-002 3.312419e+001
      vertex   3.089910e+001 3.795844e+001 0.000000e+000
      vertex   3.089910e+001 -4.155933e-002 0.000000e+000
    endloop
  endfacet
  facet normal 4.393474e-016 0.000000e+000 -1.000000e+000
    outer loop
      vertex   3.089910e+001 3.795844e+001 0.000000e+000
      vertex   5.289910e+001 3.795844e+001 9.665642e-015
      vertex   3.089910e+001 -4.155933e-002 0.000000e+000
    endloop
  endfacet
  facet normal 4.022038e-016 2.150414e-017 -1.000000e+000
    outer loop
      vertex   3.089910e+001 -4.155933e-002 0.000000e+000
      vertex   5.289910e+001 3.795844e+001 9.665642e-015
      vertex   5.289910e+001 -4.155933e-002 8.848484e-015
    endloop
  endfacet
  facet normal 1.000000e+000 0.000000e+000 0.000000e+000
    outer loop
      vertex   5.289910e+001 3.795844e+001 9.665642e-015
      vertex   5.289910e+001 3.795844e+001 3.293806e+001
      vertex   5.289910e+001 -4.155933e-002 8.848484e-015
    endloop
  endfacet
  facet normal 1.000000e+000 0.000000e+000 0.000000e+000
    outer loop
      vertex   5.289910e+001 -4.155933e-002 8.848484e-015
      vertex   5.289910e+001 3.795844e+001 3.293806e+001
      vertex   5.289910e+001 -4.155933e-002 3.293806e+001
    endloop
  endfacet
  facet normal 9.902681e-001 0.000000e+000 1.391731e-001
    outer loop
      vertex   5.785358e+001 -5.041559e+000 5.624705e+001
      vertex   5.289910e+001 -5.041559e+000 9.150000e+001
      vertex   5.785358e+001 -7.041559e+000 5.624705e+001
    endloop
  endfacet
  facet normal 9.902681e-001 3.518139e-015 1.391731e-001
    outer loop
      vertex   5.785358e+001 -7.041559e+000 5.624705e+001
      vertex   5.289910e+001 -5.041559e+000 9.150000e+001
      vertex   5.289910e+001 -7.041559e+000 9.150000e+001
    endloop
  endfacet
  facet normal 9.781476e-001 0.000000e+000 -2.079117e-001
    outer loop
      vertex   5.785358e+001 -5.041559e+000 5.624705e+001
      vertex   5.785358e+001 -7.041559e+000 5.624705e+001
      vertex   5.336378e+001 -5.041559e+000 3.512419e+001
    endloop
  endfacet
  facet normal 9.781476e-001 -1.502876e-015 -2.079117e-001
    outer loop
      vertex   5.336378e+001 -5.041559e+000 3.512419e+001
      vertex   5.785358e+001 -7.041559e+000 5.624705e+001
      vertex   5.293867e+001 -7.041559e+000 3.312419e+001
    endloop
  endfacet
  facet normal 9.781476e-001 0.000000e+000 -2.079117e-001
    outer loop
      vertex   5.293867e+001 -4.155933e-002 3.312419e+001
      vertex   5.336378e+001 -5.041559e+000 3.512419e+001
      vertex   5.293867e+001 -7.041559e+000 3.312419e+001
    endloop
  endfacet
  facet normal 9.781476e-001 0.000000e+000 -2.079117e-001
    outer loop
      vertex   5.293867e+001 -4.155933e-002 3.312419e+001
      vertex   5.293867e+001 3.795844e+001 3.312419e+001
      vertex   5.336378e+001 -5.041559e+000 3.512419e+001
    endloop
  endfacet
  facet normal 9.781476e-001 0.000000e+000 -2.079117e-001
    outer loop
      vertex   5.293867e+001 -4.155933e-002 3.312419e+001
      vertex   5.289910e+001 -4.155933e-002 3.293806e+001
      vertex   5.293867e+001 3.795844e+001 3.312419e+001
    endloop
  endfacet
  facet normal 9.781476e-001 0.000000e+000 -2.079117e-001
    outer loop
      vertex   5.293867e+001 3.795844e+001 3.312419e+001
      vertex   5.289910e+001 -4.155933e-002 3.293806e+001
      vertex   5.289910e+001 3.795844e+001 3.293806e+001
    endloop
  endfacet
  facet normal 9.781476e-001 -3.054268e-017 -2.079117e-001
    outer loop
      vertex   5.336378e+001 -5.041559e+000 3.512419e+001
      vertex   5.293867e+001 3.795844e+001 3.312419e+001
      vertex   5.336378e+001 4.295844e+001 3.512419e+001
    endloop
  endfacet
  facet normal 9.781476e-001 0.000000e+000 -2.079117e-001
    outer loop
      vertex   5.336378e+001 4.295844e+001 3.512419e+001
      vertex   5.293867e+001 3.795844e+001 3.312419e+001
      vertex   5.293867e+001 4.495844e+001 3.312419e+001
    endloop
  endfacet
  facet normal 9.781476e-001 2.216742e-015 -2.079117e-001
    outer loop
      vertex   5.785358e+001 4.495844e+001 5.624705e+001
      vertex   5.336378e+001 4.295844e+001 3.512419e+001
      vertex   5.293867e+001 4.495844e+001 3.312419e+001
    endloop
  endfacet
  facet normal 9.781476e-001 0.000000e+000 -2.079117e-001
    outer loop
      vertex   5.785358e+001 4.495844e+001 5.624705e+001
      vertex   5.785358e+001 4.295844e+001 5.624705e+001
      vertex   5.336378e+001 4.295844e+001 3.512419e+001
    endloop
  endfacet
  facet normal 0.000000e+000 0.000000e+000 1.000000e+000
    outer loop
      vertex   5.289910e+001 -5.041559e+000 9.150000e+001
      vertex   3.089910e+001 -5.041559e+000 9.150000e+001
      vertex   5.289910e+001 -7.041559e+000 9.150000e+001
    endloop
  endfacet
  facet normal 0.000000e+000 0.000000e+000 1.000000e+000
    outer loop
      vertex   5.289910e+001 -7.041559e+000 9.150000e+001
      vertex   3.089910e+001 -5.041559e+000 9.150000e+001
      vertex   3.089910e+001 -7.041559e+000 9.150000e+001
    endloop
  endfacet
endsolid
