solid ascii
  facet normal 1.000000e+000 0.000000e+000 2.316987e-016
    outer loop
      vertex   1.339712e+001 5.537943e+001 4.600000e+001
      vertex   1.339712e+001 2.737943e+001 4.600000e+001
      vertex   1.339712e+001 5.537943e+001 -2.849490e-015
    endloop
  endfacet
  facet normal 1.000000e+000 2.585135e-017 2.474343e-016
    outer loop
      vertex   1.339712e+001 5.537943e+001 -2.849490e-015
      vertex   1.339712e+001 2.737943e+001 4.600000e+001
      vertex   1.339712e+001 1.379430e+000 2.000000e+001
    endloop
  endfacet
  facet normal 1.000000e+000 0.000000e+000 1.776357e-016
    outer loop
      vertex   1.339712e+001 1.379430e+000 -2.849490e-015
      vertex   1.339712e+001 5.537943e+001 -2.849490e-015
      vertex   1.339712e+001 1.379430e+000 2.000000e+001
    endloop
  endfacet
  facet normal -1.000000e+000 0.000000e+000 -3.552714e-016
    outer loop
      vertex   6.039712e+001 1.379430e+000 0.000000e+000
      vertex   6.039712e+001 1.379430e+000 2.000000e+001
      vertex   6.039712e+001 5.537943e+001 0.000000e+000
    endloop
  endfacet
  facet normal -1.000000e+000 2.215830e-017 -2.954440e-016
    outer loop
      vertex   6.039712e+001 5.537943e+001 0.000000e+000
      vertex   6.039712e+001 1.379430e+000 2.000000e+001
      vertex   6.039712e+001 2.737943e+001 4.600000e+001
    endloop
  endfacet
  facet normal -1.000000e+000 0.000000e+000 -3.089316e-016
    outer loop
      vertex   6.039712e+001 5.537943e+001 4.600000e+001
      vertex   6.039712e+001 5.537943e+001 0.000000e+000
      vertex   6.039712e+001 2.737943e+001 4.600000e+001
    endloop
  endfacet
  facet normal 0.000000e+000 -1.000000e+000 0.000000e+000
    outer loop
      vertex   1.339712e+001 5.537943e+001 4.600000e+001
      vertex   1.339712e+001 5.537943e+001 -2.849490e-015
      vertex   6.039712e+001 5.537943e+001 4.600000e+001
    endloop
  endfacet
  facet normal 0.000000e+000 -1.000000e+000 0.000000e+000
    outer loop
      vertex   6.039712e+001 5.537943e+001 4.600000e+001
      vertex   1.339712e+001 5.537943e+001 -2.849490e-015
      vertex   6.039712e+001 5.537943e+001 0.000000e+000
    endloop
  endfacet
  facet normal 0.000000e+000 0.000000e+000 -1.000000e+000
    outer loop
      vertex   6.039712e+001 1.379430e+000 0.000000e+000
      vertex   6.039712e+001 5.537943e+001 0.000000e+000
      vertex   6.239712e+001 1.379430e+000 0.000000e+000
    endloop
  endfacet
  facet normal 0.000000e+000 0.000000e+000 -1.000000e+000
    outer loop
      vertex   6.239712e+001 1.379430e+000 0.000000e+000
      vertex   6.039712e+001 5.537943e+001 0.000000e+000
      vertex   6.239712e+001 5.737943e+001 0.000000e+000
    endloop
  endfacet
  facet normal 6.062746e-017 -6.062746e-017 -1.000000e+000
    outer loop
      vertex   6.239712e+001 5.737943e+001 0.000000e+000
      vertex   6.039712e+001 5.537943e+001 0.000000e+000
      vertex   1.339712e+001 5.537943e+001 -2.849490e-015
    endloop
  endfacet
  facet normal -1.424745e-015 -4.507777e-031 -1.000000e+000
    outer loop
      vertex   1.139712e+001 5.737943e+001 0.000000e+000
      vertex   1.339712e+001 5.537943e+001 -2.849490e-015
      vertex   1.139712e+001 1.379430e+000 0.000000e+000
    endloop
  endfacet
  facet normal -1.984985e-031 1.424745e-015 -1.000000e+000
    outer loop
      vertex   1.139712e+001 5.737943e+001 0.000000e+000
      vertex   6.239712e+001 5.737943e+001 0.000000e+000
      vertex   1.339712e+001 5.537943e+001 -2.849490e-015
    endloop
  endfacet
  facet normal -1.424745e-015 0.000000e+000 -1.000000e+000
    outer loop
      vertex   1.339712e+001 5.537943e+001 -2.849490e-015
      vertex   1.339712e+001 1.379430e+000 -2.849490e-015
      vertex   1.139712e+001 1.379430e+000 0.000000e+000
    endloop
  endfacet
  facet normal 0.000000e+000 -1.000000e+000 0.000000e+000
    outer loop
      vertex   1.339712e+001 1.379430e+000 -2.849490e-015
      vertex   1.339712e+001 1.379430e+000 2.000000e+001
      vertex   1.139712e+001 1.379430e+000 0.000000e+000
    endloop
  endfacet
  facet normal 3.996803e-015 -1.000000e+000 -3.996803e-016
    outer loop
      vertex   1.139712e+001 1.379430e+000 0.000000e+000
      vertex   1.339712e+001 1.379430e+000 2.000000e+001
      vertex   1.139712e+001 1.379430e+000 2.000000e+001
    endloop
  endfacet
  facet normal 0.000000e+000 -7.071068e-001 7.071068e-001
    outer loop
      vertex   1.339712e+001 2.737943e+001 4.600000e+001
      vertex   1.139712e+001 2.737943e+001 4.600000e+001
      vertex   1.339712e+001 1.379430e+000 2.000000e+001
    endloop
  endfacet
  facet normal 1.545937e-015 -7.071068e-001 7.071068e-001
    outer loop
      vertex   1.339712e+001 1.379430e+000 2.000000e+001
      vertex   1.139712e+001 2.737943e+001 4.600000e+001
      vertex   1.139712e+001 1.379430e+000 2.000000e+001
    endloop
  endfacet
  facet normal 0.000000e+000 -7.071068e-001 7.071068e-001
    outer loop
      vertex   6.039712e+001 1.379430e+000 2.000000e+001
      vertex   6.239712e+001 1.379430e+000 2.000000e+001
      vertex   6.039712e+001 2.737943e+001 4.600000e+001
    endloop
  endfacet
  facet normal 1.545937e-015 -7.071068e-001 7.071068e-001
    outer loop
      vertex   6.039712e+001 2.737943e+001 4.600000e+001
      vertex   6.239712e+001 1.379430e+000 2.000000e+001
      vertex   6.239712e+001 2.737943e+001 4.600000e+001
    endloop
  endfacet
  facet normal -1.000000e+000 -3.172066e-016 -1.267812e-031
    outer loop
      vertex   1.139712e+001 1.379430e+000 0.000000e+000
      vertex   1.139712e+001 1.379430e+000 2.000000e+001
      vertex   1.139712e+001 5.737943e+001 0.000000e+000
    endloop
  endfacet
  facet normal -1.000000e+000 -3.236278e-016 -1.797932e-017
    outer loop
      vertex   1.139712e+001 5.737943e+001 0.000000e+000
      vertex   1.139712e+001 1.379430e+000 2.000000e+001
      vertex   1.139712e+001 2.737943e+001 4.600000e+001
    endloop
  endfacet
  facet normal -1.000000e+000 -2.960595e-016 0.000000e+000
    outer loop
      vertex   1.139712e+001 5.737943e+001 4.600000e+001
      vertex   1.139712e+001 5.737943e+001 0.000000e+000
      vertex   1.139712e+001 2.737943e+001 4.600000e+001
    endloop
  endfacet
  facet normal 3.552714e-015 0.000000e+000 1.000000e+000
    outer loop
      vertex   6.039712e+001 2.737943e+001 4.600000e+001
      vertex   6.239712e+001 2.737943e+001 4.600000e+001
      vertex   6.039712e+001 5.537943e+001 4.600000e+001
    endloop
  endfacet
  facet normal 3.552714e-015 1.682903e-030 1.000000e+000
    outer loop
      vertex   6.039712e+001 5.537943e+001 4.600000e+001
      vertex   6.239712e+001 2.737943e+001 4.600000e+001
      vertex   6.239712e+001 5.737943e+001 4.600000e+001
    endloop
  endfacet
  facet normal -4.949715e-031 3.552714e-015 1.000000e+000
    outer loop
      vertex   1.139712e+001 5.737943e+001 4.600000e+001
      vertex   6.039712e+001 5.537943e+001 4.600000e+001
      vertex   6.239712e+001 5.737943e+001 4.600000e+001
    endloop
  endfacet
  facet normal -1.511793e-016 -1.511793e-016 1.000000e+000
    outer loop
      vertex   1.139712e+001 5.737943e+001 4.600000e+001
      vertex   1.339712e+001 5.537943e+001 4.600000e+001
      vertex   6.039712e+001 5.537943e+001 4.600000e+001
    endloop
  endfacet
  facet normal 0.000000e+000 0.000000e+000 1.000000e+000
    outer loop
      vertex   1.139712e+001 5.737943e+001 4.600000e+001
      vertex   1.139712e+001 2.737943e+001 4.600000e+001
      vertex   1.339712e+001 5.537943e+001 4.600000e+001
    endloop
  endfacet
  facet normal 0.000000e+000 0.000000e+000 1.000000e+000
    outer loop
      vertex   1.339712e+001 5.537943e+001 4.600000e+001
      vertex   1.139712e+001 2.737943e+001 4.600000e+001
      vertex   1.339712e+001 2.737943e+001 4.600000e+001
    endloop
  endfacet
  facet normal -1.393221e-016 1.000000e+000 0.000000e+000
    outer loop
      vertex   6.239712e+001 5.737943e+001 4.600000e+001
      vertex   6.239712e+001 5.737943e+001 0.000000e+000
      vertex   1.139712e+001 5.737943e+001 4.600000e+001
    endloop
  endfacet
  facet normal -1.393221e-016 1.000000e+000 0.000000e+000
    outer loop
      vertex   1.139712e+001 5.737943e+001 4.600000e+001
      vertex   6.239712e+001 5.737943e+001 0.000000e+000
      vertex   1.139712e+001 5.737943e+001 0.000000e+000
    endloop
  endfacet
  facet normal 1.000000e+000 4.736952e-016 0.000000e+000
    outer loop
      vertex   6.239712e+001 5.737943e+001 4.600000e+001
      vertex   6.239712e+001 2.737943e+001 4.600000e+001
      vertex   6.239712e+001 5.737943e+001 0.000000e+000
    endloop
  endfacet
  facet normal 1.000000e+000 1.869849e-016 -1.869849e-016
    outer loop
      vertex   6.239712e+001 5.737943e+001 0.000000e+000
      vertex   6.239712e+001 2.737943e+001 4.600000e+001
      vertex   6.239712e+001 1.379430e+000 2.000000e+001
    endloop
  endfacet
  facet normal 1.000000e+000 2.537653e-016 0.000000e+000
    outer loop
      vertex   6.239712e+001 1.379430e+000 0.000000e+000
      vertex   6.239712e+001 5.737943e+001 0.000000e+000
      vertex   6.239712e+001 1.379430e+000 2.000000e+001
    endloop
  endfacet
  facet normal 0.000000e+000 -1.000000e+000 0.000000e+000
    outer loop
      vertex   6.039712e+001 1.379430e+000 2.000000e+001
      vertex   6.039712e+001 1.379430e+000 0.000000e+000
      vertex   6.239712e+001 1.379430e+000 2.000000e+001
    endloop
  endfacet
  facet normal 0.000000e+000 -1.000000e+000 0.000000e+000
    outer loop
      vertex   6.239712e+001 1.379430e+000 2.000000e+001
      vertex   6.039712e+001 1.379430e+000 0.000000e+000
      vertex   6.239712e+001 1.379430e+000 0.000000e+000
    endloop
  endfacet
endsolid
