solid ascii
  facet normal 1.869849e-016 -1.000000e+000 0.000000e+000
    outer loop
      vertex   2.963785e+001 -5.113939e+000 4.600000e+001
      vertex   2.963785e+001 -5.113939e+000 8.800000e+001
      vertex   2.013785e+001 -5.113939e+000 4.600000e+001
    endloop
  endfacet
  facet normal 1.869849e-016 -1.000000e+000 0.000000e+000
    outer loop
      vertex   2.013785e+001 -5.113939e+000 4.600000e+001
      vertex   2.963785e+001 -5.113939e+000 8.800000e+001
      vertex   2.013785e+001 -5.113939e+000 8.800000e+001
    endloop
  endfacet
  facet normal 0.000000e+000 -1.000000e+000 0.000000e+000
    outer loop
      vertex   -8.862154e+000 -5.113939e+000 4.600000e+001
      vertex   -8.862154e+000 -5.113939e+000 8.800000e+001
      vertex   -1.836215e+001 -5.113939e+000 4.600000e+001
    endloop
  endfacet
  facet normal 0.000000e+000 -1.000000e+000 0.000000e+000
    outer loop
      vertex   -1.836215e+001 -5.113939e+000 4.600000e+001
      vertex   -8.862154e+000 -5.113939e+000 8.800000e+001
      vertex   -1.836215e+001 -5.113939e+000 8.800000e+001
    endloop
  endfacet
  facet normal -1.000000e+000 5.609548e-016 0.000000e+000
    outer loop
      vertex   -1.836215e+001 -5.113939e+000 4.600000e+001
      vertex   -1.836215e+001 -5.113939e+000 8.800000e+001
      vertex   -1.836215e+001 1.388606e+001 4.600000e+001
    endloop
  endfacet
  facet normal -1.000000e+000 0.000000e+000 -2.537653e-016
    outer loop
      vertex   -1.836215e+001 1.388606e+001 4.600000e+001
      vertex   -1.836215e+001 -5.113939e+000 8.800000e+001
      vertex   -1.836215e+001 1.388606e+001 8.800000e+001
    endloop
  endfacet
  facet normal 0.000000e+000 0.000000e+000 1.000000e+000
    outer loop
      vertex   -1.836215e+001 -5.113939e+000 8.800000e+001
      vertex   -8.862154e+000 -5.113939e+000 8.800000e+001
      vertex   -1.836215e+001 1.388606e+001 8.800000e+001
    endloop
  endfacet
  facet normal 2.991759e-015 1.495879e-015 1.000000e+000
    outer loop
      vertex   -1.836215e+001 1.388606e+001 8.800000e+001
      vertex   -8.862154e+000 -5.113939e+000 8.800000e+001
      vertex   -8.862154e+000 1.388606e+001 8.800000e+001
    endloop
  endfacet
  facet normal 1.225074e-016 -1.000000e+000 -2.720210e-032
    outer loop
      vertex   2.013785e+001 -1.011394e+001 0.000000e+000
      vertex   2.013785e+001 -1.011394e+001 9.600000e+001
      vertex   -8.862154e+000 -1.011394e+001 0.000000e+000
    endloop
  endfacet
  facet normal 1.225074e-016 -1.000000e+000 -2.266842e-032
    outer loop
      vertex   -8.862154e+000 -1.011394e+001 0.000000e+000
      vertex   2.013785e+001 -1.011394e+001 9.600000e+001
      vertex   -8.862154e+000 -1.011394e+001 9.600000e+001
    endloop
  endfacet
  facet normal 1.000000e+000 2.220446e-016 -2.664535e-016
    outer loop
      vertex   -6.862154e+000 1.388606e+001 3.600000e+001
      vertex   -6.862154e+000 1.388606e+001 4.600000e+001
      vertex   -6.862154e+000 -6.113939e+000 3.600000e+001
    endloop
  endfacet
  facet normal 1.000000e+000 0.000000e+000 1.776357e-016
    outer loop
      vertex   -6.862154e+000 -6.113939e+000 3.600000e+001
      vertex   -6.862154e+000 1.388606e+001 4.600000e+001
      vertex   -6.862154e+000 -8.113939e+000 4.600000e+001
    endloop
  endfacet
  facet normal 1.000000e+000 -1.853590e-015 -1.930823e-016
    outer loop
      vertex   -6.862154e+000 -8.113939e+000 0.000000e+000
      vertex   -6.862154e+000 -6.113939e+000 3.600000e+001
      vertex   -6.862154e+000 -8.113939e+000 4.600000e+001
    endloop
  endfacet
  facet normal 1.000000e+000 0.000000e+000 -2.960595e-016
    outer loop
      vertex   -6.862154e+000 -8.113939e+000 0.000000e+000
      vertex   -6.862154e+000 -6.113939e+000 0.000000e+000
      vertex   -6.862154e+000 -6.113939e+000 3.600000e+001
    endloop
  endfacet
  facet normal 0.000000e+000 0.000000e+000 -1.000000e+000
    outer loop
      vertex   1.813785e+001 -8.113939e+000 4.600000e+001
      vertex   -6.862154e+000 -8.113939e+000 4.600000e+001
      vertex   1.813785e+001 1.388606e+001 4.600000e+001
    endloop
  endfacet
  facet normal 0.000000e+000 0.000000e+000 -1.000000e+000
    outer loop
      vertex   1.813785e+001 1.388606e+001 4.600000e+001
      vertex   -6.862154e+000 -8.113939e+000 4.600000e+001
      vertex   -6.862154e+000 1.388606e+001 4.600000e+001
    endloop
  endfacet
  facet normal -1.000000e+000 0.000000e+000 3.552714e-016
    outer loop
      vertex   1.813785e+001 1.388606e+001 3.600000e+001
      vertex   1.813785e+001 -6.113939e+000 3.600000e+001
      vertex   1.813785e+001 1.388606e+001 4.600000e+001
    endloop
  endfacet
  facet normal -1.000000e+000 0.000000e+000 3.552714e-016
    outer loop
      vertex   1.813785e+001 1.388606e+001 4.600000e+001
      vertex   1.813785e+001 -6.113939e+000 3.600000e+001
      vertex   1.813785e+001 -8.113939e+000 4.600000e+001
    endloop
  endfacet
  facet normal -1.000000e+000 -1.004028e-015 1.544658e-016
    outer loop
      vertex   1.813785e+001 -8.113939e+000 4.600000e+001
      vertex   1.813785e+001 -6.113939e+000 3.600000e+001
      vertex   1.813785e+001 -8.113939e+000 0.000000e+000
    endloop
  endfacet
  facet normal -1.000000e+000 0.000000e+000 9.868649e-017
    outer loop
      vertex   1.813785e+001 -8.113939e+000 0.000000e+000
      vertex   1.813785e+001 -6.113939e+000 3.600000e+001
      vertex   1.813785e+001 -6.113939e+000 0.000000e+000
    endloop
  endfacet
  facet normal 0.000000e+000 1.000000e+000 0.000000e+000
    outer loop
      vertex   1.813785e+001 -8.113939e+000 4.600000e+001
      vertex   1.813785e+001 -8.113939e+000 0.000000e+000
      vertex   -6.862154e+000 -8.113939e+000 4.600000e+001
    endloop
  endfacet
  facet normal 0.000000e+000 1.000000e+000 0.000000e+000
    outer loop
      vertex   -6.862154e+000 -8.113939e+000 4.600000e+001
      vertex   1.813785e+001 -8.113939e+000 0.000000e+000
      vertex   -6.862154e+000 -8.113939e+000 0.000000e+000
    endloop
  endfacet
  facet normal -1.000000e+000 0.000000e+000 4.440892e-016
    outer loop
      vertex   1.813785e+001 -8.113939e+000 8.800000e+001
      vertex   1.813785e+001 -8.113939e+000 9.600000e+001
      vertex   1.813785e+001 1.388606e+001 8.800000e+001
    endloop
  endfacet
  facet normal -1.000000e+000 0.000000e+000 4.440892e-016
    outer loop
      vertex   1.813785e+001 1.388606e+001 8.800000e+001
      vertex   1.813785e+001 -8.113939e+000 9.600000e+001
      vertex   1.813785e+001 1.388606e+001 9.600000e+001
    endloop
  endfacet
  facet normal 0.000000e+000 0.000000e+000 1.000000e+000
    outer loop
      vertex   -6.862154e+000 -8.113939e+000 8.800000e+001
      vertex   1.813785e+001 -8.113939e+000 8.800000e+001
      vertex   -6.862154e+000 1.388606e+001 8.800000e+001
    endloop
  endfacet
  facet normal 0.000000e+000 0.000000e+000 1.000000e+000
    outer loop
      vertex   -6.862154e+000 1.388606e+001 8.800000e+001
      vertex   1.813785e+001 -8.113939e+000 8.800000e+001
      vertex   1.813785e+001 1.388606e+001 8.800000e+001
    endloop
  endfacet
  facet normal 1.000000e+000 0.000000e+000 -5.551115e-016
    outer loop
      vertex   -6.862154e+000 -8.113939e+000 9.600000e+001
      vertex   -6.862154e+000 -8.113939e+000 8.800000e+001
      vertex   -6.862154e+000 1.388606e+001 9.600000e+001
    endloop
  endfacet
  facet normal 1.000000e+000 0.000000e+000 -5.551115e-016
    outer loop
      vertex   -6.862154e+000 1.388606e+001 9.600000e+001
      vertex   -6.862154e+000 -8.113939e+000 8.800000e+001
      vertex   -6.862154e+000 1.388606e+001 8.800000e+001
    endloop
  endfacet
  facet normal 0.000000e+000 1.000000e+000 0.000000e+000
    outer loop
      vertex   1.813785e+001 -8.113939e+000 9.600000e+001
      vertex   1.813785e+001 -8.113939e+000 8.800000e+001
      vertex   -6.862154e+000 -8.113939e+000 9.600000e+001
    endloop
  endfacet
  facet normal 0.000000e+000 1.000000e+000 0.000000e+000
    outer loop
      vertex   -6.862154e+000 -8.113939e+000 9.600000e+001
      vertex   1.813785e+001 -8.113939e+000 8.800000e+001
      vertex   -6.862154e+000 -8.113939e+000 8.800000e+001
    endloop
  endfacet
  facet normal 0.000000e+000 0.000000e+000 -1.000000e+000
    outer loop
      vertex   -6.862154e+000 -6.113939e+000 0.000000e+000
      vertex   -6.862154e+000 -8.113939e+000 0.000000e+000
      vertex   -8.862154e+000 -6.113939e+000 0.000000e+000
    endloop
  endfacet
  facet normal 0.000000e+000 0.000000e+000 -1.000000e+000
    outer loop
      vertex   -8.862154e+000 -6.113939e+000 0.000000e+000
      vertex   -6.862154e+000 -8.113939e+000 0.000000e+000
      vertex   -8.862154e+000 -1.011394e+001 0.000000e+000
    endloop
  endfacet
  facet normal 0.000000e+000 0.000000e+000 -1.000000e+000
    outer loop
      vertex   -8.862154e+000 -1.011394e+001 0.000000e+000
      vertex   -6.862154e+000 -8.113939e+000 0.000000e+000
      vertex   1.813785e+001 -8.113939e+000 0.000000e+000
    endloop
  endfacet
  facet normal 0.000000e+000 0.000000e+000 -1.000000e+000
    outer loop
      vertex   2.013785e+001 -1.011394e+001 0.000000e+000
      vertex   1.813785e+001 -8.113939e+000 0.000000e+000
      vertex   2.013785e+001 -6.113939e+000 0.000000e+000
    endloop
  endfacet
  facet normal 0.000000e+000 0.000000e+000 -1.000000e+000
    outer loop
      vertex   2.013785e+001 -1.011394e+001 0.000000e+000
      vertex   -8.862154e+000 -1.011394e+001 0.000000e+000
      vertex   1.813785e+001 -8.113939e+000 0.000000e+000
    endloop
  endfacet
  facet normal 0.000000e+000 0.000000e+000 -1.000000e+000
    outer loop
      vertex   1.813785e+001 -8.113939e+000 0.000000e+000
      vertex   1.813785e+001 -6.113939e+000 0.000000e+000
      vertex   2.013785e+001 -6.113939e+000 0.000000e+000
    endloop
  endfacet
  facet normal 0.000000e+000 0.000000e+000 -1.000000e+000
    outer loop
      vertex   1.813785e+001 1.388606e+001 3.600000e+001
      vertex   2.013785e+001 1.388606e+001 3.600000e+001
      vertex   1.813785e+001 -6.113939e+000 3.600000e+001
    endloop
  endfacet
  facet normal 0.000000e+000 0.000000e+000 -1.000000e+000
    outer loop
      vertex   1.813785e+001 -6.113939e+000 3.600000e+001
      vertex   2.013785e+001 1.388606e+001 3.600000e+001
      vertex   2.013785e+001 -6.113939e+000 3.600000e+001
    endloop
  endfacet
  facet normal 0.000000e+000 1.000000e+000 3.207311e-016
    outer loop
      vertex   1.813785e+001 -6.113939e+000 0.000000e+000
      vertex   1.813785e+001 -6.113939e+000 3.600000e+001
      vertex   2.013785e+001 -6.113939e+000 0.000000e+000
    endloop
  endfacet
  facet normal 0.000000e+000 1.000000e+000 3.207311e-016
    outer loop
      vertex   2.013785e+001 -6.113939e+000 0.000000e+000
      vertex   1.813785e+001 -6.113939e+000 3.600000e+001
      vertex   2.013785e+001 -6.113939e+000 3.600000e+001
    endloop
  endfacet
  facet normal 0.000000e+000 1.000000e+000 3.207311e-016
    outer loop
      vertex   -6.862154e+000 -6.113939e+000 3.600000e+001
      vertex   -6.862154e+000 -6.113939e+000 0.000000e+000
      vertex   -8.862154e+000 -6.113939e+000 3.600000e+001
    endloop
  endfacet
  facet normal 0.000000e+000 1.000000e+000 3.207311e-016
    outer loop
      vertex   -8.862154e+000 -6.113939e+000 3.600000e+001
      vertex   -6.862154e+000 -6.113939e+000 0.000000e+000
      vertex   -8.862154e+000 -6.113939e+000 0.000000e+000
    endloop
  endfacet
  facet normal 0.000000e+000 0.000000e+000 1.000000e+000
    outer loop
      vertex   1.813785e+001 1.388606e+001 9.600000e+001
      vertex   1.813785e+001 -8.113939e+000 9.600000e+001
      vertex   2.013785e+001 1.388606e+001 9.600000e+001
    endloop
  endfacet
  facet normal 0.000000e+000 0.000000e+000 1.000000e+000
    outer loop
      vertex   2.013785e+001 1.388606e+001 9.600000e+001
      vertex   1.813785e+001 -8.113939e+000 9.600000e+001
      vertex   2.013785e+001 -1.011394e+001 9.600000e+001
    endloop
  endfacet
  facet normal 0.000000e+000 0.000000e+000 1.000000e+000
    outer loop
      vertex   2.013785e+001 -1.011394e+001 9.600000e+001
      vertex   1.813785e+001 -8.113939e+000 9.600000e+001
      vertex   -6.862154e+000 -8.113939e+000 9.600000e+001
    endloop
  endfacet
  facet normal 0.000000e+000 0.000000e+000 1.000000e+000
    outer loop
      vertex   -8.862154e+000 -1.011394e+001 9.600000e+001
      vertex   -6.862154e+000 -8.113939e+000 9.600000e+001
      vertex   -8.862154e+000 1.388606e+001 9.600000e+001
    endloop
  endfacet
  facet normal 0.000000e+000 0.000000e+000 1.000000e+000
    outer loop
      vertex   -8.862154e+000 -1.011394e+001 9.600000e+001
      vertex   2.013785e+001 -1.011394e+001 9.600000e+001
      vertex   -6.862154e+000 -8.113939e+000 9.600000e+001
    endloop
  endfacet
  facet normal 0.000000e+000 0.000000e+000 1.000000e+000
    outer loop
      vertex   -6.862154e+000 -8.113939e+000 9.600000e+001
      vertex   -6.862154e+000 1.388606e+001 9.600000e+001
      vertex   -8.862154e+000 1.388606e+001 9.600000e+001
    endloop
  endfacet
  facet normal 0.000000e+000 0.000000e+000 1.000000e+000
    outer loop
      vertex   2.013785e+001 -5.113939e+000 8.800000e+001
      vertex   2.963785e+001 -5.113939e+000 8.800000e+001
      vertex   2.013785e+001 1.388606e+001 8.800000e+001
    endloop
  endfacet
  facet normal 0.000000e+000 0.000000e+000 1.000000e+000
    outer loop
      vertex   2.013785e+001 1.388606e+001 8.800000e+001
      vertex   2.963785e+001 -5.113939e+000 8.800000e+001
      vertex   2.963785e+001 1.388606e+001 8.800000e+001
    endloop
  endfacet
  facet normal 0.000000e+000 0.000000e+000 -1.000000e+000
    outer loop
      vertex   2.963785e+001 -5.113939e+000 4.600000e+001
      vertex   2.013785e+001 -5.113939e+000 4.600000e+001
      vertex   2.963785e+001 1.388606e+001 4.600000e+001
    endloop
  endfacet
  facet normal 0.000000e+000 0.000000e+000 -1.000000e+000
    outer loop
      vertex   2.963785e+001 1.388606e+001 4.600000e+001
      vertex   2.013785e+001 -5.113939e+000 4.600000e+001
      vertex   2.013785e+001 1.388606e+001 4.600000e+001
    endloop
  endfacet
  facet normal 1.000000e+000 -1.554312e-015 -2.220446e-016
    outer loop
      vertex   2.013785e+001 -1.011394e+001 0.000000e+000
      vertex   2.013785e+001 -6.113939e+000 3.600000e+001
      vertex   2.013785e+001 -1.011394e+001 9.600000e+001
    endloop
  endfacet
  facet normal 1.000000e+000 0.000000e+000 -3.947460e-016
    outer loop
      vertex   2.013785e+001 -1.011394e+001 0.000000e+000
      vertex   2.013785e+001 -6.113939e+000 0.000000e+000
      vertex   2.013785e+001 -6.113939e+000 3.600000e+001
    endloop
  endfacet
  facet normal 1.000000e+000 -3.552714e-015 -3.552714e-016
    outer loop
      vertex   2.013785e+001 -1.011394e+001 9.600000e+001
      vertex   2.013785e+001 -6.113939e+000 3.600000e+001
      vertex   2.013785e+001 -5.113939e+000 4.600000e+001
    endloop
  endfacet
  facet normal 1.000000e+000 0.000000e+000 0.000000e+000
    outer loop
      vertex   2.013785e+001 -5.113939e+000 8.800000e+001
      vertex   2.013785e+001 -1.011394e+001 9.600000e+001
      vertex   2.013785e+001 -5.113939e+000 4.600000e+001
    endloop
  endfacet
  facet normal 1.000000e+000 0.000000e+000 0.000000e+000
    outer loop
      vertex   2.013785e+001 -5.113939e+000 8.800000e+001
      vertex   2.013785e+001 1.388606e+001 9.600000e+001
      vertex   2.013785e+001 -1.011394e+001 9.600000e+001
    endloop
  endfacet
  facet normal 1.000000e+000 0.000000e+000 0.000000e+000
    outer loop
      vertex   2.013785e+001 -5.113939e+000 8.800000e+001
      vertex   2.013785e+001 1.388606e+001 8.800000e+001
      vertex   2.013785e+001 1.388606e+001 9.600000e+001
    endloop
  endfacet
  facet normal 1.000000e+000 0.000000e+000 -7.105427e-016
    outer loop
      vertex   2.013785e+001 1.388606e+001 4.600000e+001
      vertex   2.013785e+001 -5.113939e+000 4.600000e+001
      vertex   2.013785e+001 1.388606e+001 3.600000e+001
    endloop
  endfacet
  facet normal 1.000000e+000 0.000000e+000 -7.105427e-016
    outer loop
      vertex   2.013785e+001 1.388606e+001 3.600000e+001
      vertex   2.013785e+001 -5.113939e+000 4.600000e+001
      vertex   2.013785e+001 -6.113939e+000 3.600000e+001
    endloop
  endfacet
  facet normal 0.000000e+000 0.000000e+000 -1.000000e+000
    outer loop
      vertex   -8.862154e+000 -5.113939e+000 4.600000e+001
      vertex   -1.836215e+001 -5.113939e+000 4.600000e+001
      vertex   -8.862154e+000 1.388606e+001 4.600000e+001
    endloop
  endfacet
  facet normal 0.000000e+000 0.000000e+000 -1.000000e+000
    outer loop
      vertex   -8.862154e+000 1.388606e+001 4.600000e+001
      vertex   -1.836215e+001 -5.113939e+000 4.600000e+001
      vertex   -1.836215e+001 1.388606e+001 4.600000e+001
    endloop
  endfacet
  facet normal -1.000000e+000 0.000000e+000 -4.440892e-016
    outer loop
      vertex   -8.862154e+000 -6.113939e+000 0.000000e+000
      vertex   -8.862154e+000 -1.011394e+001 0.000000e+000
      vertex   -8.862154e+000 -6.113939e+000 3.600000e+001
    endloop
  endfacet
  facet normal -1.000000e+000 -5.495604e-015 1.665335e-016
    outer loop
      vertex   -8.862154e+000 -6.113939e+000 3.600000e+001
      vertex   -8.862154e+000 -1.011394e+001 0.000000e+000
      vertex   -8.862154e+000 -1.011394e+001 9.600000e+001
    endloop
  endfacet
  facet normal -1.000000e+000 -7.105427e-015 0.000000e+000
    outer loop
      vertex   -8.862154e+000 -5.113939e+000 4.600000e+001
      vertex   -8.862154e+000 -1.011394e+001 9.600000e+001
      vertex   -8.862154e+000 -5.113939e+000 8.800000e+001
    endloop
  endfacet
  facet normal -1.000000e+000 -5.329071e-015 1.776357e-016
    outer loop
      vertex   -8.862154e+000 -5.113939e+000 4.600000e+001
      vertex   -8.862154e+000 -6.113939e+000 3.600000e+001
      vertex   -8.862154e+000 -1.011394e+001 9.600000e+001
    endloop
  endfacet
  facet normal -1.000000e+000 8.881784e-017 -3.641532e-016
    outer loop
      vertex   -8.862154e+000 -5.113939e+000 4.600000e+001
      vertex   -8.862154e+000 1.388606e+001 3.600000e+001
      vertex   -8.862154e+000 -6.113939e+000 3.600000e+001
    endloop
  endfacet
  facet normal -1.000000e+000 0.000000e+000 -5.329071e-016
    outer loop
      vertex   -8.862154e+000 -5.113939e+000 4.600000e+001
      vertex   -8.862154e+000 1.388606e+001 4.600000e+001
      vertex   -8.862154e+000 1.388606e+001 3.600000e+001
    endloop
  endfacet
  facet normal -1.000000e+000 0.000000e+000 4.440892e-015
    outer loop
      vertex   -8.862154e+000 -1.011394e+001 9.600000e+001
      vertex   -8.862154e+000 1.388606e+001 9.600000e+001
      vertex   -8.862154e+000 -5.113939e+000 8.800000e+001
    endloop
  endfacet
  facet normal -1.000000e+000 1.869849e-015 0.000000e+000
    outer loop
      vertex   -8.862154e+000 -5.113939e+000 8.800000e+001
      vertex   -8.862154e+000 1.388606e+001 9.600000e+001
      vertex   -8.862154e+000 1.388606e+001 8.800000e+001
    endloop
  endfacet
  facet normal 1.000000e+000 0.000000e+000 0.000000e+000
    outer loop
      vertex   2.963785e+001 -5.113939e+000 8.800000e+001
      vertex   2.963785e+001 -5.113939e+000 4.600000e+001
      vertex   2.963785e+001 1.388606e+001 8.800000e+001
    endloop
  endfacet
  facet normal 1.000000e+000 0.000000e+000 0.000000e+000
    outer loop
      vertex   2.963785e+001 1.388606e+001 8.800000e+001
      vertex   2.963785e+001 -5.113939e+000 4.600000e+001
      vertex   2.963785e+001 1.388606e+001 4.600000e+001
    endloop
  endfacet
  facet normal 0.000000e+000 0.000000e+000 -1.000000e+000
    outer loop
      vertex   -6.862154e+000 -6.113939e+000 3.600000e+001
      vertex   -8.862154e+000 -6.113939e+000 3.600000e+001
      vertex   -6.862154e+000 1.388606e+001 3.600000e+001
    endloop
  endfacet
  facet normal 0.000000e+000 0.000000e+000 -1.000000e+000
    outer loop
      vertex   -6.862154e+000 1.388606e+001 3.600000e+001
      vertex   -8.862154e+000 -6.113939e+000 3.600000e+001
      vertex   -8.862154e+000 1.388606e+001 3.600000e+001
    endloop
  endfacet
  facet normal 0.000000e+000 1.000000e+000 0.000000e+000
    outer loop
      vertex   -6.862154e+000 1.388606e+001 3.600000e+001
      vertex   -8.862154e+000 1.388606e+001 3.600000e+001
      vertex   -6.862154e+000 1.388606e+001 4.600000e+001
    endloop
  endfacet
  facet normal 0.000000e+000 1.000000e+000 0.000000e+000
    outer loop
      vertex   -6.862154e+000 1.388606e+001 4.600000e+001
      vertex   -8.862154e+000 1.388606e+001 3.600000e+001
      vertex   -8.862154e+000 1.388606e+001 4.600000e+001
    endloop
  endfacet
  facet normal 0.000000e+000 1.000000e+000 0.000000e+000
    outer loop
      vertex   -8.862154e+000 1.388606e+001 8.800000e+001
      vertex   -8.862154e+000 1.388606e+001 4.600000e+001
      vertex   -1.836215e+001 1.388606e+001 8.800000e+001
    endloop
  endfacet
  facet normal 0.000000e+000 1.000000e+000 0.000000e+000
    outer loop
      vertex   -8.862154e+000 1.388606e+001 8.800000e+001
      vertex   -6.862154e+000 1.388606e+001 4.600000e+001
      vertex   -8.862154e+000 1.388606e+001 4.600000e+001
    endloop
  endfacet
  facet normal 0.000000e+000 1.000000e+000 0.000000e+000
    outer loop
      vertex   -8.862154e+000 1.388606e+001 8.800000e+001
      vertex   -6.862154e+000 1.388606e+001 8.800000e+001
      vertex   -6.862154e+000 1.388606e+001 4.600000e+001
    endloop
  endfacet
  facet normal 0.000000e+000 1.000000e+000 0.000000e+000
    outer loop
      vertex   -8.862154e+000 1.388606e+001 8.800000e+001
      vertex   -8.862154e+000 1.388606e+001 9.600000e+001
      vertex   -6.862154e+000 1.388606e+001 8.800000e+001
    endloop
  endfacet
  facet normal 0.000000e+000 1.000000e+000 0.000000e+000
    outer loop
      vertex   -6.862154e+000 1.388606e+001 8.800000e+001
      vertex   -8.862154e+000 1.388606e+001 9.600000e+001
      vertex   -6.862154e+000 1.388606e+001 9.600000e+001
    endloop
  endfacet
  facet normal 0.000000e+000 1.000000e+000 0.000000e+000
    outer loop
      vertex   -8.862154e+000 1.388606e+001 4.600000e+001
      vertex   -1.836215e+001 1.388606e+001 4.600000e+001
      vertex   -1.836215e+001 1.388606e+001 8.800000e+001
    endloop
  endfacet
  facet normal 0.000000e+000 1.000000e+000 0.000000e+000
    outer loop
      vertex   -6.862154e+000 1.388606e+001 4.600000e+001
      vertex   -6.862154e+000 1.388606e+001 8.800000e+001
      vertex   1.813785e+001 1.388606e+001 4.600000e+001
    endloop
  endfacet
  facet normal 0.000000e+000 1.000000e+000 0.000000e+000
    outer loop
      vertex   1.813785e+001 1.388606e+001 4.600000e+001
      vertex   -6.862154e+000 1.388606e+001 8.800000e+001
      vertex   1.813785e+001 1.388606e+001 8.800000e+001
    endloop
  endfacet
  facet normal 0.000000e+000 1.000000e+000 0.000000e+000
    outer loop
      vertex   2.013785e+001 1.388606e+001 4.600000e+001
      vertex   1.813785e+001 1.388606e+001 8.800000e+001
      vertex   2.013785e+001 1.388606e+001 8.800000e+001
    endloop
  endfacet
  facet normal 0.000000e+000 1.000000e+000 0.000000e+000
    outer loop
      vertex   2.963785e+001 1.388606e+001 4.600000e+001
      vertex   2.013785e+001 1.388606e+001 8.800000e+001
      vertex   2.963785e+001 1.388606e+001 8.800000e+001
    endloop
  endfacet
  facet normal 0.000000e+000 1.000000e+000 0.000000e+000
    outer loop
      vertex   2.963785e+001 1.388606e+001 4.600000e+001
      vertex   2.013785e+001 1.388606e+001 4.600000e+001
      vertex   2.013785e+001 1.388606e+001 8.800000e+001
    endloop
  endfacet
  facet normal 0.000000e+000 1.000000e+000 0.000000e+000
    outer loop
      vertex   1.813785e+001 1.388606e+001 8.800000e+001
      vertex   1.813785e+001 1.388606e+001 9.600000e+001
      vertex   2.013785e+001 1.388606e+001 8.800000e+001
    endloop
  endfacet
  facet normal 0.000000e+000 1.000000e+000 0.000000e+000
    outer loop
      vertex   2.013785e+001 1.388606e+001 8.800000e+001
      vertex   1.813785e+001 1.388606e+001 9.600000e+001
      vertex   2.013785e+001 1.388606e+001 9.600000e+001
    endloop
  endfacet
  facet normal 0.000000e+000 1.000000e+000 0.000000e+000
    outer loop
      vertex   2.013785e+001 1.388606e+001 3.600000e+001
      vertex   1.813785e+001 1.388606e+001 3.600000e+001
      vertex   2.013785e+001 1.388606e+001 4.600000e+001
    endloop
  endfacet
  facet normal 0.000000e+000 1.000000e+000 0.000000e+000
    outer loop
      vertex   2.013785e+001 1.388606e+001 4.600000e+001
      vertex   1.813785e+001 1.388606e+001 3.600000e+001
      vertex   1.813785e+001 1.388606e+001 4.600000e+001
    endloop
  endfacet
  facet normal 0.000000e+000 1.000000e+000 0.000000e+000
    outer loop
      vertex   1.813785e+001 1.388606e+001 8.800000e+001
      vertex   2.013785e+001 1.388606e+001 4.600000e+001
      vertex   1.813785e+001 1.388606e+001 4.600000e+001
    endloop
  endfacet
endsolid
