solid ascii
  facet normal -1.000000e+000 0.000000e+000 3.861645e-016
    outer loop
      vertex   3.196728e+001 -1.120539e+001 4.600000e+001
      vertex   3.196728e+001 1.679461e+001 4.600000e+001
      vertex   3.196728e+001 -1.120539e+001 0.000000e+000
    endloop
  endfacet
  facet normal -1.000000e+000 -1.477220e-017 3.951563e-016
    outer loop
      vertex   3.196728e+001 -1.120539e+001 0.000000e+000
      vertex   3.196728e+001 1.679461e+001 4.600000e+001
      vertex   3.196728e+001 4.279461e+001 2.000000e+001
    endloop
  endfacet
  facet normal -1.000000e+000 0.000000e+000 3.552714e-016
    outer loop
      vertex   3.196728e+001 4.279461e+001 0.000000e+000
      vertex   3.196728e+001 -1.120539e+001 0.000000e+000
      vertex   3.196728e+001 4.279461e+001 2.000000e+001
    endloop
  endfacet
  facet normal 1.000000e+000 0.000000e+000 -4.440892e-016
    outer loop
      vertex   -1.503272e+001 4.279461e+001 3.107571e-015
      vertex   -1.503272e+001 4.279461e+001 2.000000e+001
      vertex   -1.503272e+001 -1.120539e+001 3.107571e-015
    endloop
  endfacet
  facet normal 1.000000e+000 2.769787e-017 -5.188735e-016
    outer loop
      vertex   -1.503272e+001 -1.120539e+001 3.107571e-015
      vertex   -1.503272e+001 4.279461e+001 2.000000e+001
      vertex   -1.503272e+001 1.679461e+001 4.600000e+001
    endloop
  endfacet
  facet normal 1.000000e+000 0.000000e+000 -5.020139e-016
    outer loop
      vertex   -1.503272e+001 -1.120539e+001 4.600000e+001
      vertex   -1.503272e+001 -1.120539e+001 3.107571e-015
      vertex   -1.503272e+001 1.679461e+001 4.600000e+001
    endloop
  endfacet
  facet normal 0.000000e+000 1.000000e+000 0.000000e+000
    outer loop
      vertex   3.196728e+001 -1.120539e+001 4.600000e+001
      vertex   3.196728e+001 -1.120539e+001 0.000000e+000
      vertex   -1.503272e+001 -1.120539e+001 4.600000e+001
    endloop
  endfacet
  facet normal 0.000000e+000 1.000000e+000 0.000000e+000
    outer loop
      vertex   -1.503272e+001 -1.120539e+001 4.600000e+001
      vertex   3.196728e+001 -1.120539e+001 0.000000e+000
      vertex   -1.503272e+001 -1.120539e+001 3.107571e-015
    endloop
  endfacet
  facet normal -3.552714e-015 0.000000e+000 1.000000e+000
    outer loop
      vertex   3.196728e+001 1.679461e+001 4.600000e+001
      vertex   3.196728e+001 -1.120539e+001 4.600000e+001
      vertex   3.396728e+001 1.679461e+001 4.600000e+001
    endloop
  endfacet
  facet normal -3.552714e-015 -8.414516e-031 1.000000e+000
    outer loop
      vertex   3.396728e+001 1.679461e+001 4.600000e+001
      vertex   3.196728e+001 -1.120539e+001 4.600000e+001
      vertex   3.396728e+001 -1.320539e+001 4.600000e+001
    endloop
  endfacet
  facet normal 1.511793e-016 3.703893e-015 1.000000e+000
    outer loop
      vertex   3.396728e+001 -1.320539e+001 4.600000e+001
      vertex   3.196728e+001 -1.120539e+001 4.600000e+001
      vertex   -1.503272e+001 -1.120539e+001 4.600000e+001
    endloop
  endfacet
  facet normal 0.000000e+000 0.000000e+000 1.000000e+000
    outer loop
      vertex   -1.703272e+001 -1.320539e+001 4.600000e+001
      vertex   -1.503272e+001 -1.120539e+001 4.600000e+001
      vertex   -1.703272e+001 1.679461e+001 4.600000e+001
    endloop
  endfacet
  facet normal 0.000000e+000 0.000000e+000 1.000000e+000
    outer loop
      vertex   -1.703272e+001 -1.320539e+001 4.600000e+001
      vertex   3.396728e+001 -1.320539e+001 4.600000e+001
      vertex   -1.503272e+001 -1.120539e+001 4.600000e+001
    endloop
  endfacet
  facet normal 0.000000e+000 0.000000e+000 1.000000e+000
    outer loop
      vertex   -1.503272e+001 -1.120539e+001 4.600000e+001
      vertex   -1.503272e+001 1.679461e+001 4.600000e+001
      vertex   -1.703272e+001 1.679461e+001 4.600000e+001
    endloop
  endfacet
  facet normal -3.552714e-015 1.000000e+000 1.577722e-030
    outer loop
      vertex   -1.503272e+001 4.279461e+001 2.000000e+001
      vertex   -1.503272e+001 4.279461e+001 3.107571e-015
      vertex   -1.703272e+001 4.279461e+001 2.000000e+001
    endloop
  endfacet
  facet normal -5.520155e-031 1.000000e+000 3.552714e-016
    outer loop
      vertex   -1.703272e+001 4.279461e+001 2.000000e+001
      vertex   -1.503272e+001 4.279461e+001 3.107571e-015
      vertex   -1.703272e+001 4.279461e+001 0.000000e+000
    endloop
  endfacet
  facet normal 0.000000e+000 1.000000e+000 0.000000e+000
    outer loop
      vertex   3.196728e+001 4.279461e+001 0.000000e+000
      vertex   3.196728e+001 4.279461e+001 2.000000e+001
      vertex   3.396728e+001 4.279461e+001 0.000000e+000
    endloop
  endfacet
  facet normal 0.000000e+000 1.000000e+000 0.000000e+000
    outer loop
      vertex   3.396728e+001 4.279461e+001 0.000000e+000
      vertex   3.196728e+001 4.279461e+001 2.000000e+001
      vertex   3.396728e+001 4.279461e+001 2.000000e+001
    endloop
  endfacet
  facet normal -1.256074e-015 7.071068e-001 7.071068e-001
    outer loop
      vertex   -1.503272e+001 4.279461e+001 2.000000e+001
      vertex   -1.703272e+001 4.279461e+001 2.000000e+001
      vertex   -1.503272e+001 1.679461e+001 4.600000e+001
    endloop
  endfacet
  facet normal 1.545937e-015 7.071068e-001 7.071068e-001
    outer loop
      vertex   -1.503272e+001 1.679461e+001 4.600000e+001
      vertex   -1.703272e+001 4.279461e+001 2.000000e+001
      vertex   -1.703272e+001 1.679461e+001 4.600000e+001
    endloop
  endfacet
  facet normal -6.865340e-031 7.071068e-001 7.071068e-001
    outer loop
      vertex   3.196728e+001 1.679461e+001 4.600000e+001
      vertex   3.396728e+001 1.679461e+001 4.600000e+001
      vertex   3.196728e+001 4.279461e+001 2.000000e+001
    endloop
  endfacet
  facet normal 0.000000e+000 7.071068e-001 7.071068e-001
    outer loop
      vertex   3.196728e+001 4.279461e+001 2.000000e+001
      vertex   3.396728e+001 1.679461e+001 4.600000e+001
      vertex   3.396728e+001 4.279461e+001 2.000000e+001
    endloop
  endfacet
  facet normal 1.000000e+000 1.268826e-016 0.000000e+000
    outer loop
      vertex   3.396728e+001 4.279461e+001 0.000000e+000
      vertex   3.396728e+001 4.279461e+001 2.000000e+001
      vertex   3.396728e+001 -1.320539e+001 0.000000e+000
    endloop
  endfacet
  facet normal 1.000000e+000 9.349247e-017 9.349247e-017
    outer loop
      vertex   3.396728e+001 -1.320539e+001 0.000000e+000
      vertex   3.396728e+001 4.279461e+001 2.000000e+001
      vertex   3.396728e+001 1.679461e+001 4.600000e+001
    endloop
  endfacet
  facet normal 1.000000e+000 2.368476e-016 0.000000e+000
    outer loop
      vertex   3.396728e+001 -1.320539e+001 4.600000e+001
      vertex   3.396728e+001 -1.320539e+001 0.000000e+000
      vertex   3.396728e+001 1.679461e+001 4.600000e+001
    endloop
  endfacet
  facet normal -1.000000e+000 -1.184238e-016 0.000000e+000
    outer loop
      vertex   -1.703272e+001 -1.320539e+001 4.600000e+001
      vertex   -1.703272e+001 1.679461e+001 4.600000e+001
      vertex   -1.703272e+001 -1.320539e+001 0.000000e+000
    endloop
  endfacet
  facet normal -1.000000e+000 -4.674623e-017 -4.674623e-017
    outer loop
      vertex   -1.703272e+001 -1.320539e+001 0.000000e+000
      vertex   -1.703272e+001 1.679461e+001 4.600000e+001
      vertex   -1.703272e+001 4.279461e+001 2.000000e+001
    endloop
  endfacet
  facet normal -1.000000e+000 -6.344132e-017 -2.253888e-032
    outer loop
      vertex   -1.703272e+001 4.279461e+001 0.000000e+000
      vertex   -1.703272e+001 -1.320539e+001 0.000000e+000
      vertex   -1.703272e+001 4.279461e+001 2.000000e+001
    endloop
  endfacet
  facet normal 0.000000e+000 -1.000000e+000 0.000000e+000
    outer loop
      vertex   -1.703272e+001 -1.320539e+001 4.600000e+001
      vertex   -1.703272e+001 -1.320539e+001 0.000000e+000
      vertex   3.396728e+001 -1.320539e+001 4.600000e+001
    endloop
  endfacet
  facet normal 0.000000e+000 -1.000000e+000 0.000000e+000
    outer loop
      vertex   3.396728e+001 -1.320539e+001 4.600000e+001
      vertex   -1.703272e+001 -1.320539e+001 0.000000e+000
      vertex   3.396728e+001 -1.320539e+001 0.000000e+000
    endloop
  endfacet
  facet normal 0.000000e+000 0.000000e+000 -1.000000e+000
    outer loop
      vertex   3.196728e+001 4.279461e+001 0.000000e+000
      vertex   3.396728e+001 4.279461e+001 0.000000e+000
      vertex   3.196728e+001 -1.120539e+001 0.000000e+000
    endloop
  endfacet
  facet normal 0.000000e+000 0.000000e+000 -1.000000e+000
    outer loop
      vertex   3.196728e+001 -1.120539e+001 0.000000e+000
      vertex   3.396728e+001 4.279461e+001 0.000000e+000
      vertex   3.396728e+001 -1.320539e+001 0.000000e+000
    endloop
  endfacet
  facet normal 0.000000e+000 0.000000e+000 -1.000000e+000
    outer loop
      vertex   -1.703272e+001 -1.320539e+001 0.000000e+000
      vertex   3.196728e+001 -1.120539e+001 0.000000e+000
      vertex   3.396728e+001 -1.320539e+001 0.000000e+000
    endloop
  endfacet
  facet normal -6.611853e-017 1.619904e-015 -1.000000e+000
    outer loop
      vertex   -1.703272e+001 -1.320539e+001 0.000000e+000
      vertex   -1.503272e+001 -1.120539e+001 3.107571e-015
      vertex   3.196728e+001 -1.120539e+001 0.000000e+000
    endloop
  endfacet
  facet normal 1.553786e-015 9.857420e-032 -1.000000e+000
    outer loop
      vertex   -1.703272e+001 -1.320539e+001 0.000000e+000
      vertex   -1.703272e+001 4.279461e+001 0.000000e+000
      vertex   -1.503272e+001 -1.120539e+001 3.107571e-015
    endloop
  endfacet
  facet normal 1.553786e-015 0.000000e+000 -1.000000e+000
    outer loop
      vertex   -1.503272e+001 -1.120539e+001 3.107571e-015
      vertex   -1.703272e+001 4.279461e+001 0.000000e+000
      vertex   -1.503272e+001 4.279461e+001 3.107571e-015
    endloop
  endfacet
endsolid
